<svg xmlns="http://www.w3.org/2000/svg" width="51.486" height="51.486" viewBox="0 0 51.486 51.486">
  <defs>
    <style>
      .cls-1 {
        fill: #fff;
      }
    </style>
  </defs>
  <g id="Group_1905" data-name="Group 1905" transform="translate(-1571.275 -8007.007)">
    <path id="Subtraction_3" data-name="Subtraction 3" class="cls-1" d="M25.743,51.486a25.662,25.662,0,1,1,10.029-2.02A25.772,25.772,0,0,1,25.743,51.486Zm-6.79-31.118a.408.408,0,0,0-.377.377v4.527a.408.408,0,0,0,.377.377h2.735V40.831a.409.409,0,0,0,.377.378h5.564a.4.4,0,0,0,.377-.378V25.649h4.055a.4.4,0,0,0,.377-.377l.378-4.527a.409.409,0,0,0-.378-.377H28.006v-3.3a1.452,1.452,0,0,1,1.415-1.415h3.112a.408.408,0,0,0,.377-.377V10.75a.408.408,0,0,0-.377-.377H27.346a5.5,5.5,0,0,0-5.564,5.564v4.432Z" transform="translate(1571.275 8007.007)"/>
  </g>
</svg>
