<svg xmlns="http://www.w3.org/2000/svg" width="51.109" height="51.109" viewBox="0 0 51.109 51.109">
  <defs>
    <style>
      .cls-1 {
        fill: #fff;
      }
    </style>
  </defs>
  <g id="Group_1903" data-name="Group 1903" transform="translate(-1424.265 -8006.818)">
    <g id="Group_569" data-name="Group 569" transform="translate(1424.265 8006.818)">
      <path id="Path_2082" data-name="Path 2082" class="cls-1" d="M721.555,254.809a25.555,25.555,0,1,1,25.555-25.555A25.575,25.575,0,0,1,721.555,254.809Zm8.675-36.022a1.886,1.886,0,1,0,1.886,1.886A1.891,1.891,0,0,0,730.23,218.788Zm-8.487,2.452a7.921,7.921,0,1,0,7.921,7.921A7.848,7.848,0,0,0,721.743,221.239Zm0,13.013a5.092,5.092,0,1,1,5.092-5.092A5.071,5.071,0,0,1,721.743,234.253Zm16.031-11.693a9.7,9.7,0,0,0-9.713-9.713H715.237a9.7,9.7,0,0,0-9.713,9.713v12.825a9.7,9.7,0,0,0,9.713,9.713h12.824a9.7,9.7,0,0,0,9.713-9.713Zm-3.018,12.825a6.721,6.721,0,0,1-6.7,6.7H715.237a6.721,6.721,0,0,1-6.7-6.7V222.56a6.721,6.721,0,0,1,6.7-6.7h12.824a6.721,6.721,0,0,1,6.7,6.7Z" transform="translate(-696 -203.7)"/>
    </g>
  </g>
</svg>
