<svg xmlns="http://www.w3.org/2000/svg" width="51.298" height="51.298" viewBox="0 0 51.298 51.298">
  <defs>
    <style>
      .cls-1 {
        fill: #fff;
      }
    </style>
  </defs>
  <g id="Group_1907" data-name="Group 1907" transform="translate(-1718.474 -8007.291)">
    <path id="Subtraction_2" data-name="Subtraction 2" class="cls-1" d="M25.649,51.3A25.649,25.649,0,1,1,51.3,25.648a25.075,25.075,0,0,1-1.956,9.92A25.7,25.7,0,0,1,25.649,51.3Zm5.657-27.063c1.912,0,2.923,1.37,2.923,3.961v8.959a.446.446,0,0,0,.472.471h5a.446.446,0,0,0,.471-.471V27.535c0-4.974-2.509-7.827-6.884-7.827a5.757,5.757,0,0,0-5.28,2.923V20.557a.447.447,0,0,0-.472-.472h-4.9a.446.446,0,0,0-.471.472c.071,2.052.035,9.157.013,13.4-.007,1.457-.013,2.607-.013,3.195a.446.446,0,0,0,.471.471h5a.446.446,0,0,0,.472-.471V27.818a3.3,3.3,0,0,1,3.206-3.584ZM13.862,20.085a.447.447,0,0,0-.472.472v16.6a.431.431,0,0,0,.472.377h5a.447.447,0,0,0,.472-.472v-16.5a.447.447,0,0,0-.472-.472Zm2.263-8.393A3.112,3.112,0,1,0,19.237,14.8,3.115,3.115,0,0,0,16.125,11.693Z" transform="translate(1718.474 8007.291)"/>
  </g>
</svg>
