<svg xmlns="http://www.w3.org/2000/svg" width="201.669" height="62.458" viewBox="0 0 201.669 62.458"><defs><style>.a,.b{fill:#f5f5fb;}.b{fill-rule:evenodd;}</style></defs><g transform="translate(-91.681 -50.924)"><g transform="translate(91.681 50.924)"><g transform="translate(0)"><path class="a" d="M1562.464,183h-2.305l-2.2-5.072h-6.49L1549.305,183H1547l6.7-15.748h2.093Zm-5.32-7.094-2.376-5.746-2.447,5.746Zm14.471-6.632h-6.1v4.788h5.852v1.986h-5.852V183h-2.093V167.248h8.193ZM1584.063,183h-2.66l-5.568-7.484h1.88a5.594,5.594,0,0,0,2.838-.674,2.626,2.626,0,0,0,1.312-2.412,2.83,2.83,0,0,0-1.206-2.376,4.444,4.444,0,0,0-2.66-.78h-2.7V183h-2.093V167.248h4.327c2.447,0,4.185.6,5.214,1.738a5.194,5.194,0,0,1,.106,6.526,4.272,4.272,0,0,1-3.015,1.773Zm3.511,0h-2.093V167.248h2.093Zm17.379-4.575c-1.844,3.192-4.327,4.824-7.413,4.824a7.851,7.851,0,0,1-5.6-2.234,7.573,7.573,0,0,1-2.518-5.923,5.926,5.926,0,0,1,.071-1.1,7.34,7.34,0,0,1,2.731-5.107,8.168,8.168,0,0,1,5.285-1.88c3.156,0,5.6,1.6,7.342,4.753h-2.306a6.891,6.891,0,0,0-2.27-1.986,6.236,6.236,0,0,0-6.881,1.029,6,6,0,0,0,0,8.725,5.842,5.842,0,0,0,4.15,1.632,5.99,5.99,0,0,0,5.036-2.731ZM1620.488,183h-2.305l-2.2-5.072h-6.49L1607.33,183h-2.306l6.7-15.748h2.093Zm-5.32-7.094-2.376-5.746-2.447,5.746Zm-59.124,13.442h-3.4v13.761h-2.093V189.344h-3.44v-1.951h8.938Zm11.917,13.761h-2.7l-5.568-7.484h1.88a5.512,5.512,0,0,0,2.837-.638,2.682,2.682,0,0,0,1.312-2.447,2.788,2.788,0,0,0-1.206-2.376,4.587,4.587,0,0,0-2.625-.78h-2.731v13.726h-2.093V187.394h4.327c2.447,0,4.185.567,5.249,1.738a4.777,4.777,0,0,1,1.171,3.228,4.942,4.942,0,0,1-1.064,3.263,4.343,4.343,0,0,1-3.05,1.773Zm15.393,0h-2.305l-2.2-5.072h-6.49l-2.164,5.072h-2.305l6.7-15.712h2.057Zm-5.32-7.093-2.412-5.71-2.412,5.71Zm8.37,7.093h-2.093V187.394h2.093Zm14.967,0h-1.915l-8.477-12.626v12.626h-2.093V187.394h2.483l7.909,11.811V187.394h2.093Zm18.23-7.7a7.4,7.4,0,0,1-2.7,5.852,8.43,8.43,0,0,1-5.675,2.128,7.613,7.613,0,0,1-5.5-2.27,8.006,8.006,0,0,1-2.518-5.994,7.651,7.651,0,0,1,2.27-5.462,7.808,7.808,0,0,1,5.852-2.518,7.969,7.969,0,0,1,5.888,2.376A8.082,8.082,0,0,1,1619.6,195.409Zm-2.093-.035a6.053,6.053,0,0,0-1.773-4.362,5.923,5.923,0,0,0-4.327-1.809,5.851,5.851,0,0,0-4.185,1.738,5.379,5.379,0,0,0-1.88,4.079,5.889,5.889,0,0,0,5.994,6.242,6.5,6.5,0,0,0,4.043-1.312A5.464,5.464,0,0,0,1617.509,195.374Zm17.166-7.98-6.491,15.712h-1.844l-6.42-15.712h2.341l5.036,12.662,5.036-12.662Zm14.9,15.712h-2.305l-2.2-5.072h-6.491l-2.163,5.072h-2.305l6.7-15.712h2.093Zm-5.32-7.093-2.376-5.71-2.447,5.71Zm13.868-6.668h-3.4v13.761h-2.093V189.344h-3.44v-1.951h8.938Zm3.121,13.761h-2.093V187.394h2.093Zm18.266-7.7a7.429,7.429,0,0,1-2.731,5.852,8.43,8.43,0,0,1-5.675,2.128,7.672,7.672,0,0,1-5.5-2.27,7.975,7.975,0,0,1-2.483-5.994,7.763,7.763,0,0,1,2.234-5.462,8.265,8.265,0,0,1,11.74-.142A8.113,8.113,0,0,1,1679.506,195.409Zm-2.128-.035a6.045,6.045,0,0,0-10.285-4.433,5.5,5.5,0,0,0-1.88,4.079,5.939,5.939,0,0,0,5.994,6.242,6.428,6.428,0,0,0,4.043-1.312A5.464,5.464,0,0,0,1677.378,195.374Zm16.421,7.732h-1.915l-8.477-12.626v12.626h-2.128V187.394h2.483l7.909,11.811V187.394h2.128Zm-130.449,15.57c-1.844,3.228-4.292,4.824-7.413,4.824a8.094,8.094,0,0,1-5.6-2.2,7.8,7.8,0,0,1-2.518-5.923,10.8,10.8,0,0,1,.071-1.1,7.456,7.456,0,0,1,2.767-5.143,8.006,8.006,0,0,1,5.249-1.88c3.157,0,5.6,1.6,7.377,4.753h-2.341a6.616,6.616,0,0,0-2.27-1.986,6.253,6.253,0,0,0-2.7-.6,5.866,5.866,0,0,0-4.185,1.632,6,6,0,0,0,0,8.725,5.875,5.875,0,0,0,4.15,1.667,5.982,5.982,0,0,0,5.036-2.766Zm17.308-3.121a7.326,7.326,0,0,1-2.7,5.817,8.382,8.382,0,0,1-5.71,2.163,7.591,7.591,0,0,1-5.462-2.27,8.084,8.084,0,0,1-2.518-6.029,7.743,7.743,0,0,1,2.234-5.426,7.845,7.845,0,0,1,5.888-2.554,8.056,8.056,0,0,1,5.888,2.412A7.969,7.969,0,0,1,1580.658,215.555Zm-2.093-.035a6.082,6.082,0,0,0-1.809-4.4,5.952,5.952,0,0,0-8.512-.035,5.448,5.448,0,0,0-1.88,4.079,5.8,5.8,0,0,0,2.164,4.859,5.941,5.941,0,0,0,3.866,1.383,6.155,6.155,0,0,0,4.008-1.348A5.291,5.291,0,0,0,1578.566,215.519Zm16.386,7.732h-1.915l-8.477-12.626v12.626h-2.093V207.5h2.483l7.909,11.846V207.5h2.093Zm11.172-4.5a4.8,4.8,0,0,1-1.17,3.192,4.643,4.643,0,0,1-3.618,1.561,4.807,4.807,0,0,1-3.618-1.454,5.032,5.032,0,0,1-1.383-3.653h2.234a3.144,3.144,0,0,0,.745,2.164,2.753,2.753,0,0,0,2.093.851,2.666,2.666,0,0,0,2.625-2.589,2.623,2.623,0,0,0-.426-1.49,4.719,4.719,0,0,0-2.376-1.49,12.831,12.831,0,0,1-2.944-1.241,4.008,4.008,0,0,1-1.419-3.369,3.528,3.528,0,0,1,1.383-2.873,4.6,4.6,0,0,1,3.05-1.1,4.223,4.223,0,0,1,3.263,1.419,4.07,4.07,0,0,1,1.206,2.766v.5h-2.093c-.213-1.7-1.029-2.554-2.376-2.554a.657.657,0,0,0-.248-.071,2.1,2.1,0,0,0-1.348.532,1.913,1.913,0,0,0-.745,1.49,2.5,2.5,0,0,0,1.561,2.483l3.121.993a4.11,4.11,0,0,1,2.412,2.908c.036.284.071.5.071.567Zm12.165-1.277a6.163,6.163,0,0,1-1.667,4.54,5.053,5.053,0,0,1-3.724,1.49,5.29,5.29,0,0,1-3.724-1.419,5.4,5.4,0,0,1-1.7-4.185V207.5h2.093v10.321a3.85,3.85,0,0,0,.887,2.554,2.969,2.969,0,0,0,2.447,1.1,2.836,2.836,0,0,0,2.483-1.241,4.46,4.46,0,0,0,.816-2.731v-10h2.093ZM1629,223.251h-8.3V207.5h2.093v13.761l6.207-.035Zm8.619-13.761h-3.4v13.761h-2.093V209.49h-3.44V207.5h8.938Zm3.121,13.761h-2.093V207.5h2.093Zm15,0h-1.951l-8.441-12.626v12.626h-2.128V207.5h2.483l7.909,11.846V207.5h2.128Zm18.372-7.625a8.839,8.839,0,0,1-3.015,6.029,8.248,8.248,0,0,1-5.355,1.844,7.982,7.982,0,0,1-5.781-2.376,7.82,7.82,0,0,1-2.376-5.746,7.663,7.663,0,0,1,2.589-5.994,7.907,7.907,0,0,1,5.462-2.128,8.422,8.422,0,0,1,4.611,1.277,8.141,8.141,0,0,1,3.086,3.618h-2.376a5.186,5.186,0,0,0-2.234-2.128,6.664,6.664,0,0,0-3.05-.709,5.8,5.8,0,0,0-4.433,1.951,6,6,0,0,0-1.6,4.114,5.637,5.637,0,0,0,2.022,4.433,5.837,5.837,0,0,0,4.043,1.632,6.748,6.748,0,0,0,3.157-.816,5.183,5.183,0,0,0,2.66-2.979h-8.193v-2.022Z" transform="translate(-1492.13 -161.077)"/><path class="b" d="M-.039,520.469a20.6,20.6,0,0,0,5.214,13.265,25.333,25.333,0,0,1,6.065,12.485c.426,2.057-.674,3.015,2.128,3.192a1.723,1.723,0,0,1,.5-.39c.426-.213,14.9-.284,16.741-.142a1.8,1.8,0,0,1,1.277.567c1.064-.035,1.951-.355,2.022-1.49a15.309,15.309,0,0,1,.851-4.753,27.66,27.66,0,0,1,3.618-7.59c1.631-2.128,1.631-1.6,3.689-4.646a21.532,21.532,0,0,0,2.589-5.852,20.8,20.8,0,0,0,.177-9.08c-.071.248-.106.532-.177.816a21.274,21.274,0,0,1-2.589,5.888c-2.057,3.05-2.057,2.518-3.689,4.646a27.659,27.659,0,0,0-3.618,7.59,15.309,15.309,0,0,0-.851,4.753c-.106,1.88-2.447,1.49-4.114,1.454H14.751c-4.5.035-3.015-.887-3.511-3.192a25.6,25.6,0,0,0-6.065-12.52A20.387,20.387,0,0,1,.387,516c-.071.284-.106.6-.177.887A13.224,13.224,0,0,0-.039,520.469Z" transform="translate(0.04 -497.699)"/><path class="b" d="M368.3,1533.135a1.555,1.555,0,0,0,.851,2.944c2.518.071,15.889.177,16.6-.213,1.6-.922,1.029-2.731-.709-2.873C383.193,1532.851,368.722,1532.922,368.3,1533.135Z" transform="translate(-354.392 -1478.55)"/><path class="b" d="M508.68,1673.9c2.589,0,8.725.887,7.838-1.88-.426-1.312-1.915-1.1-3.44-1.1-1.064,0-4.433-.213-5.143.071C507.084,1671.377,506.375,1673.9,508.68,1673.9Z" transform="translate(-489.136 -1611.58)"/><path class="b" d="M91.027,29.651l.248-2.589c-.142-.355-.248-.177-.461-.816-.248-.674-.106-.5-.106-1.17.035-.851-.638.071.213-1.738a9.357,9.357,0,0,1,2.341-2.873,13,13,0,0,0,2.625-2.589c.355-.355,1.525-3.121,1.135-3.76-.035,0-2.2.638-2.518.674-.6.035-.78.319-1.135.213-.426-.142-.177-.39-.887-.709l.319-.426-2.376-1.88c-.248-.39-.355-1.1-.674-1.419-.532-.5-.638-.213-.78-1.241a1.424,1.424,0,0,0-.745-1.312c-.355-.248-.177-.319-.319-.709,0,0-1.844-2.766-1.809-3.228l.816,1.1.284-.071-.248-1.844c-.638.071-1.561-.177-1.951-.071-1.1.319-.6.355-1.88.035a13.476,13.476,0,0,1-1.809-.461c-1.6-.816-1.561-.213-1.844,1.064L74.57,1.809l.674-.709L75.138.213,74.393,0c-.177.248-3.334.106-3.972.461a3.306,3.306,0,0,1-2.483.567c-.567,0-.284-.248-.709-.355-.5.213-.248.816-1.348,1.241A3.044,3.044,0,0,0,64.6,3.228c-.39,1.135-.106.851-1.17,1.49-.426.248-.638.106-.922.426s-.177.319-.6.6A13.165,13.165,0,0,0,59.745,8.76c.142.567.461,0,.213.816-.177.461.071.532-.106,1.1C59.5,11.74,59.638,11.74,59,12.414h.106v1.419c.426.284.5.142.709.532a3.708,3.708,0,0,0,.6.674c.6.709.248,1.135.887,1.561.745.532,2.2,2.057,3.086,1.7a3.645,3.645,0,0,1,2.164-.248c1.6.355,1.525-.709,3.76-.745,1.064-.035.816.532,1.277,1.206l1.561-.213c1.064,1.135.6.5.5,1.88-.071.851-.532,1.241-.071,1.986.887,1.277,1.631,1.312,2.164,3.369a9.616,9.616,0,0,1,.248,2.412c-.142.284-.39.319-.6.816-.106.319-.142.78-.248,1.135-.461,1.631,1.773-.78,2.305.567.106.284.39,1.88.461,2.305.177.816.709.887,1.064,1.7a4.154,4.154,0,0,0,.5.887c.461.674.071.6.071.958,0,.922,1.029.851,1.773.709,2.447-.461.142-.958,1.951-2.625.5-.461.071,2.093.426,1.844.816-.6.5-1.419.674-1.915.816-.39,1.241-.106,1.454-1.064.248-1.241,1.773-.106,1.738-.816Z" transform="translate(-56.906)"/><g transform="translate(15.784 18.337)"><path class="b" d="M794.674,517h0a.652.652,0,0,1,.674.674v24.437a.652.652,0,0,1-.674.674h0a.673.673,0,0,1-.674-.674V517.674A.673.673,0,0,1,794.674,517Z" transform="translate(-781.622 -517)"/><path class="b" d="M445.674,517h0a.673.673,0,0,1,.674.674v24.437a.673.673,0,0,1-.674.674h0a.652.652,0,0,1-.674-.674V517.674A.652.652,0,0,1,445.674,517Z" transform="translate(-445 -517)"/></g></g></g></g></svg>