<svg width="139" height="93" viewBox="0 0 139 93" fill="none" xmlns="http://www.w3.org/2000/svg">
<path d="M0 41.9021C0.148916 41.5045 0.275494 41.0965 0.448237 40.7093C1.07369 39.3154 2.1295 38.407 3.58591 37.9394C5.61712 37.2872 7.6409 36.6096 9.66914 35.9484C12.716 34.9581 15.7628 33.9723 18.8111 32.9865C18.9436 32.9433 19.0806 32.912 19.2162 32.8778C19.2251 32.8748 19.2459 32.8956 19.2519 32.9105C19.2579 32.9254 19.2534 32.9463 19.2534 32.9626L19.2713 32.9433C19.0643 33.3364 18.8588 33.731 18.6518 34.1242C18.6875 34.1584 18.7232 34.1927 18.759 34.2255C19.0568 34.0244 19.4068 33.871 19.645 33.6149C20.814 32.3491 22.3136 31.7341 23.9308 31.2948C24.9256 31.0238 25.8965 30.6634 26.8794 30.3477C27.0238 30.3015 27.1757 30.2762 27.3961 30.2226C27.3053 30.4936 27.2413 30.6857 27.1489 30.9612C27.3395 30.7483 27.4691 30.6023 27.6001 30.4579C27.6359 30.4817 27.6716 30.5055 27.7074 30.5294C27.5942 30.72 27.4795 30.9106 27.3664 31.1012C27.3857 31.1146 27.4066 31.1295 27.4259 31.1429C27.5853 30.9418 27.7238 30.7185 27.9069 30.5413C28.3939 30.0737 28.8972 29.6507 29.5852 29.4601C30.5755 29.1861 31.5405 28.8272 32.6454 28.4624C32.1704 29.1846 31.7713 29.7892 31.3737 30.3953C31.4288 30.44 31.4839 30.4847 31.539 30.5308C31.7921 30.2598 32.0438 29.9903 32.218 29.8041C32.4533 29.7609 32.6514 29.7848 32.711 29.7058C33.0594 29.2442 33.3721 28.7572 33.7072 28.2852C33.7817 28.1809 33.8948 28.102 34.0557 28.0678C33.6357 28.7915 33.2232 29.5197 32.7854 30.2315C32.7124 30.3492 32.5337 30.4221 32.3878 30.4698C30.3938 31.1265 28.3983 31.7758 26.4029 32.4265C25.2949 32.7884 24.1885 33.1518 23.0805 33.5092C22.6606 33.6447 22.2347 33.7668 21.6465 33.944C22.0098 33.4764 22.2749 33.1324 22.5415 32.7899C22.601 32.8152 22.6606 32.842 22.7187 32.8673C22.6546 32.7184 22.5921 32.5695 22.4879 32.3238C22.1483 32.8107 21.8892 33.2545 21.5556 33.6328C21.3218 33.8963 21.0166 34.1644 20.6919 34.2716C15.2014 36.081 9.70339 37.8635 4.20689 39.6535C2.32905 40.2655 1.43406 42.0138 2.03866 43.8871C2.24119 44.5126 2.43776 45.1395 2.63731 45.7635C2.44223 45.8677 2.26204 45.9645 2.08185 46.0613C2.09078 46.0971 2.09972 46.1328 2.10865 46.17C2.29629 46.1432 2.48392 46.1179 2.70581 46.0866C3.18085 47.4835 3.65738 48.8848 4.13243 50.2861C4.09222 50.2742 4.05201 50.2608 4.01181 50.2489C3.93735 50.4692 3.86438 50.6882 3.72738 51.0962C4.20837 50.706 4.32304 50.8803 4.42728 51.2138C4.77724 52.3337 5.15697 53.4446 5.52331 54.56C5.78093 55.3433 5.4831 56.2636 4.81595 56.7386C4.69086 56.828 4.55684 56.9024 4.32602 57.0484C4.29326 56.6761 4.26496 56.3544 4.23369 55.9985C4.14285 55.866 3.94926 55.6858 3.87629 55.4654C3.04981 52.9651 2.24119 50.4603 1.42811 47.9555C1.40726 47.8915 1.40875 47.82 1.39832 47.7411C1.77061 47.4671 2.53009 47.5639 2.28735 46.6212C1.93293 46.8446 1.61425 47.0457 1.23452 47.2854C1.12878 46.9861 1.00518 46.651 0.890519 46.3145C0.76394 45.9437 0.646295 45.5714 0.524184 45.1991C0.354419 44.6794 0.0312714 44.1507 0.63885 43.6816C0.689482 43.6429 0.65821 43.4985 0.670123 43.354C0.461641 43.4985 0.303788 43.6102 0.138491 43.7084C0.134024 43.7114 0.0476532 43.5789 0 43.5104C0 42.9713 0 42.4367 0 41.9021ZM9.43981 36.4443C9.39662 36.4026 9.35343 36.3594 9.31174 36.3177C8.85605 36.7332 8.40186 37.1487 7.89107 37.6163C8.83818 37.9216 8.96625 36.9045 9.61999 36.8672C9.59617 36.8226 9.57383 36.7779 9.55 36.7347C9.27004 36.8881 8.99008 37.0415 8.71011 37.1948C8.69522 37.1725 8.68033 37.1487 8.66395 37.1263C8.92307 36.897 9.18069 36.6707 9.43981 36.4443Z" fill="#1CC62D" fill-opacity="0.8"/>
<path d="M137.43 44.8402C137.496 44.8998 137.597 44.9474 137.623 45.0204C137.913 45.8618 138.217 46.6987 138.458 47.5549C138.518 47.7649 138.36 48.0345 138.306 48.2623C138.348 48.2414 138.462 48.1849 138.625 48.1044C138.756 48.514 138.878 48.8967 139 49.2794C139 49.7068 139 50.1342 139 50.5631C138.87 50.9651 138.76 51.3761 138.607 51.7678C138.072 53.1319 137.121 54.0998 135.755 54.621C134.879 54.9546 133.976 55.2152 133.021 55.5279C132.96 55.1869 132.908 54.8995 132.857 54.6106C132.223 54.7387 131.545 55.4818 131.612 55.9806C129.198 56.7699 126.781 57.5591 124.363 58.3484C124.336 58.3067 124.309 58.265 124.283 58.2233C124.65 57.9314 125.017 57.6381 125.385 57.3462C125.356 57.3105 125.329 57.2762 125.301 57.2405C124.911 57.513 124.317 57.4609 124.156 58.1191C124.11 58.3067 123.84 58.5077 123.632 58.5718C123.185 58.7103 122.7 58.7266 122.253 58.8622C121.83 58.9917 121.434 59.2106 121.027 59.3908C121.915 58.9158 122.029 58.7624 121.894 58.2069C121.675 58.3171 121.459 58.4258 121.219 58.5465C121.154 58.3186 121.097 58.128 121.035 57.9091C120.624 58.2561 120.199 58.5524 120.335 59.2121C120.646 59.0677 120.951 58.9262 121.261 58.7817C121.173 59.0111 121.102 59.2002 121.029 59.3893C120.527 59.5695 120.031 59.7735 119.517 59.9105C119.386 59.9463 119.108 59.8123 119.051 59.6872C118.858 59.2598 118.732 58.8026 118.566 58.3082C119.042 58.1489 119.568 57.9702 120.097 57.7974C121.77 57.2509 123.417 56.5733 125.13 56.21C126.183 55.9866 127.058 55.3745 128.098 55.2063C128.201 55.1899 128.339 55.2256 128.418 55.2897C128.473 55.3343 128.501 55.4967 128.463 55.5592C128.168 56.0357 128.336 56.3008 128.831 56.4378C128.741 55.9881 128.65 55.5324 128.552 55.0454C129.48 54.7476 130.349 54.4691 131.344 54.1504C131.182 54.4706 131.078 54.6791 130.966 54.901C131.146 54.9293 131.298 54.9546 131.437 54.9754C131.539 54.8295 131.647 54.6761 131.767 54.5049C131.734 54.4334 131.672 54.2934 131.641 54.2249C132.2 53.9658 132.705 53.732 133.171 53.5161C133.42 53.7633 133.611 53.9524 133.801 54.1415C133.846 54.1102 133.891 54.079 133.934 54.0462C133.886 53.8347 133.837 53.6248 133.778 53.3612C134.117 53.2465 134.443 53.1125 134.783 53.0246C135.742 52.7789 136.314 52.0388 136.921 51.3523C137.015 51.2466 136.961 51.0173 137.003 50.852C137.015 50.8058 137.119 50.7834 137.256 50.709C137.346 49.7589 136.751 48.7671 136.79 47.7128C136.838 47.7053 136.729 47.7217 136.506 47.756C136.76 47.3554 136.96 47.0397 137.161 46.724C137.128 46.6987 137.097 46.6734 137.064 46.6466C136.887 46.8372 136.711 47.0293 136.528 47.2273C136.107 46.5855 136.12 46.4991 136.646 46.0107C136.71 45.9526 136.731 45.8454 136.763 45.7575C136.817 45.6116 136.863 45.4612 136.912 45.3138C137.063 45.4016 137.213 45.491 137.393 45.5952C137.407 45.3629 137.423 45.0919 137.439 44.8194L137.43 44.8402Z" fill="#1CC62D" fill-opacity="0.8"/>
<path d="M120.181 0.415497C120.286 0.616534 120.385 0.820548 120.499 1.01712C120.585 1.16752 120.673 1.3224 120.789 1.44897C120.984 1.66044 121.388 1.72894 121.28 2.09825C121.858 2.45416 122.435 2.80858 123.009 3.16598C123.067 3.20172 123.108 3.29256 123.166 3.30298C124.114 3.47275 124.364 4.20541 124.612 4.99616C125.383 7.45626 126.195 9.90295 126.994 12.3541C127.259 13.1672 127.17 13.3861 126.403 13.8373C126.175 13.9713 125.967 14.1396 125.724 14.3079C125.264 12.914 124.786 11.4889 124.336 10.0548C124.297 9.93124 124.42 9.73914 124.503 9.60065C124.619 9.40706 124.768 9.23432 124.904 9.05264C124.878 9.00797 124.851 8.96478 124.826 8.9201C124.595 9.01988 124.364 9.12114 124.07 9.24921C123.818 8.48676 123.56 7.70346 123.301 6.91867C123.057 6.17558 122.804 5.43398 122.57 4.68791C122.119 3.24937 121.067 2.39459 119.593 2.26206C119.358 2.24121 119.127 2.15633 118.975 2.12059C118.802 2.22483 118.664 2.36928 118.514 2.38417C118.357 2.39906 118.147 2.33056 118.036 2.22185C117.648 1.84956 117.294 1.44451 116.847 0.966487C117.424 0.842886 117.994 0.725242 118.561 0.591217C118.646 0.571858 118.715 0.476552 118.791 0.416985C119.255 0.415496 119.718 0.415497 120.181 0.415497Z" fill="#1CC62D" fill-opacity="0.8"/>
<path d="M95.089 48.1417C94.9118 47.5877 94.7346 47.0338 94.5604 46.4917C95.5894 45.8603 95.5894 45.8603 95.2692 45.22C94.9937 45.561 94.7584 45.8543 94.4666 46.2162C93.5879 43.5179 92.7227 40.8582 91.859 38.206C92.1479 38.1196 92.4041 38.0422 92.6617 37.9648C92.5664 37.6848 92.4964 37.4748 92.4249 37.2649C92.4711 37.2425 92.5172 37.2217 92.5634 37.1993C92.69 37.2842 92.8151 37.3691 92.9372 37.4495C93.0548 37.3155 93.1606 37.1919 93.3482 36.9774C93.0846 36.9238 92.8851 36.8851 92.687 36.8449C92.3594 36.7779 92.0303 36.7139 91.7027 36.6409C91.2261 36.5352 91.1859 36.1197 91.0653 35.7504C90.2954 33.3826 89.5151 31.0178 88.7452 28.6501C88.6499 28.3597 88.5933 28.0559 88.5412 27.8489C88.6886 27.4126 88.8182 27.0298 88.9477 26.6486C88.9701 26.5816 88.9745 26.4937 89.0192 26.452C89.6163 25.8877 89.7131 24.9599 90.4607 24.4923C90.632 24.3851 90.6975 24.1126 90.7407 23.8654C89.9291 24.8065 88.7229 25.3277 87.9917 26.4848C87.8457 25.7819 87.6998 25.082 87.5434 24.3315C87.5866 24.324 87.4854 24.3404 87.3454 24.3642C87.1726 23.8281 86.9984 23.2891 86.8018 22.6755C88.5322 22.1022 90.2403 21.5378 91.9692 20.9645C92.3534 21.5304 91.9856 21.9592 91.731 22.3747C91.4748 22.7932 91.1547 23.1714 90.7704 23.6956C91.2619 23.5943 91.6446 23.5154 91.9975 23.4439C92.2254 23.5422 91.9841 24.0053 92.3817 23.8817C92.5574 23.8266 92.7764 23.7045 92.8463 23.5526C93.174 22.8438 93.9051 23.1133 94.4189 22.8349C94.5023 22.9704 94.5738 23.088 94.6929 23.2831C94.7912 23.0136 94.8686 22.8036 94.955 22.5638C95.5611 22.5415 95.6579 21.9041 95.9855 21.5289C96.2759 21.1953 96.3369 20.6935 96.9966 20.75C97.2334 20.7709 97.5119 20.3435 97.7636 20.1142C98.2192 19.7002 98.6124 19.179 99.1336 18.8811C100.962 17.8357 103.007 17.526 105.069 17.3518C105.571 17.3086 106.088 17.4188 106.609 17.459C106.563 17.5394 106.518 17.6183 106.526 17.6034C106.956 17.5603 107.427 17.5126 107.951 17.459C107.909 17.7494 107.884 17.9221 107.848 18.1619C108.028 18.0829 108.146 18.0308 108.265 17.9787C108.302 18.0219 108.34 18.0651 108.377 18.1083C108.188 18.2706 108 18.4329 107.789 18.6161C108.445 18.9333 108.553 19.6764 108.11 20.0591C108.442 20.4358 108.748 20.829 109.101 21.1745C110.602 22.6428 112.393 22.6547 113.939 21.2236C114.003 21.164 114.071 21.1089 114.182 21.0151C114.36 21.1834 114.532 21.3457 114.768 21.5706C114.25 21.9846 113.782 22.3554 113.316 22.7291C113.211 22.814 113.025 22.9078 113.025 22.9987C113.022 23.505 112.652 23.6703 112.31 23.9056C112.076 24.0664 111.924 24.3449 111.726 24.5623C111.397 24.9257 111.06 25.2816 110.737 25.7417C111.403 25.5407 112.07 25.3396 112.736 25.1401C112.731 25.1029 112.727 25.0641 112.721 25.0269C112.511 24.9942 112.301 24.9599 111.934 24.9018C112.179 24.7112 112.317 24.6204 112.435 24.5087C112.804 24.1587 113.172 23.8058 113.528 23.4439C113.882 23.0836 114.232 22.7827 114.81 22.8647C115.047 22.8974 115.315 22.7202 115.687 22.5087C115.958 23.0091 116.204 23.5258 116.505 24.0068C116.808 24.4953 117.2 24.9286 117.491 25.4245C117.805 25.9591 118.061 26.531 118.314 27.0998C118.567 27.6672 118.797 28.2465 119.015 28.8302C119.228 29.3961 119.426 29.968 119.608 30.5458C119.796 31.1399 119.973 31.7371 120.123 32.3402C120.271 32.9269 120.396 33.5196 120.499 34.1138C120.601 34.7109 120.665 35.3141 120.758 35.9991C120.534 35.7489 120.368 35.5613 120.199 35.3721C120.152 35.4019 120.104 35.4317 120.056 35.4615C120.117 35.6059 120.165 35.7578 120.242 35.8918C120.42 36.1971 120.671 36.4741 120.779 36.8017C120.843 36.9953 120.718 37.2708 120.63 37.4897C120.56 37.664 120.418 37.8084 120.241 38.0616C120.491 38.0199 120.618 37.999 120.808 37.9677C120.788 38.282 120.77 38.5694 120.743 38.9759C120.441 38.7019 120.22 38.5023 120.001 38.3043C119.948 38.346 119.894 38.3862 119.842 38.4279C120.113 38.9506 120.382 39.4748 120.704 40.0972C119.711 40.1196 119.306 40.6706 119.178 41.5194C119.627 41.0995 120.077 40.6795 120.61 40.1806C120.162 42.6839 119.364 44.8894 117.623 46.7464C117.456 46.316 117.306 45.9273 117.154 45.5386C117.096 45.5625 117.039 45.5863 116.981 45.6116C117.038 45.7248 117.094 45.838 117.152 45.9556C116.634 46.0524 116.427 46.4515 116.377 46.8744C116.354 47.0606 116.636 47.2839 116.826 47.5594C116.302 47.9675 115.739 48.4604 115.121 48.8684C114.698 49.1484 114.244 49.0233 113.82 48.7314C114.019 48.9042 114.219 49.0769 114.472 49.2958C113.455 49.7872 112.515 50.4008 111.367 50.5571C111.026 50.7284 110.672 50.9652 110.281 51.0932C108.305 51.7351 106.317 52.3397 104.338 52.977C103.671 53.1915 103.022 53.464 102.277 53.7424C102.011 53.1572 101.771 52.6285 101.542 52.1222C101.498 52.2637 101.443 52.4454 101.373 52.6777C100.87 51.7336 101.533 51.1707 101.947 50.5392C101.567 50.4365 101.577 50.441 101.329 51.0337C101.199 51.3419 101.02 51.6308 100.845 51.9644C101.223 52.2056 101.04 52.5124 100.885 52.8355C100.745 53.1289 100.605 53.4297 100.53 53.7439C100.422 54.1981 100.177 54.4349 99.7188 54.557C98.9653 54.7581 98.2312 55.0336 97.4613 55.2852C97.022 54.63 97.7621 54.2771 97.7874 53.7469C97.6831 53.6769 97.5595 53.5935 97.3913 53.4803C97.293 53.6546 97.1917 53.8318 97.0383 54.1013C96.7852 53.3448 96.5484 52.6553 96.3221 51.9629C96.0674 51.1855 95.786 50.4127 95.5879 49.6204C95.4792 49.1871 95.5179 48.718 95.4911 48.2787C95.5015 48.2727 95.3779 48.3368 95.2469 48.4068C95.1888 48.313 95.1352 48.2236 95.0831 48.1372C95.7487 48.1521 96.197 47.5311 96.1404 46.6555C95.7859 47.1559 95.4375 47.6488 95.089 48.1417ZM108.83 25.2011C108.302 24.8244 107.774 24.4476 107.241 24.0679C107.345 23.9145 107.458 23.7477 107.571 23.5809C107.556 23.5199 107.541 23.4588 107.525 23.3993C106.97 24.2213 106.34 23.7626 105.72 23.6837C105.141 23.6092 104.527 23.4901 103.972 23.6033C102.268 23.9503 100.577 24.3627 98.8998 24.8214C97.6697 25.158 96.4695 25.6092 95.2722 26.0038C95.2647 26.1125 95.2439 26.1706 95.2588 26.2168C95.8664 28.1259 96.4769 30.0335 97.086 31.9411C97.2707 32.5189 97.6459 33.119 96.9058 33.6015C96.8745 33.6224 96.876 33.6938 96.8522 33.7772C97.0994 33.8085 97.4925 34.1421 97.2796 33.4898C97.2692 33.4571 97.4106 33.3737 97.5759 33.2352C97.4717 33.8249 97.3913 34.2716 97.2989 34.7958C97.5774 34.699 97.7487 34.6395 97.9557 34.568C98.5379 36.355 99.1142 38.1226 99.6905 39.8917C99.6295 39.8664 99.5699 39.8411 99.5089 39.8173C99.3034 40.0332 99.0636 40.2268 98.9087 40.474C98.8521 40.5648 98.9951 40.7808 99.0472 40.9401C99.1857 40.8776 99.354 40.8463 99.4552 40.745C99.5833 40.617 99.6578 40.4338 99.7933 40.2119C100.173 41.366 100.519 42.4605 100.898 43.5447C101.032 43.9274 101.068 44.2595 100.785 44.5811C100.773 44.5945 100.797 44.6392 100.807 44.6824C100.938 44.6541 101.07 44.6243 101.22 44.5901C101.481 45.3719 101.741 46.1269 101.981 46.8878C102.273 47.8171 102.225 47.6324 102.995 47.3897C104.489 46.9191 105.976 46.4292 107.461 45.9318C107.777 45.826 107.973 45.8529 108.054 46.2103C108.241 47.0487 109.104 47.3033 109.455 48.0017C109.501 47.966 109.546 47.9317 109.592 47.896C109.165 47.1574 108.739 46.4187 108.304 45.6652C109.108 45.3331 109.891 45.0085 110.713 44.669C110.745 44.8268 110.768 44.9504 110.801 45.1202C110.899 45.004 111.029 44.9206 111.023 44.8462C110.983 44.3205 111.421 44.182 111.727 43.9393C112.797 43.089 113.517 42.0212 113.791 40.6691C113.817 40.544 113.867 40.4249 113.949 40.1672C114.131 40.6631 114.237 41.0384 114.403 41.3854C114.725 42.0555 114.74 42.0481 115.105 42.0317C114.828 41.2275 114.618 40.3921 113.937 39.8024C113.937 39.3318 113.991 38.8285 113.927 38.34C113.763 37.1085 113.62 35.865 113.334 34.6588C112.786 32.3521 112.065 30.0886 110.879 28.0246C110.299 27.0179 109.512 26.1319 108.819 25.1922C109.136 24.9361 109.714 25.155 109.948 24.5712C109.547 24.6412 109.223 24.6978 108.833 24.7663C108.83 24.8408 108.83 25.021 108.83 25.2011ZM119.48 33.944C119.423 33.9351 119.367 33.9262 119.31 33.9172C119.263 33.7415 119.157 33.5583 119.178 33.3915C119.246 32.845 118.788 32.4012 118.248 32.5412C117.983 31.7267 117.669 30.9225 117.473 30.0916C117.343 29.545 117.421 29.5272 116.925 29.3619C117.167 29.7773 117.008 30.443 116.601 30.9761C116.691 31.2859 116.752 31.5048 116.817 31.7222C116.853 31.8428 116.867 31.9888 116.945 32.0736C117.26 32.4132 117.562 32.775 117.928 33.0505C118.388 33.396 118.411 33.7698 118.155 34.2553C117.994 34.2225 117.83 34.1882 117.523 34.1242C117.817 34.4771 117.983 34.8777 118.238 34.9418C118.661 35.0505 118.825 35.3126 118.963 35.6342C119.082 35.9112 119.136 36.215 119.245 36.4964C119.403 36.9075 119.741 37.0638 120.177 37.171C120.105 36.7556 120.068 36.4265 119.988 36.1093C119.91 35.8025 119.83 35.4823 119.672 35.2158C119.429 34.8048 119.3 34.4057 119.48 33.944ZM97.4747 38.7749C97.5864 39.2112 97.5893 39.5805 97.7651 39.8322C98.0391 40.2253 97.8559 40.4814 97.6668 40.7852C97.6459 40.818 97.71 40.9118 97.7442 40.9714C98.0137 41.442 98.2714 41.9215 98.5618 42.3786C98.7658 42.7003 98.8075 42.9639 98.5186 43.2632C98.4277 43.3585 98.4501 43.564 98.4143 43.7517C98.7479 43.4404 99.0234 43.1813 99.3525 42.873C99.1559 42.401 98.9951 41.7547 98.2758 41.4166C98.4024 41.1099 98.529 40.7986 98.6973 40.3891C98.66 40.3013 98.5498 40.0809 98.4694 39.85C98.392 39.6296 98.4099 39.3378 98.2684 39.1889C98.0882 39.0042 97.7904 38.9312 97.4747 38.7749ZM96.4546 36.1271C96.4144 36.3833 96.4352 36.6498 96.3265 36.8479C96.1523 37.1681 96.2044 37.4168 96.4054 37.6774C96.5678 37.8888 96.7435 38.0928 96.8805 38.3192C96.9505 38.4353 97.022 38.6364 96.9683 38.7287C96.6109 39.3586 96.2267 39.9751 95.8366 40.5857C95.7338 40.7465 95.576 40.8746 95.4449 41.0175C95.4971 41.0637 95.5477 41.1084 95.5998 41.1546C95.914 40.7793 96.2267 40.4025 96.5335 40.0362C96.7003 40.2596 96.8388 40.4457 96.9788 40.6333C97.0339 40.611 97.089 40.5872 97.1456 40.5648C97.089 40.3206 97.0309 40.0764 96.9743 39.8322C96.8686 39.2261 97.1902 38.7272 97.4583 38.3594C97.0175 37.6282 96.4605 37.0549 97.3153 36.2031C97.08 36.3163 96.9922 36.3594 96.8522 36.4265C96.879 36.2552 96.8984 36.1316 96.9177 36.005C96.7494 36.0497 96.5812 36.0944 96.4546 36.1271ZM103.67 22.1737C103.719 22.2169 103.768 22.2586 103.817 22.3017C104.206 21.9667 104.547 21.5348 104.993 21.3219C105.5 21.0806 105.595 20.5594 105.994 20.2839C105.853 20.2139 105.728 20.1812 105.641 20.1052C105.27 19.7806 105.083 19.8312 104.904 20.2988C104.837 20.4731 104.731 20.6369 104.626 20.7917C104.313 21.2564 103.99 21.7135 103.67 22.1737ZM94.7272 28.5622C94.6706 28.5294 94.6125 28.4952 94.5559 28.4624C94.0019 28.866 93.4331 29.2517 92.9089 29.6895C92.8061 29.7759 92.8478 30.0707 92.8761 30.2628C92.8895 30.3507 93.0325 30.4192 93.1159 30.4966C93.1754 30.376 93.2216 30.2449 93.2976 30.1362C93.3556 30.0513 93.4509 29.9918 93.5284 29.9203C93.856 29.6195 94.194 29.3276 94.5038 29.0089C94.6155 28.8958 94.6557 28.7126 94.7272 28.5622ZM117.543 28.5339C117.641 28.3254 117.712 28.1765 117.781 28.0291C117.152 27.3247 116.95 27.2592 116.159 27.5823C115.878 27.697 115.492 27.7372 115.409 28.1854C116.053 28.0827 116.604 27.9963 117.19 27.9025C117.279 28.0633 117.412 28.2986 117.543 28.5339ZM97.8455 52.709C98.6764 52.5317 99.0904 51.5161 98.5811 50.9071C98.0197 51.3836 97.978 52.0522 97.8455 52.709ZM114.38 46.7404C114.253 45.9467 113.629 45.5431 113.047 45.08C113.197 45.4687 113.346 45.8588 113.485 46.2162C113.307 46.5111 113.123 46.8208 112.937 47.1306C112.983 47.1618 113.029 47.1931 113.075 47.2244C113.275 46.9593 113.474 46.6942 113.675 46.4277C113.896 46.526 114.118 46.6242 114.38 46.7404ZM106.748 51.9793C106.83 50.9711 105.955 51.3538 105.503 50.992C105.81 51.8631 106.146 52.1178 106.748 51.9793ZM97.9303 48.2921C97.9899 48.4961 98.051 48.7031 98.1284 48.9622C98.7151 48.0315 98.9162 46.9906 98.6049 46.5423C98.3592 47.1246 98.6481 47.8975 97.9303 48.2921ZM96.1553 45.6176C96.2193 45.5654 96.2833 45.5133 96.3474 45.4612C96.1359 45.0859 95.9319 44.7047 95.704 44.3399C95.6668 44.2803 95.4732 44.2401 95.4315 44.2773C95.2364 44.4575 95.0697 44.6675 94.891 44.8655C94.9074 44.8849 94.9237 44.9043 94.9386 44.9236C95.1099 44.8536 95.2811 44.7836 95.372 44.7479C95.6534 45.0606 95.9051 45.3391 96.1553 45.6176ZM100.055 45.8007C99.7025 45.975 99.3495 46.0509 99.3316 46.176C99.2751 46.5587 99.5669 46.7523 100.055 46.8551C100.055 46.5468 100.055 46.2654 100.055 45.8007ZM116.947 36.7809C116.992 37.5389 117.605 38.0243 117.899 38.6736C118.043 38.3609 117.31 36.9298 116.947 36.7809ZM95.6236 29.6627C95.8202 29.2591 95.8172 29.2472 95.4315 28.726C94.8076 29.0223 94.8076 29.0223 95.6236 29.6627ZM94.1985 27.5555C94.1657 27.5287 94.1345 27.5004 94.1017 27.4736C93.649 27.8563 93.1889 28.2301 92.7496 28.6292C92.6572 28.7126 92.6438 28.8853 92.5932 29.0164C92.6379 29.0462 92.684 29.0745 92.7287 29.1042C93.2201 28.586 93.7101 28.0708 94.1985 27.5555ZM93.9841 34.227C94.2521 34.2567 94.4651 34.297 94.6765 34.2895C94.7108 34.288 94.7986 34.0423 94.7569 33.9678C94.6438 33.7668 94.4725 33.597 94.2759 33.3543C94.1583 33.7028 94.0898 33.9053 93.9841 34.227ZM101.618 50.1446C101.671 50.164 101.723 50.1819 101.777 50.2012C101.993 49.6041 102.209 49.0054 102.425 48.4083C102.346 48.3815 102.267 48.3532 102.188 48.3264C101.997 48.931 101.808 49.5385 101.618 50.1446ZM90.3714 30.8332C90.2478 31.3976 90.7034 31.6001 91.1547 32.0007C91.11 31.6418 91.1517 31.3737 91.037 31.2218C90.906 31.0491 90.6379 30.9791 90.3714 30.8332ZM107.558 49.8527C107.452 49.5028 107.643 48.9846 107.014 48.8997C107.102 49.2958 106.983 49.7589 107.558 49.8527ZM114.606 32.9999C114.548 33.0267 114.491 33.055 114.433 33.0818C114.271 33.5911 114.706 33.7206 114.96 33.9634C115.018 33.9276 115.075 33.8934 115.133 33.8577C114.957 33.5717 114.782 33.2858 114.606 32.9999ZM118.822 31.3008C118.916 31.4586 119.033 31.6552 119.212 31.9545C119.339 31.5509 119.425 31.2754 119.505 31.0163C119.267 31.1161 119.071 31.198 118.822 31.3008ZM114.676 35.9023C114.387 36.2865 114.484 36.7556 114.972 37.0191C114.861 36.6022 114.771 36.2656 114.676 35.9023ZM115.672 43.1604C115.613 43.1828 115.553 43.2036 115.494 43.226C115.653 43.6132 115.811 43.9989 115.97 44.386C116.039 44.3548 116.107 44.3235 116.176 44.2922C116.009 43.914 115.841 43.5372 115.672 43.1604Z" fill="#1CC62D" fill-opacity="0.8"/>
<path d="M58.9157 57.7319C58.7906 57.994 58.8115 58.3678 58.3603 58.3707C58.2948 58.3707 58.198 58.5941 58.1712 58.7252C57.9612 59.7363 57.3789 60.3513 56.3365 60.4928C55.9136 60.5509 55.7959 60.7713 55.7855 61.2136C55.7498 62.7221 55.6321 64.2276 55.5711 65.7346C55.5413 66.4614 55.5711 67.1911 55.5636 67.9193C55.5517 69.0659 55.6768 68.9721 54.414 69.2744C54.344 69.1076 54.2725 68.9363 54.201 68.7666C54.1459 68.7532 54.0908 68.7398 54.0372 68.7264C53.9866 69.5231 53.4192 69.669 52.8414 69.8313C52.2607 69.9951 51.6858 70.1887 51.1185 70.4002C50.8147 70.5134 50.6285 70.4553 50.4469 70.1858C50.2726 69.9266 50.0418 69.7062 49.8169 69.4859C50.1982 70.15 50.1163 70.6727 49.5951 70.8127C49.4491 70.5357 49.3032 70.2602 49.1587 69.9847C49.117 70.0041 49.0768 70.0234 49.0351 70.0428C49.1617 70.3213 49.2883 70.6012 49.4387 70.9348C49.1468 71.0271 48.8877 71.109 48.502 71.2311C48.6896 70.707 48.2831 70.1664 48.8996 69.8343C48.9681 69.7971 49.0173 69.5826 48.9771 69.5007C48.4871 68.5268 48.7969 67.5067 48.8073 66.5105C48.8192 65.4443 48.9175 64.378 48.9785 63.3118C49.0575 61.9373 49.1156 60.5598 49.2287 59.1883C49.2511 58.9113 49.4759 58.6507 49.6085 58.3797C49.1379 58.1355 49.1394 56.7297 49.6502 56.2874C49.5638 56.14 49.4059 55.997 49.4134 55.863C49.537 53.6963 49.6516 51.5295 49.8333 49.3673C49.9197 48.3397 49.9003 47.3107 49.9718 46.2832C50.1192 44.1984 50.1714 42.1061 50.3054 40.0198C50.3337 39.5745 50.5422 39.1412 50.6822 38.6468C50.5868 38.6855 50.5228 38.7123 50.3888 38.7674C50.426 37.9856 50.4603 37.2321 50.4975 36.48C50.5243 35.9469 50.572 35.4138 50.5749 34.8807C50.5779 34.562 50.697 34.3952 51.0008 34.3044C51.7484 34.0795 52.49 33.8308 53.3031 33.5702C53.0335 33.9127 52.8057 34.2016 52.5659 34.5069C53.1839 34.7094 53.9613 34.2344 54.2755 33.5628C54.3663 33.3692 54.551 33.1637 54.7431 33.0862C55.2524 32.8807 55.7825 32.7125 56.3171 32.5859C56.6656 32.504 57.0424 32.5799 57.3417 32.2761C57.3879 32.2285 57.7259 32.367 57.8361 32.4965C59.0483 33.9202 60.2411 35.3587 61.4399 36.7928C62.4897 38.0496 63.5292 39.3154 64.5999 40.5559C64.926 40.9341 65.1121 41.3005 64.9781 41.8038C64.926 41.9974 64.9483 42.2118 64.9364 42.4158C64.9856 42.4307 65.0362 42.4471 65.0853 42.462C65.194 42.2059 65.3027 41.9497 65.4249 41.6638C66.4628 42.2967 65.9267 43.2364 65.8657 44.0778C65.9088 44.0912 65.9505 44.1046 65.9937 44.1165C66.1501 43.7248 66.3079 43.3332 66.4658 42.937C67.1166 43.1515 66.7323 43.6414 66.713 44.1805C66.8664 43.911 66.9513 43.7606 67.0749 43.5446C67.7465 44.3935 68.5372 45.1112 69.0629 46.1492C69.5305 46.2385 69.9653 46.8595 70.1083 47.8617C70.1872 47.7053 70.2364 47.6071 70.3197 47.4388C71.0092 48.2519 71.6853 49.0382 72.3495 49.8349C73.858 51.6412 75.3084 53.5012 76.8914 55.2405C77.5749 55.9925 77.3888 56.6686 77.1922 57.44C77.1118 57.7527 77.0493 58.0699 76.954 58.3782C76.9004 58.5524 76.8125 58.7222 76.7097 58.8741C76.5489 59.1138 76.3628 59.3372 76.1588 59.6067C76.5981 59.8078 76.8453 59.7691 77.012 59.3863C77.1252 59.1272 77.2667 58.8726 77.4409 58.6507C77.5496 58.5107 77.7417 58.4363 77.8951 58.332C77.9353 58.3737 77.9755 58.4154 78.0157 58.4586C77.9443 58.8115 77.8728 59.166 77.7998 59.5278C78.6754 59.1868 78.458 58.2963 78.7514 57.6679C79.5526 58.201 80.2971 59.3134 80.2837 59.9373C80.9002 59.6425 80.93 60.256 81.28 60.5553C78.8988 61.3297 76.5936 62.0802 74.2258 62.8501C74.2482 62.6432 74.263 62.4957 74.2884 62.2679C74.135 62.4138 74.0322 62.5121 73.8997 62.6387C72.6637 61.1153 71.4307 59.5978 70.1991 58.0803C69.8507 57.6515 69.4799 57.2405 69.1627 56.7892C68.9184 56.4423 68.6593 56.4244 68.299 56.5644C67.8224 56.749 67.328 56.8875 66.7666 57.0707C66.7964 56.3574 67.4412 55.6575 66.6013 55.0425C66.5254 55.2033 66.366 55.3775 66.4003 55.4952C66.5819 56.1147 66.2275 56.621 65.9967 57.0975C65.8597 57.379 65.3519 57.5115 64.9871 57.6455C64.2752 57.9061 63.547 58.1221 62.8248 58.3559C62.725 58.3886 62.6237 58.4214 62.4793 58.4675C62.4793 58.1772 62.4793 57.918 62.4793 57.6589C62.454 57.6544 62.4302 57.65 62.4048 57.6455C62.3155 57.9255 62.2276 58.2054 62.1383 58.4839C62.0832 58.472 62.0296 58.4601 61.9745 58.4482C62.1115 57.6976 62.2485 56.9456 62.384 56.1951C62.3229 56.1832 62.2619 56.1712 62.2008 56.1578C62.1398 56.4959 62.0936 56.8384 62.0117 57.1705C61.8926 57.6515 61.7764 58.1369 61.5918 58.5941C61.5307 58.7445 61.2761 58.8383 61.0914 58.9113C60.7846 59.0349 60.463 59.1213 60.0951 59.1525C61.0035 58.9992 61.3237 58.2784 61.7973 57.5428C61.632 57.6247 61.5754 57.653 61.495 57.6917C61.559 57.446 61.6186 57.2151 61.6766 56.9858C61.7154 57.0364 61.7541 57.0856 61.7928 57.1362C61.3699 57.3209 60.9484 57.5055 60.6313 57.6425C60.3558 57.0722 60.7668 54.8012 61.4935 54.1951C61.4801 54.3649 61.4771 54.4944 61.4592 54.621C61.4414 54.7402 61.4056 54.8578 61.4786 55.0097C61.6751 54.414 61.8732 53.8184 62.0698 53.2242C62.0415 53.2048 62.0147 53.184 61.9864 53.1646C61.7303 53.458 61.4756 53.7528 61.2299 54.0343C61.0542 53.178 61.2865 52.7849 62.0936 52.5258C63.0065 52.2324 63.9119 51.9137 64.9275 51.5697C64.3542 50.8505 63.8315 50.1803 63.2909 49.5236C63.0407 49.2198 62.789 48.9414 63.1688 48.5646C63.203 48.5318 63.2298 48.4574 63.2164 48.4172C63.0392 47.9034 63.3385 47.5922 63.6662 47.272C63.7942 47.1454 63.8478 46.9444 63.9417 46.7657C63.687 46.6763 63.489 46.6064 63.2894 46.5349C63.1182 47.3256 62.5865 48.0136 62.113 47.9719C62.1934 47.6071 62.2708 47.2467 62.3661 46.8148C62.1025 47.0218 61.8807 47.1961 61.623 47.4001C59.9581 45.3078 58.2888 43.2096 56.6194 41.1128C56.5763 41.1218 56.5331 41.1307 56.4899 41.1396C56.4646 41.57 56.4303 42.0004 56.4169 42.4322C56.341 44.8879 56.2814 47.3435 56.1876 49.7991C56.1742 50.164 56.2427 50.6524 55.6336 50.7418C55.5741 50.7507 55.5875 51.2391 55.5562 51.6248C55.7944 51.467 55.9404 51.3717 56.067 51.2883C56.067 52.2905 56.067 53.318 56.067 54.3723C56.6403 54.5168 57.1704 53.7975 57.8212 54.219C58.0758 53.4491 58.9619 53.7126 59.5323 53.3567C59.8226 53.1751 60.1934 53.1229 60.6804 52.9606C60.603 53.4178 60.5568 53.7692 60.4808 54.1147C60.4481 54.2681 60.2902 54.414 60.3021 54.554C60.4019 55.6471 59.495 56.3172 59.1972 57.239C59.1391 57.4192 58.9976 57.5725 58.8949 57.7378L58.9157 57.7319ZM52.3009 52.9368C52.3977 52.9621 52.493 52.9874 52.5898 53.0127C52.3753 53.7499 52.7685 54.5093 52.3872 55.1229C52.6166 55.2792 52.7744 55.3865 52.9263 55.4907C53.2376 54.834 53.5667 54.1356 53.8749 53.4833C53.793 53.5205 53.6486 53.5846 53.3686 53.7097C53.4922 53.2063 53.589 52.834 53.6754 52.4602C53.7885 51.9688 53.9613 51.5102 53.5131 51.0307C53.1333 50.6241 53.3105 50.1565 53.8005 49.8483C53.9717 49.741 54.1087 49.5802 54.3127 49.3955C53.7945 49.4328 53.4148 49.4596 53.111 49.4819C53.0797 49.811 53.0559 50.0538 53.0335 50.2965C52.9367 50.2578 52.8399 50.2176 52.7983 50.2012C52.6047 50.3203 52.4349 50.4246 52.1445 50.6018C51.9018 51.184 51.9822 52.1118 51.0693 52.5556C51.6442 52.6613 51.8675 53.0023 51.7395 53.4788C51.5861 54.0462 51.4327 54.6136 51.2793 55.181C51.3002 55.1884 51.321 55.1973 51.3433 55.2048C51.6605 54.4498 51.9807 53.6933 52.3009 52.9368ZM55.2018 62.6357C55.2152 62.6536 55.2241 62.6774 55.2375 62.6804C55.2479 62.6834 55.2732 62.667 55.2777 62.6536C55.4073 62.323 55.2479 60.9768 55.0394 60.6358C54.5465 61.638 54.1474 64.4569 54.4423 65.2402C54.5436 64.5895 54.6106 63.9357 54.6374 63.2805C54.6582 62.7846 54.8563 62.3959 55.2792 61.9447C55.2435 62.2679 55.2226 62.454 55.2018 62.6357ZM55.0603 42.8656C55.026 42.8283 54.9918 42.7926 54.9575 42.7554C54.4304 43.2408 53.8392 43.6772 53.4029 44.2356C53.1929 44.5051 53.2748 45.0025 53.2271 45.3763C53.5235 45.3584 53.7677 45.3733 53.9955 45.3212C54.1936 45.275 54.3753 45.1529 54.5629 45.0636C54.548 45.0338 54.5331 45.004 54.5182 44.9742C54.3053 45.0531 54.0923 45.1306 53.7617 45.2527C53.9434 44.8983 54.064 44.7136 54.137 44.5111C54.2219 44.2713 54.213 43.9839 54.3395 43.774C54.5376 43.4463 54.8161 43.1664 55.0603 42.8656ZM61.7213 44.0524C62.0311 43.3838 62.3244 42.7479 62.655 42.0346C61.5709 42.2386 61.2686 42.8432 61.416 44.2922C61.486 44.0405 61.5471 43.8246 61.6081 43.6072C61.6379 43.6131 61.6692 43.6206 61.699 43.6265C61.7049 43.7606 61.7124 43.8946 61.7213 44.0524ZM53.7722 59.5695C53.8302 59.6216 53.8868 59.6738 53.9449 59.7244C54.3604 59.3595 54.7744 58.9947 55.2449 58.5792C55.0454 58.4437 54.9039 58.3469 54.7893 58.2695C54.4185 58.7445 54.0953 59.157 53.7722 59.5695ZM52.3247 45.1321C51.9226 45.6324 51.5429 46.106 51.1527 46.59C51.3687 46.7419 51.5012 46.8357 51.5652 46.8818C51.6054 46.6882 51.5831 46.4604 51.6873 46.3547C51.9911 46.0449 52.3441 45.7843 52.6776 45.5044C52.6344 45.4627 52.5913 45.4225 52.5466 45.3808C52.484 45.3093 52.42 45.2363 52.3247 45.1321ZM65.5112 51.7767C65.5678 51.7827 65.6229 51.7872 65.6795 51.7931C66.2052 50.7805 66.2052 50.7805 65.7823 50.2622C65.6914 50.7671 65.6006 51.2719 65.5112 51.7767ZM49.805 60.6C49.9986 59.6097 50.1922 58.6209 50.3769 57.6693C49.6204 58.4869 50.0254 59.6157 49.805 60.6ZM64.6088 50.0165C64.6609 50.0672 64.7116 50.1178 64.7637 50.1684C64.929 50.021 65.203 49.8959 65.2387 49.7202C65.3474 49.2049 65.3608 48.6688 65.413 48.1402C65.2566 48.4425 65.1821 48.7746 65.0585 49.0873C64.9349 49.4075 64.7622 49.7083 64.6088 50.0165ZM74.6309 54.6761C74.5683 54.6657 74.5073 54.6553 74.4447 54.6448C74.2467 55.1229 73.7984 55.5592 74.3718 56.1638C74.4581 55.6679 74.5445 55.172 74.6309 54.6761ZM53.7945 34.6975C53.4386 34.5426 52.5108 35.0877 52.5496 35.3751C52.557 35.4302 52.8161 35.53 52.8697 35.4897C53.178 35.2589 53.4594 34.9924 53.7945 34.6975ZM62.6103 53.4356C62.454 53.9866 62.2976 54.5376 62.1413 55.0886C62.3066 54.9263 62.3304 54.621 62.4644 54.5615C63.133 54.2636 62.7191 53.8347 62.6103 53.4356ZM74.8676 57.8868C75.091 57.3715 75.3114 56.8667 75.5452 56.3261C75.0776 56.4065 74.6875 57.4132 74.8676 57.8868ZM63.0943 41.3585C63.1643 41.3764 63.2343 41.3928 63.3028 41.4107C63.416 40.9862 63.5307 40.5618 63.6438 40.1359C63.5604 40.1151 63.477 40.0957 63.3936 40.0749C63.2939 40.5023 63.1941 40.9312 63.0943 41.3585ZM56.7639 56.9009C56.7922 56.6701 56.8294 56.3812 56.8666 56.0908C56.8101 56.0789 56.752 56.067 56.6954 56.0536C56.5003 56.3261 56.3037 56.5986 56.0863 56.9009C56.3231 56.9009 56.469 56.9009 56.7639 56.9009ZM54.0223 47.7128C54.7357 47.5594 54.2398 46.9161 54.4006 46.514C54.4334 46.4321 54.3112 46.2892 54.2591 46.1745C54.2368 46.2266 54.213 46.2787 54.1906 46.3309C54.134 46.8014 54.076 47.272 54.0223 47.7128ZM62.9186 55.9806C62.7325 55.6217 62.6118 55.3909 62.4927 55.1601C62.4272 55.1795 62.3602 55.1988 62.2946 55.2197C62.3438 55.4728 62.3795 55.7319 62.4585 55.9762C62.4689 56.0104 62.6863 55.9806 62.9186 55.9806Z" fill="#1CC62D" fill-opacity="0.8"/>
<path d="M40.3042 44.5677C40.4233 44.5692 40.541 44.5722 40.6601 44.5737C40.6467 44.6675 40.6482 44.7672 40.6169 44.8551C40.3861 45.5252 40.1478 46.1924 39.8887 46.9265C40.8909 46.6615 40.6542 45.7769 41.0101 45.1113C41.1634 45.3495 41.2796 45.5103 41.3764 45.6816C42.1418 47.0427 42.6422 48.5036 42.9475 50.0285C43.0964 50.7716 43.2453 51.5325 42.5856 52.158C42.465 52.2726 42.4203 52.4677 42.3265 52.6524C42.465 52.7358 42.5886 52.8102 42.7673 52.9159C42.87 52.7224 42.9713 52.5317 43.1336 52.2265C43.0904 53.5205 42.9266 54.6464 42.3429 55.6694C42.2639 55.933 42.2282 56.2204 42.0986 56.4557C41.4404 57.6396 40.6929 58.7922 39.5581 59.5457C38.4115 60.3082 37.1561 60.9083 35.9365 61.5561C35.5791 61.7467 35.1815 61.8673 34.7943 61.9939C34.6796 62.0311 34.5367 61.979 34.3565 61.9626C34.6513 61.7229 34.8539 61.5591 35.0311 61.4146C34.5962 61.0468 34.2195 60.7281 33.8889 60.4481C34.1867 60.9217 33.3573 61.641 34.1912 62.2173C33.8502 62.3051 33.5598 62.3811 33.1949 62.4749C33.0788 62.4049 32.8688 62.2783 32.6618 62.1503C32.7422 61.8941 32.8212 61.6395 32.8614 61.5144C32.5948 61.0885 32.2583 60.7668 32.1838 60.393C31.9947 59.4444 31.0684 59.166 30.6321 58.4571C30.9046 59.0751 31.2397 59.6485 31.5673 60.2248C31.7921 60.6194 32.3163 60.8845 32.0974 61.4816C32.0706 61.5561 32.1987 61.7065 32.2821 61.7973C32.3997 61.9254 32.5427 62.0281 32.6752 62.1428C32.7363 62.3066 32.7958 62.4704 32.8792 62.6953C32.1793 62.9306 31.5152 63.1644 30.8436 63.3684C30.7482 63.3967 30.5904 63.3029 30.4936 63.2254C30.3447 63.1063 30.2241 62.9544 30.0513 62.7727C29.959 62.9321 29.8964 63.0408 29.8488 63.1227C29.5882 63.0437 29.3618 62.9753 29.134 62.9067C29.1146 62.9529 29.0953 62.9991 29.0759 63.0452C29.2129 63.2865 29.3514 63.5277 29.5048 63.7988C28.8019 64.04 28.1363 64.2678 27.4289 64.5106C27.6002 65.0467 27.755 65.5366 27.9144 66.0236C28.714 68.4762 29.5137 70.9274 30.3134 73.38C30.638 74.3763 30.9597 75.3725 31.2873 76.3673C31.3633 76.5981 31.4467 76.8051 31.1101 76.9138C29.0312 77.5869 26.9553 78.2675 24.8541 78.9525C24.4848 77.8624 24.123 76.817 23.7775 75.7672C23.3605 74.5029 22.9599 73.2341 22.5489 71.9683C22.2898 71.1731 21.9518 70.3958 21.7865 69.5812C21.6882 69.0987 21.4633 68.6892 21.3263 68.235C21.1714 67.7242 21.0181 67.2104 20.8245 66.7145C20.6398 66.241 20.5475 65.8017 20.9153 65.3683C20.9972 65.2715 21.0047 65.1122 21.0866 64.862C20.8111 65.0511 20.6338 65.1732 20.3956 65.3385C20.0948 64.4302 19.7969 63.5456 19.5095 62.6595C18.6235 59.9344 17.7389 57.2092 16.8573 54.484C16.6369 53.802 16.701 53.665 17.2728 53.4848C17.2296 52.4558 18.1574 52.4796 18.7158 52.0984C18.3525 50.9726 18.3807 50.8654 19.2311 50.4231C19.2876 50.5795 19.4068 50.7403 19.3815 50.8728C19.2564 51.5147 19.0836 52.1475 18.9451 52.7864C18.899 52.9964 18.9049 53.2182 18.8871 53.4342C18.9556 53.4491 19.0226 53.4625 19.0911 53.4774C19.4366 52.493 19.7835 51.5087 20.1528 50.4558C20.4507 51.3657 21.4976 51.8989 21.2846 53.041C21.2623 53.1646 21.3218 53.3255 21.3918 53.4386C21.6509 53.8556 21.9309 54.2577 22.1841 54.6389C22.0396 54.9859 21.8877 55.2688 21.8148 55.5711C21.7924 55.6649 21.9562 55.8481 22.0768 55.9196C22.2168 56.003 22.4328 56.0819 22.5623 56.0298C22.8855 55.8987 23.1669 55.7334 23.3084 56.2591C23.3084 55.7498 23.3724 55.2271 23.2831 54.7342C23.231 54.4468 22.9376 54.1996 22.7455 53.939C22.3092 53.3493 22.5534 52.0373 23.2101 51.6561C24.0038 54.07 24.7946 56.4736 25.6121 58.9605C27.8876 58.1906 30.1541 57.4222 32.4623 56.6403C32.6127 56.9158 32.7914 57.2449 32.9701 57.5726C33.0326 57.5472 33.0952 57.5219 33.1577 57.4966C33.0624 57.1482 32.9656 56.7982 32.8673 56.4363C33.5881 55.9613 34.3729 55.4431 35.0192 55.0172C35.2262 54.5764 35.3706 54.2592 35.521 53.9464C35.8114 53.3463 36.1048 52.7477 36.3713 52.2026C36.203 52.0254 36.0229 51.8333 35.935 51.741C36.3639 51.1841 36.687 50.7641 37.031 50.3159C36.0407 49.8974 36.3803 50.9696 35.9439 51.1558C35.734 50.6494 35.5627 50.1282 35.3125 49.6472C34.4622 48.0121 32.7065 47.0933 30.8808 47.2795C30.638 47.3048 30.3819 47.2333 30.1451 47.2795C29.9009 47.3271 29.679 47.4805 29.4378 47.5535C28.7066 47.7768 27.968 47.9734 27.2383 48.1983C26.1512 48.5333 25.0596 48.8624 23.986 49.2392C23.572 49.3851 23.4052 49.2318 23.1684 48.928C22.7574 48.4038 22.47 47.8379 22.2809 47.208C22.2615 47.1425 22.1766 47.0874 22.1096 47.0457C21.7507 46.8208 21.3889 46.6019 21.0344 46.3845C21.2489 46.9459 21.1327 47.6935 21.8356 48.0762C21.8773 48.0985 21.9011 48.1998 21.8937 48.2593C21.8267 48.7508 21.8401 49.199 22.2362 49.5966C22.2824 49.6428 22.3345 50.1729 22.0873 50.5392C21.8624 50.8728 21.6822 51.1498 21.2474 51.333C21.2474 51.1036 21.2474 50.9026 21.2474 50.6599C21.1193 50.709 21.03 50.7433 20.8974 50.7939C20.9466 50.3784 20.1826 50.2012 20.6249 49.6919C20.7038 49.6011 20.8855 49.6011 21.1551 49.5177C20.8215 49.4194 20.5683 49.3434 20.2824 49.2601C20.2809 49.2898 20.2854 49.2064 20.2913 49.1216C19.8103 49.4254 19.5408 49.0575 19.237 48.7969C19.2043 48.7642 19.1715 48.7314 19.1387 48.6986C19.243 48.5229 19.3487 48.3487 19.45 48.1715C19.6182 47.8766 19.782 47.5788 19.9488 47.2824C19.8997 47.2512 19.852 47.2184 19.8029 47.1871C19.511 47.3316 19.2206 47.4745 18.8766 47.6443C18.9362 47.4716 18.9734 47.3658 19.0285 47.208C18.4403 47.205 18.2452 47.5892 18.0636 47.9898C18.0114 46.9355 18.4463 46.0047 18.8349 45.0681C18.9034 44.9013 19.097 44.73 19.2713 44.6734C21.8207 43.8335 24.3642 42.9728 26.9345 42.1999C28.6173 41.6936 30.3298 41.2737 32.0483 40.9029C33.2783 40.6378 34.5203 40.7763 35.8278 41.1724C35.3095 41.6504 35.0906 42.1612 35.46 42.9475C35.795 42.3548 36.075 41.8604 36.3609 41.3526C37.9364 41.9646 39.2186 42.8269 40.2357 44.0599C40.331 44.1746 40.2878 44.4024 40.3087 44.5781C40.0242 44.9385 39.7413 45.2974 39.4569 45.6578C39.5075 45.7054 39.5566 45.7546 39.6073 45.8022C39.8366 45.619 40.0659 45.4359 40.2938 45.2527C39.9751 45.0234 40.3236 44.797 40.3042 44.5677ZM21.852 60.0029C21.852 59.3089 21.852 58.7654 21.852 58.1295C21.6569 57.9449 21.3665 57.6694 21.0895 57.4073C21.0791 57.51 21.0657 57.6619 21.0523 57.8034C20.5385 57.3388 20.0352 56.8846 19.514 56.4155C19.4023 56.7863 19.3338 57.1452 19.6421 57.4787C20.2214 58.1072 20.7783 58.7445 21.1476 59.5368C21.2459 59.7453 21.5899 59.8376 21.852 60.0029ZM37.725 57.9612C38.2149 57.8704 38.1598 57.4251 38.2834 57.102C38.4234 56.7386 38.4919 56.3485 38.6215 55.9806C38.757 55.5979 38.8314 55.1184 39.1054 54.8757C39.5373 54.4915 38.9625 54.1862 39.1561 53.8526C39.3318 53.5518 39.4479 53.2153 39.5909 52.8951C39.5537 52.8802 39.5164 52.8668 39.4807 52.8519C39.3362 53.1051 39.1903 53.3582 39.0459 53.6114C38.9967 53.6114 38.9476 53.6114 38.8984 53.6114C38.8329 53.3121 38.7316 53.0172 38.7108 52.7149C38.6706 52.1431 38.4204 51.9659 37.9096 52.1997C38.0571 52.6673 37.8784 53.2629 38.4547 53.5667C38.4993 53.5905 38.4889 53.7275 38.4919 53.8124C38.4978 53.9807 38.4934 54.1505 38.4934 54.3187C38.5321 54.3158 38.5723 54.3128 38.611 54.3098C38.6676 54.1415 38.7242 53.9747 38.7793 53.8065C38.8255 53.8169 38.8731 53.8273 38.9193 53.8363C38.9193 54.14 38.9595 54.4513 38.9103 54.7476C38.8255 55.2688 38.2879 55.5667 38.3415 56.2413C38.3847 56.7967 37.9483 57.3864 37.725 57.9612ZM38.9774 50.2786C38.9401 50.2593 38.9029 50.2399 38.8657 50.2206C39.0161 49.8632 39.1665 49.5058 39.3735 49.0143C38.611 49.9585 38.1673 51.5608 38.6423 51.8557C38.2432 51.2749 38.745 51.0843 38.9952 51.0471C39.2365 51.0098 39.5283 51.3077 39.7934 51.4551C39.789 51.0158 39.713 50.508 39.2856 50.0359C39.308 49.9853 39.3675 49.8513 39.4286 49.7187C39.4033 49.7053 39.3779 49.6934 39.3526 49.68C39.2275 49.8781 39.1024 50.0791 38.9774 50.2786ZM41.5134 55.5324C42.1925 55.0469 42.1359 54.3262 42.3295 53.6739C41.5089 53.8988 41.156 54.6717 41.5134 55.5324ZM26.0023 66.5909C26.1214 66.4792 26.2465 66.3988 26.2346 66.3676C26.0097 65.7481 25.7849 65.1271 25.5183 64.5255C25.4677 64.4123 25.2458 64.3751 25.1028 64.3021C25.0716 64.3408 25.0388 64.378 25.0075 64.4168C25.3322 65.1256 25.6568 65.8344 26.0023 66.5909ZM23.2205 59.0528C23.2027 59.2479 23.1863 59.4176 23.1684 59.6023C22.9971 59.6544 22.8333 59.7036 22.5176 59.7989C22.7857 60.061 22.9986 60.2709 23.2116 60.4794C23.2592 60.4481 23.3054 60.4154 23.3531 60.3841C23.3769 60.1458 23.4022 59.9061 23.429 59.6485C23.5184 59.7065 23.5943 59.7557 23.6956 59.8212C23.8668 59.3417 23.7492 59.0885 23.2205 59.0528ZM25.7834 59.9567C26.1884 60.4422 26.592 60.9262 27.0253 61.4459C27.0923 60.81 26.4654 59.8927 25.7834 59.9567ZM20.5624 54.5004C21.1357 54.2026 21.3144 53.4491 20.9823 52.9219C20.8394 53.4565 20.7128 53.9345 20.5624 54.5004ZM22.9033 69.2506C23.298 68.4494 22.1588 68.3943 22.2511 67.7748C22.0768 68.4315 22.6978 68.7249 22.9033 69.2506ZM24.5235 57.5547C24.3731 57.2226 24.2674 57.0141 24.1855 56.7967C24.1021 56.5778 24.044 56.35 23.974 56.1251C23.9487 56.1355 23.9249 56.1445 23.8996 56.1549C23.8996 56.4959 23.8996 56.8384 23.8996 57.2107C24.0917 57.3164 24.2957 57.4296 24.5235 57.5547ZM25.566 73.3875C25.6568 73.3279 25.7461 73.2698 25.837 73.2103C25.6449 72.9541 25.4528 72.6995 25.2592 72.4433C25.1832 72.4955 25.1088 72.5491 25.0328 72.6012C25.2115 72.8648 25.3887 73.1269 25.566 73.3875Z" fill="#1CC62D" fill-opacity="0.8"/>
<path d="M83.0045 44.9281C82.1988 45.3272 82.2197 46.1626 82.0961 46.9235C82.0529 46.9116 82.0082 46.8997 81.965 46.8878C81.892 46.7344 81.8191 46.581 81.7163 46.3681C81.5883 46.6987 81.4751 46.9861 81.35 47.3077C81.1087 47.2333 80.8824 47.1633 80.5965 47.0754C80.8079 46.6644 80.9985 46.2966 81.2219 45.8633C81.3247 46.03 81.3783 46.1179 81.4408 46.2192C81.7878 45.0189 82.1258 43.8529 82.4639 42.6869C82.449 42.6794 82.4326 42.672 82.4177 42.6645C82.306 42.94 82.1958 43.2155 82.0544 43.5685C81.688 42.6735 81.9278 41.8306 82.1288 41.1098C82.3224 40.4189 83 39.8634 83.3633 39.2573C83.3991 39.0935 83.4125 38.9208 83.4735 38.7674C83.5808 38.4979 83.7297 38.2447 83.8265 37.9722C83.8443 37.9215 83.7029 37.8128 83.6344 37.7309C83.6225 37.8173 83.6135 37.9052 83.5971 37.9915C83.5793 38.0898 83.5822 38.206 83.5286 38.2789C82.8228 39.232 82.0544 40.1449 81.4155 41.1396C80.8854 41.9661 80.5071 42.8909 80.0648 43.7725C79.9949 43.9124 79.9383 44.0599 79.9546 44.1716C79.968 44.4381 79.9814 44.7047 79.9949 44.9713C79.9517 44.9802 79.9085 44.9891 79.8668 44.9995C79.5079 43.9095 79.1848 42.8045 78.7797 41.7323C78.4953 40.9773 78.4431 40.3072 78.9763 39.64C79.1252 39.4539 79.1594 39.1769 79.3411 38.9655C79.3411 39.2171 79.3411 39.4688 79.3411 39.7219C79.4781 39.1233 80.0842 38.6542 79.8251 37.9558C79.7938 37.8694 79.8966 37.7339 79.9368 37.6192C79.9829 37.4867 80.0663 37.3542 80.0648 37.2231C80.0529 36.3803 80.0202 35.5374 79.9934 34.635C79.8936 35.4153 79.8772 36.1762 79.6762 36.8836C79.5526 37.3214 79.7164 38.0079 78.881 38.1285C78.6382 38.1628 78.4789 38.7868 78.2868 39.1427C78.2302 39.2484 78.1959 39.3645 78.1036 39.5983C76.7038 35.2991 75.3397 31.1146 73.9489 26.8452C75.3159 26.3999 76.6427 25.968 78.0068 25.5228C78.1111 25.7268 78.1989 25.898 78.2808 26.0559C78.5355 25.7536 78.8154 25.42 79.0954 25.0879C79.1371 25.1207 79.1788 25.1535 79.2205 25.1862C78.8765 25.7268 78.5325 26.2659 78.187 26.8064C78.2898 26.8958 78.394 26.9851 78.4968 27.0745C78.5355 26.9479 78.5489 26.802 78.6189 26.6962C78.9554 26.1959 79.283 25.6866 79.6657 25.222C79.8534 24.9941 80.1527 24.8556 80.528 24.5876C80.7603 25.7774 80.5324 26.8094 80.5354 27.834C80.5801 27.8474 80.6263 27.8608 80.6709 27.8742C80.805 27.4468 80.939 27.0194 81.1073 26.4803C81.7059 28.312 82.2688 30.0349 82.8317 31.7594C82.9806 32.2151 83.1355 32.6708 83.268 33.1309C83.3574 33.4421 83.2993 33.6551 82.8883 33.6253C82.7096 33.6119 82.5234 33.7013 82.1899 33.7802C82.4847 33.9455 82.6158 34.0199 82.8391 34.145C82.5413 34.5769 82.312 35.0266 81.9754 35.3676C81.5004 35.8486 81.1609 36.3594 81.0968 37.0459C81.0819 37.2112 80.9569 37.3676 80.939 37.5701C81.3485 37.2916 81.8831 37.1457 81.9069 36.5054C81.9099 36.4145 81.971 36.273 82.041 36.2433C82.5979 36.011 82.9211 35.6163 83.0059 35.0117C83.0238 34.8896 83.1519 34.7824 83.21 34.696C83.4199 34.7735 83.5897 34.8375 83.8607 34.9388C84.4549 36.7451 85.0923 38.6706 85.7118 40.6006C85.7683 40.7763 85.7281 40.9877 85.7103 41.1813C85.6492 41.8619 85.612 42.5469 85.4958 43.2185C85.4273 43.6131 85.2278 43.9854 85.0863 44.3681C85.0252 44.3503 84.9642 44.3324 84.9016 44.3145C84.921 44.115 84.9418 43.9154 84.9612 43.7159C84.9091 43.7204 84.8585 43.7248 84.8063 43.7293C84.8734 44.4203 84.9389 45.1097 85.0059 45.8007C85.0625 45.8037 85.1176 45.8082 85.1742 45.8111C85.609 44.3473 85.8607 42.8507 85.9441 41.3198C87.6745 46.6242 89.4093 51.945 91.168 57.3358C89.944 57.7334 88.7705 58.1146 87.5241 58.5182C87.5911 58.1637 87.6447 57.8823 87.6983 57.6008C87.6447 57.5711 87.5896 57.5413 87.536 57.513C87.4749 57.6276 87.393 57.7349 87.3558 57.857C87.2783 58.1161 87.3066 58.5137 87.1413 58.6165C86.8495 58.7996 86.4474 58.8056 86.0989 58.8249C85.6298 59.0483 85.1608 59.2702 84.5919 59.5412C84.2658 58.5345 83.962 57.6142 83.6746 56.691C83.6269 56.5391 84.236 55.796 84.3641 55.7066C84.4787 55.6277 84.5785 55.4669 84.6023 55.3284C84.6276 55.1839 84.5532 55.0216 84.4966 54.7387C84.2777 55.0365 84.0856 55.2509 83.9486 55.4952C83.822 55.72 83.7565 55.9791 83.6627 56.2219C83.6105 56.2129 83.5584 56.204 83.5078 56.1936C83.2636 55.452 82.9732 54.7223 82.7989 53.9643C82.7424 53.7186 82.994 53.4029 83.0938 53.1438C82.9121 53.0857 82.6798 53.0112 82.5592 52.9725C82.4818 52.5422 82.4177 52.2011 82.3626 51.8586C82.3492 51.7723 82.3403 51.674 82.3671 51.595C82.6992 50.6003 82.5175 50.2533 81.6717 49.5579C81.3008 49.2541 81.1385 48.6942 80.8288 48.1625C81.2636 48.2712 81.557 48.3189 81.8325 48.4187C82.1541 48.5348 82.5294 48.6271 82.7513 48.8565C82.9776 49.0918 83.0581 49.476 83.1772 49.8036C83.2487 50.0001 83.2695 50.2161 83.3127 50.4231C83.9486 50.2652 84.0722 49.7946 83.7297 49.3032C83.2919 48.6748 82.9032 48.0225 82.2331 47.5937C82.1556 47.5445 82.1839 47.269 82.2197 47.1127C82.3194 46.6853 82.4311 46.2594 82.5741 45.8454C82.6396 45.6533 82.7885 45.4895 82.9032 45.3167C82.9717 45.2125 83.0491 45.1142 83.1221 45.0144C83.0834 44.9847 83.0447 44.9564 83.0045 44.9281ZM89.0668 53.8601C88.5054 53.7558 88.3029 53.4223 88.4369 52.8996C88.562 52.4156 88.6826 51.9301 88.8062 51.4446C88.1778 51.9733 88.4682 53.0098 87.5256 53.5414C87.7698 52.6628 87.393 51.8884 87.7891 51.2749C87.539 51.117 87.3722 51.0128 87.2545 50.9383C87.0669 51.2719 86.7378 51.6129 86.7065 51.9793C86.6693 52.4126 86.5204 52.6851 86.2032 52.9368C86.3566 52.8891 86.5099 52.843 86.7795 52.7611C86.6484 53.2778 86.5278 53.6992 86.4385 54.1281C86.3476 54.5644 86.1942 54.974 86.6663 55.376C87.0341 55.6873 86.8182 56.2755 86.3595 56.5629C86.1853 56.6731 86.0423 56.8354 85.8398 57.0156C86.3476 56.9858 86.7348 56.962 87.1756 56.9367C87.0892 56.7029 86.9999 56.5703 87.0043 56.4408C87.0088 56.3365 87.113 56.1608 87.1964 56.1459C87.8353 56.0253 88.148 55.7513 88.1987 55.1571C88.2493 54.5838 88.5605 54.1996 89.0668 53.8601ZM85.3499 48.1789C85.7356 47.6756 86.0528 47.2616 86.37 46.8461C86.3134 46.7925 86.2568 46.7389 86.2017 46.6853C85.7951 47.0457 85.3871 47.4075 84.9255 47.817C85.0893 47.957 85.2084 48.0583 85.3499 48.1789ZM83.6775 52.5183C83.8756 52.0016 84.1496 51.5563 83.8845 50.9875C83.4289 51.4223 83.3499 51.9733 83.6775 52.5183ZM80.9732 32.4638C81.0373 32.026 81.1043 31.5703 81.1713 31.1131C81.1043 31.0937 81.0388 31.0759 80.9717 31.0565C80.7916 31.4556 80.6114 31.8547 80.4342 32.2493C80.6531 32.3372 80.7871 32.3908 80.9732 32.4638ZM81.2309 39.9632C81.3202 39.6966 81.4274 39.4867 81.4423 39.2692C81.4468 39.1963 81.1534 39.0131 81.0998 39.0459C80.936 39.1501 80.8228 39.3318 80.6963 39.4777C80.8913 39.6564 81.0164 39.7696 81.2309 39.9632ZM79.5883 29.7937C80.4044 29.4006 80.455 29.3157 80.3478 28.653C80.0634 29.0789 79.8266 29.4363 79.5883 29.7937ZM81.21 30.6961C81.6285 30.7021 81.7565 30.4296 81.5808 29.7669C81.4334 30.1362 81.3232 30.4117 81.21 30.6961Z" fill="#1CC62D" fill-opacity="0.8"/>
<path d="M64.0176 18.2705C63.9476 18.5133 63.8925 18.7069 63.8285 18.9258C63.897 18.9049 63.9431 18.9019 63.9461 18.8885C64.1248 18.1752 64.7235 18.007 65.3132 17.8149C71.1805 15.9057 77.0478 13.9922 82.9181 12.0875C83.0506 12.0443 83.2174 12.1069 83.3499 12.1173C83.9099 11.8582 84.4862 11.5902 85.1086 11.3013C85.0759 12.4866 84.3968 13.541 83.5837 13.7375C83.5837 13.4025 83.5837 13.0719 83.5837 12.7562C82.9047 12.8381 82.6158 13.2818 82.2643 13.7494C81.9635 14.1485 81.4378 14.4553 80.9494 14.6236C78.5608 15.4426 76.1528 16.2021 73.7508 16.9809C73.6838 17.0033 73.6123 17.0107 73.5899 16.9258C73.3487 16.7948 73.106 16.6652 72.7813 16.488C72.4999 17.9444 71.1418 17.663 70.2423 18.132C70.1932 18.1574 70.0785 18.0546 70.0979 18.065C68.9259 18.6681 67.678 18.9124 66.503 19.3487C66.4479 19.1834 66.4062 19.0598 66.3645 18.9377C66.2618 19.0389 66.1605 19.1417 66.0548 19.24C65.9088 19.3755 65.7823 19.575 65.6095 19.6331C62.4346 20.6815 59.2538 21.7135 56.0744 22.7484C55.166 23.0448 54.2561 23.3382 53.3046 23.572C54.201 22.5429 54.6954 21.1908 56.2323 20.75C58.737 20.0307 61.1986 19.1581 63.6796 18.3524C63.7793 18.3197 63.8821 18.3033 64.0176 18.2705Z" fill="#1CC62D" fill-opacity="0.8"/>
<path d="M64.6758 77.8013C64.8352 77.1744 64.9811 76.5623 65.1494 75.9562C65.1821 75.8371 65.2804 75.6852 65.3847 75.6465C65.9118 75.4514 66.4509 75.2906 67.0272 75.1029C66.9825 75.7686 66.3913 76.2973 66.7368 76.9346C66.7979 76.9435 66.8589 76.9525 66.92 76.9614C66.9662 76.5966 67.0496 76.2332 67.0496 75.8684C67.051 75.3055 67.2387 75.0121 67.8329 74.8215C74.8751 72.5595 81.9069 70.2602 88.9402 67.9699C90.7719 67.3727 92.6021 66.7681 94.4338 66.1665C94.5321 66.1337 94.6303 66.1069 94.7778 66.0622C94.7316 67.2223 93.4286 67.2595 92.9923 68.226C93.3407 67.9371 93.5715 67.7465 93.8039 67.5544C93.8411 67.5886 93.8798 67.6229 93.917 67.6571C93.7175 67.9833 93.5909 68.3883 93.1739 68.5253C88.5933 70.0279 84.0096 71.517 79.426 73.0107C74.7768 74.5266 70.1277 76.0426 65.477 77.5571C65.1955 77.6479 64.9111 77.7283 64.6758 77.8013Z" fill="#1CC62D" fill-opacity="0.8"/>
<path d="M133.798 36.0214C134.029 36.0214 134.144 36.0214 134.218 36.0214C133.94 36.5277 133.66 37.037 133.326 37.6446C132.184 34.2865 131.198 30.9642 130.089 27.7818C130.433 27.4647 130.713 27.207 130.991 26.9509C130.964 26.9241 130.936 26.8973 130.909 26.872C130.58 26.9688 130.253 27.0671 129.9 27.1713C129.099 24.7052 128.285 22.202 127.471 19.7002C127.157 18.7367 126.828 17.7777 126.536 16.8067C126.443 16.4985 126.449 16.1619 126.405 15.7822C126.406 15.7822 126.195 15.7345 126.19 15.6735C126.181 15.5484 126.253 15.3771 126.35 15.2907C126.729 14.9497 127.131 14.634 127.606 14.2409C127.968 15.3429 128.3 16.3466 128.628 17.3518C130.052 21.7165 131.474 26.0812 132.896 30.446C133.359 31.8681 133.815 33.2918 134.278 34.7139C134.354 34.9447 134.388 35.1145 134.154 35.3155C133.98 35.463 133.926 35.7489 133.798 36.0214ZM132.54 31.6164C132.485 31.5539 132.428 31.4914 132.373 31.4288C132.15 31.5718 131.926 31.7147 131.606 31.9202C131.821 32.0319 131.989 32.1645 132.031 32.1332C132.22 31.9858 132.373 31.7922 132.54 31.6164Z" fill="#1CC62D" fill-opacity="0.8"/>
<path d="M98.2684 66.3899C98.4962 66.2663 98.7479 66.1725 98.9429 66.0086C99.1246 65.8553 99.3897 65.7108 99.1961 65.3549C99.0517 65.0898 99.5282 64.5091 99.9764 64.3616C101.701 63.7928 103.425 63.2284 105.151 62.6655C109.126 61.3714 113.103 60.0862 117.072 58.7773C117.486 58.6403 117.702 58.6507 117.884 59.1004C117.973 59.3193 118.293 59.4429 118.508 59.6127C118.659 59.7333 118.807 59.8584 119.072 60.0758C114.277 61.6409 109.635 63.1554 104.944 64.6863C104.892 64.2961 104.847 63.9581 104.803 63.62C104.758 63.6007 104.713 63.5828 104.669 63.5634C104.548 63.7109 104.337 63.8523 104.323 64.0087C104.259 64.7161 103.817 65.0511 103.212 65.2492C101.88 65.687 100.542 66.1159 99.1336 66.573C99.1976 66.369 99.2408 66.232 99.3272 65.961C98.9385 66.4286 98.7047 66.9364 98.0703 66.8426C98.1448 66.6803 98.2162 66.5269 98.2877 66.372L98.2684 66.3899Z" fill="#1CC62D" fill-opacity="0.8"/>
<path d="M54.003 21.5542C53.6218 22.257 53.3135 22.8884 52.9427 23.4796C52.8057 23.6971 52.5466 23.8966 52.3024 23.9785C49.3807 24.9465 46.45 25.8891 43.5223 26.8377C43.4061 26.8749 43.284 26.9003 43.1232 26.9405C43.1426 26.7975 43.1574 26.6903 43.1753 26.5652C43.1187 26.5905 43.0681 26.598 43.0607 26.6203C42.9102 27.0864 42.5097 27.1802 42.1046 27.3113C39.515 28.1437 36.9298 28.994 34.3431 29.8369C34.1465 29.9009 33.9455 29.9545 33.6045 30.0558C34.2403 29.1965 34.7809 28.4475 35.3438 27.7163C35.4436 27.5868 35.6238 27.4944 35.7846 27.4423C41.7368 25.5034 47.692 23.5705 53.6471 21.639C53.726 21.6122 53.8094 21.5988 54.003 21.5542Z" fill="#1CC62D" fill-opacity="0.8"/>
<path d="M9.45768 68.1262C9.55597 68.019 9.65574 67.9103 9.80912 67.7435C10.1382 68.7487 10.4524 69.7033 10.7622 70.6608C10.7771 70.707 10.7756 70.7725 10.7533 70.8127C10.3765 71.4709 9.99378 72.1276 9.55001 72.893C8.82777 70.6802 8.14126 68.576 7.44582 66.4435C7.60219 66.3914 7.71834 66.3526 7.8345 66.3139C7.08098 66.1918 7.16437 65.5306 7.00801 65.072C6.41532 63.3386 5.86135 61.5933 5.291 59.8524C5.18379 59.5233 5.08848 59.221 5.43992 58.9426C5.60671 58.8115 5.67819 58.5584 5.74967 58.2873C5.51289 58.4377 5.27462 58.5867 5.03636 58.7371C4.49281 57.991 4.8517 57.373 6.29321 56.889C6.21875 57.0379 6.14578 57.1854 6.01325 57.4489C6.05941 57.6768 6.29768 57.8555 6.61338 58.0744C6.83527 58.2293 6.79506 58.7624 6.77272 59.1257C6.87398 59.2136 7.03333 59.2821 7.06907 59.3923C7.9164 61.9402 8.75777 64.4897 9.57533 67.0466C9.63042 67.2193 9.5098 67.4546 9.4547 67.6557C9.41747 67.7912 9.35344 67.9207 9.30132 68.0518C9.35493 68.0771 9.40556 68.1009 9.45768 68.1262Z" fill="#1CC62D" fill-opacity="0.8"/>
<path d="M16.7412 86.224C17.1417 86.1913 17.4053 86.1704 17.6823 86.1481C17.9206 86.6946 18.0486 87.3111 18.409 87.7266C18.7515 88.1198 19.3353 88.3029 19.8148 88.5784C19.8565 88.5367 19.8967 88.495 19.9384 88.4518C19.919 88.6142 19.8997 88.775 19.8818 88.9313C19.9339 88.9522 19.9831 88.979 19.989 88.9716C20.817 87.9932 22.0426 87.8338 23.1535 87.466C27.7818 85.9366 32.4206 84.4385 37.0563 82.927C38.8329 82.3478 40.6095 81.7715 42.3845 81.1832C42.669 81.0894 42.8566 81.082 43.0547 81.3768C43.3838 81.8638 43.415 81.8519 42.7241 82.0767C37.7681 83.688 32.8122 85.2918 27.8563 86.9031C25.5049 87.6685 23.1594 88.4533 20.8036 89.2098C19.4797 89.6342 18.0933 89.1622 17.4962 88.0602C17.1954 87.5092 17.0107 86.8942 16.7412 86.224Z" fill="#1CC62D" fill-opacity="0.8"/>
<path d="M12.5373 72.6414C12.2037 72.4716 12.1128 72.1485 12.2007 71.7315C12.226 71.6139 12.1828 71.462 12.1248 71.3488C11.9893 71.0793 11.7644 70.838 11.7004 70.5581C11.6661 70.4106 11.8939 70.2036 12.0622 69.9252C11.8656 69.949 11.7182 69.9654 11.4963 69.9922C11.2402 69.2014 10.9439 68.3496 10.7026 67.4814C10.6535 67.3027 10.8098 67.0674 10.8888 66.8024C10.7622 66.8843 10.6743 66.9424 10.4316 67.1002C10.5343 66.7428 10.5969 66.5254 10.6728 66.2648C10.5686 66.3229 10.4792 66.3735 10.3437 66.4494C10.0146 65.4413 9.68849 64.4495 9.36534 63.4547C8.89775 62.0162 8.48972 60.5553 7.94468 59.1481C7.66919 58.4377 7.87171 58.0208 8.39441 57.6068C8.60289 58.2278 8.81584 58.8428 9.01837 59.4608C10.1531 62.9172 11.2864 66.3735 12.4196 69.8298C12.579 70.3138 12.7636 70.7919 12.8947 71.2833C12.9766 71.5945 12.9661 71.9281 13.0257 72.2482C13.0674 72.4746 13.1538 72.6935 13.2625 73.0598C13.3578 73.2147 13.5975 73.4753 13.6988 73.7806C14.9512 77.5631 16.1842 81.353 17.4202 85.1414C17.4366 85.1921 17.4396 85.2457 17.447 85.2844C17.1969 85.4854 16.9526 85.682 16.6816 85.8994C16.3733 84.9687 16.0547 84.0126 15.7405 83.0551C15.4233 82.0842 15.1105 81.1103 14.7948 80.1393C14.0696 77.9056 13.3399 75.6733 12.6251 73.4366C12.5536 73.2147 12.57 72.9675 12.5373 72.6414ZM8.27379 58.134C7.84342 58.8056 7.94021 59.09 8.71905 59.437C8.56417 58.9843 8.43313 58.603 8.27379 58.134Z" fill="#1CC62D" fill-opacity="0.8"/>
<path d="M57.6231 23.2325C57.0841 24.1826 56.3157 24.6233 55.3537 24.9316C48.7969 27.0313 42.2594 29.1861 35.7146 31.3201C34.3386 31.7698 32.9596 32.2121 31.5479 32.5889C31.5985 32.5472 31.664 32.5159 31.6983 32.4638C32.6112 31.0387 34.151 30.8778 35.594 30.4787C36.5664 30.2107 37.4971 29.7922 38.4576 29.4765C42.0227 28.3031 45.5922 27.143 49.1602 25.9785C51.7469 25.1341 54.3351 24.2913 56.9217 23.4499C57.1362 23.3799 57.3551 23.3159 57.6231 23.2325Z" fill="#1CC62D" fill-opacity="0.8"/>
<path d="M90.833 65.4368C90.4398 66.4912 89.6 66.8188 88.6618 67.1122C85.5375 68.089 82.4326 69.13 79.3203 70.1456C77.4439 70.7576 75.5676 71.3741 73.6868 71.9758C73.4827 72.0413 73.2534 72.0264 72.9303 72.0591C72.8216 72.1738 72.6831 72.6027 72.4016 72.2602C71.8908 72.4776 71.4188 72.8365 70.9348 72.8514C70.0219 72.8782 69.3637 73.4947 68.5223 73.6779C67.5618 73.8878 66.6385 74.272 65.6855 74.5848C65.6542 73.6674 65.7599 73.5811 66.582 73.3234C68.293 72.7859 69.9892 72.2021 71.6928 71.6407C72.0814 71.5126 72.4686 71.3816 72.8647 71.2803C73.0003 71.2461 73.1566 71.3012 73.313 71.3161C73.5229 71.1791 73.8074 70.9929 74.1871 70.7457C74.1707 71.0748 74.1633 71.2401 74.1544 71.4069C74.1961 71.4233 74.2377 71.4397 74.278 71.456C74.342 71.3458 74.4567 71.2356 74.4581 71.1225C74.4671 70.7934 74.6532 70.6712 74.9332 70.5804C80.0261 68.9289 85.1176 67.27 90.209 65.6141C90.413 65.5515 90.6171 65.4994 90.833 65.4368Z" fill="#1CC62D" fill-opacity="0.8"/>
<path d="M8.01764 39.5641C9.2611 39.0965 10.4911 38.5917 11.751 38.1702C14.5 37.2499 17.2519 36.3311 20.0292 35.5016C20.9287 35.2336 21.7894 34.8688 22.6874 34.6052C23.6598 34.3193 24.6173 33.9842 25.5808 33.6685C26.5279 33.3573 27.4721 33.0401 28.4192 32.7318C29.3842 32.4161 30.3491 32.1064 31.3156 31.7966C31.4973 31.7385 31.6819 31.6834 31.8964 31.6745C31.5375 32.221 31.2709 32.7884 30.5487 33.0207C24.3344 35.0236 18.1291 37.0593 11.9207 39.0831C10.4852 39.5507 9.04814 40.0123 7.61259 40.4754C7.35646 40.2193 7.38028 40.0317 7.68556 39.8589C7.8181 39.7845 7.91936 39.6519 8.03402 39.5462L8.01764 39.5641Z" fill="#1CC62D" fill-opacity="0.8"/>
<path d="M98.1984 8.30061C97.8261 9.25219 96.952 9.4428 96.1091 9.70787C94.5336 10.2023 92.9685 10.7265 91.3646 11.2477C91.3765 11.1166 91.384 11.0332 91.3944 10.9141C90.6915 11.611 88.8584 12.2022 88.6156 11.9565C88.1823 12.1829 87.7832 12.3913 87.3841 12.5998C87.3409 12.5611 87.2962 12.5239 87.2531 12.4852C87.4973 11.8508 87.7266 11.2089 87.9991 10.5865C88.0572 10.4525 88.2597 10.3482 88.4176 10.2961C91.8978 9.1539 95.3809 8.02065 98.8641 6.8874C98.9236 6.86804 98.9936 6.87697 99.1008 6.87102C98.8283 7.29394 98.5826 7.67665 98.3369 8.05639C98.2892 8.13829 98.2446 8.2202 98.1984 8.30061ZM89.2917 10.4122C88.6469 10.5076 88.5382 10.7428 88.836 11.2983C88.9864 11.0049 89.1175 10.7488 89.2917 10.4122Z" fill="#1CC62D" fill-opacity="0.8"/>
<path d="M129.818 32.8108C128.366 28.3611 126.954 24.0321 125.542 19.7091C125.824 19.6391 126.061 19.581 126.297 19.5215C126.287 19.4381 126.277 19.3547 126.266 19.2713C126.001 19.2713 125.736 19.2713 125.389 19.2713C124.723 17.0182 123.828 14.7695 123.221 12.3541C123.142 12.1665 122.911 11.8791 122.953 11.6378C122.991 11.4085 123.316 11.2268 123.526 11.0124C124.037 11.7465 124.802 14.4002 124.711 14.8425C124.869 15.0748 125.032 15.2312 125.093 15.4188C126.854 20.7932 128.601 26.1736 130.369 31.5465C130.562 32.1377 130.153 32.3729 129.818 32.8108Z" fill="#1CC62D" fill-opacity="0.8"/>
<path d="M117.073 57.8332C111.279 59.7214 105.521 61.5993 99.7188 63.4905C99.7277 63.349 99.7352 63.2418 99.7516 62.9752C99.1604 63.7719 98.4411 64.0355 97.5074 64.034C97.7352 63.5367 97.8961 63.1137 98.4158 62.9454C102.16 61.7303 105.9 60.5077 109.643 59.2866C111.766 58.5926 113.888 57.8972 116.012 57.2003C116.697 56.9769 116.792 57.026 117.073 57.8332Z" fill="#1CC62D" fill-opacity="0.8"/>
<path d="M123.397 10.1948C123.112 10.3765 122.893 10.5165 122.615 10.6937C122.329 9.83293 122.031 8.95284 121.742 8.06977C121.487 7.29242 121.248 6.50912 120.992 5.73178C120.588 4.50471 119.642 3.98499 118.403 4.37515C116.265 5.04677 114.138 5.75561 112.009 6.45402C111.732 6.54486 111.512 6.59996 111.224 6.38255C110.999 6.21278 110.639 6.22469 110.179 6.12045C110.484 5.99983 110.639 5.93133 110.798 5.87921C111.727 5.57393 112.646 5.21951 113.592 4.97975C115.041 4.61342 116.406 4.01626 117.832 3.58292C119.928 2.94555 121.245 3.60823 121.921 5.68115C122.421 7.21945 122.927 8.75776 123.397 10.1948Z" fill="#1CC62D" fill-opacity="0.8"/>
<path d="M65.4457 21.5825C65.5842 21.3814 65.7331 21.2668 65.7287 21.158C65.7004 20.5311 66.1501 20.4254 66.5998 20.2809C68.3436 19.7225 70.083 19.1492 71.8298 18.5967C72.0174 18.5371 72.2408 18.5892 72.6026 18.5892C72.9883 18.0174 73.8237 17.9593 74.5683 17.7106C75.7135 17.3264 76.8601 16.9482 78.0798 16.5416C78.0291 16.7263 77.9979 16.8469 77.9577 16.9943C78.0187 16.9765 78.0932 16.9735 78.1006 16.9512C78.2391 16.4761 78.6278 16.3585 79.0447 16.2319C80.0112 15.9385 80.9658 15.6079 81.9888 15.2699C81.9293 15.6764 81.828 15.8894 81.4974 16.1455C80.2822 17.0911 78.7663 17.1775 77.4126 17.7077C76.0232 18.2512 74.5788 18.6533 73.1581 19.1164C70.7218 19.9116 68.2841 20.7053 65.8463 21.4976C65.748 21.5303 65.6438 21.5422 65.4457 21.5825Z" fill="#1CC62D" fill-opacity="0.8"/>
<path d="M8.03256 39.5462C7.68409 39.6996 7.23287 39.7309 7.20756 40.267C7.20458 40.3266 7.0914 40.398 7.01694 40.4338C6.46893 40.6959 5.93432 40.9997 5.36248 41.1992C4.0267 41.6683 3.54571 42.602 3.98799 43.9586C4.54642 45.6652 5.0989 47.3733 5.65883 49.0977C5.54863 49.1305 5.45779 49.1573 5.39227 49.1767C6.22471 50.1133 6.253 51.3672 6.79208 52.4439C6.56424 52.3858 6.40937 52.3471 6.253 52.3084C6.21429 52.3441 6.17557 52.3784 6.13685 52.4141C6.34235 52.7194 6.54786 53.0247 6.7623 53.3418C6.69231 53.6248 6.60445 53.9852 6.5151 54.347C6.47638 54.3426 6.43915 54.3396 6.40043 54.3351C6.04601 53.257 5.69159 52.1788 5.34015 51.0992C4.59557 48.8163 3.85694 46.5304 3.11087 44.2475C2.5152 42.4278 3.21511 40.9937 5.02891 40.3668C5.9373 40.0526 6.85314 39.7622 7.77046 39.4733C7.83747 39.4524 7.93427 39.5314 8.01766 39.5626C8.01766 39.5641 8.03256 39.5462 8.03256 39.5462Z" fill="#1CC62D" fill-opacity="0.8"/>
<path d="M107.945 5.84501C105.393 6.67745 102.943 7.47564 100.429 8.29617C100.474 8.16363 100.507 8.06982 100.599 7.80028C100.213 7.89856 99.9243 7.97302 99.6354 8.04599C99.6161 8.10853 99.5982 8.17108 99.5788 8.23363C99.421 8.00429 99.2631 7.77496 99.1202 7.56648C99.7233 6.50024 100.788 6.24708 101.796 5.91351C103.265 5.42804 104.739 4.95896 106.21 4.48242C106.523 4.38116 106.818 4.28138 106.813 4.80557C106.813 4.90236 106.977 5.00959 107.077 5.09745C107.336 5.32678 107.602 5.55164 107.945 5.84501Z" fill="#1CC62D" fill-opacity="0.8"/>
<path d="M135.776 45.1976C135.657 44.8342 135.548 44.5007 135.429 44.1343C135.55 44.0271 135.675 43.9154 135.922 43.695C135.655 43.7844 135.538 43.8231 135.35 43.8856C134.729 41.9825 134.098 40.0689 133.487 38.1479C133.444 38.0109 133.486 37.7399 133.581 37.6803C134.241 37.2648 134.388 36.5887 134.561 35.7593C134.684 36.0482 134.766 36.2105 134.823 36.3803C135.561 38.6244 136.305 40.8686 137.019 43.1217C137.088 43.3376 136.978 43.6101 136.948 43.8559C136.936 43.9512 136.92 44.0465 136.897 44.1388C136.865 44.2743 136.866 44.4619 136.777 44.5304C136.473 44.7687 136.138 44.9623 135.776 45.1976Z" fill="#1CC62D" fill-opacity="0.8"/>
<path d="M39.2573 84.1526C39.1829 84.3655 39.1188 84.571 39.0384 84.7721C39.0012 84.8659 38.9476 85.0103 38.8791 85.0252C38.3981 85.122 38.4085 85.5509 38.2477 85.8785C38.1241 86.1302 37.9632 86.4593 37.7399 86.5427C37.2961 86.7095 36.8747 87.1532 36.3207 86.8316C36.2909 86.8137 36.2165 86.848 36.1762 86.8763C34.9998 87.6968 33.6149 87.9246 32.2687 88.2701C31.9783 88.3446 31.7177 88.5307 31.4437 88.6647C31.4124 88.6275 31.3811 88.5903 31.3499 88.5516C31.475 88.3937 31.5732 88.1927 31.7341 88.0899C31.9024 87.9827 32.1302 87.9693 32.4161 87.8934C31.6641 87.4481 31.7073 87.4943 31.201 87.95C30.5874 88.5009 29.895 88.9626 29.1548 89.3751C29.9992 88.8956 30.2732 88.0229 30.7051 87.262C30.8034 87.0877 30.9538 86.8807 31.1265 86.8197C32.2285 86.431 33.3439 86.0781 34.495 85.7877C34.3833 85.8919 34.2731 85.9977 34.1629 86.1004C34.2939 86.1793 34.4548 86.2374 34.556 86.3491C34.8524 86.6767 35.0981 86.5501 35.1845 86.224C35.3647 85.5479 35.8695 85.2635 36.4488 85.064C37.3884 84.7408 38.3415 84.4489 39.2573 84.1526Z" fill="#1CC62D" fill-opacity="0.8"/>
<path d="M110.578 3.28212C110.64 3.19128 110.684 3.04385 110.767 3.01556C112.533 2.43032 114.304 1.8555 116.077 1.29111C116.207 1.24941 116.414 1.25388 116.508 1.32983C116.971 1.70957 117.407 2.12206 117.922 2.58519C116.709 2.97982 115.553 3.36105 114.39 3.72589C114.304 3.7527 114.176 3.66633 114.074 3.61718C113.933 3.54719 113.8 3.46231 113.59 3.46975C113.653 3.60676 113.715 3.74227 113.782 3.8897C113.745 3.91799 113.711 3.96118 113.666 3.97607C112.383 4.39751 111.095 4.80852 109.815 5.24186C109.479 5.35653 109.285 5.22995 109.083 4.99019C108.777 4.62833 108.445 4.28731 108.073 3.88225C108.902 3.69462 109.654 3.15852 110.588 3.26872C110.52 3.6425 110.453 4.01628 110.386 4.39006C110.408 4.42878 110.429 4.46898 110.451 4.5077C110.526 4.30964 110.602 4.11308 110.676 3.91502C110.728 3.9582 110.782 3.9999 110.834 4.04308C110.794 4.21285 110.753 4.38112 110.673 4.71916C111.453 4.17711 112.113 3.74972 112.733 3.26872C112.879 3.15554 112.889 2.86813 112.962 2.66114C112.922 2.60753 112.883 2.55392 112.843 2.50031C112.234 2.74453 111.628 2.9962 111.014 3.23C110.885 3.28063 110.725 3.26574 110.578 3.28212Z" fill="#1CC62D" fill-opacity="0.8"/>
<path d="M101.558 9.54257C101.783 9.54257 101.935 9.54257 102.189 9.54257C101.434 9.99825 100.221 10.3125 100.043 10.177C99.7724 10.3259 99.5372 10.5061 99.2706 10.5939C95.5373 11.8225 91.8009 13.0376 88.0646 14.2558C88.0363 14.2647 88.0006 14.2468 87.9261 14.2364C88.1034 13.6482 88.297 13.188 88.9998 12.9676C92.9685 11.7197 96.9207 10.4122 100.876 9.12114C101.281 8.98711 101.597 8.96775 101.558 9.54257Z" fill="#1CC62D" fill-opacity="0.8"/>
<path d="M134.629 47.5564C134.431 46.9771 134.26 46.4991 134.102 46.0166C132.89 42.2982 131.7 38.5738 130.454 34.8673C130.232 34.2076 130.343 33.7474 130.88 33.2486C130.957 33.4436 131.031 33.6074 131.088 33.7772C131.751 35.8054 132.41 37.8352 133.072 39.8634C133.749 41.9453 134.389 44.0405 135.122 46.103C135.357 46.7672 135.007 47.065 134.629 47.5564Z" fill="#1CC62D" fill-opacity="0.8"/>
<path d="M55.3239 79.7686C55.2226 79.5556 55.1229 79.3427 54.9829 79.0478C55.5205 78.8646 56.0744 78.6711 56.6329 78.4864C57.51 78.1945 58.3856 77.8997 59.2702 77.6301C59.4548 77.5735 59.6722 77.6212 59.8673 77.6212C60.5181 76.9913 61.489 77.0225 62.2664 76.61C62.3155 76.6517 62.3632 76.6934 62.4123 76.7351C62.2574 77.0166 62.1026 77.298 61.9447 77.584C62.1338 77.7329 62.1204 78.607 61.8673 78.7023C61.1301 78.9808 60.3751 79.2146 59.5516 79.4916C59.5903 79.1059 59.6157 78.8423 59.6529 78.4775C59.1674 78.8721 59.5099 79.7537 58.6551 79.7179C58.6015 79.4826 58.5494 79.2488 58.4958 79.0136C58.4362 78.9957 58.3782 78.9763 58.3186 78.9585C58.1935 79.2206 58.0773 79.4871 57.9418 79.7418C57.8763 79.8639 57.7959 80.0277 57.6842 80.0679C56.9739 80.327 56.2531 80.5578 55.4907 80.814C55.6143 80.3032 55.723 79.8549 55.86 79.289C55.4579 79.7269 55.1526 80.059 54.8474 80.391C54.7937 80.3613 54.7401 80.33 54.6865 80.3002C54.7461 80.0426 54.8057 79.7864 54.8697 79.5109C55.0082 79.6286 55.1229 79.7269 55.2375 79.8252C55.2658 79.8073 55.2956 79.7879 55.3239 79.7686Z" fill="#1CC62D" fill-opacity="0.8"/>
<path d="M45.6979 83.545C45.6458 83.4602 45.5729 83.344 45.4865 83.2025C44.9534 83.9739 44.3369 84.6098 43.3257 84.7379C43.351 84.6798 43.3763 84.6187 43.4136 84.5324C43.1649 84.5607 42.9266 84.5875 42.6898 84.6158C43.3897 84.1586 43.7769 83.5689 43.9958 82.8273C44.0316 82.7052 44.2401 82.6009 44.3905 82.5503C45.5833 82.1482 46.7806 81.7625 47.9764 81.3694C48.6837 81.1371 49.3881 80.8958 50.0969 80.665C50.2101 80.6278 50.3367 80.6293 50.5869 80.595C50.505 80.8497 50.4856 81.0582 50.3814 81.2041C50.2399 81.4021 50.0433 81.5674 49.8512 81.7238C49.3732 82.111 49.3687 82.105 49.3762 82.6918C49.1334 82.7692 48.8922 82.8988 48.645 82.9092C48.4186 82.9181 47.9376 83.2666 48.0136 82.5935C48.0151 82.5845 47.6651 82.4684 47.5847 82.5324C47.3033 82.7588 47.1082 83.1147 46.8029 83.283C46.4902 83.4542 46.0896 83.4602 45.6979 83.545Z" fill="#1CC62D" fill-opacity="0.8"/>
<path d="M52.6851 77.9249C52.4141 78.9152 52.082 79.1863 51.5905 78.8527C51.0142 79.49 51.0142 79.4901 50.5749 78.9674C50.6271 79.1788 50.6539 79.2935 50.6911 79.4424C50.286 79.6047 49.8914 79.8266 49.3732 79.6032C48.0404 80.6531 46.2593 80.7782 44.6332 81.4007C44.727 81.0835 44.7895 80.8243 44.8848 80.5801C44.9221 80.4848 45.0204 80.3761 45.1142 80.3448C46.9146 79.7402 48.7165 79.1401 50.5243 78.5549C51.2302 78.3255 51.9494 78.1379 52.6851 77.9249Z" fill="#1CC62D" fill-opacity="0.8"/>
<path d="M102.621 9.50236C102.417 9.22984 102.252 9.00945 102.048 8.73395C104.493 7.94023 106.953 7.14353 109.333 6.37065C109.543 6.6804 109.687 6.89335 109.869 7.15991C109.004 7.28351 108.264 7.93427 107.308 7.74366C107.258 7.73324 107.18 7.73175 107.156 7.76004C106.562 8.46293 105.653 8.45995 104.885 8.76225C104.145 9.05561 103.37 9.26261 102.621 9.50236Z" fill="#1CC62D" fill-opacity="0.8"/>
<path d="M62.7235 74.5743C62.4674 75.0881 62.5538 75.6361 61.9864 75.7924C61.6097 75.8967 61.2478 76.1722 60.8264 75.989C60.6685 76.0962 60.5017 76.269 60.3007 76.3375C58.9217 76.8021 57.5353 77.2444 56.1489 77.6911C56.1027 77.706 56.0461 77.6926 56.0059 77.6926C55.857 77.4439 55.7155 77.2086 55.5428 76.9212C56.5108 76.6026 57.4668 76.2869 58.4735 75.9548C58.4735 76.1752 58.4735 76.3211 58.4735 76.543C58.5777 76.4715 58.6641 76.4432 58.6686 76.406C58.74 75.8327 59.1838 75.712 59.6335 75.5721C60.6164 75.2668 61.5933 74.9406 62.7235 74.5743Z" fill="#1CC62D" fill-opacity="0.8"/>
<path d="M98.6377 18.8975C97.8068 19.383 96.9371 19.8133 96.1582 20.3703C95.6043 20.7664 95.1918 21.3576 94.6765 21.8162C94.3459 22.1126 93.9528 22.3449 93.5686 22.5742C93.3065 22.7306 92.8672 22.6651 92.9044 23.158C92.7168 23.1684 92.5277 23.1788 92.34 23.1893C92.3162 23.1297 92.2909 23.0686 92.2671 23.0091C92.556 22.6368 92.8255 22.2481 93.1382 21.8982C93.3452 21.6673 93.6609 21.5259 93.5522 21.1193C93.5373 21.0657 93.7116 20.9421 93.8158 20.8811C93.9573 20.7992 94.1613 20.7887 94.2611 20.677C95.0548 19.7925 96.1076 19.5349 97.2215 19.3874C97.4032 19.3636 97.564 19.2102 97.7412 19.1358C98.0257 19.0166 98.316 18.9139 98.6035 18.8052C98.6139 18.8349 98.6258 18.8662 98.6377 18.8975Z" fill="#1CC62D" fill-opacity="0.8"/>
<path d="M17.6406 46.4589C17.8729 45.9482 18.1052 45.4359 18.3376 44.9251C18.3658 44.94 18.3956 44.9564 18.4239 44.9713C18.1693 45.8439 17.9161 46.7181 17.6704 47.5624C17.243 47.1603 16.6518 47.1231 16.0621 47.1514C15.6437 47.1708 15.2312 47.2914 14.8127 47.3122C14.6906 47.3182 14.5134 47.1588 14.4419 47.0308C14.3317 46.8357 14.293 46.6019 14.2126 46.3502C14.5402 46.2564 14.8082 45.969 15.1909 46.2237C15.7315 45.5476 16.689 45.5893 17.4843 45.2736C17.5155 45.2617 17.7687 45.6131 17.7836 45.8052C17.7985 46.0077 17.651 46.2222 17.5736 46.4307C17.593 46.4396 17.6168 46.4485 17.6406 46.4589Z" fill="#1CC62D" fill-opacity="0.8"/>
<path d="M50.8743 81.5824C51.1274 81.2592 51.3851 80.9375 51.6352 80.6114C51.7544 80.4551 51.8571 80.2853 51.9778 80.1304C52.0358 80.056 52.1088 79.986 52.1907 79.9428C52.2994 79.8862 52.4245 79.8594 52.5421 79.8192C53.9539 79.3352 53.662 79.4663 54.213 80.5653C54.2934 80.7261 54.4572 80.8437 54.6538 81.0612C54.0864 81.2518 53.5444 81.4334 53.0023 81.6151C52.9785 81.5764 52.9546 81.5392 52.9293 81.5005C53.0529 81.2741 53.1765 81.0477 53.3478 80.7335C53.3925 80.9093 53.4133 80.9912 53.4401 81.0954C53.8615 80.668 53.2361 80.4163 53.312 80.0619C52.9666 81.0165 52.6821 82.0053 51.3493 82.0589C51.3836 81.8325 51.4148 81.6226 51.4506 81.3843C51.2302 81.4543 51.0426 81.5124 50.8564 81.5704C50.8564 81.5704 50.8743 81.5824 50.8743 81.5824Z" fill="#1CC62D" fill-opacity="0.8"/>
<path d="M61.09 22.4953C61.1614 22.1751 61.3446 21.9949 61.6737 21.8937C62.795 21.5512 63.9075 21.1729 65.0228 20.8126C65.1703 20.7649 65.3251 20.7426 65.5157 20.7009C65.3192 21.3442 65.0943 21.8118 64.3795 21.989C63.2984 22.2585 62.2515 22.6666 61.1599 23.0254C61.1361 22.817 61.1168 22.6487 61.0974 22.4804L61.09 22.4953Z" fill="#1CC62D" fill-opacity="0.8"/>
<path d="M19.1447 48.6972C19.1774 48.7299 19.2102 48.7627 19.243 48.7954C19.0077 49.059 18.7798 49.3286 18.5371 49.5847C18.3956 49.7336 18.2318 49.8632 18.0278 50.0463C17.5245 49.0486 16.7933 49.1082 16.1142 49.537C15.8283 49.3166 15.6049 49.1454 15.4456 49.0218C15.6258 48.7701 15.8119 48.4693 16.0442 48.2087C16.147 48.094 16.3391 48.03 16.4999 48.0032C16.7754 47.957 17.0598 47.9585 17.3532 47.9377C17.3368 47.9913 17.313 48.0687 17.2639 48.2266C17.5423 48.1923 17.794 48.1611 18.0442 48.1313C17.8774 48.5065 18.0352 48.712 18.406 48.7448C18.6488 48.7671 18.8975 48.7165 19.1447 48.6972Z" fill="#1CC62D" fill-opacity="0.8"/>
<path d="M111.839 21.4246C110.841 21.4038 110.121 21.1178 109.716 20.2794C109.567 19.9712 109.632 19.7672 110.009 19.8535C110.331 19.928 110.679 20.0144 110.937 20.2035C111.464 20.5892 112.186 20.6309 112.622 20.1424C113.001 19.7195 113.19 20.1097 113.398 20.2765C113.681 20.5028 113.485 20.7217 113.284 20.8811C112.826 21.2429 112.334 21.5155 111.839 21.4246Z" fill="#1CC62D" fill-opacity="0.8"/>
<path d="M98.2877 66.372C98.2386 66.3884 98.1611 66.3899 98.1463 66.4226C97.7665 67.2372 96.9475 67.2521 96.127 67.5484C96.5707 66.7398 96.9579 66.0325 97.4046 65.2164C97.8946 65.066 98.5379 64.8694 99.147 64.6818C98.8521 65.2536 98.5602 65.8225 98.2684 66.3899L98.2877 66.372Z" fill="#1CC62D" fill-opacity="0.8"/>
<path d="M91.5731 65.7615C91.6788 65.553 91.7831 65.343 91.9305 65.0511C93.0027 64.7042 94.1687 64.3274 95.3347 63.9521C95.3809 63.9372 95.4375 63.9506 95.4658 63.9506C94.6095 65.4949 92.9789 65.6632 91.4465 66.174C91.5091 66.0042 91.5523 65.888 91.594 65.7719C91.5954 65.7704 91.5731 65.7615 91.5731 65.7615Z" fill="#1CC62D" fill-opacity="0.8"/>
<path d="M61.0989 22.4804C60.8561 22.9883 60.4615 23.2757 59.912 23.429C59.0498 23.6703 58.2039 23.9771 57.3358 24.2615C57.8421 23.1878 57.9523 23.0925 58.9932 22.7708C59.6499 22.5668 60.3037 22.3554 60.9648 22.1454C61.011 22.2779 61.0482 22.3881 61.0884 22.4968C61.0899 22.4953 61.0989 22.4804 61.0989 22.4804Z" fill="#1CC62D" fill-opacity="0.8"/>
<path d="M133.329 52.3783C133.858 51.7752 134.345 51.2763 134.765 50.7239C135.164 50.2012 135.49 49.6234 135.897 48.9979C136.373 50.2518 135.331 52.3634 133.329 52.3783Z" fill="#1CC62D" fill-opacity="0.8"/>
<path d="M16.9467 51.0694C16.6593 51.1379 16.4776 51.1825 16.2944 51.2257C16.351 51.3642 16.4076 51.5042 16.4746 51.668C16.3823 51.7306 16.2423 51.8274 16.0368 51.9703C15.8358 51.3419 15.6496 50.7596 15.4635 50.1774C15.4575 50.161 15.4486 50.1342 15.456 50.1267C15.5573 50.021 15.6422 49.8721 15.7658 49.8229C16.2706 49.6249 16.7471 49.7381 17.1566 50.0686C17.24 50.1357 17.2683 50.3531 17.2311 50.4722C17.1596 50.7045 17.0226 50.9175 16.9467 51.0694Z" fill="#1CC62D" fill-opacity="0.8"/>
<path d="M125.918 53.9911C125.767 54.353 125.65 54.6613 125.508 54.9576C125.469 55.0395 125.371 55.1184 125.283 55.1482C124.562 55.3924 123.837 55.6233 123.096 55.866C123.155 55.1184 123.404 54.8013 124.035 54.6032C124.655 54.4066 125.271 54.2011 125.918 53.9911Z" fill="#1CC62D" fill-opacity="0.8"/>
<path d="M58.9038 57.7468C59.09 57.5309 59.2761 57.3135 59.4638 57.099C59.5889 56.9561 59.7154 56.8146 59.9254 56.7208C59.8093 56.9412 59.6931 57.1616 59.5725 57.3894C60.1964 58.6075 59.848 59.4981 58.67 59.6649C58.7519 59.0201 58.8339 58.3767 58.9158 57.7334C58.9158 57.7319 58.9038 57.7468 58.9038 57.7468Z" fill="#1CC62D" fill-opacity="0.8"/>
<path d="M7.66175 55.4371C7.81662 55.8407 8.00426 56.2666 8.1353 56.7089C8.17253 56.8339 8.08318 57.0409 7.98341 57.1496C7.90002 57.2405 7.62899 57.1913 7.84194 57.4356C7.85236 57.4475 7.74365 57.6083 7.71685 57.6009C7.61707 57.5741 7.47411 57.5264 7.44433 57.449C7.24627 56.9233 7.07204 56.3872 6.89334 55.8675C7.17628 55.7096 7.41157 55.5771 7.66175 55.4371Z" fill="#1CC62D" fill-opacity="0.8"/>
<path d="M119.117 56.9039C119.12 56.9084 119.164 56.9799 119.208 57.0513C118.388 57.5413 118.388 57.5413 117.814 56.6701C118.28 56.4974 118.727 56.3142 119.188 56.1727C119.316 56.1325 119.547 56.1668 119.613 56.2546C119.675 56.3395 119.629 56.5674 119.552 56.6776C119.479 56.7803 119.304 56.8116 119.117 56.9039Z" fill="#1CC62D" fill-opacity="0.8"/>
<path d="M97.226 63.3564C97.4449 64.0921 97.3555 64.2723 96.6988 64.4763C96.4784 64.5448 96.261 64.6163 96.0346 64.6892C96.0644 64.0102 96.4799 63.5441 97.226 63.3564Z" fill="#1CC62D" fill-opacity="0.8"/>
<path d="M86.3789 14.7159C86.4325 13.803 86.5904 13.6497 87.5941 13.5186C87.3528 14.5983 87.2903 14.6593 86.3789 14.7159Z" fill="#1CC62D" fill-opacity="0.8"/>
<path d="M130.245 53.0217C129.14 53.9524 128.945 54.0581 128.186 54.1445C128.455 53.5503 129.702 52.8757 130.233 53.0366L130.245 53.0217Z" fill="#1CC62D" fill-opacity="0.8"/>
<path d="M98.1984 8.30061C98.2445 8.2187 98.2907 8.13829 98.3354 8.05788C98.9593 7.60368 99.1485 8.31699 99.5535 8.57313C99.2795 8.6595 99.004 8.74587 98.7047 8.84117C98.7136 8.72055 98.7211 8.6312 98.7285 8.54185C98.6615 8.48229 98.5945 8.42123 98.5275 8.36166C98.3949 8.56121 98.2609 8.76076 98.0584 9.06455C98.1165 8.74587 98.1582 8.52398 98.1984 8.30061Z" fill="#1CC62D" fill-opacity="0.8"/>
<path d="M101.11 52.7387C101.771 53.799 101.525 54.1266 100.533 54.1877C100.73 53.6948 100.906 53.2555 101.11 52.7387Z" fill="#1CC62D" fill-opacity="0.8"/>
<path d="M53.2763 78.5072C53.6069 78.0858 53.936 77.6629 54.341 77.1461C54.5019 77.5854 54.5957 77.8445 54.7029 78.1364C54.4825 78.2228 54.2755 78.3032 54.0313 78.3985C54.0104 78.2094 53.9941 78.0739 53.9762 77.9086C53.79 78.1662 53.6173 78.4015 53.4461 78.6383C53.3895 78.5951 53.3329 78.5504 53.2763 78.5072Z" fill="#1CC62D" fill-opacity="0.8"/>
<path d="M112.52 19.7091C112.179 19.8923 111.955 20.1097 111.818 20.065C111.589 19.9905 111.415 19.7493 111.217 19.5781C111.395 19.4306 111.593 19.1447 111.747 19.1656C111.975 19.1998 112.173 19.45 112.52 19.7091Z" fill="#1CC62D" fill-opacity="0.8"/>
<path d="M135.025 48.6912C134.664 47.9362 134.671 47.9138 135.444 47.3792C135.752 47.9198 135.666 48.1908 135.025 48.6912Z" fill="#1CC62D" fill-opacity="0.8"/>
<path d="M50.8743 81.5823C50.8743 81.5823 50.8564 81.5719 50.8579 81.5719C50.779 82.4281 50.7075 82.4877 49.604 82.5473C50.0225 82.1214 50.1923 81.5436 50.8743 81.5823Z" fill="#1CC62D" fill-opacity="0.8"/>
<path d="M121.492 55.4877C121.316 55.8049 121.172 56.1444 120.953 56.4259C120.829 56.5837 120.579 56.6418 120.35 56.7654C120.411 55.7885 120.595 55.6024 121.492 55.4877Z" fill="#1CC62D" fill-opacity="0.8"/>
<path d="M107.019 4.21584C107.177 4.1801 107.337 4.14437 107.382 4.13394C107.43 4.34094 107.419 4.51219 107.5 4.59707C107.818 4.93064 108.165 5.23741 108.432 5.62012C107.857 5.28506 107.168 5.07956 107.019 4.21584Z" fill="#1CC62D" fill-opacity="0.8"/>
<path d="M15.0629 48.7761C14.4836 47.9407 15.5364 48.0255 15.6868 47.5892C15.7226 47.7903 15.7583 47.9898 15.8075 48.2727C15.596 48.4157 15.3279 48.5959 15.0629 48.7761Z" fill="#1CC62D" fill-opacity="0.8"/>
<path d="M127.109 14.2573C126.749 14.5357 126.387 14.8127 125.916 15.1761C125.916 14.9036 125.851 14.6147 125.928 14.57C126.275 14.366 126.664 14.2305 127.036 14.0711C127.06 14.1322 127.085 14.1947 127.109 14.2573Z" fill="#1CC62D" fill-opacity="0.8"/>
<path d="M130.232 53.0365C130.419 52.9978 130.607 52.9338 130.796 52.9278C130.982 52.9219 131.171 52.9725 131.423 53.117C130.988 53.2748 130.552 53.4327 130.007 53.6292C130.114 53.3552 130.18 53.1884 130.245 53.0217L130.232 53.0365Z" fill="#1CC62D" fill-opacity="0.8"/>
<path d="M122.582 1.5711C122.53 1.72746 122.487 1.84957 122.445 1.97615C122.42 1.97317 122.375 1.98211 122.357 1.96275C122.128 1.72597 121.965 1.41623 121.592 1.34177C121.522 1.32837 121.483 1.16009 121.429 1.06329C121.548 1.0484 121.696 0.979901 121.781 1.02755C122.05 1.17945 122.296 1.37155 122.582 1.5711Z" fill="#1CC62D" fill-opacity="0.8"/>
<path d="M91.5731 65.7615C91.5731 65.7615 91.5955 65.7719 91.5955 65.7704C91.2857 66.0265 90.9775 66.2827 90.6677 66.5388C90.6037 66.4673 90.5411 66.3944 90.4771 66.3214C90.8136 66.0131 91.1517 65.7064 91.4882 65.3981C91.5299 65.4264 91.5716 65.4562 91.6133 65.4845C91.5999 65.5768 91.5865 65.6691 91.5731 65.7615Z" fill="#1CC62D" fill-opacity="0.8"/>
<path d="M127.414 53.5027C127.109 54.0403 126.294 54.3217 126.032 53.9465C126.493 53.799 126.935 53.6576 127.414 53.5027Z" fill="#1CC62D" fill-opacity="0.8"/>
<path d="M123.023 1.94934C123.343 2.33652 123.595 2.63882 123.906 3.01409C122.983 2.81305 122.871 2.68797 123.023 1.94934Z" fill="#1CC62D" fill-opacity="0.8"/>
<path d="M83.3812 15.7047C83.3812 15.3786 83.3812 15.1165 83.3812 14.8544C83.6314 15.0301 83.883 15.2059 84.1332 15.3816C84.1109 15.4397 84.0871 15.4962 84.0647 15.5543C83.8696 15.596 83.676 15.6392 83.3812 15.7047Z" fill="#1CC62D" fill-opacity="0.8"/>
<path d="M19.2742 32.9448L19.2563 32.9642C19.5974 32.8063 19.9369 32.6499 20.33 32.4683C20.2109 33.0267 20.1156 33.0878 19.2757 33.2069C19.2742 33.1175 19.2742 33.0312 19.2742 32.9448Z" fill="#1CC62D" fill-opacity="0.8"/>
<path d="M109.282 19.0598C109.33 18.7649 109.355 18.4641 109.443 18.1812C109.461 18.1231 109.71 18.1365 109.961 18.1023C109.757 18.5237 109.617 18.8126 109.479 19.103C109.412 19.0881 109.346 19.0732 109.282 19.0598Z" fill="#1CC62D" fill-opacity="0.8"/>
<path d="M137.439 44.8239C137.256 44.9341 137.072 45.0443 136.888 45.1544C136.841 45.0979 136.795 45.0413 136.747 44.9847C136.929 44.7509 137.109 44.5186 137.29 44.2848C137.337 44.2997 137.381 44.3146 137.427 44.3295C137.427 44.5007 137.427 44.672 137.429 44.8417C137.43 44.8402 137.439 44.8239 137.439 44.8239Z" fill="#1CC62D" fill-opacity="0.8"/>
<path d="M10.1278 74.7515C10.5895 75.916 10.929 77.1297 11.3177 78.324C12.159 80.9077 13.0064 83.4899 13.8373 86.0781C14.08 86.8346 14.1128 86.8778 15.0018 86.7378C14.6966 86.9671 14.4791 87.1309 14.2424 87.3081C14.6027 88.422 14.8708 89.5702 15.6675 90.492C15.6705 90.4949 15.6735 90.4979 15.6764 90.5009C15.7449 90.5754 16.2483 91.1189 17.0137 91.6059C17.5007 91.8903 18.0308 92.1032 18.5967 92.2626C18.549 92.2626 18.5029 92.2626 18.4552 92.2626C18.6205 92.3088 18.7918 92.343 18.966 92.3683C19.2996 92.3683 19.6346 92.3683 19.9682 92.3683C20.1246 92.3445 20.2809 92.3102 20.4403 92.2626C21.0612 92.0139 21.6197 91.8173 22.1513 91.5627C22.3375 91.4748 22.4834 91.0891 22.6025 91.11C23.222 91.2142 23.0329 90.8375 22.9108 90.4294C23.2384 90.6454 23.4558 90.7883 23.6732 90.9313C24.0187 90.7526 24.3627 90.5754 24.6382 90.4339C24.6605 90.1599 24.6799 89.935 24.6978 89.7102C25.0999 90.5247 25.6315 89.8457 26.0633 89.865C26.1855 90.0273 26.2942 90.1688 26.4014 90.3103C26.4416 90.2805 26.4803 90.2522 26.5205 90.2224C26.4624 90.1152 26.4029 90.008 26.3731 89.9544C26.6962 89.9544 27.0745 90.072 27.2845 89.9335C27.9665 89.4823 28.58 88.9298 29.2367 88.4369C29.4095 88.3074 29.6403 88.2553 29.8443 88.1674C29.8964 88.2031 29.9486 88.2389 30.0007 88.2731C30.0007 87.9321 30.0007 87.5896 30.0007 87.058C29.3738 87.393 28.8793 87.676 28.3686 87.9217C28.1899 88.008 27.9695 88.0155 27.7669 88.0408C27.5838 88.0631 27.3857 88.017 27.216 88.0721C24.9971 88.7854 22.7857 89.5225 20.5668 90.2329C18.7754 90.8062 17.0331 89.8904 16.4508 88.1004C15.9638 86.6023 15.4709 85.1072 14.9825 83.6105C14.36 81.7014 13.7435 79.7908 13.1195 77.8817C12.4583 75.8609 11.7927 73.8416 11.0883 71.6987C10.7801 72.1768 10.5373 72.5535 10.2261 73.039C10.4912 72.9243 10.6416 72.8603 10.792 72.7962C10.8292 72.8335 10.8664 72.8722 10.9037 72.9094C10.7741 73.0658 10.6624 73.2415 10.512 73.374C10.0802 73.7508 9.87763 74.1186 10.1278 74.7515Z" fill="#1CC62D" fill-opacity="0.8"/>
</svg>
