<svg width="218" height="34" viewBox="0 0 218 34" fill="none" xmlns="http://www.w3.org/2000/svg">
                <path
                    d="M13.82 18.74H5.09L3.59 23H0.0200001L7.49 2.12H11.45L18.92 23H15.32L13.82 18.74ZM12.86 15.95L9.47 6.26L6.05 15.95H12.86ZM21.028 14.66C21.028 13 21.368 11.53 22.048 10.25C22.748 8.97 23.688 7.98 24.868 7.28C26.068 6.56 27.398 6.2 28.858 6.2C29.938 6.2 30.998 6.44 32.038 6.92C33.098 7.38 33.938 8 34.558 8.78V0.8H38.008V23H34.558V20.51C33.998 21.31 33.218 21.97 32.218 22.49C31.238 23.01 30.108 23.27 28.828 23.27C27.388 23.27 26.068 22.91 24.868 22.19C23.688 21.45 22.748 20.43 22.048 19.13C21.368 17.81 21.028 16.32 21.028 14.66ZM34.558 14.72C34.558 13.58 34.318 12.59 33.838 11.75C33.378 10.91 32.768 10.27 32.008 9.83C31.248 9.39 30.428 9.17 29.548 9.17C28.668 9.17 27.848 9.39 27.088 9.83C26.328 10.25 25.708 10.88 25.228 11.72C24.768 12.54 24.538 13.52 24.538 14.66C24.538 15.8 24.768 16.8 25.228 17.66C25.708 18.52 26.328 19.18 27.088 19.64C27.868 20.08 28.688 20.3 29.548 20.3C30.428 20.3 31.248 20.08 32.008 19.64C32.768 19.2 33.378 18.56 33.838 17.72C34.318 16.86 34.558 15.86 34.558 14.72ZM49.67 23.27C48.11 23.27 46.7 22.92 45.44 22.22C44.18 21.5 43.19 20.5 42.47 19.22C41.75 17.92 41.39 16.42 41.39 14.72C41.39 13.04 41.76 11.55 42.5 10.25C43.24 8.95 44.25 7.95 45.53 7.25C46.81 6.55 48.24 6.2 49.82 6.2C51.4 6.2 52.83 6.55 54.11 7.25C55.39 7.95 56.4 8.95 57.14 10.25C57.88 11.55 58.25 13.04 58.25 14.72C58.25 16.4 57.87 17.89 57.11 19.19C56.35 20.49 55.31 21.5 53.99 22.22C52.69 22.92 51.25 23.27 49.67 23.27ZM49.67 20.3C50.55 20.3 51.37 20.09 52.13 19.67C52.91 19.25 53.54 18.62 54.02 17.78C54.5 16.94 54.74 15.92 54.74 14.72C54.74 13.52 54.51 12.51 54.05 11.69C53.59 10.85 52.98 10.22 52.22 9.8C51.46 9.38 50.64 9.17 49.76 9.17C48.88 9.17 48.06 9.38 47.3 9.8C46.56 10.22 45.97 10.85 45.53 11.69C45.09 12.51 44.87 13.52 44.87 14.72C44.87 16.5 45.32 17.88 46.22 18.86C47.14 19.82 48.29 20.3 49.67 20.3ZM65.0509 8.93C65.6309 8.13 66.4209 7.48 67.4209 6.98C68.4409 6.46 69.5709 6.2 70.8109 6.2C72.2709 6.2 73.5909 6.55 74.7709 7.25C75.9509 7.95 76.8809 8.95 77.5609 10.25C78.2409 11.53 78.5809 13 78.5809 14.66C78.5809 16.32 78.2409 17.81 77.5609 19.13C76.8809 20.43 75.9409 21.45 74.7409 22.19C73.5609 22.91 72.2509 23.27 70.8109 23.27C69.5309 23.27 68.3909 23.02 67.3909 22.52C66.4109 22.02 65.6309 21.38 65.0509 20.6V23H61.6309V0.8H65.0509V8.93ZM75.1009 14.66C75.1009 13.52 74.8609 12.54 74.3809 11.72C73.9209 10.88 73.3009 10.25 72.5209 9.83C71.7609 9.39 70.9409 9.17 70.0609 9.17C69.2009 9.17 68.3809 9.39 67.6009 9.83C66.8409 10.27 66.2209 10.91 65.7409 11.75C65.2809 12.59 65.0509 13.58 65.0509 14.72C65.0509 15.86 65.2809 16.86 65.7409 17.72C66.2209 18.56 66.8409 19.2 67.6009 19.64C68.3809 20.08 69.2009 20.3 70.0609 20.3C70.9409 20.3 71.7609 20.08 72.5209 19.64C73.3009 19.18 73.9209 18.52 74.3809 17.66C74.8609 16.8 75.1009 15.8 75.1009 14.66ZM97.1129 14.33C97.1129 14.95 97.0729 15.51 96.9929 16.01H84.3629C84.4629 17.33 84.9529 18.39 85.8329 19.19C86.7129 19.99 87.7929 20.39 89.0729 20.39C90.9129 20.39 92.2129 19.62 92.9729 18.08H96.6629C96.1629 19.6 95.2529 20.85 93.9329 21.83C92.6329 22.79 91.0129 23.27 89.0729 23.27C87.4929 23.27 86.0729 22.92 84.8129 22.22C83.5729 21.5 82.5929 20.5 81.8729 19.22C81.1729 17.92 80.8229 16.42 80.8229 14.72C80.8229 13.02 81.1629 11.53 81.8429 10.25C82.5429 8.95 83.5129 7.95 84.7529 7.25C86.0129 6.55 87.4529 6.2 89.0729 6.2C90.6329 6.2 92.0229 6.54 93.2429 7.22C94.4629 7.9 95.4129 8.86 96.0929 10.1C96.7729 11.32 97.1129 12.73 97.1129 14.33ZM93.5429 13.25C93.5229 11.99 93.0729 10.98 92.1929 10.22C91.3129 9.46 90.2229 9.08 88.9229 9.08C87.7429 9.08 86.7329 9.46 85.8929 10.22C85.0529 10.96 84.5529 11.97 84.3929 13.25H93.5429Z"
                    fill="black" />
            </svg>