  <svg width="218" height="34" viewBox="0 0 218 34" fill="none" xmlns="http://www.w3.org/2000/svg">
                <path
                    d="M13.82 18.74H5.09L3.59 23H0.0200001L7.49 2.12H11.45L18.92 23H15.32L13.82 18.74ZM12.86 15.95L9.47 6.26L6.05 15.95H12.86ZM30.508 6.2C31.808 6.2 32.968 6.47 33.988 7.01C35.028 7.55 35.838 8.35 36.418 9.41C36.998 10.47 37.288 11.75 37.288 13.25V23H33.898V13.76C33.898 12.28 33.528 11.15 32.788 10.37C32.048 9.57 31.038 9.17 29.758 9.17C28.478 9.17 27.458 9.57 26.698 10.37C25.958 11.15 25.588 12.28 25.588 13.76V23H22.168V6.47H25.588V8.36C26.148 7.68 26.858 7.15 27.718 6.77C28.598 6.39 29.528 6.2 30.508 6.2ZM40.5104 14.66C40.5104 13 40.8504 11.53 41.5304 10.25C42.2304 8.97 43.1704 7.98 44.3504 7.28C45.5504 6.56 46.8704 6.2 48.3104 6.2C49.6104 6.2 50.7404 6.46 51.7004 6.98C52.6804 7.48 53.4604 8.11 54.0404 8.87V6.47H57.4904V23H54.0404V20.54C53.4604 21.32 52.6704 21.97 51.6704 22.49C50.6704 23.01 49.5304 23.27 48.2504 23.27C46.8304 23.27 45.5304 22.91 44.3504 22.19C43.1704 21.45 42.2304 20.43 41.5304 19.13C40.8504 17.81 40.5104 16.32 40.5104 14.66ZM54.0404 14.72C54.0404 13.58 53.8004 12.59 53.3204 11.75C52.8604 10.91 52.2504 10.27 51.4904 9.83C50.7304 9.39 49.9104 9.17 49.0304 9.17C48.1504 9.17 47.3304 9.39 46.5704 9.83C45.8104 10.25 45.1904 10.88 44.7104 11.72C44.2504 12.54 44.0204 13.52 44.0204 14.66C44.0204 15.8 44.2504 16.8 44.7104 17.66C45.1904 18.52 45.8104 19.18 46.5704 19.64C47.3504 20.08 48.1704 20.3 49.0304 20.3C49.9104 20.3 50.7304 20.08 51.4904 19.64C52.2504 19.2 52.8604 18.56 53.3204 17.72C53.8004 16.86 54.0404 15.86 54.0404 14.72ZM60.8424 14.72C60.8424 13.02 61.1824 11.53 61.8624 10.25C62.5624 8.95 63.5224 7.95 64.7424 7.25C65.9624 6.55 67.3624 6.2 68.9424 6.2C70.9424 6.2 72.5924 6.68 73.8924 7.64C75.2124 8.58 76.1024 9.93 76.5624 11.69H72.8724C72.5724 10.87 72.0924 10.23 71.4324 9.77C70.7724 9.31 69.9424 9.08 68.9424 9.08C67.5424 9.08 66.4224 9.58 65.5824 10.58C64.7624 11.56 64.3524 12.94 64.3524 14.72C64.3524 16.5 64.7624 17.89 65.5824 18.89C66.4224 19.89 67.5424 20.39 68.9424 20.39C70.9224 20.39 72.2324 19.52 72.8724 17.78H76.5624C76.0824 19.46 75.1824 20.8 73.8624 21.8C72.5424 22.78 70.9024 23.27 68.9424 23.27C67.3624 23.27 65.9624 22.92 64.7424 22.22C63.5224 21.5 62.5624 20.5 61.8624 19.22C61.1824 17.92 60.8424 16.42 60.8424 14.72ZM87.1407 23.27C85.5807 23.27 84.1707 22.92 82.9107 22.22C81.6507 21.5 80.6607 20.5 79.9407 19.22C79.2207 17.92 78.8607 16.42 78.8607 14.72C78.8607 13.04 79.2307 11.55 79.9707 10.25C80.7107 8.95 81.7207 7.95 83.0007 7.25C84.2807 6.55 85.7107 6.2 87.2907 6.2C88.8707 6.2 90.3007 6.55 91.5807 7.25C92.8607 7.95 93.8707 8.95 94.6107 10.25C95.3507 11.55 95.7207 13.04 95.7207 14.72C95.7207 16.4 95.3407 17.89 94.5807 19.19C93.8207 20.49 92.7807 21.5 91.4607 22.22C90.1607 22.92 88.7207 23.27 87.1407 23.27ZM87.1407 20.3C88.0207 20.3 88.8407 20.09 89.6007 19.67C90.3807 19.25 91.0107 18.62 91.4907 17.78C91.9707 16.94 92.2107 15.92 92.2107 14.72C92.2107 13.52 91.9807 12.51 91.5207 11.69C91.0607 10.85 90.4507 10.22 89.6907 9.8C88.9307 9.38 88.1107 9.17 87.2307 9.17C86.3507 9.17 85.5307 9.38 84.7707 9.8C84.0307 10.22 83.4407 10.85 83.0007 11.69C82.5607 12.51 82.3407 13.52 82.3407 14.72C82.3407 16.5 82.7907 17.88 83.6907 18.86C84.6107 19.82 85.7607 20.3 87.1407 20.3ZM107.442 6.2C108.742 6.2 109.902 6.47 110.922 7.01C111.962 7.55 112.772 8.35 113.352 9.41C113.932 10.47 114.222 11.75 114.222 13.25V23H110.832V13.76C110.832 12.28 110.462 11.15 109.722 10.37C108.982 9.57 107.972 9.17 106.692 9.17C105.412 9.17 104.392 9.57 103.632 10.37C102.892 11.15 102.522 12.28 102.522 13.76V23H99.1016V6.47H102.522V8.36C103.082 7.68 103.792 7.15 104.652 6.77C105.532 6.39 106.462 6.2 107.442 6.2ZM117.444 14.66C117.444 13 117.784 11.53 118.464 10.25C119.164 8.97 120.104 7.98 121.284 7.28C122.484 6.56 123.814 6.2 125.274 6.2C126.354 6.2 127.414 6.44 128.454 6.92C129.514 7.38 130.354 8 130.974 8.78V0.8H134.424V23H130.974V20.51C130.414 21.31 129.634 21.97 128.634 22.49C127.654 23.01 126.524 23.27 125.244 23.27C123.804 23.27 122.484 22.91 121.284 22.19C120.104 21.45 119.164 20.43 118.464 19.13C117.784 17.81 117.444 16.32 117.444 14.66ZM130.974 14.72C130.974 13.58 130.734 12.59 130.254 11.75C129.794 10.91 129.184 10.27 128.424 9.83C127.664 9.39 126.844 9.17 125.964 9.17C125.084 9.17 124.264 9.39 123.504 9.83C122.744 10.25 122.124 10.88 121.644 11.72C121.184 12.54 120.954 13.52 120.954 14.66C120.954 15.8 121.184 16.8 121.644 17.66C122.124 18.52 122.744 19.18 123.504 19.64C124.284 20.08 125.104 20.3 125.964 20.3C126.844 20.3 127.664 20.08 128.424 19.64C129.184 19.2 129.794 18.56 130.254 17.72C130.734 16.86 130.974 15.86 130.974 14.72ZM137.776 14.66C137.776 13 138.116 11.53 138.796 10.25C139.496 8.97 140.436 7.98 141.616 7.28C142.816 6.56 144.136 6.2 145.576 6.2C146.876 6.2 148.006 6.46 148.966 6.98C149.946 7.48 150.726 8.11 151.306 8.87V6.47H154.756V23H151.306V20.54C150.726 21.32 149.936 21.97 148.936 22.49C147.936 23.01 146.796 23.27 145.516 23.27C144.096 23.27 142.796 22.91 141.616 22.19C140.436 21.45 139.496 20.43 138.796 19.13C138.116 17.81 137.776 16.32 137.776 14.66ZM151.306 14.72C151.306 13.58 151.066 12.59 150.586 11.75C150.126 10.91 149.516 10.27 148.756 9.83C147.996 9.39 147.176 9.17 146.296 9.17C145.416 9.17 144.596 9.39 143.836 9.83C143.076 10.25 142.456 10.88 141.976 11.72C141.516 12.54 141.286 13.52 141.286 14.66C141.286 15.8 141.516 16.8 141.976 17.66C142.456 18.52 143.076 19.18 143.836 19.64C144.616 20.08 145.436 20.3 146.296 20.3C147.176 20.3 147.996 20.08 148.756 19.64C149.516 19.2 150.126 18.56 150.586 17.72C151.066 16.86 151.306 15.86 151.306 14.72Z"
                    fill="black" />
            </svg>