 <svg width="218" height="34" viewBox="0 0 218 34" fill="none" xmlns="http://www.w3.org/2000/svg">
                <path
                    d="M0.11 13.53C0.11 11.49 0.58 9.66 1.52 8.04C2.48 6.42 3.77 5.16 5.39 4.26C7.03 3.34 8.82 2.88 10.76 2.88C12.98 2.88 14.95 3.43 16.67 4.53C18.41 5.61 19.67 7.15 20.45 9.15H16.34C15.8 8.05 15.05 7.23 14.09 6.69C13.13 6.15 12.02 5.88 10.76 5.88C9.38 5.88 8.15 6.19 7.07 6.81C5.99 7.43 5.14 8.32 4.52 9.48C3.92 10.64 3.62 11.99 3.62 13.53C3.62 15.07 3.92 16.42 4.52 17.58C5.14 18.74 5.99 19.64 7.07 20.28C8.15 20.9 9.38 21.21 10.76 21.21C12.02 21.21 13.13 20.94 14.09 20.4C15.05 19.86 15.8 19.04 16.34 17.94H20.45C19.67 19.94 18.41 21.48 16.67 22.56C14.95 23.64 12.98 24.18 10.76 24.18C8.8 24.18 7.01 23.73 5.39 22.83C3.77 21.91 2.48 20.64 1.52 19.02C0.58 17.4 0.11 15.57 0.11 13.53ZM27.8731 9.87C28.3731 9.03 29.0331 8.38 29.8531 7.92C30.6931 7.44 31.6831 7.2 32.8231 7.2V10.74H31.9531C30.6131 10.74 29.5931 11.08 28.8931 11.76C28.2131 12.44 27.8731 13.62 27.8731 15.3V24H24.4531V7.47H27.8731V9.87ZM51.1168 15.33C51.1168 15.95 51.0768 16.51 50.9968 17.01H38.3668C38.4668 18.33 38.9568 19.39 39.8368 20.19C40.7168 20.99 41.7968 21.39 43.0768 21.39C44.9168 21.39 46.2168 20.62 46.9768 19.08H50.6668C50.1668 20.6 49.2568 21.85 47.9368 22.83C46.6368 23.79 45.0168 24.27 43.0768 24.27C41.4968 24.27 40.0768 23.92 38.8168 23.22C37.5768 22.5 36.5968 21.5 35.8768 20.22C35.1768 18.92 34.8268 17.42 34.8268 15.72C34.8268 14.02 35.1668 12.53 35.8468 11.25C36.5468 9.95 37.5168 8.95 38.7568 8.25C40.0168 7.55 41.4568 7.2 43.0768 7.2C44.6368 7.2 46.0268 7.54 47.2468 8.22C48.4668 8.9 49.4168 9.86 50.0968 11.1C50.7768 12.32 51.1168 13.73 51.1168 15.33ZM47.5468 14.25C47.5268 12.99 47.0768 11.98 46.1968 11.22C45.3168 10.46 44.2268 10.08 42.9268 10.08C41.7468 10.08 40.7368 10.46 39.8968 11.22C39.0568 11.96 38.5568 12.97 38.3968 14.25H47.5468ZM53.3424 15.66C53.3424 14 53.6824 12.53 54.3624 11.25C55.0624 9.97 56.0024 8.98 57.1824 8.28C58.3824 7.56 59.7024 7.2 61.1424 7.2C62.4424 7.2 63.5724 7.46 64.5324 7.98C65.5124 8.48 66.2924 9.11 66.8724 9.87V7.47H70.3224V24H66.8724V21.54C66.2924 22.32 65.5024 22.97 64.5024 23.49C63.5024 24.01 62.3624 24.27 61.0824 24.27C59.6624 24.27 58.3624 23.91 57.1824 23.19C56.0024 22.45 55.0624 21.43 54.3624 20.13C53.6824 18.81 53.3424 17.32 53.3424 15.66ZM66.8724 15.72C66.8724 14.58 66.6324 13.59 66.1524 12.75C65.6924 11.91 65.0824 11.27 64.3224 10.83C63.5624 10.39 62.7424 10.17 61.8624 10.17C60.9824 10.17 60.1624 10.39 59.4024 10.83C58.6424 11.25 58.0224 11.88 57.5424 12.72C57.0824 13.54 56.8524 14.52 56.8524 15.66C56.8524 16.8 57.0824 17.8 57.5424 18.66C58.0224 19.52 58.6424 20.18 59.4024 20.64C60.1824 21.08 61.0024 21.3 61.8624 21.3C62.7424 21.3 63.5624 21.08 64.3224 20.64C65.0824 20.2 65.6924 19.56 66.1524 18.72C66.6324 17.86 66.8724 16.86 66.8724 15.72ZM78.8045 10.26V19.41C78.8045 20.03 78.9445 20.48 79.2245 20.76C79.5245 21.02 80.0245 21.15 80.7245 21.15H82.8245V24H80.1245C78.5845 24 77.4045 23.64 76.5845 22.92C75.7645 22.2 75.3545 21.03 75.3545 19.41V10.26H73.4045V7.47H75.3545V3.36H78.8045V7.47H82.8245V10.26H78.8045ZM87.7166 5.28C87.0966 5.28 86.5766 5.07 86.1566 4.65C85.7366 4.23 85.5266 3.71 85.5266 3.09C85.5266 2.47 85.7366 1.95 86.1566 1.53C86.5766 1.11 87.0966 0.899999 87.7166 0.899999C88.3166 0.899999 88.8266 1.11 89.2466 1.53C89.6666 1.95 89.8766 2.47 89.8766 3.09C89.8766 3.71 89.6666 4.23 89.2466 4.65C88.8266 5.07 88.3166 5.28 87.7166 5.28ZM89.3966 7.47V24H85.9766V7.47H89.3966ZM100.277 20.94L104.957 7.47H108.587L102.287 24H98.2067L91.9367 7.47H95.5967L100.277 20.94ZM126.322 15.33C126.322 15.95 126.282 16.51 126.202 17.01H113.572C113.672 18.33 114.162 19.39 115.042 20.19C115.922 20.99 117.002 21.39 118.282 21.39C120.122 21.39 121.422 20.62 122.182 19.08H125.872C125.372 20.6 124.462 21.85 123.142 22.83C121.842 23.79 120.222 24.27 118.282 24.27C116.702 24.27 115.282 23.92 114.022 23.22C112.782 22.5 111.802 21.5 111.082 20.22C110.382 18.92 110.032 17.42 110.032 15.72C110.032 14.02 110.372 12.53 111.052 11.25C111.752 9.95 112.722 8.95 113.962 8.25C115.222 7.55 116.662 7.2 118.282 7.2C119.842 7.2 121.232 7.54 122.452 8.22C123.672 8.9 124.622 9.86 125.302 11.1C125.982 12.32 126.322 13.73 126.322 15.33ZM122.752 14.25C122.732 12.99 122.282 11.98 121.402 11.22C120.522 10.46 119.432 10.08 118.132 10.08C116.952 10.08 115.942 10.46 115.102 11.22C114.262 11.96 113.762 12.97 113.602 14.25H122.752ZM136.34 15.72C136.34 14.02 136.68 12.53 137.36 11.25C138.06 9.95 139.02 8.95 140.24 8.25C141.46 7.55 142.86 7.2 144.44 7.2C146.44 7.2 148.09 7.68 149.39 8.64C150.71 9.58 151.6 10.93 152.06 12.69H148.37C148.07 11.87 147.59 11.23 146.93 10.77C146.27 10.31 145.44 10.08 144.44 10.08C143.04 10.08 141.92 10.58 141.08 11.58C140.26 12.56 139.85 13.94 139.85 15.72C139.85 17.5 140.26 18.89 141.08 19.89C141.92 20.89 143.04 21.39 144.44 21.39C146.42 21.39 147.73 20.52 148.37 18.78H152.06C151.58 20.46 150.68 21.8 149.36 22.8C148.04 23.78 146.4 24.27 144.44 24.27C142.86 24.27 141.46 23.92 140.24 23.22C139.02 22.5 138.06 21.5 137.36 20.22C136.68 18.92 136.34 17.42 136.34 15.72ZM158.889 1.8V24H155.469V1.8H158.889ZM170.549 24.27C168.989 24.27 167.579 23.92 166.319 23.22C165.059 22.5 164.069 21.5 163.349 20.22C162.629 18.92 162.269 17.42 162.269 15.72C162.269 14.04 162.639 12.55 163.379 11.25C164.119 9.95 165.129 8.95 166.409 8.25C167.689 7.55 169.119 7.2 170.699 7.2C172.279 7.2 173.709 7.55 174.989 8.25C176.269 8.95 177.279 9.95 178.019 11.25C178.759 12.55 179.129 14.04 179.129 15.72C179.129 17.4 178.749 18.89 177.989 20.19C177.229 21.49 176.189 22.5 174.869 23.22C173.569 23.92 172.129 24.27 170.549 24.27ZM170.549 21.3C171.429 21.3 172.249 21.09 173.009 20.67C173.789 20.25 174.419 19.62 174.899 18.78C175.379 17.94 175.619 16.92 175.619 15.72C175.619 14.52 175.389 13.51 174.929 12.69C174.469 11.85 173.859 11.22 173.099 10.8C172.339 10.38 171.519 10.17 170.639 10.17C169.759 10.17 168.939 10.38 168.179 10.8C167.439 11.22 166.849 11.85 166.409 12.69C165.969 13.51 165.749 14.52 165.749 15.72C165.749 17.5 166.199 18.88 167.099 19.86C168.019 20.82 169.169 21.3 170.549 21.3ZM197.48 7.47V24H194.06V22.05C193.52 22.73 192.81 23.27 191.93 23.67C191.07 24.05 190.15 24.24 189.17 24.24C187.87 24.24 186.7 23.97 185.66 23.43C184.64 22.89 183.83 22.09 183.23 21.03C182.65 19.97 182.36 18.69 182.36 17.19V7.47H185.75V16.68C185.75 18.16 186.12 19.3 186.86 20.1C187.6 20.88 188.61 21.27 189.89 21.27C191.17 21.27 192.18 20.88 192.92 20.1C193.68 19.3 194.06 18.16 194.06 16.68V7.47H197.48ZM200.852 15.66C200.852 14 201.192 12.53 201.872 11.25C202.572 9.97 203.512 8.98 204.692 8.28C205.892 7.56 207.222 7.2 208.682 7.2C209.762 7.2 210.822 7.44 211.862 7.92C212.922 8.38 213.762 9 214.382 9.78V1.8H217.832V24H214.382V21.51C213.822 22.31 213.042 22.97 212.042 23.49C211.062 24.01 209.932 24.27 208.652 24.27C207.212 24.27 205.892 23.91 204.692 23.19C203.512 22.45 202.572 21.43 201.872 20.13C201.192 18.81 200.852 17.32 200.852 15.66ZM214.382 15.72C214.382 14.58 214.142 13.59 213.662 12.75C213.202 11.91 212.592 11.27 211.832 10.83C211.072 10.39 210.252 10.17 209.372 10.17C208.492 10.17 207.672 10.39 206.912 10.83C206.152 11.25 205.532 11.88 205.052 12.72C204.592 13.54 204.362 14.52 204.362 15.66C204.362 16.8 204.592 17.8 205.052 18.66C205.532 19.52 206.152 20.18 206.912 20.64C207.692 21.08 208.512 21.3 209.372 21.3C210.252 21.3 211.072 21.08 211.832 20.64C212.592 20.2 213.202 19.56 213.662 18.72C214.142 17.86 214.382 16.86 214.382 15.72Z"
                    fill="black" />
            </svg>