<svg width="218" height="34" viewBox="0 0 218 34" fill="none" xmlns="http://www.w3.org/2000/svg">
                <path
                    d="M12.52 2.15V4.94H3.67V11.09H10.57V13.88H3.67V23H0.25V2.15H12.52ZM14.5495 14.66C14.5495 13 14.8895 11.53 15.5695 10.25C16.2695 8.97 17.2095 7.98 18.3895 7.28C19.5895 6.56 20.9095 6.2 22.3495 6.2C23.6495 6.2 24.7795 6.46 25.7395 6.98C26.7195 7.48 27.4995 8.11 28.0795 8.87V6.47H31.5295V23H28.0795V20.54C27.4995 21.32 26.7095 21.97 25.7095 22.49C24.7095 23.01 23.5695 23.27 22.2895 23.27C20.8695 23.27 19.5695 22.91 18.3895 22.19C17.2095 21.45 16.2695 20.43 15.5695 19.13C14.8895 17.81 14.5495 16.32 14.5495 14.66ZM28.0795 14.72C28.0795 13.58 27.8395 12.59 27.3595 11.75C26.8995 10.91 26.2895 10.27 25.5295 9.83C24.7695 9.39 23.9495 9.17 23.0695 9.17C22.1895 9.17 21.3695 9.39 20.6095 9.83C19.8495 10.25 19.2295 10.88 18.7495 11.72C18.2895 12.54 18.0595 13.52 18.0595 14.66C18.0595 15.8 18.2895 16.8 18.7495 17.66C19.2295 18.52 19.8495 19.18 20.6095 19.64C21.3895 20.08 22.2095 20.3 23.0695 20.3C23.9495 20.3 24.7695 20.08 25.5295 19.64C26.2895 19.2 26.8995 18.56 27.3595 17.72C27.8395 16.86 28.0795 15.86 28.0795 14.72ZM34.8815 14.72C34.8815 13.02 35.2215 11.53 35.9015 10.25C36.6015 8.95 37.5615 7.95 38.7815 7.25C40.0015 6.55 41.4015 6.2 42.9815 6.2C44.9815 6.2 46.6315 6.68 47.9315 7.64C49.2515 8.58 50.1415 9.93 50.6015 11.69H46.9115C46.6115 10.87 46.1315 10.23 45.4715 9.77C44.8115 9.31 43.9815 9.08 42.9815 9.08C41.5815 9.08 40.4615 9.58 39.6215 10.58C38.8015 11.56 38.3915 12.94 38.3915 14.72C38.3915 16.5 38.8015 17.89 39.6215 18.89C40.4615 19.89 41.5815 20.39 42.9815 20.39C44.9615 20.39 46.2715 19.52 46.9115 17.78H50.6015C50.1215 19.46 49.2215 20.8 47.9015 21.8C46.5815 22.78 44.9415 23.27 42.9815 23.27C41.4015 23.27 40.0015 22.92 38.7815 22.22C37.5615 21.5 36.6015 20.5 35.9015 19.22C35.2215 17.92 34.8815 16.42 34.8815 14.72ZM69.1598 14.33C69.1598 14.95 69.1198 15.51 69.0398 16.01H56.4098C56.5098 17.33 56.9998 18.39 57.8798 19.19C58.7598 19.99 59.8398 20.39 61.1198 20.39C62.9598 20.39 64.2598 19.62 65.0198 18.08H68.7098C68.2098 19.6 67.2998 20.85 65.9798 21.83C64.6798 22.79 63.0598 23.27 61.1198 23.27C59.5398 23.27 58.1198 22.92 56.8598 22.22C55.6198 21.5 54.6398 20.5 53.9198 19.22C53.2198 17.92 52.8698 16.42 52.8698 14.72C52.8698 13.02 53.2098 11.53 53.8898 10.25C54.5898 8.95 55.5598 7.95 56.7998 7.25C58.0598 6.55 59.4998 6.2 61.1198 6.2C62.6798 6.2 64.0698 6.54 65.2898 7.22C66.5098 7.9 67.4598 8.86 68.1398 10.1C68.8198 11.32 69.1598 12.73 69.1598 14.33ZM65.5898 13.25C65.5698 11.99 65.1198 10.98 64.2398 10.22C63.3598 9.46 62.2698 9.08 60.9698 9.08C59.7898 9.08 58.7798 9.46 57.9398 10.22C57.0998 10.96 56.5998 11.97 56.4398 13.25H65.5898ZM75.9454 8.93C76.5254 8.13 77.3154 7.48 78.3154 6.98C79.3354 6.46 80.4654 6.2 81.7054 6.2C83.1654 6.2 84.4854 6.55 85.6654 7.25C86.8454 7.95 87.7754 8.95 88.4554 10.25C89.1354 11.53 89.4754 13 89.4754 14.66C89.4754 16.32 89.1354 17.81 88.4554 19.13C87.7754 20.43 86.8354 21.45 85.6354 22.19C84.4554 22.91 83.1454 23.27 81.7054 23.27C80.4254 23.27 79.2854 23.02 78.2854 22.52C77.3054 22.02 76.5254 21.38 75.9454 20.6V23H72.5254V0.8H75.9454V8.93ZM85.9954 14.66C85.9954 13.52 85.7554 12.54 85.2754 11.72C84.8154 10.88 84.1954 10.25 83.4154 9.83C82.6554 9.39 81.8354 9.17 80.9554 9.17C80.0954 9.17 79.2754 9.39 78.4954 9.83C77.7354 10.27 77.1154 10.91 76.6354 11.75C76.1754 12.59 75.9454 13.58 75.9454 14.72C75.9454 15.86 76.1754 16.86 76.6354 17.72C77.1154 18.56 77.7354 19.2 78.4954 19.64C79.2754 20.08 80.0954 20.3 80.9554 20.3C81.8354 20.3 82.6554 20.08 83.4154 19.64C84.1954 19.18 84.8154 18.52 85.2754 17.66C85.7554 16.8 85.9954 15.8 85.9954 14.66ZM100.027 23.27C98.4674 23.27 97.0574 22.92 95.7974 22.22C94.5374 21.5 93.5474 20.5 92.8274 19.22C92.1074 17.92 91.7474 16.42 91.7474 14.72C91.7474 13.04 92.1174 11.55 92.8574 10.25C93.5974 8.95 94.6074 7.95 95.8874 7.25C97.1674 6.55 98.5974 6.2 100.177 6.2C101.757 6.2 103.187 6.55 104.467 7.25C105.747 7.95 106.757 8.95 107.497 10.25C108.237 11.55 108.607 13.04 108.607 14.72C108.607 16.4 108.227 17.89 107.467 19.19C106.707 20.49 105.667 21.5 104.347 22.22C103.047 22.92 101.607 23.27 100.027 23.27ZM100.027 20.3C100.907 20.3 101.727 20.09 102.487 19.67C103.267 19.25 103.897 18.62 104.377 17.78C104.857 16.94 105.097 15.92 105.097 14.72C105.097 13.52 104.867 12.51 104.407 11.69C103.947 10.85 103.337 10.22 102.577 9.8C101.817 9.38 100.997 9.17 100.117 9.17C99.2374 9.17 98.4174 9.38 97.6574 9.8C96.9174 10.22 96.3274 10.85 95.8874 11.69C95.4474 12.51 95.2274 13.52 95.2274 14.72C95.2274 16.5 95.6774 17.88 96.5774 18.86C97.4974 19.82 98.6474 20.3 100.027 20.3ZM119.158 23.27C117.598 23.27 116.188 22.92 114.928 22.22C113.668 21.5 112.678 20.5 111.958 19.22C111.238 17.92 110.878 16.42 110.878 14.72C110.878 13.04 111.248 11.55 111.988 10.25C112.728 8.95 113.738 7.95 115.018 7.25C116.298 6.55 117.728 6.2 119.308 6.2C120.888 6.2 122.318 6.55 123.598 7.25C124.878 7.95 125.888 8.95 126.628 10.25C127.368 11.55 127.738 13.04 127.738 14.72C127.738 16.4 127.358 17.89 126.598 19.19C125.838 20.49 124.798 21.5 123.478 22.22C122.178 22.92 120.738 23.27 119.158 23.27ZM119.158 20.3C120.038 20.3 120.858 20.09 121.618 19.67C122.398 19.25 123.028 18.62 123.508 17.78C123.988 16.94 124.228 15.92 124.228 14.72C124.228 13.52 123.998 12.51 123.538 11.69C123.078 10.85 122.468 10.22 121.708 9.8C120.948 9.38 120.128 9.17 119.248 9.17C118.368 9.17 117.548 9.38 116.788 9.8C116.048 10.22 115.458 10.85 115.018 11.69C114.578 12.51 114.358 13.52 114.358 14.72C114.358 16.5 114.808 17.88 115.708 18.86C116.628 19.82 117.778 20.3 119.158 20.3ZM137.659 14.75L145.279 23H140.659L134.539 15.89V23H131.119V0.8H134.539V13.7L140.539 6.47H145.279L137.659 14.75Z"
                    fill="black" />
            </svg>