<svg width="218" height="30" viewBox="0 0 218 30" fill="none" xmlns="http://www.w3.org/2000/svg">
<path d="M13.82 17.74H5.09L3.59 22H0.0200001L7.49 1.12H11.45L18.92 22H15.32L13.82 17.74ZM12.86 14.95L9.47 5.26L6.05 14.95H12.86ZM44.128 1.15V22H40.708V7.72L34.348 22H31.978L25.588 7.72V22H22.168V1.15H25.858L33.178 17.5L40.468 1.15H44.128ZM59.783 11.29C60.903 11.49 61.853 12.08 62.633 13.06C63.413 14.04 63.803 15.15 63.803 16.39C63.803 17.45 63.523 18.41 62.963 19.27C62.423 20.11 61.633 20.78 60.593 21.28C59.553 21.76 58.343 22 56.963 22H48.623V1.15H56.573C57.993 1.15 59.213 1.39 60.233 1.87C61.253 2.35 62.023 3 62.543 3.82C63.063 4.62 63.323 5.52 63.323 6.52C63.323 7.72 63.003 8.72 62.363 9.52C61.723 10.32 60.863 10.91 59.783 11.29ZM52.043 9.91H56.273C57.393 9.91 58.263 9.66 58.883 9.16C59.523 8.64 59.843 7.9 59.843 6.94C59.843 6 59.523 5.27 58.883 4.75C58.263 4.21 57.393 3.94 56.273 3.94H52.043V9.91ZM56.663 19.21C57.823 19.21 58.733 18.93 59.393 18.37C60.053 17.81 60.383 17.03 60.383 16.03C60.383 15.01 60.033 14.2 59.333 13.6C58.633 13 57.703 12.7 56.543 12.7H52.043V19.21H56.663ZM70.9395 1.15V22H67.5195V1.15H70.9395ZM84.9397 22.21C82.9997 22.21 81.2097 21.76 79.5697 20.86C77.9497 19.94 76.6597 18.67 75.6997 17.05C74.7597 15.41 74.2897 13.57 74.2897 11.53C74.2897 9.49 74.7597 7.66 75.6997 6.04C76.6597 4.42 77.9497 3.16 79.5697 2.26C81.2097 1.34 82.9997 0.879998 84.9397 0.879998C86.8997 0.879998 88.6897 1.34 90.3097 2.26C91.9497 3.16 93.2397 4.42 94.1797 6.04C95.1197 7.66 95.5897 9.49 95.5897 11.53C95.5897 13.57 95.1197 15.41 94.1797 17.05C93.2397 18.67 91.9497 19.94 90.3097 20.86C88.6897 21.76 86.8997 22.21 84.9397 22.21ZM84.9397 19.24C86.3197 19.24 87.5497 18.93 88.6297 18.31C89.7097 17.67 90.5497 16.77 91.1497 15.61C91.7697 14.43 92.0797 13.07 92.0797 11.53C92.0797 9.99 91.7697 8.64 91.1497 7.48C90.5497 6.32 89.7097 5.43 88.6297 4.81C87.5497 4.19 86.3197 3.88 84.9397 3.88C83.5597 3.88 82.3297 4.19 81.2497 4.81C80.1697 5.43 79.3197 6.32 78.6997 7.48C78.0997 8.64 77.7997 9.99 77.7997 11.53C77.7997 13.07 78.0997 14.43 78.6997 15.61C79.3197 16.77 80.1697 17.67 81.2497 18.31C82.3297 18.93 83.5597 19.24 84.9397 19.24ZM105.825 22.21C104.425 22.21 103.165 21.97 102.045 21.49C100.925 20.99 100.045 20.29 99.4051 19.39C98.7651 18.49 98.4451 17.44 98.4451 16.24H102.105C102.185 17.14 102.535 17.88 103.155 18.46C103.795 19.04 104.685 19.33 105.825 19.33C107.005 19.33 107.925 19.05 108.585 18.49C109.245 17.91 109.575 17.17 109.575 16.27C109.575 15.57 109.365 15 108.945 14.56C108.545 14.12 108.035 13.78 107.415 13.54C106.815 13.3 105.975 13.04 104.895 12.76C103.535 12.4 102.425 12.04 101.565 11.68C100.725 11.3 100.005 10.72 99.4051 9.94C98.8051 9.16 98.5051 8.12 98.5051 6.82C98.5051 5.62 98.8051 4.57 99.4051 3.67C100.005 2.77 100.845 2.08 101.925 1.6C103.005 1.12 104.255 0.879998 105.675 0.879998C107.695 0.879998 109.345 1.39 110.625 2.41C111.925 3.41 112.645 4.79 112.785 6.55H109.005C108.945 5.79 108.585 5.14 107.925 4.6C107.265 4.06 106.395 3.79 105.315 3.79C104.335 3.79 103.535 4.04 102.915 4.54C102.295 5.04 101.985 5.76 101.985 6.7C101.985 7.34 102.175 7.87 102.555 8.29C102.955 8.69 103.455 9.01 104.055 9.25C104.655 9.49 105.475 9.75 106.515 10.03C107.895 10.41 109.015 10.79 109.875 11.17C110.755 11.55 111.495 12.14 112.095 12.94C112.715 13.72 113.025 14.77 113.025 16.09C113.025 17.15 112.735 18.15 112.155 19.09C111.595 20.03 110.765 20.79 109.665 21.37C108.585 21.93 107.305 22.21 105.825 22.21ZM133.711 1.15V22H130.291V12.88H120.481V22H117.061V1.15H120.481V10.09H130.291V1.15H133.711Z" fill="black"/>
</svg>
