<svg width="218" height="34" viewBox="0 0 218 34" fill="none" xmlns="http://www.w3.org/2000/svg">
                <path
                    d="M22.21 3.15V24H18.79V9.72L12.43 24H10.06L3.67 9.72V24H0.25V3.15H3.94L11.26 19.5L18.55 3.15H22.21ZM25.5651 15.66C25.5651 14 25.9051 12.53 26.5851 11.25C27.2851 9.97 28.2251 8.98 29.4051 8.28C30.6051 7.56 31.9251 7.2 33.3651 7.2C34.6651 7.2 35.7951 7.46 36.7551 7.98C37.7351 8.48 38.5151 9.11 39.0951 9.87V7.47H42.5451V24H39.0951V21.54C38.5151 22.32 37.7251 22.97 36.7251 23.49C35.7251 24.01 34.5851 24.27 33.3051 24.27C31.8851 24.27 30.5851 23.91 29.4051 23.19C28.2251 22.45 27.2851 21.43 26.5851 20.13C25.9051 18.81 25.5651 17.32 25.5651 15.66ZM39.0951 15.72C39.0951 14.58 38.8551 13.59 38.3751 12.75C37.9151 11.91 37.3051 11.27 36.5451 10.83C35.7851 10.39 34.9651 10.17 34.0851 10.17C33.2051 10.17 32.3851 10.39 31.6251 10.83C30.8651 11.25 30.2451 11.88 29.7651 12.72C29.3051 13.54 29.0751 14.52 29.0751 15.66C29.0751 16.8 29.3051 17.8 29.7651 18.66C30.2451 19.52 30.8651 20.18 31.6251 20.64C32.4051 21.08 33.2251 21.3 34.0851 21.3C34.9651 21.3 35.7851 21.08 36.5451 20.64C37.3051 20.2 37.9151 19.56 38.3751 18.72C38.8551 17.86 39.0951 16.86 39.0951 15.72ZM51.0271 10.26V19.41C51.0271 20.03 51.1671 20.48 51.4471 20.76C51.7471 21.02 52.2471 21.15 52.9471 21.15H55.0471V24H52.3471C50.8071 24 49.6271 23.64 48.8071 22.92C47.9871 22.2 47.5771 21.03 47.5771 19.41V10.26H45.6271V7.47H47.5771V3.36H51.0271V7.47H55.0471V10.26H51.0271ZM61.6192 9.9C62.1992 9.14 62.9892 8.5 63.9892 7.98C64.9892 7.46 66.1192 7.2 67.3792 7.2C68.8192 7.2 70.1292 7.56 71.3092 8.28C72.5092 8.98 73.4492 9.97 74.1292 11.25C74.8092 12.53 75.1492 14 75.1492 15.66C75.1492 17.32 74.8092 18.81 74.1292 20.13C73.4492 21.43 72.5092 22.45 71.3092 23.19C70.1292 23.91 68.8192 24.27 67.3792 24.27C66.1192 24.27 64.9992 24.02 64.0192 23.52C63.0392 23 62.2392 22.36 61.6192 21.6V31.86H58.1992V7.47H61.6192V9.9ZM71.6692 15.66C71.6692 14.52 71.4292 13.54 70.9492 12.72C70.4892 11.88 69.8692 11.25 69.0892 10.83C68.3292 10.39 67.5092 10.17 66.6292 10.17C65.7692 10.17 64.9492 10.39 64.1692 10.83C63.4092 11.27 62.7892 11.91 62.3092 12.75C61.8492 13.59 61.6192 14.58 61.6192 15.72C61.6192 16.86 61.8492 17.86 62.3092 18.72C62.7892 19.56 63.4092 20.2 64.1692 20.64C64.9492 21.08 65.7692 21.3 66.6292 21.3C67.5092 21.3 68.3292 21.08 69.0892 20.64C69.8692 20.18 70.4892 19.52 70.9492 18.66C71.4292 17.8 71.6692 16.8 71.6692 15.66ZM81.9513 1.8V24H78.5313V1.8H81.9513ZM93.6114 24.27C92.0514 24.27 90.6414 23.92 89.3814 23.22C88.1214 22.5 87.1314 21.5 86.4114 20.22C85.6914 18.92 85.3314 17.42 85.3314 15.72C85.3314 14.04 85.7014 12.55 86.4414 11.25C87.1814 9.95 88.1914 8.95 89.4714 8.25C90.7514 7.55 92.1814 7.2 93.7614 7.2C95.3414 7.2 96.7714 7.55 98.0514 8.25C99.3314 8.95 100.341 9.95 101.081 11.25C101.821 12.55 102.191 14.04 102.191 15.72C102.191 17.4 101.811 18.89 101.051 20.19C100.291 21.49 99.2514 22.5 97.9314 23.22C96.6314 23.92 95.1914 24.27 93.6114 24.27ZM93.6114 21.3C94.4914 21.3 95.3114 21.09 96.0714 20.67C96.8514 20.25 97.4814 19.62 97.9614 18.78C98.4414 17.94 98.6814 16.92 98.6814 15.72C98.6814 14.52 98.4514 13.51 97.9914 12.69C97.5314 11.85 96.9214 11.22 96.1614 10.8C95.4014 10.38 94.5814 10.17 93.7014 10.17C92.8214 10.17 92.0014 10.38 91.2414 10.8C90.5014 11.22 89.9114 11.85 89.4714 12.69C89.0314 13.51 88.8114 14.52 88.8114 15.72C88.8114 17.5 89.2614 18.88 90.1614 19.86C91.0814 20.82 92.2314 21.3 93.6114 21.3ZM109.562 10.26V19.41C109.562 20.03 109.702 20.48 109.982 20.76C110.282 21.02 110.782 21.15 111.482 21.15H113.582V24H110.882C109.342 24 108.162 23.64 107.342 22.92C106.522 22.2 106.112 21.03 106.112 19.41V10.26H104.162V7.47H106.112V3.36H109.562V7.47H113.582V10.26H109.562ZM120.154 1.8V24H116.734V1.8H120.154ZM126.385 5.28C125.765 5.28 125.245 5.07 124.825 4.65C124.405 4.23 124.195 3.71 124.195 3.09C124.195 2.47 124.405 1.95 124.825 1.53C125.245 1.11 125.765 0.899999 126.385 0.899999C126.985 0.899999 127.495 1.11 127.915 1.53C128.335 1.95 128.545 2.47 128.545 3.09C128.545 3.71 128.335 4.23 127.915 4.65C127.495 5.07 126.985 5.28 126.385 5.28ZM128.065 7.47V24H124.645V7.47H128.065ZM135.975 9.93C136.555 9.13 137.345 8.48 138.345 7.98C139.365 7.46 140.495 7.2 141.735 7.2C143.195 7.2 144.515 7.55 145.695 8.25C146.875 8.95 147.805 9.95 148.485 11.25C149.165 12.53 149.505 14 149.505 15.66C149.505 17.32 149.165 18.81 148.485 20.13C147.805 21.43 146.865 22.45 145.665 23.19C144.485 23.91 143.175 24.27 141.735 24.27C140.455 24.27 139.315 24.02 138.315 23.52C137.335 23.02 136.555 22.38 135.975 21.6V24H132.555V1.8H135.975V9.93ZM146.025 15.66C146.025 14.52 145.785 13.54 145.305 12.72C144.845 11.88 144.225 11.25 143.445 10.83C142.685 10.39 141.865 10.17 140.985 10.17C140.125 10.17 139.305 10.39 138.525 10.83C137.765 11.27 137.145 11.91 136.665 12.75C136.205 13.59 135.975 14.58 135.975 15.72C135.975 16.86 136.205 17.86 136.665 18.72C137.145 19.56 137.765 20.2 138.525 20.64C139.305 21.08 140.125 21.3 140.985 21.3C141.865 21.3 142.685 21.08 143.445 20.64C144.225 20.18 144.845 19.52 145.305 18.66C145.785 17.8 146.025 16.8 146.025 15.66Z"
                    fill="black" />
            </svg>