<svg xmlns="http://www.w3.org/2000/svg" width="45.286" height="62.451" viewBox="0 0 45.286 62.451">
  <g id="Group_1992" data-name="Group 1992" transform="translate(-69.681 -57.924)">
    <g id="Group_1991" data-name="Group 1991">
      <g id="Group_1990" data-name="Group 1990">
        <g id="Group_4" data-name="Group 4" transform="translate(69.681 57.924)">
          <path id="Path_8" data-name="Path 8" d="M-.039,520.469a20.6,20.6,0,0,0,5.214,13.265,25.333,25.333,0,0,1,6.065,12.485c.426,2.057-.674,3.015,2.128,3.192a1.723,1.723,0,0,1,.5-.39c.426-.213,14.9-.284,16.741-.142a1.8,1.8,0,0,1,1.277.567c1.064-.035,1.951-.355,2.022-1.49a15.309,15.309,0,0,1,.851-4.753,27.66,27.66,0,0,1,3.618-7.59c1.631-2.128,1.631-1.6,3.689-4.646a21.532,21.532,0,0,0,2.589-5.852,20.8,20.8,0,0,0,.177-9.08c-.071.248-.106.532-.177.816a21.274,21.274,0,0,1-2.589,5.888c-2.057,3.05-2.057,2.518-3.689,4.646a27.659,27.659,0,0,0-3.618,7.59,15.309,15.309,0,0,0-.851,4.753c-.106,1.88-2.447,1.49-4.114,1.454H14.751c-4.5.035-3.015-.887-3.511-3.192a25.6,25.6,0,0,0-6.065-12.52A20.387,20.387,0,0,1,.387,516c-.071.284-.106.6-.177.887A13.224,13.224,0,0,0-.039,520.469Z" transform="translate(0.04 -497.699)" fill="#204bbb" fill-rule="evenodd"/>
          <path id="Path_9" data-name="Path 9" d="M368.3,1533.135a1.555,1.555,0,0,0,.851,2.944c2.518.071,15.889.177,16.6-.213,1.6-.922,1.029-2.731-.709-2.873C383.193,1532.851,368.722,1532.922,368.3,1533.135Z" transform="translate(-354.392 -1478.55)" fill="#204bbb" fill-rule="evenodd"/>
          <path id="Path_10" data-name="Path 10" d="M508.68,1673.9c2.589,0,8.725.887,7.838-1.88-.426-1.312-1.915-1.1-3.44-1.1-1.064,0-4.433-.213-5.143.071C507.084,1671.377,506.375,1673.9,508.68,1673.9Z" transform="translate(-489.136 -1611.58)" fill="#204bbb" fill-rule="evenodd"/>
          <path id="Path_11" data-name="Path 11" d="M91.027,29.651l.248-2.589c-.142-.355-.248-.177-.461-.816-.248-.674-.106-.5-.106-1.17.035-.851-.638.071.213-1.738a9.357,9.357,0,0,1,2.341-2.873,13,13,0,0,0,2.625-2.589c.355-.355,1.525-3.121,1.135-3.76-.035,0-2.2.638-2.518.674-.6.035-.78.319-1.135.213-.426-.142-.177-.39-.887-.709l.319-.426-2.376-1.88c-.248-.39-.355-1.1-.674-1.419-.532-.5-.638-.213-.78-1.241a1.424,1.424,0,0,0-.745-1.312c-.355-.248-.177-.319-.319-.709,0,0-1.844-2.766-1.809-3.228l.816,1.1.284-.071-.248-1.844c-.638.071-1.561-.177-1.951-.071-1.1.319-.6.355-1.88.035a13.476,13.476,0,0,1-1.809-.461c-1.6-.816-1.561-.213-1.844,1.064L74.57,1.809l.674-.709L75.138.213,74.393,0c-.177.248-3.334.106-3.972.461a3.306,3.306,0,0,1-2.483.567c-.567,0-.284-.248-.709-.355-.5.213-.248.816-1.348,1.241A3.044,3.044,0,0,0,64.6,3.228c-.39,1.135-.106.851-1.17,1.49-.426.248-.638.106-.922.426s-.177.319-.6.6A13.165,13.165,0,0,0,59.745,8.76c.142.567.461,0,.213.816-.177.461.071.532-.106,1.1C59.5,11.74,59.638,11.74,59,12.414h.106v1.419c.426.284.5.142.709.532a3.708,3.708,0,0,0,.6.674c.6.709.248,1.135.887,1.561.745.532,2.2,2.057,3.086,1.7a3.645,3.645,0,0,1,2.164-.248c1.6.355,1.525-.709,3.76-.745,1.064-.035.816.532,1.277,1.206l1.561-.213c1.064,1.135.6.5.5,1.88-.071.851-.532,1.241-.071,1.986.887,1.277,1.631,1.312,2.164,3.369a9.616,9.616,0,0,1,.248,2.412c-.142.284-.39.319-.6.816-.106.319-.142.78-.248,1.135-.461,1.631,1.773-.78,2.305.567.106.284.39,1.88.461,2.305.177.816.709.887,1.064,1.7a4.154,4.154,0,0,0,.5.887c.461.674.071.6.071.958,0,.922,1.029.851,1.773.709,2.447-.461.142-.958,1.951-2.625.5-.461.071,2.093.426,1.844.816-.6.5-1.419.674-1.915.816-.39,1.241-.106,1.454-1.064.248-1.241,1.773-.106,1.738-.816Z" transform="translate(-56.906)" fill="#204bbb" fill-rule="evenodd"/>
          <g id="Group_3" data-name="Group 3" transform="translate(15.784 18.337)">
            <path id="Path_12" data-name="Path 12" d="M794.674,517h0a.652.652,0,0,1,.674.674v24.437a.652.652,0,0,1-.674.674h0a.673.673,0,0,1-.674-.674V517.674A.673.673,0,0,1,794.674,517Z" transform="translate(-781.622 -517)" fill="#204bbb" fill-rule="evenodd"/>
            <path id="Path_13" data-name="Path 13" d="M445.674,517h0a.673.673,0,0,1,.674.674v24.437a.673.673,0,0,1-.674.674h0a.652.652,0,0,1-.674-.674V517.674A.652.652,0,0,1,445.674,517Z" transform="translate(-445 -517)" fill="#204bbb" fill-rule="evenodd"/>
          </g>
        </g>
      </g>
    </g>
  </g>
</svg>
