<svg xmlns="http://www.w3.org/2000/svg" xmlns:xlink="http://www.w3.org/1999/xlink" width="218" height="164" viewBox="0 0 218 164"><defs><clipPath id="a"><rect width="218" height="164" transform="translate(72 876)" fill="#503794"/></clipPath><pattern id="b" preserveAspectRatio="none" width="100%" height="100%" viewBox="0 0 425 282"><image width="425" height="282" xlink:href="Group%201973-image.jpg"/></pattern></defs><g transform="translate(-79 -2173)"><g transform="translate(7 1297)"><g clip-path="url(#a)"><rect width="253.5" height="168" transform="translate(54 874)" fill="url(#b)"/></g><g transform="translate(-2362 949)"><g transform="translate(2442.297 -63.672)"><path d="M-.04,517.121a5.165,5.165,0,0,0,1.307,3.326,6.352,6.352,0,0,1,1.521,3.131c.107.516-.169.756.534.8a.432.432,0,0,1,.125-.1c.107-.053,3.735-.071,4.2-.036a.451.451,0,0,1,.32.142c.267-.009.489-.089.507-.374a3.839,3.839,0,0,1,.213-1.192,6.937,6.937,0,0,1,.907-1.9,12.072,12.072,0,0,0,.925-1.165,5.4,5.4,0,0,0,.649-1.467,5.217,5.217,0,0,0,.044-2.277c-.018.062-.027.133-.044.2a5.335,5.335,0,0,1-.649,1.476,12.072,12.072,0,0,1-.925,1.165,6.936,6.936,0,0,0-.907,1.9,3.838,3.838,0,0,0-.213,1.192c-.027.471-.614.374-1.032.365H3.669c-1.13.009-.756-.222-.88-.8a6.418,6.418,0,0,0-1.521-3.14A5.112,5.112,0,0,1,.067,516c-.018.071-.027.151-.044.222A3.316,3.316,0,0,0-.04,517.121Z" transform="translate(0.04 -511.411)" fill="#fff" fill-rule="evenodd"/><path d="M367.643,1532.973a.39.39,0,0,0,.214.738c.631.018,3.984.044,4.162-.053.4-.231.258-.685-.178-.72C371.379,1532.9,367.75,1532.919,367.643,1532.973Z" transform="translate(-364.157 -1519.285)" fill="#fff" fill-rule="evenodd"/><path d="M507.514,1671.606c.649,0,2.188.222,1.966-.471-.107-.329-.48-.276-.863-.276a7.653,7.653,0,0,0-1.29.018C507.114,1670.975,506.936,1671.606,507.514,1671.606Z" transform="translate(-502.613 -1655.98)" fill="#fff" fill-rule="evenodd"/><path d="M67.031,7.435l.062-.649c-.036-.089-.062-.044-.116-.2s-.027-.125-.027-.293c.009-.213-.16.018.053-.436a2.346,2.346,0,0,1,.587-.72,3.259,3.259,0,0,0,.658-.649c.089-.089.382-.783.285-.943-.009,0-.551.16-.631.169-.151.009-.2.08-.285.053-.107-.036-.044-.1-.222-.178l.08-.107-.6-.471c-.062-.1-.089-.276-.169-.356-.133-.125-.16-.053-.2-.311a.357.357,0,0,0-.187-.329c-.089-.062-.044-.08-.08-.178a4.449,4.449,0,0,1-.454-.809L66,1.3l.071-.018L66.008.818c-.16.018-.391-.044-.489-.018-.276.08-.151.089-.471.009a3.379,3.379,0,0,1-.454-.116c-.4-.2-.391-.053-.462.267L62.9.454l.169-.178L63.047.053,62.86,0c-.044.062-.836.027-1,.116a.829.829,0,0,1-.623.142C61.1.258,61.17.2,61.063.169c-.125.053-.062.2-.338.311a.763.763,0,0,0-.32.329c-.1.285-.027.213-.293.374-.107.062-.16.027-.231.107s-.044.08-.151.151a3.3,3.3,0,0,0-.543.756c.036.142.116,0,.053.2-.044.116.018.133-.027.276-.089.267-.053.267-.213.436h.027v.356c.107.071.125.036.178.133a.93.93,0,0,0,.151.169c.151.178.062.285.222.391.187.133.551.516.774.427a.914.914,0,0,1,.543-.062c.4.089.382-.178.943-.187.267-.009.2.133.32.3l.391-.053c.267.285.151.125.125.471-.018.213-.133.311-.018.5.222.32.409.329.543.845a2.412,2.412,0,0,1,.062.6c-.036.071-.1.08-.151.2-.027.08-.036.2-.062.285-.116.409.445-.2.578.142.027.071.1.471.116.578.044.2.178.222.267.427a1.042,1.042,0,0,0,.125.222c.116.169.018.151.018.24,0,.231.258.213.445.178.614-.116.036-.24.489-.658.125-.116.018.525.107.462.2-.151.125-.356.169-.48.2-.1.311-.027.365-.267.062-.311.445-.027.436-.2Z" transform="translate(-58.475)" fill="#fff" fill-rule="evenodd"/><g transform="translate(3.958 4.598)"><path d="M794.169,517h0a.164.164,0,0,1,.169.169V523.3a.164.164,0,0,1-.169.169h0A.169.169,0,0,1,794,523.3v-6.128A.169.169,0,0,1,794.169,517Z" transform="translate(-790.896 -517)" fill="#fff" fill-rule="evenodd"/><path d="M445.169,517h0a.169.169,0,0,1,.169.169V523.3a.169.169,0,0,1-.169.169h0A.164.164,0,0,1,445,523.3v-6.128A.164.164,0,0,1,445.169,517Z" transform="translate(-445 -517)" fill="#fff" fill-rule="evenodd"/></g></g><path d="M1550.877,171.011h-.578l-.551-1.272h-1.628l-.543,1.272H1547l1.681-3.949h.525Zm-1.334-1.779-.6-1.441-.614,1.441Zm3.629-1.663h-1.53v1.2h1.468v.5h-1.468v1.743h-.525v-3.949h2.054Zm3.122,3.442h-.667l-1.4-1.877h.471a1.4,1.4,0,0,0,.712-.169.658.658,0,0,0,.329-.6.71.71,0,0,0-.3-.6,1.114,1.114,0,0,0-.667-.2h-.676v3.442h-.525v-3.949h1.085a1.7,1.7,0,0,1,1.307.436,1.3,1.3,0,0,1,.027,1.636,1.071,1.071,0,0,1-.756.445Zm.881,0h-.525v-3.949h.525Zm4.358-1.147a2.1,2.1,0,0,1-1.859,1.21,1.968,1.968,0,0,1-1.405-.56,1.9,1.9,0,0,1-.632-1.485,1.481,1.481,0,0,1,.018-.276,1.841,1.841,0,0,1,.685-1.281,2.048,2.048,0,0,1,1.325-.471,2.027,2.027,0,0,1,1.841,1.192h-.578a1.728,1.728,0,0,0-.569-.5,1.564,1.564,0,0,0-1.725.258,1.5,1.5,0,0,0,0,2.188,1.465,1.465,0,0,0,1.04.409,1.5,1.5,0,0,0,1.263-.685Zm3.9,1.147h-.578l-.551-1.272h-1.628l-.542,1.272h-.578l1.681-3.949h.525Zm-1.334-1.779-.6-1.441-.614,1.441Zm-14.826,3.371h-.854v3.451h-.525V172.6h-.863v-.489h2.241Zm2.988,3.451h-.676l-1.4-1.877h.471a1.382,1.382,0,0,0,.711-.16.673.673,0,0,0,.329-.614.7.7,0,0,0-.3-.6,1.15,1.15,0,0,0-.658-.2h-.685v3.442h-.525v-3.94h1.085a1.7,1.7,0,0,1,1.316.436,1.2,1.2,0,0,1,.293.809,1.239,1.239,0,0,1-.267.818,1.089,1.089,0,0,1-.765.445Zm3.86,0h-.578l-.551-1.272h-1.628l-.542,1.272h-.578l1.681-3.94h.516Zm-1.334-1.779-.6-1.432-.6,1.432Zm2.1,1.779h-.525v-3.94h.525Zm3.753,0h-.48l-2.126-3.166v3.166h-.525v-3.94h.623l1.983,2.962v-2.962h.525Zm4.571-1.93a1.855,1.855,0,0,1-.676,1.467,2.114,2.114,0,0,1-1.423.534,1.909,1.909,0,0,1-1.379-.569,2.007,2.007,0,0,1-.631-1.5,1.918,1.918,0,0,1,.569-1.37,1.958,1.958,0,0,1,1.467-.631,2,2,0,0,1,1.477.6A2.027,2.027,0,0,1,1565.205,174.124Zm-.525-.009a1.518,1.518,0,0,0-.445-1.094,1.485,1.485,0,0,0-1.085-.454,1.467,1.467,0,0,0-1.049.436,1.349,1.349,0,0,0-.471,1.023,1.477,1.477,0,0,0,1.5,1.565,1.63,1.63,0,0,0,1.014-.329A1.37,1.37,0,0,0,1564.681,174.115Zm4.3-2-1.628,3.94h-.462l-1.61-3.94h.587l1.263,3.175,1.263-3.175Zm3.735,3.94h-.578l-.552-1.272h-1.627l-.542,1.272h-.578l1.681-3.94h.525Zm-1.334-1.779-.6-1.432-.614,1.432Zm3.478-1.672h-.854v3.451h-.525V172.6h-.863v-.489h2.241Zm.783,3.451h-.525v-3.94h.525Zm4.58-1.93a1.863,1.863,0,0,1-.685,1.467,2.114,2.114,0,0,1-1.423.534,1.924,1.924,0,0,1-1.379-.569,2,2,0,0,1-.623-1.5,1.946,1.946,0,0,1,.56-1.37,2.072,2.072,0,0,1,2.944-.036A2.035,2.035,0,0,1,1580.227,174.124Zm-.534-.009a1.516,1.516,0,0,0-2.579-1.112,1.38,1.38,0,0,0-.471,1.023,1.489,1.489,0,0,0,1.5,1.565,1.612,1.612,0,0,0,1.014-.329A1.37,1.37,0,0,0,1579.693,174.115Zm4.118,1.939h-.48l-2.126-3.166v3.166h-.534v-3.94h.623l1.983,2.962v-2.962h.534Zm-32.711,3.9a2.076,2.076,0,0,1-1.859,1.21,2.03,2.03,0,0,1-1.405-.551,1.956,1.956,0,0,1-.631-1.485,2.688,2.688,0,0,1,.018-.276,1.869,1.869,0,0,1,.694-1.29,2.008,2.008,0,0,1,1.316-.471,2.048,2.048,0,0,1,1.85,1.192h-.587a1.657,1.657,0,0,0-.569-.5,1.567,1.567,0,0,0-.676-.151,1.471,1.471,0,0,0-1.049.409,1.5,1.5,0,0,0,0,2.188,1.473,1.473,0,0,0,1.041.418,1.5,1.5,0,0,0,1.263-.694Zm4.34-.783a1.837,1.837,0,0,1-.676,1.459,2.1,2.1,0,0,1-1.432.543,1.9,1.9,0,0,1-1.37-.569,2.027,2.027,0,0,1-.631-1.512,1.941,1.941,0,0,1,.56-1.361,1.968,1.968,0,0,1,1.476-.64,2.02,2.02,0,0,1,1.476.6A2,2,0,0,1,1555.44,179.176Zm-.525-.009a1.525,1.525,0,0,0-.454-1.1,1.493,1.493,0,0,0-2.135-.009,1.366,1.366,0,0,0-.471,1.023,1.455,1.455,0,0,0,.542,1.218,1.49,1.49,0,0,0,.969.347,1.543,1.543,0,0,0,1.005-.338A1.327,1.327,0,0,0,1554.915,179.167Zm4.109,1.939h-.48l-2.126-3.166v3.166h-.525v-3.949h.623l1.983,2.971v-2.971h.525Zm2.8-1.13a1.2,1.2,0,0,1-.293.8,1.164,1.164,0,0,1-.907.391,1.205,1.205,0,0,1-.907-.365,1.261,1.261,0,0,1-.347-.916h.56a.789.789,0,0,0,.187.543.69.69,0,0,0,.525.213.669.669,0,0,0,.658-.649.657.657,0,0,0-.107-.374,1.184,1.184,0,0,0-.6-.374,3.213,3.213,0,0,1-.738-.311,1,1,0,0,1-.356-.845.885.885,0,0,1,.347-.72,1.152,1.152,0,0,1,.765-.276,1.059,1.059,0,0,1,.818.356,1.02,1.02,0,0,1,.3.694v.125h-.525c-.053-.427-.258-.64-.6-.64a.165.165,0,0,0-.062-.018.527.527,0,0,0-.338.133.48.48,0,0,0-.187.374.626.626,0,0,0,.391.623l.782.249a1.031,1.031,0,0,1,.6.729c.009.071.018.125.018.142Zm3.051-.32a1.545,1.545,0,0,1-.418,1.138,1.267,1.267,0,0,1-.934.374,1.326,1.326,0,0,1-.934-.356,1.354,1.354,0,0,1-.427-1.049v-2.606h.525v2.588a.966.966,0,0,0,.222.64.745.745,0,0,0,.614.276.711.711,0,0,0,.623-.311,1.119,1.119,0,0,0,.2-.685v-2.508h.525Zm2.686,1.45h-2.081v-3.949h.525v3.451l1.556-.009Zm2.161-3.451h-.854v3.451h-.525v-3.451h-.863v-.5h2.241Zm.783,3.451h-.525v-3.949h.525Zm3.762,0h-.489l-2.117-3.166v3.166h-.534v-3.949h.623l1.983,2.971v-2.971h.534Zm4.607-1.912a2.216,2.216,0,0,1-.756,1.512,2.069,2.069,0,0,1-1.343.462,2,2,0,0,1-1.45-.6,1.961,1.961,0,0,1-.6-1.441,1.922,1.922,0,0,1,.649-1.5,1.983,1.983,0,0,1,1.37-.534,2.113,2.113,0,0,1,1.156.32,2.042,2.042,0,0,1,.774.907h-.6a1.3,1.3,0,0,0-.56-.534,1.671,1.671,0,0,0-.765-.178,1.455,1.455,0,0,0-1.112.489,1.5,1.5,0,0,0-.4,1.032,1.413,1.413,0,0,0,.507,1.112,1.464,1.464,0,0,0,1.014.409,1.693,1.693,0,0,0,.792-.2,1.3,1.3,0,0,0,.667-.747h-2.055v-.507Z" transform="translate(909.056 -229.187)" fill="#fff"/></g></g></g></svg>