<svg xmlns="http://www.w3.org/2000/svg" width="544" height="408.699" viewBox="0 0 544 408.699"><g transform="translate(-70 -571.301)"><g transform="translate(11 64)"><rect width="43" height="37" transform="translate(113 879)" fill="#008ec4"/><rect width="43" height="37" transform="translate(172 879)" fill="#de3714"/><rect width="42" height="37" transform="translate(232 879)" fill="#aa4314"/><rect width="42" height="37" transform="translate(291 879)" fill="#f52377"/><rect width="42" height="37" transform="translate(350 879)" fill="#7de507"/><rect width="42" height="37" transform="translate(408 879)" fill="#e162dc"/><g transform="translate(60 508.301)" opacity="0.49"><circle cx="2.967" cy="2.967" r="2.967" transform="translate(112.039 0)" fill="none" stroke="#fff" stroke-linecap="round" stroke-linejoin="round" stroke-miterlimit="10" stroke-width="2"/><circle cx="2.967" cy="2.967" r="2.967" transform="translate(333.301 293.335)" fill="none" stroke="#fff" stroke-linecap="round" stroke-linejoin="round" stroke-miterlimit="10" stroke-width="2"/><circle cx="2.967" cy="2.967" r="2.967" transform="translate(230.673 79.952)" fill="none" stroke="#fff" stroke-linecap="round" stroke-linejoin="round" stroke-miterlimit="10" stroke-width="2"/><circle cx="2.967" cy="2.967" r="2.967" transform="translate(0 220.69)" fill="none" stroke="#fff" stroke-linecap="round" stroke-linejoin="round" stroke-miterlimit="10" stroke-width="2"/><circle cx="2.967" cy="2.967" r="2.967" transform="translate(29.891 94.037)" fill="none" stroke="#fff" stroke-linecap="round" stroke-linejoin="round" stroke-miterlimit="10" stroke-width="2"/><g transform="translate(295.611 28.299)"><line y2="5.139" transform="translate(2.533)" fill="none" stroke="#fff" stroke-linecap="round" stroke-linejoin="round" stroke-miterlimit="10" stroke-width="2"/><line x1="5.139" transform="translate(0 2.533)" fill="none" stroke="#fff" stroke-linecap="round" stroke-linejoin="round" stroke-miterlimit="10" stroke-width="2"/></g><g transform="translate(536.861 293.689)"><line y2="5.139" transform="translate(2.605)" fill="none" stroke="#fff" stroke-linecap="round" stroke-linejoin="round" stroke-miterlimit="10" stroke-width="2"/><line x1="5.139" transform="translate(0 2.533)" fill="none" stroke="#fff" stroke-linecap="round" stroke-linejoin="round" stroke-miterlimit="10" stroke-width="2"/></g><g transform="translate(132.124 225.345)"><line y2="5.139" transform="translate(2.606 0)" fill="none" stroke="#fff" stroke-linecap="round" stroke-linejoin="round" stroke-miterlimit="10" stroke-width="2"/><line x1="5.139" transform="translate(0 2.533)" fill="none" stroke="#fff" stroke-linecap="round" stroke-linejoin="round" stroke-miterlimit="10" stroke-width="2"/></g><g transform="translate(393.367 383.932)"><g transform="translate(31.194)"><line y2="5.139" transform="translate(2.606)" fill="none" stroke="#fff" stroke-linecap="round" stroke-linejoin="round" stroke-miterlimit="10" stroke-width="2"/><line x1="5.211" transform="translate(0 2.533)" fill="none" stroke="#fff" stroke-linecap="round" stroke-linejoin="round" stroke-miterlimit="10" stroke-width="2"/></g><g transform="translate(15.633)"><line y2="5.139" transform="translate(2.606)" fill="none" stroke="#fff" stroke-linecap="round" stroke-linejoin="round" stroke-miterlimit="10" stroke-width="2"/><line x1="5.139" transform="translate(0 2.533)" fill="none" stroke="#fff" stroke-linecap="round" stroke-linejoin="round" stroke-miterlimit="10" stroke-width="2"/></g><line y2="5.139" transform="translate(2.605)" fill="none" stroke="#fff" stroke-linecap="round" stroke-linejoin="round" stroke-miterlimit="10" stroke-width="2"/><line x1="5.211" transform="translate(0 2.533)" fill="none" stroke="#fff" stroke-linecap="round" stroke-linejoin="round" stroke-miterlimit="10" stroke-width="2"/></g><g transform="translate(2.027 31.773)"><g transform="translate(31.194)"><line y2="5.139" transform="translate(2.605)" fill="none" stroke="#fff" stroke-linecap="round" stroke-linejoin="round" stroke-miterlimit="10" stroke-width="2"/><line x1="5.211" transform="translate(0 2.533)" fill="none" stroke="#fff" stroke-linecap="round" stroke-linejoin="round" stroke-miterlimit="10" stroke-width="2"/></g><g transform="translate(15.633)"><line y2="5.139" transform="translate(2.533)" fill="none" stroke="#fff" stroke-linecap="round" stroke-linejoin="round" stroke-miterlimit="10" stroke-width="2"/><line x1="5.139" transform="translate(0 2.533)" fill="none" stroke="#fff" stroke-linecap="round" stroke-linejoin="round" stroke-miterlimit="10" stroke-width="2"/></g><line y2="5.139" transform="translate(2.605)" fill="none" stroke="#fff" stroke-linecap="round" stroke-linejoin="round" stroke-miterlimit="10" stroke-width="2"/><line x1="5.211" transform="translate(0 2.533)" fill="none" stroke="#fff" stroke-linecap="round" stroke-linejoin="round" stroke-miterlimit="10" stroke-width="2"/></g><path d="M272.553,272.22l3.981-7.02H268.5Z" transform="translate(-69.671 -71.471)" fill="none" stroke="#fff" stroke-linecap="round" stroke-linejoin="round" stroke-miterlimit="10" stroke-width="2"/><path d="M537.953,128.7l-4.053,6.948h8.034Z" transform="translate(-121.516 -95.263)" fill="none" stroke="#fff" stroke-linecap="round" stroke-linejoin="round" stroke-miterlimit="10" stroke-width="2"/><path d="M265.5,412.148c1.737-1.737,4.849,1.3,6.586-.434s-1.3-4.849.434-6.586,4.849,1.3,6.586-.434-1.3-4.849.434-6.586,4.849,1.3,6.586-.434-1.3-4.849.434-6.586,4.849,1.3,6.586-.434" transform="translate(-68.244 -46.31)" fill="none" stroke="#fff" stroke-linecap="round" stroke-linejoin="round" stroke-miterlimit="10" stroke-width="2"/><path d="M476.2,392.448c1.737-1.737,4.849,1.3,6.586-.434s-1.3-4.849.434-6.586,4.849,1.3,6.586-.434-1.3-4.849.434-6.586,4.849,1.3,6.586-.434-1.3-4.849.434-6.586,4.849,1.3,6.586-.434" transform="translate(-108.678 -40.868)" fill="none" stroke="#fff" stroke-linecap="round" stroke-linejoin="round" stroke-miterlimit="10" stroke-width="2"/><path d="M488.2,117.948c1.737-1.737,4.849,1.3,6.586-.434s-1.3-4.849.434-6.586,4.849,1.3,6.586-.434-1.3-4.849.434-6.586,4.849,1.3,6.586-.434-1.3-4.849.434-6.586,4.849,1.3,6.586-.434" transform="translate(-110.981 -86.321)" fill="none" stroke="#fff" stroke-linecap="round" stroke-linejoin="round" stroke-miterlimit="10" stroke-width="2"/></g><text transform="translate(122 906)" fill="#fff" font-size="23" font-family="Roboto-Bold, Roboto" font-weight="700" letter-spacing="-0.05em"><tspan x="0" y="0">Ps</tspan></text><text transform="translate(181 906)" fill="#fff" font-size="23" font-family="Roboto-Bold, Roboto" font-weight="700" letter-spacing="-0.05em"><tspan x="0" y="0">Ae</tspan></text><text transform="translate(240 906)" fill="#fff" font-size="23" font-family="Roboto-Bold, Roboto" font-weight="700" letter-spacing="-0.05em"><tspan x="0" y="0">Ai</tspan></text><text transform="translate(299 906)" fill="#fff" font-size="23" font-family="Roboto-Bold, Roboto" font-weight="700" letter-spacing="-0.05em"><tspan x="0" y="0">Id</tspan></text><text transform="translate(354 906)" fill="#fff" font-size="23" font-family="Roboto-Regular, Roboto" letter-spacing="-0.05em"><tspan x="0" y="0">Cdr</tspan></text><text transform="translate(416 906)" fill="#fff" font-size="23" font-family="Roboto-Bold, Roboto" font-weight="700" letter-spacing="-0.05em"><tspan x="0" y="0">Xd</tspan></text></g></g></svg>