<svg xmlns="http://www.w3.org/2000/svg" xmlns:xlink="http://www.w3.org/1999/xlink" width="229.748" height="144.558" viewBox="0 0 229.748 144.558"><defs><radialGradient id="a" cx="0.502" cy="0.949" r="1.085" gradientTransform="translate(0.212) scale(0.577 1)" gradientUnits="objectBoundingBox"><stop offset="0" stop-color="#42e8e0"/><stop offset="0.105" stop-color="#37b6bf"/><stop offset="0.22" stop-color="#2c87a1"/><stop offset="0.338" stop-color="#235f87"/><stop offset="0.459" stop-color="#1c3f72"/><stop offset="0.582" stop-color="#162561"/><stop offset="0.711" stop-color="#121355"/><stop offset="0.846" stop-color="#10084e"/><stop offset="1" stop-color="#0f054c"/></radialGradient><radialGradient id="b" cx="0.5" cy="0.497" r="0.974" gradientTransform="translate(0.211 42.2) scale(0.577 0.509)" xlink:href="#a"/><radialGradient id="c" cx="1.212" cy="1.217" fx="1.2133270502090454" fy="1.29218590259552" r="1.057" gradientTransform="matrix(-0.45, 0.836, -1.129, -0.904, -273.275, -76.98)" gradientUnits="objectBoundingBox"><stop offset="0" stop-color="#c0bff6"/><stop offset="1" stop-color="#393091"/></radialGradient><linearGradient id="d" x1="-105.567" y1="58.263" x2="-106.009" y2="58.983" gradientUnits="objectBoundingBox"><stop offset="0" stop-color="#42e8e0"/><stop offset="0.005" stop-color="#42e6df"/><stop offset="0.136" stop-color="#40b6cb"/><stop offset="0.271" stop-color="#3e8db9"/><stop offset="0.407" stop-color="#3c6baa"/><stop offset="0.547" stop-color="#3b519f"/><stop offset="0.689" stop-color="#3a3f97"/><stop offset="0.837" stop-color="#393493"/><stop offset="1" stop-color="#393091"/></linearGradient><radialGradient id="e" cx="2.884" cy="-1.095" fx="2.884216547012329" fy="-1.0951473712921143" r="2.879" gradientTransform="translate(-2.889 2.122) rotate(11.198)" xlink:href="#c"/><linearGradient id="f" x1="-25.625" y1="11.832" x2="-24.628" y2="11.832" xlink:href="#d"/><radialGradient id="g" cx="0.795" cy="0.33" fx="0.7953673601150513" fy="0.330422043800354" r="0.735" gradientTransform="translate(-1.552 -0.559) scale(1.168 1.361)" xlink:href="#c"/><linearGradient id="h" x1="8.884" y1="2.179" x2="8.884" y2="1.235" xlink:href="#d"/><radialGradient id="i" cx="0.812" cy="0.427" fx="0.8115490078926086" fy="0.42656251788139343" r="0.844" gradientTransform="translate(0)" xlink:href="#c"/><linearGradient id="j" x1="0.43" y1="0.995" x2="0.569" y2="0.006" xlink:href="#d"/><radialGradient id="k" cx="0.795" cy="0.173" fx="0.7946266531944275" fy="0.17315921187400818" r="1.041" gradientTransform="translate(-2.704 2.474) rotate(11.198)" xlink:href="#c"/><linearGradient id="l" x1="-14.534" y1="-11.812" x2="-13.856" y2="-12.544" xlink:href="#d"/><radialGradient id="m" cx="1.183" cy="0.069" fx="1.1846907138824463" fy="0.12374002486467361" r="0.777" gradientTransform="matrix(1.621, 0.118, -0.319, 1.636, -22.148, 40.933)" xlink:href="#c"/><linearGradient id="n" x1="-6.586" y1="2.349" x2="-5.506" y2="2.349" xlink:href="#d"/><radialGradient id="o" cx="0.314" cy="-0.636" r="1.062" gradientTransform="translate(-0.231 22.433) scale(1.737 1.285)" gradientUnits="objectBoundingBox"><stop offset="0" stop-color="#2b237c"/><stop offset="0.31" stop-color="#251c72"/><stop offset="1" stop-color="#0f054c"/></radialGradient><linearGradient id="p" x1="0.862" y1="0.431" x2="-1.494" y2="0.875" gradientUnits="objectBoundingBox"><stop offset="0" stop-color="#bcbeff"/><stop offset="0.151" stop-color="#a3a7f5"/><stop offset="0.387" stop-color="#8289e8"/><stop offset="0.612" stop-color="#6a73df"/><stop offset="0.822" stop-color="#5c66d9"/><stop offset="1" stop-color="#5761d7"/></linearGradient><linearGradient id="q" x1="0.393" y1="0.507" x2="-3.2" y2="0.754" xlink:href="#p"/><linearGradient id="r" x1="-0.146" y1="1.115" x2="1.726" y2="-0.667" gradientUnits="objectBoundingBox"><stop offset="0" stop-color="#42e8e0"/><stop offset="0.119" stop-color="#42e2de"/><stop offset="0.27" stop-color="#41d3d7"/><stop offset="0.439" stop-color="#40b9cc"/><stop offset="0.62" stop-color="#3e94bc"/><stop offset="0.81" stop-color="#3c66a8"/><stop offset="1" stop-color="#393091"/></linearGradient><linearGradient id="s" x1="0.099" y1="-0.378" x2="0.893" y2="0.778" gradientUnits="objectBoundingBox"><stop offset="0" stop-color="#bcbeff"/><stop offset="0.227" stop-color="#aaadf8"/><stop offset="0.68" stop-color="#7c83e5"/><stop offset="1" stop-color="#5761d7"/></linearGradient><linearGradient id="t" x1="-0.001" y1="0.5" x2="1" y2="0.5" gradientUnits="objectBoundingBox"><stop offset="0" stop-color="#e9e9fd"/><stop offset="0.36" stop-color="#d3d2f9"/><stop offset="0.706" stop-color="#c5c4f7"/><stop offset="1" stop-color="#c0bff6"/></linearGradient><linearGradient id="u" x1="0.099" y1="-0.376" x2="0.893" y2="0.78" xlink:href="#s"/><linearGradient id="v" x1="1.318" y1="0.589" x2="-0.495" y2="0.403" xlink:href="#d"/><linearGradient id="w" x1="-0.001" y1="0.501" x2="1" y2="0.501" xlink:href="#t"/><linearGradient id="x" x1="0.099" y1="-0.376" x2="0.893" y2="0.78" xlink:href="#s"/><linearGradient id="y" x1="-0.001" y1="0.501" x2="1" y2="0.501" xlink:href="#t"/><linearGradient id="z" x1="0.099" y1="-0.377" x2="0.893" y2="0.779" xlink:href="#s"/><linearGradient id="aa" x1="0.099" y1="-0.377" x2="0.893" y2="0.779" xlink:href="#d"/><linearGradient id="ab" x1="-0.001" y1="0.5" x2="1" y2="0.5" xlink:href="#t"/></defs><g transform="translate(0 -251.968)"><ellipse cx="34.5" cy="1.5" rx="34.5" ry="1.5" transform="translate(70 362)" fill="#021f6e"/><g transform="translate(0 251.968)" opacity="0.57"><path d="M0,302.594c9.779,8.179,18.789,8.949,24.427,8.949,29.112,0,48.486-36.483,89.8-36.483,36.185,0,45.718,24.276,48.332,28.314s12.762,29.558,19.681,35.109,31.449,20.377,42.284,40.363c2.778,5.124,5.228,14.389,5.228,18.752H0Z" transform="translate(0 -275.06)" fill="#9deeff"/><path d="M1164.6,594.858c25.367.09,70.228,27.644,70.228,47.794H1164.6Z" transform="translate(-1160.777 -520.114)" fill="#93beff"/></g><g transform="translate(40.963 264.036)"><path d="M389.792,244.377c-6.413,3.683-16.813,3.683-23.182,0-6.413-3.683-6.413-9.706,0-13.389s16.813-3.683,23.182,0C396.206,234.671,396.206,240.694,389.792,244.377Z" transform="translate(-312.692 -161.527)" fill="url(#a)"/><path d="M366.614,232.924c6.413-3.683,16.813-3.683,23.183,0,2.773,1.6,4.333,3.6,4.723,5.676.52-2.73-1.083-5.59-4.723-7.713-6.413-3.683-16.813-3.683-23.183,0-3.64,2.123-5.2,4.94-4.723,7.713C362.281,236.564,363.841,234.527,366.614,232.924Z" transform="translate(-312.696 -161.47)" fill="#42e8e0"/><path d="M380.119,242.464c-13.693,7.886-35.879,7.886-49.528,0s-13.693-20.713,0-28.6,35.879-7.886,49.528,0S393.768,234.577,380.119,242.464Z" transform="translate(-289.196 -150.037)" opacity="0.5" fill="url(#b)"/><g transform="translate(29.053 15.946)"><g transform="translate(0 13.824)"><path d="M320.667,152.145c-2.427-1.6-6.153-6.283-4.9-8.233s7.063-.39,9.49,1.213,3.337,4.463,2.08,6.37C326.083,153.445,323.093,153.705,320.667,152.145Z" transform="translate(-315.518 -143.004)" fill="url(#c)"/><path d="M320.667,152.145c-2.427-1.6-6.153-6.283-4.9-8.233s7.063-.39,9.49,1.213,3.337,4.463,2.08,6.37C326.083,153.445,323.093,153.705,320.667,152.145Z" transform="translate(-315.518 -143.004)" fill="url(#d)"/></g><path d="M347.123,166.577a.979.979,0,0,1-.65-.217l-8.623-5.85a1.124,1.124,0,0,1,1.257-1.863l8.623,5.85a1.118,1.118,0,0,1,.3,1.56A1.019,1.019,0,0,1,347.123,166.577Z" transform="translate(-327.892 -137.934)" fill="#2fd3c7"/><path d="M445.48,214.293a1.126,1.126,0,0,1-1.04-.693l-6.24-15.426a1.127,1.127,0,1,1,2.08-.867l6.24,15.426a1.152,1.152,0,0,1-.607,1.473A.857.857,0,0,1,445.48,214.293Z" transform="translate(-384.997 -159.565)" fill="#2fd3c7"/><g transform="translate(15.851)"><g transform="translate(0 22.576)"><circle cx="6.066" cy="6.066" r="6.066" fill="url(#e)"/></g><g transform="translate(0 22.576)"><circle cx="6.066" cy="6.066" r="6.066" fill="url(#f)"/></g><g transform="translate(4.94 24.352)"><path d="M394.785,182.553c0,11.743-6.976,21.276-15.643,21.276S363.5,194.3,363.5,182.553s6.976-15.253,15.643-15.253S394.785,170.81,394.785,182.553Z" transform="translate(-363.5 -167.3)" fill="url(#g)"/></g><g transform="translate(4.94 24.352)"><path d="M394.785,182.553c0,11.743-6.976,21.276-15.643,21.276S363.5,194.3,363.5,182.553s6.976-15.253,15.643-15.253S394.785,170.81,394.785,182.553Z" transform="translate(-363.5 -167.3)" fill="url(#h)"/></g><path d="M393.3,178.172a16.8,16.8,0,0,1-15.079,0c-4.16-2.383-4.16-6.283,0-8.71a16.8,16.8,0,0,1,15.079,0C397.459,171.889,397.459,175.789,393.3,178.172Z" transform="translate(-365.134 -143.16)" fill="#393091"/><path d="M378.208,171.166a16.8,16.8,0,0,1,15.079,0,5.84,5.84,0,0,1,3.033,3.553c.433-1.82-.563-3.77-3.033-5.156a16.8,16.8,0,0,0-15.079,0c-2.427,1.43-3.466,3.337-3.033,5.156A5.839,5.839,0,0,1,378.208,171.166Z" transform="translate(-365.122 -143.217)" fill="#42e8e0"/><path d="M377.113,125.192a9.9,9.9,0,0,1-4.506,7.8c-2.47,1.43-4.507.26-4.507-2.6a9.9,9.9,0,0,1,4.507-7.8C375.12,121.162,377.113,122.288,377.113,125.192Z" transform="translate(-361.167 -117.262)" fill="#bcbeff"/><g transform="translate(5.286)"><circle cx="15.946" cy="15.946" r="15.946" fill="url(#i)"/></g><g transform="translate(5.286)"><circle cx="15.946" cy="15.946" r="15.946" fill="url(#j)"/></g><g transform="translate(7.094 13.389)"><path d="M377.626,152.176c-.39,3.12-2.773,4.116-5.286,2.21a10.986,10.986,0,0,1-3.813-9.143c.39-3.12,2.773-4.116,5.286-2.21A10.934,10.934,0,0,1,377.626,152.176Z" transform="translate(-368.471 -142.037)" fill="#393091"/><path d="M380.47,154.245c-.13,1.127-1,1.517-1.907.78a4.02,4.02,0,0,1-1.387-3.337c.13-1.127,1-1.517,1.907-.78A3.949,3.949,0,0,1,380.47,154.245Z" transform="translate(-373.395 -146.835)" fill="#42e8e0"/><path d="M373.553,153.873a10.986,10.986,0,0,1-3.813-9.143,4,4,0,0,1,1.343-2.73c-1.3.13-2.3,1.257-2.557,3.163a10.986,10.986,0,0,0,3.813,9.143c1.473,1.127,2.9,1.257,3.943.52A3.9,3.9,0,0,1,373.553,153.873Z" transform="translate(-368.471 -142)" fill="#453c9e"/><path d="M372.557,154.446a10.986,10.986,0,0,1-3.813-9.143,3.624,3.624,0,0,1,1.647-2.9,3.511,3.511,0,0,0-1.863,2.99,10.986,10.986,0,0,0,3.813,9.143c1.343,1.04,2.643,1.213,3.64.693A3.494,3.494,0,0,1,372.557,154.446Z" transform="translate(-368.471 -142.227)" fill="#42e8e0"/></g><g transform="translate(32.325 32.152)"><circle cx="6.066" cy="6.066" r="6.066" fill="url(#k)"/></g><g transform="translate(32.325 32.152)"><circle cx="6.066" cy="6.066" r="6.066" fill="url(#l)"/></g></g><path d="M451.9,237.992c-.347,2.86-2.9,8.32-5.2,8.06s-3.467-6.153-3.163-9.056c.347-2.86,2.47-4.983,4.767-4.723C450.688,232.575,452.248,235.132,451.9,237.992Z" transform="translate(-388.038 -179.754)" fill="url(#m)"/><path d="M451.9,237.992c-.347,2.86-2.9,8.32-5.2,8.06s-3.467-6.153-3.163-9.056c.347-2.86,2.47-4.983,4.767-4.723C450.688,232.575,452.248,235.132,451.9,237.992Z" transform="translate(-388.038 -179.754)" fill="url(#n)"/></g><g transform="translate(4.216)"><path d="M295.3,114.776,281,106.5v16.553l14.3,8.276,14.343-8.276V106.5Z" transform="translate(-271.12 -92.547)" fill="#42e8e0"/><path d="M295.3,131.329,281,123.053V106.5l14.3,8.276Z" transform="translate(-271.12 -92.547)" fill="#42e8e0"/><path d="M328.343,123.053,314,131.329V114.776l14.343-8.276Z" transform="translate(-289.821 -92.547)" fill="#2fd3c7"/><path d="M295.3,104.009,281,95.733,295.3,87.5l14.343,8.233Z" transform="translate(-271.12 -81.78)" fill="#42e8e0"/><path d="M312.56,137.813h-.043l-1-.563c-.043-.043-.087-.087-.043-.13s.087-.087.13-.043l.91.52.91-.52a.1.1,0,0,1,.087.173l-1,.563Z" transform="translate(-288.381 -109.864)" fill="#fff"/><path d="M283.333,120.936h-.043l-1.993-1.17c-.043-.043-.087-.087-.043-.13s.087-.087.13-.043l1.993,1.17c.043.043.087.087.043.13A.151.151,0,0,1,283.333,120.936Zm-4.03-2.34h-.043l-1.993-1.17c-.043-.043-.087-.087-.043-.13s.087-.087.13-.043l1.993,1.17c.043.043.087.087.043.13C279.389,118.6,279.346,118.6,279.3,118.6Zm-3.987-2.3h-.043l-1.993-1.17c-.043-.043-.087-.087-.043-.13s.087-.087.13-.043l1.993,1.17c.043.043.087.087.043.13C275.359,116.256,275.359,116.3,275.316,116.3Zm-4.03-2.34h-.043l-1.993-1.17c-.043-.043-.087-.087-.043-.13s.087-.087.13-.043l1.993,1.17c.043.043.087.087.043.13C271.373,113.96,271.33,113.96,271.286,113.96Zm-4.03-2.34h-.043l-1.993-1.17c-.043-.043-.087-.087-.043-.13s.087-.087.13-.043l1.993,1.17c.043.043.087.087.043.13C267.343,111.62,267.3,111.62,267.257,111.62Z" transform="translate(-262.143 -94.677)" fill="#fff"/><path d="M259.283,106.376h-.043l-1-.563c-.043,0-.043-.043-.043-.087s0-.087.043-.087l1-.563a.1.1,0,1,1,.087.173l-.823.477.823.477c.043.043.087.087.043.13A.151.151,0,0,1,259.283,106.376Z" transform="translate(-258.2 -91.73)" fill="#fff"/><path d="M265.263,88.893c-.043,0-.087,0-.087-.043a.083.083,0,0,1,.043-.13l1.993-1.17a.1.1,0,1,1,.087.173l-1.993,1.17Zm4.03-2.34c-.043,0-.087,0-.087-.043a.083.083,0,0,1,.043-.13l1.993-1.17a.1.1,0,1,1,.087.173l-1.993,1.17Zm3.987-2.3c-.043,0-.087,0-.087-.043a.083.083,0,0,1,.043-.13l1.993-1.17a.1.1,0,1,1,.087.173l-1.993,1.17Zm4.03-2.34c-.043,0-.087,0-.087-.043a.083.083,0,0,1,.043-.13l1.993-1.17a.1.1,0,1,1,.087.173l-1.993,1.17Zm4.03-2.3c-.043,0-.087,0-.087-.043a.083.083,0,0,1,.043-.13l1.993-1.17a.1.1,0,0,1,.087.173l-1.993,1.17Z" transform="translate(-262.143 -76.543)" fill="#fff"/><path d="M313.67,75.037h-.043l-.91-.52-.91.52a.1.1,0,1,1-.087-.173l1-.563h.13l1,.563c.043.043.087.087.043.13A.758.758,0,0,1,313.67,75.037Z" transform="translate(-288.494 -74.3)" fill="#fff"/><path d="M338.889,88.893h-.043l-1.993-1.17c-.043-.043-.087-.087-.043-.13s.087-.087.13-.043l1.993,1.17c.043.043.087.087.043.13C338.976,88.893,338.933,88.893,338.889,88.893Zm-3.987-2.34h-.043l-1.993-1.17c-.043-.043-.087-.087-.043-.13s.087-.087.13-.043l1.993,1.17c.043.043.087.087.043.13S334.946,86.553,334.9,86.553Zm-4.03-2.3h-.043l-1.993-1.17c-.043-.043-.087-.087-.043-.13s.087-.087.13-.043l1.993,1.17c.043.043.087.087.043.13A.151.151,0,0,1,330.873,84.256Zm-4.03-2.34H326.8l-1.993-1.17c-.043-.043-.087-.087-.043-.13s.087-.087.13-.043l1.993,1.17c.043.043.087.087.043.13C326.93,81.916,326.886,81.916,326.843,81.916Zm-3.987-2.3h-.043l-1.993-1.17c-.043-.043-.087-.087-.043-.13s.087-.087.13-.043l1.993,1.17c.043.043.087.087.043.13A.152.152,0,0,0,322.856,79.62Z" transform="translate(-293.651 -76.543)" fill="#fff"/><path d="M367.163,106.376c-.043,0-.087,0-.087-.043a.083.083,0,0,1,.043-.13l.823-.477-.823-.477c-.043-.043-.087-.087-.043-.13s.087-.087.13-.043l1,.563c.043,0,.043.043.043.087s0,.087-.043.087l-1,.563Z" transform="translate(-319.888 -91.73)" fill="#fff"/><path d="M320.763,120.936c-.043,0-.087,0-.087-.043a.083.083,0,0,1,.043-.13l1.993-1.17a.1.1,0,1,1,.087.173l-1.993,1.17Zm4.03-2.34c-.043,0-.087,0-.087-.043a.083.083,0,0,1,.043-.13l1.993-1.17a.1.1,0,1,1,.087.173l-1.993,1.17Zm4.03-2.3c-.043,0-.087,0-.087-.043a.083.083,0,0,1,.043-.13l1.993-1.17a.1.1,0,1,1,.087.173l-1.993,1.17C328.823,116.256,328.823,116.3,328.823,116.3Zm3.987-2.34c-.043,0-.087,0-.087-.043a.083.083,0,0,1,.043-.13l1.993-1.17a.1.1,0,0,1,.087.173l-1.993,1.17Zm4.03-2.34c-.043,0-.087,0-.087-.043a.083.083,0,0,1,.043-.13l1.993-1.17a.1.1,0,0,1,.087.173l-1.993,1.17Z" transform="translate(-293.594 -94.677)" fill="#fff"/><path d="M295.3,114.776,281,106.5v.737l14.3,8.276,14.343-8.276V106.5Z" transform="translate(-271.12 -92.547)" fill="#fff"/></g><path d="M424.563,152.673,418.8,156.01v-6.673L424.563,146Z" transform="translate(-344.993 -114.931)" fill="#251c72"/><path d="M423.7,146.52V152.2l-4.9,2.86v.953l5.763-3.337V146Z" transform="translate(-344.993 -114.931)" opacity="0.8" fill="url(#o)"/><g transform="translate(74.37 34.362)"><path d="M420.62,157.107l-.52.3V156.8l.52-.3Z" transform="translate(-420.1 -155.243)" fill="#42e8e0"/><path d="M423.22,155.663l-.52.3V155.4l.52-.3Z" transform="translate(-421.573 -154.45)" fill="#42e8e0"/><path d="M425.72,154.207l-.52.3V153.9l.52-.3Z" transform="translate(-422.99 -153.6)" fill="#42e8e0"/><path d="M425.72,157.807l-.52.3V157.5l.52-.3Z" transform="translate(-422.99 -155.64)" fill="#42e8e0"/><path d="M424.22,160.607l-.52.3V160.3l.52-.3Z" transform="translate(-422.14 -157.227)" fill="#42e8e0"/><path d="M428.32,156.307l-.52.3V156l.52-.3Z" transform="translate(-424.464 -154.79)" fill="#42e8e0"/></g><path d="M382.408,115.092h-.043l-.477-.3a.1.1,0,1,1,.087-.173l.433.3,1.43-.78a.1.1,0,0,1,.087.173l-1.473.823A.042.042,0,0,0,382.408,115.092Zm-2.383-1.56h-.043l-1.907-1.257a.1.1,0,0,1,.087-.173l1.907,1.257a.159.159,0,0,1,.043.13C380.112,113.532,380.068,113.532,380.025,113.532Zm5.85-.347c-.043,0-.087,0-.087-.043a.083.083,0,0,1,.043-.13l1.993-1.083a.1.1,0,0,1,.087.173l-1.993,1.083Zm3.986-2.167c-.043,0-.087,0-.087-.043a.083.083,0,0,1,.043-.13l1.993-1.083a.1.1,0,1,1,.087.173l-1.993,1.083Zm3.943-2.21c-.043,0-.087,0-.087-.043a.083.083,0,0,1,.043-.13l1.993-1.083a.1.1,0,1,1,.087.173l-1.993,1.083Zm3.986-2.167c-.043,0-.087,0-.087-.043a.083.083,0,0,1,.043-.13l.78-.433-.867-.477c-.043-.043-.087-.087-.043-.13s.087-.087.13-.043l1.04.563c.043,0,.043.043.043.087s0,.087-.043.087l-.953.52Zm-2.123-2.167h-.043l-1.993-1.083c-.043-.043-.087-.087-.043-.13s.087-.087.13-.043l1.993,1.083c.043.043.087.087.043.13C395.754,104.476,395.711,104.476,395.668,104.476Zm-3.986-2.123h-.043l-1.993-1.083c-.043-.043-.087-.087-.043-.13s.087-.087.13-.043l1.993,1.083c.043.043.087.087.043.13A.151.151,0,0,0,391.681,102.352Zm-4.03-2.123h-.043l-1.993-1.083c-.043-.043-.087-.087-.043-.13s.087-.087.13-.043l1.993,1.083c.043.043.087.087.043.13A.151.151,0,0,1,387.651,100.229Zm-3.986-2.123h-.043l-1.993-1.083c-.043-.043-.087-.087-.043-.13s.087-.087.13-.043l1.993,1.083c.043.043.087.087.043.13A.151.151,0,0,1,383.665,98.106Zm-4.03-2.167h-.043L377.6,94.856c-.043-.043-.087-.087-.043-.13s.087-.087.13-.043l1.993,1.083c.043.043.087.087.043.13C379.722,95.939,379.678,95.939,379.635,95.939Zm-3.987-2.123h-.043l-1.993-1.083c-.043-.043-.087-.087-.043-.13s.087-.087.13-.043l1.993,1.083c.043.043.087.087.043.13C375.735,93.816,375.692,93.816,375.649,93.816Zm-3.987-2.123h-.043l-1.993-1.083c-.043-.043-.087-.087-.043-.13s.087-.087.13-.043l1.993,1.083c.043.043.087.087.043.13C371.705,91.649,371.705,91.693,371.662,91.693Zm-4.03-2.123h-.043L365.6,88.486c-.043-.043-.087-.087-.043-.13s.087-.087.13-.043l1.993,1.083c.043.043.087.087.043.13A.151.151,0,0,1,367.632,89.569ZM363.646,87.4H363.6l-1.993-1.083c-.043-.043-.087-.087-.043-.13s.087-.087.13-.043l1.993,1.083c.043.043.087.087.043.13C363.732,87.4,363.689,87.4,363.646,87.4Zm-4.03-2.123h-.043L357.579,84.2c-.043-.043-.087-.087-.043-.13s.087-.087.13-.043l1.993,1.083c.043.043.087.087.043.13C359.7,85.28,359.659,85.28,359.616,85.28Zm-17.853-.953c-.043,0-.087,0-.087-.043a.083.083,0,0,1,.043-.13l1.95-1.127a.1.1,0,0,1,.087.173l-1.95,1.127Zm13.866-1.17h-.043l-1.993-1.083c-.043-.043-.087-.087-.043-.13s.087-.087.13-.043l1.993,1.083c.043.043.087.087.043.13C355.716,83.156,355.673,83.156,355.629,83.156Zm-9.923-1.127c-.043,0-.087,0-.087-.043a.083.083,0,0,1,.043-.13l1.95-1.127a.1.1,0,1,1,.087.173l-1.95,1.127Zm5.936-1H351.6l-1.993-1.083c-.043-.043-.087-.087-.043-.13s.087-.087.13-.043l1.993,1.083c.043.043.087.087.043.13C351.686,80.99,351.686,81.033,351.643,81.033Z" transform="translate(-301.278 -77.393)" fill="#fff"/><g transform="translate(78.443 34.535)"><path d="M435.306,155.43l.607-1.083-.607-.347-5.806,3.337v6.63l.65.39.607-1.083,4.55-2.6Z" transform="translate(-429.5 -154)" fill="url(#p)"/><path d="M436.763,161.473,431,164.81v-6.673l5.763-3.337Z" transform="translate(-430.35 -154.453)" fill="url(#q)"/><path d="M436.763,161.473,431,164.81v-6.673l5.763-3.337Z" transform="translate(-430.35 -154.453)" fill="url(#r)"/></g><g transform="translate(0 57.913)"><g transform="translate(0.013 17.983)" opacity="0.3"><path d="M279.265,271.68v-2.643l-.737-.433c-.217,1.257-1.69,2.08-2.947,2.253l-8.493,4.94-3.683,1.343-11.829-6.11.26-.173a5.316,5.316,0,0,1-2.08-2.557l-.78.477-.477.13v2.73h0a1.732,1.732,0,0,0,1.04,1.43l11.83,6.846a5.692,5.692,0,0,0,5.026,0l11.83-6.846a1.732,1.732,0,0,0,1.04-1.43v.043Z" transform="translate(-248.5 -260.132)" fill="url(#s)"/><path d="M295.7,271.31l-8.493,4.94L284,277.42v3.64a5.257,5.257,0,0,0,2.513-.607l11.83-6.846a1.732,1.732,0,0,0,1.04-1.43v-.087h0v-2.6l-.693-.39H298.6C298.386,270.357,296.913,271.18,295.7,271.31Z" transform="translate(-268.617 -260.585)" fill="#0f054c" opacity="0.3"/><g transform="translate(0)"><path d="M261.37,266.631l-11.83-6.846c-1.387-.78-1.387-2.123,0-2.9l11.83-6.846a5.691,5.691,0,0,1,5.026,0l11.83,6.846c1.387.78,1.387,2.123,0,2.9l-11.83,6.846A5.692,5.692,0,0,1,261.37,266.631Z" transform="translate(-248.5 -249.45)" fill="url(#t)"/></g><g transform="translate(0)" opacity="0.3"><path d="M261.37,266.631l-11.83-6.846c-1.387-.78-1.387-2.123,0-2.9l11.83-6.846a5.691,5.691,0,0,1,5.026,0l11.83,6.846c1.387.78,1.387,2.123,0,2.9l-11.83,6.846A5.692,5.692,0,0,1,261.37,266.631Z" transform="translate(-248.5 -249.45)" fill="#0f054c"/></g></g><path d="M264.336,246.419a4.8,4.8,0,0,1-2.253-.52l-11.83-6.846a1.423,1.423,0,0,1,0-2.687l11.83-6.846a5.049,5.049,0,0,1,4.463,0l11.83,6.846a1.423,1.423,0,0,1,0,2.687l-11.83,6.846A4.623,4.623,0,0,1,264.336,246.419Zm-2.167-.737a4.6,4.6,0,0,0,4.247,0l11.83-6.846a1.223,1.223,0,0,0,0-2.34l-11.83-6.846a4.6,4.6,0,0,0-4.247,0L250.34,236.5a1.223,1.223,0,0,0,0,2.34Z" transform="translate(-248.94 -219.879)" fill="#42e8e0"/><path d="M279.265,236.71v-4.073l-.737-.433c-.217,1.257-1.69,2.08-2.947,2.253l-8.493,4.94-3.683,1.343-11.829-6.11.26-.173a5.317,5.317,0,0,1-2.08-2.557l-.78.477-.477.13v4.117h0a1.732,1.732,0,0,0,1.04,1.43l11.83,6.846a5.691,5.691,0,0,0,5.026,0l11.83-6.846a1.732,1.732,0,0,0,1.04-1.43v.087Z" transform="translate(-248.487 -221.522)" fill="#42e8e0" opacity="0.4"/><path d="M279.265,230.223v-2.687l-.737-.433c-.217,1.257-1.69,2.08-2.947,2.253l-8.493,4.94-3.683,1.343-11.829-6.11.26-.173a5.316,5.316,0,0,1-2.08-2.557l-.78.477-.477.13v2.73h0a1.732,1.732,0,0,0,1.04,1.43l11.83,6.846a5.691,5.691,0,0,0,5.026,0l11.83-6.846a1.732,1.732,0,0,0,1.04-1.43v.087Z" transform="translate(-248.487 -218.632)" fill="url(#u)"/><path d="M295.7,229.8l-8.493,4.94L284,235.906v3.64a5.257,5.257,0,0,0,2.513-.607l11.83-6.846a1.732,1.732,0,0,0,1.04-1.43v-.087h0V227.89l-.693-.39H298.6C298.386,228.8,296.913,229.623,295.7,229.8Z" transform="translate(-268.604 -219.029)" fill="#0f054c" opacity="0.3"/><path d="M295.7,229.8l-8.493,4.94L284,235.906v3.64a5.257,5.257,0,0,0,2.513-.607l11.83-6.846a1.732,1.732,0,0,0,1.04-1.43v-.087h0V227.89l-.693-.39H298.6C298.386,228.8,296.913,229.623,295.7,229.8Z" transform="translate(-268.604 -219.029)" fill="url(#v)"/><g transform="translate(0.013)"><path d="M261.37,225.131l-11.83-6.846c-1.387-.78-1.387-2.123,0-2.9l11.83-6.846a5.691,5.691,0,0,1,5.026,0l11.83,6.846c1.387.78,1.387,2.123,0,2.9l-11.83,6.846A5.423,5.423,0,0,1,261.37,225.131Z" transform="translate(-248.5 -207.95)" fill="url(#w)"/></g><g transform="translate(3.263 1.874)"><path d="M268.133,226.369a4.412,4.412,0,0,1-2.037-.477l-9.23-5.373a1.283,1.283,0,0,1,0-2.427l9.23-5.33a4.408,4.408,0,0,1,4.03,0l9.23,5.33a1.283,1.283,0,0,1,0,2.427l-9.23,5.33A3.91,3.91,0,0,1,268.133,226.369Zm0-13.909a3.887,3.887,0,0,0-1.907.477l-9.23,5.33c-.477.3-.78.65-.78,1.04a1.219,1.219,0,0,0,.78,1.04l9.23,5.33a4.222,4.222,0,0,0,3.813,0l9.23-5.33c.477-.3.78-.65.78-1.04a1.219,1.219,0,0,0-.78-1.04l-9.23-5.33A4.012,4.012,0,0,0,268.133,212.459Z" transform="translate(-256 -212.275)" fill="#5351af"/></g><g transform="translate(0 9.078)"><path d="M278.209,230.2l-11.83,6.846a5.691,5.691,0,0,1-5.026,0l-11.83-6.846a1.97,1.97,0,0,1-1.04-1.3,1.65,1.65,0,0,0,1.04,1.6l11.83,6.846a5.691,5.691,0,0,0,5.026,0l11.83-6.846a1.65,1.65,0,0,0,1.04-1.6A2.069,2.069,0,0,1,278.209,230.2Z" transform="translate(-248.47 -228.9)" fill="#fff"/></g></g><g transform="translate(98.146 35.597)"><g transform="translate(0.013 17.939)" opacity="0.3"><path d="M505.766,220.123v-2.687l-.737-.433c-.217,1.257-1.69,2.08-2.947,2.253l-8.493,4.94-3.683,1.343-11.83-6.11.26-.173a5.316,5.316,0,0,1-2.08-2.557l-.78.477-.477.13v2.73h0a1.732,1.732,0,0,0,1.04,1.43l11.83,6.846a5.691,5.691,0,0,0,5.027,0l11.83-6.846a1.732,1.732,0,0,0,1.04-1.43v.087Z" transform="translate(-475 -208.532)" fill="url(#x)"/><path d="M522.2,219.7l-8.493,4.94-3.207,1.17v3.64a5.257,5.257,0,0,0,2.513-.607l11.829-6.846a1.732,1.732,0,0,0,1.04-1.43v-.087h0V217.79l-.693-.39H525.1C524.886,218.7,523.413,219.523,522.2,219.7Z" transform="translate(-495.117 -208.929)" fill="#0f054c" opacity="0.3"/><path d="M487.87,215.031l-11.829-6.846c-1.387-.78-1.387-2.123,0-2.9l11.829-6.846a5.691,5.691,0,0,1,5.026,0l11.83,6.846c1.387.78,1.387,2.123,0,2.9l-11.83,6.846A5.423,5.423,0,0,1,487.87,215.031Z" transform="translate(-475 -197.85)" fill="url(#y)"/><g opacity="0.3"><path d="M487.87,215.031l-11.829-6.846c-1.387-.78-1.387-2.123,0-2.9l11.829-6.846a5.691,5.691,0,0,1,5.026,0l11.83,6.846c1.387.78,1.387,2.123,0,2.9l-11.83,6.846A5.423,5.423,0,0,1,487.87,215.031Z" transform="translate(-475 -197.85)" fill="#0f054c"/></g></g><path d="M490.836,194.919a4.8,4.8,0,0,1-2.253-.52l-11.83-6.846a1.423,1.423,0,0,1,0-2.687l11.83-6.846a5.049,5.049,0,0,1,4.463,0l11.83,6.846a1.423,1.423,0,0,1,0,2.687l-11.83,6.846A5.186,5.186,0,0,1,490.836,194.919Zm0-17.246a4.168,4.168,0,0,0-2.123.52l-11.83,6.846a1.223,1.223,0,0,0,0,2.34l11.83,6.846a4.6,4.6,0,0,0,4.247,0l11.83-6.846a1.223,1.223,0,0,0,0-2.34l-11.83-6.846A4.4,4.4,0,0,0,490.836,177.673Z" transform="translate(-475.44 -168.379)" fill="#42e8e0"/><path d="M505.766,185.21v-4.073l-.737-.433c-.217,1.257-1.69,2.08-2.947,2.253l-8.493,4.94-3.683,1.343-11.83-6.11.26-.173a5.316,5.316,0,0,1-2.08-2.557l-.78.477-.477.13v4.117h0a1.732,1.732,0,0,0,1.04,1.43l11.83,6.846a5.691,5.691,0,0,0,5.027,0l11.83-6.846a1.732,1.732,0,0,0,1.04-1.43v.087Z" transform="translate(-474.987 -170.022)" fill="#42e8e0" opacity="0.4"/><path d="M505.766,178.723v-2.687l-.737-.433c-.217,1.257-1.69,2.08-2.947,2.253l-8.493,4.94-3.683,1.343-11.83-6.11.26-.173a5.316,5.316,0,0,1-2.08-2.557l-.78.477-.477.13v2.73h0a1.732,1.732,0,0,0,1.04,1.43l11.83,6.846a5.691,5.691,0,0,0,5.027,0l11.83-6.846a1.732,1.732,0,0,0,1.04-1.43v.087Z" transform="translate(-474.987 -167.132)" fill="url(#z)"/><path d="M505.766,178.723v-2.687l-.737-.433c-.217,1.257-1.69,2.08-2.947,2.253l-8.493,4.94-3.683,1.343-11.83-6.11.26-.173a5.316,5.316,0,0,1-2.08-2.557l-.78.477-.477.13v2.73h0a1.732,1.732,0,0,0,1.04,1.43l11.83,6.846a5.691,5.691,0,0,0,5.027,0l11.83-6.846a1.732,1.732,0,0,0,1.04-1.43v.087Z" transform="translate(-474.987 -167.132)" fill="url(#aa)"/><path d="M522.2,178.353l-8.493,4.94-3.207,1.17v3.64a5.258,5.258,0,0,0,2.513-.607l11.829-6.846a1.732,1.732,0,0,0,1.04-1.43v-.087h0V176.49l-.693-.39H525.1C524.886,177.357,523.413,178.18,522.2,178.353Z" transform="translate(-495.104 -167.585)" fill="#0f054c" opacity="0.3"/><g transform="translate(0.013)"><path d="M487.87,173.631l-11.829-6.846c-1.387-.78-1.387-2.123,0-2.9l11.829-6.846a5.691,5.691,0,0,1,5.026,0l11.83,6.846c1.387.78,1.387,2.123,0,2.9l-11.83,6.846A5.423,5.423,0,0,1,487.87,173.631Z" transform="translate(-475 -156.45)" fill="url(#ab)"/></g><g transform="translate(3.263 1.874)"><path d="M494.633,174.825a4.412,4.412,0,0,1-2.037-.477l-9.23-5.33a1.283,1.283,0,0,1,0-2.427l9.23-5.33a4.408,4.408,0,0,1,4.03,0l9.23,5.33a1.283,1.283,0,0,1,0,2.427l-9.23,5.33A3.776,3.776,0,0,1,494.633,174.825Zm-1.907-.65a4.222,4.222,0,0,0,3.813,0l9.23-5.33c.477-.3.78-.65.78-1.04a1.219,1.219,0,0,0-.78-1.04l-9.23-5.33a4.222,4.222,0,0,0-3.813,0l-9.23,5.33c-.477.3-.78.65-.78,1.04a1.219,1.219,0,0,0,.78,1.04Z" transform="translate(-482.5 -160.775)" fill="#5351af"/></g><g transform="translate(0 9.035)"><path d="M504.709,178.6l-11.83,6.846a5.691,5.691,0,0,1-5.026,0l-11.83-6.846a1.97,1.97,0,0,1-1.04-1.3,1.65,1.65,0,0,0,1.04,1.6l11.83,6.846a5.691,5.691,0,0,0,5.026,0l11.83-6.846a1.65,1.65,0,0,0,1.04-1.6A1.97,1.97,0,0,1,504.709,178.6Z" transform="translate(-474.97 -177.3)" fill="#fff"/></g></g></g><g transform="translate(160.222 329.088)" opacity="0.81"><g transform="translate(0 0)"><circle cx="33.456" cy="33.456" r="33.456" fill="none" stroke="#fff" stroke-linecap="round" stroke-linejoin="round" stroke-width="1.053" stroke-dasharray="0 5.607"/></g><g transform="translate(1.272 1.272)"><circle cx="32.184" cy="32.184" r="32.184" fill="none" stroke="#fff" stroke-linecap="round" stroke-linejoin="round" stroke-width="1.146" stroke-dasharray="0 5.524"/></g><g transform="translate(2.544 2.544)"><circle cx="30.912" cy="30.912" r="30.912" fill="none" stroke="#fff" stroke-linecap="round" stroke-linejoin="round" stroke-width="1.238" stroke-dasharray="0 5.472"/></g><g transform="translate(3.839 3.839)"><circle cx="29.617" cy="29.617" r="29.617" fill="none" stroke="#fff" stroke-linecap="round" stroke-linejoin="round" stroke-width="1.331" stroke-dasharray="0 5.381"/></g><g transform="translate(5.111 5.111)"><circle cx="28.345" cy="28.345" r="28.345" fill="none" stroke="#fff" stroke-linecap="round" stroke-linejoin="round" stroke-width="1.424" stroke-dasharray="0 5.32"/></g><g transform="translate(6.383 6.383)"><circle cx="27.073" cy="27.073" r="27.073" fill="none" stroke="#fff" stroke-linecap="round" stroke-linejoin="round" stroke-width="1.517" stroke-dasharray="0 5.22"/></g><g transform="translate(7.655 7.655)"><circle cx="25.801" cy="25.801" r="25.801" fill="none" stroke="#fff" stroke-linecap="round" stroke-linejoin="round" stroke-width="1.609" stroke-dasharray="0 5.149"/></g><g transform="translate(8.95 8.95)"><circle cx="24.506" cy="24.506" r="24.506" fill="none" stroke="#fff" stroke-linecap="round" stroke-linejoin="round" stroke-width="1.702" stroke-dasharray="0 5.074"/></g><g transform="translate(10.222 10.222)"><circle cx="23.234" cy="23.234" r="23.234" fill="none" stroke="#fff" stroke-linecap="round" stroke-linejoin="round" stroke-width="1.795" stroke-dasharray="0 4.993"/></g><g transform="translate(11.494 11.494)"><circle cx="21.962" cy="21.962" r="21.962" fill="none" stroke="#fff" stroke-linecap="round" stroke-linejoin="round" stroke-width="1.888" stroke-dasharray="0 4.906"/></g><g transform="translate(12.766 12.766)"><circle cx="20.69" cy="20.69" r="20.69" fill="none" stroke="#fff" stroke-linecap="round" stroke-linejoin="round" stroke-width="1.98" stroke-dasharray="0 4.851"/></g><g transform="translate(14.061 14.061)"><circle cx="19.395" cy="19.395" r="19.395" fill="none" stroke="#fff" stroke-linecap="round" stroke-linejoin="round" stroke-width="2.073" stroke-dasharray="0 4.749"/></g><g transform="translate(15.333 15.333)"><circle cx="18.123" cy="18.123" r="18.123" fill="none" stroke="#fff" stroke-linecap="round" stroke-linejoin="round" stroke-width="2.166" stroke-dasharray="0 4.681"/></g><g transform="translate(16.605 16.605)"><circle cx="16.851" cy="16.851" r="16.851" fill="none" stroke="#fff" stroke-linecap="round" stroke-linejoin="round" stroke-width="2.258" stroke-dasharray="0 4.604"/></g><g transform="translate(17.9 17.9)"><circle cx="15.556" cy="15.556" r="15.556" fill="none" stroke="#fff" stroke-linecap="round" stroke-linejoin="round" stroke-width="2.351" stroke-dasharray="0 4.518"/></g><g transform="translate(19.172 19.172)"><circle cx="14.284" cy="14.284" r="14.284" fill="none" stroke="#fff" stroke-linecap="round" stroke-linejoin="round" stroke-width="2.444" stroke-dasharray="0 4.469"/></g><g transform="translate(20.444 20.444)"><circle cx="13.012" cy="13.012" r="13.012" transform="translate(0 0)" fill="none" stroke="#fff" stroke-linecap="round" stroke-linejoin="round" stroke-width="2.536" stroke-dasharray="0 4.359"/></g><g transform="translate(21.716 21.716)"><circle cx="11.74" cy="11.74" r="11.74" fill="none" stroke="#fff" stroke-linecap="round" stroke-linejoin="round" stroke-width="2.629" stroke-dasharray="0 4.288"/></g><g transform="translate(23.011 23.011)"><circle cx="10.445" cy="10.445" r="10.445" transform="translate(0 0)" fill="none" stroke="#fff" stroke-linecap="round" stroke-linejoin="round" stroke-width="2.722" stroke-dasharray="0 4.203"/></g><g transform="translate(24.283 24.283)"><circle cx="9.173" cy="9.173" r="9.173" transform="translate(0 0)" fill="none" stroke="#fff" stroke-linecap="round" stroke-linejoin="round" stroke-width="2.815" stroke-dasharray="0 4.166"/></g><g transform="translate(25.555 25.555)"><circle cx="7.901" cy="7.901" r="7.901" fill="none" stroke="#fff" stroke-linecap="round" stroke-linejoin="round" stroke-width="2.907" stroke-dasharray="0 4.042"/></g><g transform="translate(26.827 26.827)"><circle cx="6.629" cy="6.629" r="6.629" transform="translate(0 0)" fill="none" stroke="#fff" stroke-linecap="round" stroke-linejoin="round" stroke-width="3" stroke-dasharray="0 3.965"/></g></g></g></svg>