<svg xmlns="http://www.w3.org/2000/svg" xmlns:xlink="http://www.w3.org/1999/xlink" width="1079.15" height="788.95" viewBox="0 0 1079.15 788.95"><defs><radialGradient id="a" cx="0.502" cy="0.949" r="1.085" gradientTransform="translate(0.212) scale(0.577 1)" gradientUnits="objectBoundingBox"><stop offset="0" stop-color="#42e8e0"/><stop offset="0.105" stop-color="#37b6bf"/><stop offset="0.22" stop-color="#2c87a1"/><stop offset="0.338" stop-color="#235f87"/><stop offset="0.459" stop-color="#1c3f72"/><stop offset="0.582" stop-color="#162561"/><stop offset="0.711" stop-color="#121355"/><stop offset="0.846" stop-color="#10084e"/><stop offset="1" stop-color="#0f054c"/></radialGradient><radialGradient id="b" cx="0.5" cy="0.497" r="0.974" gradientTransform="translate(0.211 42.2) scale(0.577 0.509)" xlink:href="#a"/><radialGradient id="c" cx="1.212" cy="1.217" fx="1.2133270502090454" fy="1.29218590259552" r="1.057" gradientTransform="matrix(-0.45, 0.836, -1.129, -0.904, -273.275, -76.98)" gradientUnits="objectBoundingBox"><stop offset="0" stop-color="#c0bff6"/><stop offset="1" stop-color="#393091"/></radialGradient><linearGradient id="d" x1="-105.567" y1="58.263" x2="-106.009" y2="58.983" gradientUnits="objectBoundingBox"><stop offset="0" stop-color="#42e8e0"/><stop offset="0.005" stop-color="#42e6df"/><stop offset="0.136" stop-color="#40b6cb"/><stop offset="0.271" stop-color="#3e8db9"/><stop offset="0.407" stop-color="#3c6baa"/><stop offset="0.547" stop-color="#3b519f"/><stop offset="0.689" stop-color="#3a3f97"/><stop offset="0.837" stop-color="#393493"/><stop offset="1" stop-color="#393091"/></linearGradient><radialGradient id="e" cx="2.884" cy="-1.095" fx="2.884216547012329" fy="-1.0951473712921143" r="2.879" gradientTransform="translate(-2.889 2.122) rotate(11.198)" xlink:href="#c"/><linearGradient id="f" x1="-25.625" y1="11.832" x2="-24.628" y2="11.832" xlink:href="#d"/><radialGradient id="g" cx="0.795" cy="0.33" fx="0.7953673601150513" fy="0.330422043800354" r="0.735" gradientTransform="translate(-1.552 -0.559) scale(1.168 1.361)" xlink:href="#c"/><linearGradient id="h" x1="8.884" y1="2.179" x2="8.884" y2="1.235" xlink:href="#d"/><radialGradient id="i" cx="0.812" cy="0.427" fx="0.8115490078926086" fy="0.42656251788139343" r="0.844" gradientTransform="translate(0)" xlink:href="#c"/><linearGradient id="j" x1="0.43" y1="0.995" x2="0.569" y2="0.006" xlink:href="#d"/><radialGradient id="k" cx="0.795" cy="0.173" fx="0.7946266531944275" fy="0.17315921187400818" r="1.041" gradientTransform="translate(-2.704 2.474) rotate(11.198)" xlink:href="#c"/><linearGradient id="l" x1="-14.534" y1="-11.812" x2="-13.856" y2="-12.544" xlink:href="#d"/><radialGradient id="m" cx="1.183" cy="0.069" fx="1.1846907138824463" fy="0.12374002486467361" r="0.777" gradientTransform="matrix(1.621, 0.118, -0.319, 1.636, -22.148, 40.933)" xlink:href="#c"/><linearGradient id="n" x1="-6.586" y1="2.349" x2="-5.506" y2="2.349" xlink:href="#d"/><radialGradient id="o" cx="0.314" cy="-0.636" r="1.062" gradientTransform="translate(-0.231 22.433) scale(1.737 1.285)" gradientUnits="objectBoundingBox"><stop offset="0" stop-color="#2b237c"/><stop offset="0.31" stop-color="#251c72"/><stop offset="1" stop-color="#0f054c"/></radialGradient><linearGradient id="p" x1="0.862" y1="0.431" x2="-1.494" y2="0.875" gradientUnits="objectBoundingBox"><stop offset="0" stop-color="#bcbeff"/><stop offset="0.151" stop-color="#a3a7f5"/><stop offset="0.387" stop-color="#8289e8"/><stop offset="0.612" stop-color="#6a73df"/><stop offset="0.822" stop-color="#5c66d9"/><stop offset="1" stop-color="#5761d7"/></linearGradient><linearGradient id="q" x1="0.393" y1="0.507" x2="-3.2" y2="0.754" xlink:href="#p"/><linearGradient id="r" x1="-0.146" y1="1.115" x2="1.726" y2="-0.667" gradientUnits="objectBoundingBox"><stop offset="0" stop-color="#42e8e0"/><stop offset="0.119" stop-color="#42e2de"/><stop offset="0.27" stop-color="#41d3d7"/><stop offset="0.439" stop-color="#40b9cc"/><stop offset="0.62" stop-color="#3e94bc"/><stop offset="0.81" stop-color="#3c66a8"/><stop offset="1" stop-color="#393091"/></linearGradient><linearGradient id="s" x1="0.099" y1="-0.378" x2="0.893" y2="0.778" gradientUnits="objectBoundingBox"><stop offset="0" stop-color="#bcbeff"/><stop offset="0.227" stop-color="#aaadf8"/><stop offset="0.68" stop-color="#7c83e5"/><stop offset="1" stop-color="#5761d7"/></linearGradient><linearGradient id="t" x1="-0.001" y1="0.5" x2="1" y2="0.5" gradientUnits="objectBoundingBox"><stop offset="0" stop-color="#e9e9fd"/><stop offset="0.36" stop-color="#d3d2f9"/><stop offset="0.706" stop-color="#c5c4f7"/><stop offset="1" stop-color="#c0bff6"/></linearGradient><linearGradient id="u" x1="0.099" y1="-0.376" x2="0.893" y2="0.78" xlink:href="#s"/><linearGradient id="v" x1="1.318" y1="0.589" x2="-0.495" y2="0.403" xlink:href="#d"/><linearGradient id="w" x1="-0.001" y1="0.501" x2="1" y2="0.501" xlink:href="#t"/><linearGradient id="x" x1="0.099" y1="-0.376" x2="0.893" y2="0.78" xlink:href="#s"/><linearGradient id="y" x1="-0.001" y1="0.501" x2="1" y2="0.501" xlink:href="#t"/><linearGradient id="z" x1="0.099" y1="-0.377" x2="0.893" y2="0.779" xlink:href="#s"/><linearGradient id="aa" x1="0.099" y1="-0.377" x2="0.893" y2="0.779" xlink:href="#d"/><linearGradient id="ab" x1="-0.001" y1="0.5" x2="1" y2="0.5" xlink:href="#t"/></defs><g transform="translate(-943.3 -134.9)"><g transform="translate(-170 257.1)"><g transform="translate(58 -225)"><g opacity="0.5"><circle cx="1.8" cy="1.8" r="1.8" transform="translate(1155 102.8)" fill="#fff"/><circle cx="1.8" cy="1.8" r="1.8" transform="translate(1170.3 102.8)" fill="#fff"/><circle cx="1.8" cy="1.8" r="1.8" transform="translate(1185.6 102.8)" fill="#fff"/><circle cx="1.8" cy="1.8" r="1.8" transform="translate(1200.9 102.8)" fill="#fff"/><circle cx="1.8" cy="1.8" r="1.8" transform="translate(1216.2 102.8)" fill="#fff"/><circle cx="1.8" cy="1.8" r="1.8" transform="translate(1231.6 102.8)" fill="#fff"/><circle cx="1.8" cy="1.8" r="1.8" transform="translate(1246.9 102.8)" fill="#fff"/><circle cx="1.8" cy="1.8" r="1.8" transform="translate(1262.2 102.8)" fill="#fff"/><circle cx="1.8" cy="1.8" r="1.8" transform="translate(1155 118.1)" fill="#fff"/><circle cx="1.8" cy="1.8" r="1.8" transform="translate(1170.3 118.1)" fill="#fff"/><circle cx="1.8" cy="1.8" r="1.8" transform="translate(1185.6 118.1)" fill="#fff"/><circle cx="1.8" cy="1.8" r="1.8" transform="translate(1200.9 118.1)" fill="#fff"/><circle cx="1.8" cy="1.8" r="1.8" transform="translate(1216.2 118.1)" fill="#fff"/><circle cx="1.8" cy="1.8" r="1.8" transform="translate(1231.6 118.1)" fill="#fff"/><circle cx="1.8" cy="1.8" r="1.8" transform="translate(1246.9 118.1)" fill="#fff"/><circle cx="1.8" cy="1.8" r="1.8" transform="translate(1262.2 118.1)" fill="#fff"/><circle cx="1.8" cy="1.8" r="1.8" transform="translate(1155 133.4)" fill="#fff"/><circle cx="1.8" cy="1.8" r="1.8" transform="translate(1170.3 133.4)" fill="#fff"/><circle cx="1.8" cy="1.8" r="1.8" transform="translate(1185.6 133.4)" fill="#fff"/><circle cx="1.8" cy="1.8" r="1.8" transform="translate(1200.9 133.4)" fill="#fff"/><circle cx="1.8" cy="1.8" r="1.8" transform="translate(1216.2 133.4)" fill="#fff"/><circle cx="1.8" cy="1.8" r="1.8" transform="translate(1231.6 133.4)" fill="#fff"/><circle cx="1.8" cy="1.8" r="1.8" transform="translate(1246.9 133.4)" fill="#fff"/><circle cx="1.8" cy="1.8" r="1.8" transform="translate(1262.2 133.4)" fill="#fff"/><circle cx="1.8" cy="1.8" r="1.8" transform="translate(1155 148.7)" fill="#fff"/><circle cx="1.8" cy="1.8" r="1.8" transform="translate(1170.3 148.7)" fill="#fff"/><circle cx="1.8" cy="1.8" r="1.8" transform="translate(1185.6 148.7)" fill="#fff"/><circle cx="1.8" cy="1.8" r="1.8" transform="translate(1200.9 148.7)" fill="#fff"/><circle cx="1.8" cy="1.8" r="1.8" transform="translate(1216.2 148.7)" fill="#fff"/><circle cx="1.8" cy="1.8" r="1.8" transform="translate(1231.6 148.7)" fill="#fff"/><circle cx="1.8" cy="1.8" r="1.8" transform="translate(1246.9 148.7)" fill="#fff"/><circle cx="1.8" cy="1.8" r="1.8" transform="translate(1262.2 148.7)" fill="#fff"/><circle cx="1.8" cy="1.8" r="1.8" transform="translate(1155 164)" fill="#fff"/><circle cx="1.8" cy="1.8" r="1.8" transform="translate(1170.3 164)" fill="#fff"/><circle cx="1.8" cy="1.8" r="1.8" transform="translate(1185.6 164)" fill="#fff"/><circle cx="1.8" cy="1.8" r="1.8" transform="translate(1200.9 164)" fill="#fff"/><circle cx="1.8" cy="1.8" r="1.8" transform="translate(1216.2 164)" fill="#fff"/><circle cx="1.8" cy="1.8" r="1.8" transform="translate(1231.6 164)" fill="#fff"/><circle cx="1.8" cy="1.8" r="1.8" transform="translate(1246.9 164)" fill="#fff"/><circle cx="1.8" cy="1.8" r="1.8" transform="translate(1262.2 164)" fill="#fff"/><circle cx="1.8" cy="1.8" r="1.8" transform="translate(1155 179.4)" fill="#fff"/><circle cx="1.8" cy="1.8" r="1.8" transform="translate(1170.3 179.4)" fill="#fff"/><circle cx="1.8" cy="1.8" r="1.8" transform="translate(1185.6 179.4)" fill="#fff"/><circle cx="1.8" cy="1.8" r="1.8" transform="translate(1200.9 179.4)" fill="#fff"/><circle cx="1.8" cy="1.8" r="1.8" transform="translate(1216.2 179.4)" fill="#fff"/><circle cx="1.8" cy="1.8" r="1.8" transform="translate(1231.6 179.4)" fill="#fff"/><circle cx="1.8" cy="1.8" r="1.8" transform="translate(1246.9 179.4)" fill="#fff"/><circle cx="1.8" cy="1.8" r="1.8" transform="translate(1262.2 179.4)" fill="#fff"/></g><g opacity="0.5"><circle cx="1.8" cy="1.8" r="1.8" transform="translate(1764.7 368.9)" fill="#fff"/><circle cx="1.8" cy="1.8" r="1.8" transform="translate(1764.7 384.2)" fill="#fff"/><circle cx="1.8" cy="1.8" r="1.8" transform="translate(1764.7 399.5)" fill="#fff"/><circle cx="1.8" cy="1.8" r="1.8" transform="translate(1764.7 414.8)" fill="#fff"/><circle cx="1.8" cy="1.8" r="1.8" transform="translate(1764.7 430.1)" fill="#fff"/><circle cx="1.8" cy="1.8" r="1.8" transform="translate(1764.7 445.4)" fill="#fff"/><circle cx="1.8" cy="1.8" r="1.8" transform="translate(1764.7 460.7)" fill="#fff"/><circle cx="1.8" cy="1.8" r="1.8" transform="translate(1764.7 476)" fill="#fff"/><circle cx="1.8" cy="1.8" r="1.8" transform="translate(1749.4 368.9)" fill="#fff"/><circle cx="1.8" cy="1.8" r="1.8" transform="translate(1749.4 384.2)" fill="#fff"/><circle cx="1.8" cy="1.8" r="1.8" transform="translate(1749.4 399.5)" fill="#fff"/><circle cx="1.8" cy="1.8" r="1.8" transform="translate(1749.4 414.8)" fill="#fff"/><circle cx="1.8" cy="1.8" r="1.8" transform="translate(1749.4 430.1)" fill="#fff"/><circle cx="1.8" cy="1.8" r="1.8" transform="translate(1749.4 445.4)" fill="#fff"/><circle cx="1.8" cy="1.8" r="1.8" transform="translate(1749.4 460.7)" fill="#fff"/><circle cx="1.8" cy="1.8" r="1.8" transform="translate(1749.4 476)" fill="#fff"/><circle cx="1.8" cy="1.8" r="1.8" transform="translate(1734.1 368.9)" fill="#fff"/><circle cx="1.8" cy="1.8" r="1.8" transform="translate(1734.1 384.2)" fill="#fff"/><circle cx="1.8" cy="1.8" r="1.8" transform="translate(1734.1 399.5)" fill="#fff"/><circle cx="1.8" cy="1.8" r="1.8" transform="translate(1734.1 414.8)" fill="#fff"/><circle cx="1.8" cy="1.8" r="1.8" transform="translate(1734.1 430.1)" fill="#fff"/><circle cx="1.8" cy="1.8" r="1.8" transform="translate(1734.1 445.4)" fill="#fff"/><circle cx="1.8" cy="1.8" r="1.8" transform="translate(1734.1 460.7)" fill="#fff"/><circle cx="1.8" cy="1.8" r="1.8" transform="translate(1734.1 476)" fill="#fff"/><circle cx="1.8" cy="1.8" r="1.8" transform="translate(1718.8 368.9)" fill="#fff"/><circle cx="1.8" cy="1.8" r="1.8" transform="translate(1718.8 384.2)" fill="#fff"/><circle cx="1.8" cy="1.8" r="1.8" transform="translate(1718.8 399.5)" fill="#fff"/><circle cx="1.8" cy="1.8" r="1.8" transform="translate(1718.8 414.8)" fill="#fff"/><circle cx="1.8" cy="1.8" r="1.8" transform="translate(1718.8 430.1)" fill="#fff"/><circle cx="1.8" cy="1.8" r="1.8" transform="translate(1718.8 445.4)" fill="#fff"/><circle cx="1.8" cy="1.8" r="1.8" transform="translate(1718.8 460.7)" fill="#fff"/><circle cx="1.8" cy="1.8" r="1.8" transform="translate(1718.8 476)" fill="#fff"/><circle cx="1.8" cy="1.8" r="1.8" transform="translate(1703.5 368.9)" fill="#fff"/><circle cx="1.8" cy="1.8" r="1.8" transform="translate(1703.5 384.2)" fill="#fff"/><circle cx="1.8" cy="1.8" r="1.8" transform="translate(1703.5 399.5)" fill="#fff"/><circle cx="1.8" cy="1.8" r="1.8" transform="translate(1703.5 414.8)" fill="#fff"/><circle cx="1.8" cy="1.8" r="1.8" transform="translate(1703.5 430.1)" fill="#fff"/><circle cx="1.8" cy="1.8" r="1.8" transform="translate(1703.5 445.4)" fill="#fff"/><circle cx="1.8" cy="1.8" r="1.8" transform="translate(1703.5 460.7)" fill="#fff"/><circle cx="1.8" cy="1.8" r="1.8" transform="translate(1703.5 476)" fill="#fff"/><circle cx="1.8" cy="1.8" r="1.8" transform="translate(1688.2 368.9)" fill="#fff"/><circle cx="1.8" cy="1.8" r="1.8" transform="translate(1688.2 384.2)" fill="#fff"/><circle cx="1.8" cy="1.8" r="1.8" transform="translate(1688.2 399.5)" fill="#fff"/><circle cx="1.8" cy="1.8" r="1.8" transform="translate(1688.2 414.8)" fill="#fff"/><circle cx="1.8" cy="1.8" r="1.8" transform="translate(1688.2 430.1)" fill="#fff"/><circle cx="1.8" cy="1.8" r="1.8" transform="translate(1688.2 445.4)" fill="#fff"/><circle cx="1.8" cy="1.8" r="1.8" transform="translate(1688.2 460.7)" fill="#fff"/><circle cx="1.8" cy="1.8" r="1.8" transform="translate(1688.2 476)" fill="#fff"/></g><g opacity="0.5"><circle cx="1.8" cy="1.8" r="1.8" transform="translate(1567.5 139.8)" fill="#fff"/><circle cx="1.8" cy="1.8" r="1.8" transform="translate(1582.8 139.8)" fill="#fff"/><circle cx="1.8" cy="1.8" r="1.8" transform="translate(1598.1 139.8)" fill="#fff"/><circle cx="1.8" cy="1.8" r="1.8" transform="translate(1567.5 155.1)" fill="#fff"/><circle cx="1.8" cy="1.8" r="1.8" transform="translate(1582.8 155.1)" fill="#fff"/><circle cx="1.8" cy="1.8" r="1.8" transform="translate(1598.1 155.1)" fill="#fff"/><circle cx="1.8" cy="1.8" r="1.8" transform="translate(1567.5 170.4)" fill="#fff"/><circle cx="1.8" cy="1.8" r="1.8" transform="translate(1582.8 170.4)" fill="#fff"/><circle cx="1.8" cy="1.8" r="1.8" transform="translate(1598.1 170.4)" fill="#fff"/></g><g opacity="0.5"><circle cx="1.8" cy="1.8" r="1.8" transform="translate(1424.6 275.7)" fill="#fff"/><circle cx="1.8" cy="1.8" r="1.8" transform="translate(1439.9 275.7)" fill="#fff"/><circle cx="1.8" cy="1.8" r="1.8" transform="translate(1455.2 275.7)" fill="#fff"/><circle cx="1.8" cy="1.8" r="1.8" transform="translate(1424.6 291)" fill="#fff"/><circle cx="1.8" cy="1.8" r="1.8" transform="translate(1439.9 291)" fill="#fff"/><circle cx="1.8" cy="1.8" r="1.8" transform="translate(1455.2 291)" fill="#fff"/><circle cx="1.8" cy="1.8" r="1.8" transform="translate(1424.6 306.3)" fill="#fff"/><circle cx="1.8" cy="1.8" r="1.8" transform="translate(1439.9 306.3)" fill="#fff"/><circle cx="1.8" cy="1.8" r="1.8" transform="translate(1455.2 306.3)" fill="#fff"/></g></g><g transform="translate(477 -3)"><g opacity="0.5"><line x1="64.5" y2="64.4" transform="translate(1650.2 82.6)" fill="none" stroke="#fff" stroke-miterlimit="10" stroke-width="2.122"/><line x1="64.5" y2="64.5" transform="translate(1646 78.4)" fill="none" stroke="#fff" stroke-miterlimit="10" stroke-width="2.122"/><line x1="64.5" y2="64.5" transform="translate(1641.8 74.2)" fill="none" stroke="#fff" stroke-miterlimit="10" stroke-width="2.122"/><line x1="64.4" y2="64.5" transform="translate(1637.7 70)" fill="none" stroke="#fff" stroke-miterlimit="10" stroke-width="2.122"/><line x1="64.4" y2="64.5" transform="translate(1633.5 65.8)" fill="none" stroke="#fff" stroke-miterlimit="10" stroke-width="2.122"/><line x1="64.5" y2="64.5" transform="translate(1629.3 61.6)" fill="none" stroke="#fff" stroke-miterlimit="10" stroke-width="2.122"/><line x1="64.5" y2="64.5" transform="translate(1625.1 57.4)" fill="none" stroke="#fff" stroke-miterlimit="10" stroke-width="2.122"/><line x1="64.5" y2="64.5" transform="translate(1620.9 53.2)" fill="none" stroke="#fff" stroke-miterlimit="10" stroke-width="2.122"/><line x1="64.5" y2="64.4" transform="translate(1616.7 49.1)" fill="none" stroke="#fff" stroke-miterlimit="10" stroke-width="2.122"/><line x1="64.5" y2="64.4" transform="translate(1612.5 44.9)" fill="none" stroke="#fff" stroke-miterlimit="10" stroke-width="2.122"/><line x1="64.5" y2="64.5" transform="translate(1608.3 40.7)" fill="none" stroke="#fff" stroke-miterlimit="10" stroke-width="2.122"/><line x1="64.5" y2="64.5" transform="translate(1604.1 36.5)" fill="none" stroke="#fff" stroke-miterlimit="10" stroke-width="2.122"/><line x1="64.4" y2="64.5" transform="translate(1600 32.3)" fill="none" stroke="#fff" stroke-miterlimit="10" stroke-width="2.122"/><line x1="64.4" y2="64.5" transform="translate(1595.8 28.1)" fill="none" stroke="#fff" stroke-miterlimit="10" stroke-width="2.122"/><line x1="64.5" y2="64.5" transform="translate(1591.6 23.9)" fill="none" stroke="#fff" stroke-miterlimit="10" stroke-width="2.122"/><line x1="64.5" y2="64.5" transform="translate(1587.4 19.7)" fill="none" stroke="#fff" stroke-miterlimit="10" stroke-width="2.122"/><line x1="64.5" y2="64.5" transform="translate(1583.2 15.5)" fill="none" stroke="#fff" stroke-miterlimit="10" stroke-width="2.122"/><line x1="64.5" y2="64.5" transform="translate(1579 11.3)" fill="none" stroke="#fff" stroke-miterlimit="10" stroke-width="2.122"/><line x1="64.5" y2="64.4" transform="translate(1574.8 7.2)" fill="none" stroke="#fff" stroke-miterlimit="10" stroke-width="2.122"/><line x1="64.5" y2="64.4" transform="translate(1570.6 3)" fill="none" stroke="#fff" stroke-miterlimit="10" stroke-width="2.122"/><line x1="64.5" y2="64.5" transform="translate(1566.4 -1.2)" fill="none" stroke="#fff" stroke-miterlimit="10" stroke-width="2.122"/></g><g opacity="0.5"><line x1="64.5" y2="64.5" transform="translate(1523.7 604.5)" fill="none" stroke="#fff" stroke-miterlimit="10" stroke-width="2.122"/><line x1="64.4" y2="64.5" transform="translate(1519.6 600.3)" fill="none" stroke="#fff" stroke-miterlimit="10" stroke-width="2.122"/><line x1="64.4" y2="64.4" transform="translate(1515.4 596.2)" fill="none" stroke="#fff" stroke-miterlimit="10" stroke-width="2.122"/><line x1="64.5" y2="64.4" transform="translate(1511.2 592)" fill="none" stroke="#fff" stroke-miterlimit="10" stroke-width="2.122"/><line x1="64.5" y2="64.5" transform="translate(1507 587.8)" fill="none" stroke="#fff" stroke-miterlimit="10" stroke-width="2.122"/><line x1="64.5" y2="64.5" transform="translate(1502.8 583.6)" fill="none" stroke="#fff" stroke-miterlimit="10" stroke-width="2.122"/><line x1="64.5" y2="64.5" transform="translate(1498.6 579.4)" fill="none" stroke="#fff" stroke-miterlimit="10" stroke-width="2.122"/><line x1="64.5" y2="64.5" transform="translate(1494.4 575.2)" fill="none" stroke="#fff" stroke-miterlimit="10" stroke-width="2.122"/><line x1="64.5" y2="64.5" transform="translate(1490.2 571)" fill="none" stroke="#fff" stroke-miterlimit="10" stroke-width="2.122"/><line x1="64.5" y2="64.5" transform="translate(1486 566.8)" fill="none" stroke="#fff" stroke-miterlimit="10" stroke-width="2.122"/><line x1="64.4" y2="64.5" transform="translate(1481.9 562.6)" fill="none" stroke="#fff" stroke-miterlimit="10" stroke-width="2.122"/><line x1="64.4" y2="64.5" transform="translate(1477.7 558.4)" fill="none" stroke="#fff" stroke-miterlimit="10" stroke-width="2.122"/><line x1="64.5" y2="64.4" transform="translate(1473.5 554.3)" fill="none" stroke="#fff" stroke-miterlimit="10" stroke-width="2.122"/><line x1="64.5" y2="64.5" transform="translate(1469.3 550.1)" fill="none" stroke="#fff" stroke-miterlimit="10" stroke-width="2.122"/><line x1="64.5" y2="64.5" transform="translate(1465.1 545.9)" fill="none" stroke="#fff" stroke-miterlimit="10" stroke-width="2.122"/><line x1="64.5" y2="64.5" transform="translate(1460.9 541.7)" fill="none" stroke="#fff" stroke-miterlimit="10" stroke-width="2.122"/><line x1="64.5" y2="64.5" transform="translate(1456.7 537.5)" fill="none" stroke="#fff" stroke-miterlimit="10" stroke-width="2.122"/><line x1="64.5" y2="64.5" transform="translate(1452.5 533.3)" fill="none" stroke="#fff" stroke-miterlimit="10" stroke-width="2.122"/><line x1="64.5" y2="64.5" transform="translate(1448.3 529.1)" fill="none" stroke="#fff" stroke-miterlimit="10" stroke-width="2.122"/><line x1="64.4" y2="64.5" transform="translate(1444.2 524.9)" fill="none" stroke="#fff" stroke-miterlimit="10" stroke-width="2.122"/><line x1="64.4" y2="64.5" transform="translate(1440 520.7)" fill="none" stroke="#fff" stroke-miterlimit="10" stroke-width="2.122"/></g></g><g transform="translate(-37 119)" opacity="0.49"><circle cx="4.1" cy="4.1" r="4.1" transform="translate(1290.6 163.8)" fill="none" stroke="#fff" stroke-linecap="round" stroke-linejoin="round" stroke-miterlimit="10" stroke-width="2"/><circle cx="4.1" cy="4.1" r="4.1" transform="translate(1565.7 440.8)" fill="none" stroke="#fff" stroke-linecap="round" stroke-linejoin="round" stroke-miterlimit="10" stroke-width="2"/><circle cx="4.1" cy="4.1" r="4.1" transform="translate(1438.1 239.3)" fill="none" stroke="#fff" stroke-linecap="round" stroke-linejoin="round" stroke-miterlimit="10" stroke-width="2"/><circle cx="4.1" cy="4.1" r="4.1" transform="translate(1151.3 372.2)" fill="none" stroke="#fff" stroke-linecap="round" stroke-linejoin="round" stroke-miterlimit="10" stroke-width="2"/><circle cx="4.1" cy="4.1" r="4.1" transform="translate(1192.6 252.6)" fill="none" stroke="#fff" stroke-linecap="round" stroke-linejoin="round" stroke-miterlimit="10" stroke-width="2"/><line y2="7.2" transform="translate(1522.4 202.8)" fill="none" stroke="#fff" stroke-linecap="round" stroke-linejoin="round" stroke-miterlimit="10" stroke-width="2"/><line x1="7.1" transform="translate(1518.9 206.4)" fill="none" stroke="#fff" stroke-linecap="round" stroke-linejoin="round" stroke-miterlimit="10" stroke-width="2"/><line y2="7.1" transform="translate(1822.5 441.4)" fill="none" stroke="#fff" stroke-linecap="round" stroke-linejoin="round" stroke-miterlimit="10" stroke-width="2"/><line x1="7.2" transform="translate(1818.9 444.9)" fill="none" stroke="#fff" stroke-linecap="round" stroke-linejoin="round" stroke-miterlimit="10" stroke-width="2"/><line y2="7.1" transform="translate(1319.2 376.8)" fill="none" stroke="#fff" stroke-linecap="round" stroke-linejoin="round" stroke-miterlimit="10" stroke-width="2"/><line x1="7.2" transform="translate(1315.6 380.3)" fill="none" stroke="#fff" stroke-linecap="round" stroke-linejoin="round" stroke-miterlimit="10" stroke-width="2"/><line y2="7.2" transform="translate(1683.8 526.6)" fill="none" stroke="#fff" stroke-linecap="round" stroke-linejoin="round" stroke-miterlimit="10" stroke-width="2"/><line x1="7.1" transform="translate(1680.3 530.2)" fill="none" stroke="#fff" stroke-linecap="round" stroke-linejoin="round" stroke-miterlimit="10" stroke-width="2"/><line y2="7.2" transform="translate(1662.3 526.6)" fill="none" stroke="#fff" stroke-linecap="round" stroke-linejoin="round" stroke-miterlimit="10" stroke-width="2"/><line x1="7.1" transform="translate(1658.7 530.2)" fill="none" stroke="#fff" stroke-linecap="round" stroke-linejoin="round" stroke-miterlimit="10" stroke-width="2"/><line y2="7.2" transform="translate(1640.7 526.6)" fill="none" stroke="#fff" stroke-linecap="round" stroke-linejoin="round" stroke-miterlimit="10" stroke-width="2"/><line x1="7.2" transform="translate(1637.1 530.2)" fill="none" stroke="#fff" stroke-linecap="round" stroke-linejoin="round" stroke-miterlimit="10" stroke-width="2"/><line y2="7.2" transform="translate(1200.8 207.6)" fill="none" stroke="#fff" stroke-linecap="round" stroke-linejoin="round" stroke-miterlimit="10" stroke-width="2"/><line x1="7.1" transform="translate(1197.3 211.2)" fill="none" stroke="#fff" stroke-linecap="round" stroke-linejoin="round" stroke-miterlimit="10" stroke-width="2"/><line y2="7.2" transform="translate(1179.3 207.6)" fill="none" stroke="#fff" stroke-linecap="round" stroke-linejoin="round" stroke-miterlimit="10" stroke-width="2"/><line x1="7.1" transform="translate(1175.7 211.2)" fill="none" stroke="#fff" stroke-linecap="round" stroke-linejoin="round" stroke-miterlimit="10" stroke-width="2"/><line y2="7.2" transform="translate(1157.7 207.6)" fill="none" stroke="#fff" stroke-linecap="round" stroke-linejoin="round" stroke-miterlimit="10" stroke-width="2"/><line x1="7.2" transform="translate(1154.1 211.2)" fill="none" stroke="#fff" stroke-linecap="round" stroke-linejoin="round" stroke-miterlimit="10" stroke-width="2"/><path d="M1404,356.1l5.5-9.6h-11.1Z" fill="none" stroke="#fff" stroke-linecap="round" stroke-linejoin="round" stroke-miterlimit="10" stroke-width="2"/><path d="M1669.4,210l-5.5,9.6H1675Z" fill="none" stroke="#fff" stroke-linecap="round" stroke-linejoin="round" stroke-miterlimit="10" stroke-width="2"/><path d="M1395.4,501.7c2.4-2.4,6.7,1.8,9.1-.6s-1.8-6.7.6-9.1,6.7,1.8,9.1-.6-1.8-6.7.6-9.1,6.7,1.8,9.1-.6-1.8-6.7.6-9.1,6.7,1.8,9.1-.6" fill="none" stroke="#fff" stroke-linecap="round" stroke-linejoin="round" stroke-miterlimit="10" stroke-width="2"/><path d="M1606.2,482c2.4-2.4,6.7,1.8,9.1-.6s-1.8-6.7.6-9.1,6.7,1.8,9.1-.6-1.8-6.7.6-9.1,6.7,1.8,9.1-.6-1.8-6.7.6-9.1,6.7,1.8,9.1-.6" fill="none" stroke="#fff" stroke-linecap="round" stroke-linejoin="round" stroke-miterlimit="10" stroke-width="2"/><path d="M1618.1,207.5c2.4-2.4,6.7,1.8,9.1-.6s-1.8-6.7.6-9.1,6.7,1.8,9.1-.6-1.8-6.7.6-9.1,6.7,1.8,9.1-.6-1.8-6.7.6-9.1,6.7,1.8,9.1-.6" fill="none" stroke="#fff" stroke-linecap="round" stroke-linejoin="round" stroke-miterlimit="10" stroke-width="2"/></g><rect width="750" height="500" transform="translate(1129.9 81.3)" fill="none"/></g><g transform="translate(1018 -1015.619)"><path d="M487.219,300.593c-28.734,16.5-75.329,16.5-103.869,0-28.734-16.5-28.734-43.489,0-59.991s75.329-16.5,103.869,0C515.953,257.1,515.953,284.091,487.219,300.593Z" transform="translate(-34.012 1445.272)" fill="url(#a)"/><path d="M383.344,249.627c28.734-16.5,75.329-16.5,103.869,0,12.425,7.183,19.415,16.114,21.162,25.433,2.33-12.231-4.854-25.045-21.162-34.558-28.734-16.5-75.329-16.5-103.869,0-16.308,9.513-23.3,22.133-21.162,34.558C363.929,265.935,370.918,256.81,383.344,249.627Z" transform="translate(-34.005 1445.178)" fill="#42e8e0"/><path d="M588.187,362.588c-61.35,35.335-160.754,35.335-221.91,0s-61.35-92.8,0-128.137,160.754-35.335,221.91,0S649.344,327.253,588.187,362.588Z" transform="translate(-73.047 1426.184)" opacity="0.5" fill="url(#b)"/><g transform="translate(237.934 1446.102)"><g transform="translate(0 61.94)"><path d="M338.586,183.962c-10.872-7.183-27.569-28.151-21.939-36.888s31.646-1.747,42.518,5.436,14.949,20,9.319,28.54C362.855,189.786,349.458,190.951,338.586,183.962Z" transform="translate(-315.518 -143.004)" fill="url(#c)"/><path d="M338.586,183.962c-10.872-7.183-27.569-28.151-21.939-36.888s31.646-1.747,42.518,5.436,14.949,20,9.319,28.54C362.855,189.786,349.458,190.951,338.586,183.962Z" transform="translate(-315.518 -143.004)" fill="url(#d)"/></g><path d="M381.127,194.849a4.387,4.387,0,0,1-2.912-.971l-38.635-26.21a5.035,5.035,0,1,1,5.63-8.348l38.635,26.21a5.01,5.01,0,0,1,1.359,6.989A4.563,4.563,0,0,1,381.127,194.849Z" transform="translate(-294.961 -66.518)" fill="#2fd3c7"/><path d="M471.082,275.789a5.045,5.045,0,0,1-4.66-3.106l-27.957-69.116a5.048,5.048,0,1,1,9.319-3.883L475.741,268.8a5.16,5.16,0,0,1-2.718,6.6A3.84,3.84,0,0,1,471.082,275.789Z" transform="translate(-200.088 -30.581)" fill="#2fd3c7"/><g transform="translate(71.022)"><g transform="translate(0 101.151)"><circle cx="27.181" cy="27.181" r="27.181" fill="url(#e)"/></g><g transform="translate(0 101.151)"><circle cx="27.181" cy="27.181" r="27.181" fill="url(#f)"/></g><g transform="translate(22.133 109.111)"><path d="M503.674,235.64c0,52.614-31.258,95.326-70.087,95.326S363.5,288.254,363.5,235.64s31.258-68.34,70.087-68.34S503.674,183.026,503.674,235.64Z" transform="translate(-363.5 -167.3)" fill="url(#g)"/></g><g transform="translate(22.133 109.111)"><path d="M503.674,235.64c0,52.614-31.258,95.326-70.087,95.326S363.5,288.254,363.5,235.64s31.258-68.34,70.087-68.34S503.674,183.026,503.674,235.64Z" transform="translate(-363.5 -167.3)" fill="url(#h)"/></g><path d="M456.642,214.707c-18.638,10.678-48.925,10.678-67.563,0s-18.638-28.151,0-39.024c18.638-10.678,48.925-10.678,67.563,0C475.28,186.556,475.28,204.029,456.642,214.707Z" transform="translate(-330.446 -57.836)" fill="#393091"/><path d="M389.1,182.967c18.638-10.678,48.925-10.678,67.563,0,7.766,4.465,12.231,10.1,13.59,15.92,1.941-8.154-2.524-16.891-13.59-23.1-18.638-10.678-48.925-10.678-67.563,0-10.872,6.407-15.532,14.949-13.59,23.1C376.867,193.063,381.333,187.432,389.1,182.967Z" transform="translate(-330.466 -57.742)" fill="#42e8e0"/><path d="M408.483,136.392c0,12.814-8.931,28.54-20.191,34.946-11.066,6.407-20.191,1.165-20.191-11.649s8.931-28.54,20.191-34.946S408.483,123.384,408.483,136.392Z" transform="translate(-337.037 -100.863)" fill="#bcbeff"/><g transform="translate(23.686)"><circle cx="71.446" cy="71.446" r="71.446" fill="url(#i)"/></g><g transform="translate(23.686)"><circle cx="71.446" cy="71.446" r="71.446" fill="url(#j)"/></g><g transform="translate(31.784 59.991)"><path d="M409.492,187.37c-1.747,13.979-12.425,18.444-23.686,9.9s-18.832-26.986-17.085-40.965,12.425-18.444,23.686-9.9S411.24,173.2,409.492,187.37Z" transform="translate(-368.471 -141.939)" fill="#393091"/><path d="M391.993,167.167c-.582,5.048-4.465,6.8-8.542,3.495-4.077-3.106-6.8-9.707-6.213-14.949.582-5.048,4.465-6.8,8.542-3.495C389.858,155.324,392.77,162.119,391.993,167.167Z" transform="translate(-360.291 -133.967)" fill="#42e8e0"/><path d="M391.243,195.2c-11.26-8.542-18.832-26.986-17.085-40.965.777-5.63,2.912-9.9,6.019-12.231-5.824.582-10.29,5.63-11.455,14.173-1.747,13.979,5.824,32.423,17.085,40.965,6.6,5.048,13.008,5.63,17.667,2.33C399.785,199.856,395.514,198.5,391.243,195.2Z" transform="translate(-368.471 -142)" fill="#453c9e"/><path d="M386.777,196.373c-11.26-8.542-18.832-26.986-17.085-40.965.777-6.407,3.495-10.872,7.378-13.008-4.271,1.747-7.378,6.407-8.348,13.4-1.747,13.979,5.824,32.423,17.085,40.965,6.019,4.66,11.843,5.436,16.308,3.106C397.844,201.615,392.407,200.644,386.777,196.373Z" transform="translate(-368.471 -141.623)" fill="#42e8e0"/></g><g transform="translate(144.834 144.057)"><circle cx="27.181" cy="27.181" r="27.181" fill="url(#k)"/></g><g transform="translate(144.834 144.057)"><circle cx="27.181" cy="27.181" r="27.181" fill="url(#l)"/></g></g><path d="M481.173,257.974c-1.553,12.814-13.008,37.276-23.3,36.111s-15.532-27.569-14.173-40.577c1.553-12.814,11.066-22.327,21.356-21.162C475.737,233.706,482.726,245.16,481.173,257.974Z" transform="translate(-195.036 2.959)" fill="url(#m)"/><path d="M481.173,257.974c-1.553,12.814-13.008,37.276-23.3,36.111s-15.532-27.569-14.173-40.577c1.553-12.814,11.066-22.327,21.356-21.162C475.737,233.706,482.726,245.16,481.173,257.974Z" transform="translate(-195.036 2.959)" fill="url(#n)"/></g><g transform="translate(126.652 1374.656)"><path d="M345.068,143.582,281,106.5v74.164l64.069,37.082,64.263-37.082V106.5Z" transform="translate(-236.734 -43.985)" fill="#42e8e0"/><path d="M345.068,217.746,281,180.664V106.5l64.069,37.082Z" transform="translate(-236.734 -43.985)" fill="#42e8e0"/><path d="M378.263,180.664,314,217.746V143.582L378.263,106.5Z" transform="translate(-205.666 -43.985)" fill="#2fd3c7"/><path d="M345.068,161.47,281,124.388,345.068,87.5l64.263,36.888Z" transform="translate(-236.734 -61.873)" fill="#42e8e0"/><path d="M316.393,140.44H316.2l-4.465-2.524c-.194-.194-.388-.388-.194-.582s.388-.388.582-.194l4.077,2.33,4.077-2.33a.434.434,0,0,1,.388.777L316.2,140.44Z" transform="translate(-208.059 -15.215)" fill="#fff"/><path d="M346.587,158.1h-.194l-8.931-5.242c-.194-.194-.388-.388-.194-.582s.388-.388.582-.194l8.931,5.242c.194.194.388.388.194.582A.677.677,0,0,1,346.587,158.1Zm-18.056-10.484h-.194l-8.931-5.242c-.194-.194-.388-.388-.194-.582s.388-.388.582-.194l8.931,5.242c.194.194.388.388.194.582C328.919,147.615,328.725,147.615,328.531,147.615Zm-17.861-10.29h-.194l-8.931-5.242c-.194-.194-.388-.388-.194-.582s.388-.388.582-.194l8.931,5.242c.194.194.388.388.194.582C310.864,137.131,310.864,137.325,310.669,137.325Zm-18.056-10.484h-.194l-8.931-5.242c-.194-.194-.388-.388-.194-.582s.388-.388.582-.194l8.931,5.242c.194.194.388.388.194.582C293,126.841,292.808,126.841,292.614,126.841Zm-18.056-10.484h-.194l-8.931-5.242c-.194-.194-.388-.388-.194-.582s.388-.388.582-.194l8.931,5.242c.194.194.388.388.194.582C274.946,116.358,274.752,116.358,274.558,116.358Z" transform="translate(-251.649 -40.446)" fill="#fff"/><path d="M263.054,110.963h-.194l-4.465-2.524c-.194,0-.194-.194-.194-.388s0-.388.194-.388l4.465-2.524a.434.434,0,0,1,.388.777l-3.689,2.136,3.689,2.136c.194.194.388.388.194.582A.678.678,0,0,1,263.054,110.963Z" transform="translate(-258.2 -45.342)" fill="#fff"/><path d="M265.627,125.9c-.194,0-.388,0-.388-.194a.372.372,0,0,1,.194-.582l8.931-5.242a.434.434,0,1,1,.388.777l-8.931,5.242Zm18.056-10.484c-.194,0-.388,0-.388-.194a.372.372,0,0,1,.194-.582l8.931-5.242a.434.434,0,0,1,.388.777l-8.931,5.242Zm17.861-10.29c-.194,0-.388,0-.388-.194a.372.372,0,0,1,.194-.582l8.931-5.242a.434.434,0,1,1,.388.777l-8.931,5.242ZM319.6,94.647c-.194,0-.388,0-.388-.194a.372.372,0,0,1,.194-.582l8.931-5.242a.434.434,0,1,1,.388.777l-8.931,5.242Zm18.056-10.29c-.194,0-.388,0-.388-.194a.372.372,0,0,1,.194-.582l8.931-5.242a.434.434,0,1,1,.388.777l-8.931,5.242Z" transform="translate(-251.649 -70.573)" fill="#fff"/><path d="M320.67,77.6h-.194l-4.077-2.33-4.077,2.33a.434.434,0,0,1-.388-.777L316.4,74.3h.582l4.465,2.524c.194.194.388.388.194.582A3.4,3.4,0,0,1,320.67,77.6Z" transform="translate(-207.87 -74.3)" fill="#fff"/><path d="M401.992,125.9H401.8l-8.931-5.242c-.194-.194-.388-.388-.194-.582s.388-.388.582-.194l8.931,5.242c.194.194.388.388.194.582C402.381,125.9,402.187,125.9,401.992,125.9Zm-17.862-10.484h-.194l-8.931-5.242c-.194-.194-.388-.388-.194-.582s.388-.388.582-.194l8.931,5.242c.194.194.388.388.194.582S384.325,115.421,384.131,115.421Zm-18.056-10.29h-.194l-8.931-5.242c-.194-.194-.388-.388-.194-.582s.388-.388.582-.194l8.931,5.242c.194.194.388.388.194.582A.678.678,0,0,1,366.075,105.131ZM348.02,94.647h-.194l-8.931-5.242c-.194-.194-.388-.388-.194-.582s.388-.388.582-.194l8.931,5.242c.194.194.388.388.194.582C348.408,94.647,348.214,94.647,348.02,94.647Zm-17.862-10.29h-.194l-8.931-5.242c-.194-.194-.388-.388-.194-.582s.388-.388.582-.194l8.931,5.242c.194.194.388.388.194.582A.678.678,0,0,0,330.158,84.358Z" transform="translate(-199.303 -70.573)" fill="#fff"/><path d="M367.527,110.963c-.194,0-.388,0-.388-.194a.372.372,0,0,1,.194-.582l3.689-2.136-3.689-2.136c-.194-.194-.388-.388-.194-.582s.388-.388.582-.194l4.465,2.524c.194,0,.194.194.194.388s0,.388-.194.388l-4.465,2.524Z" transform="translate(-155.713 -45.342)" fill="#fff"/><path d="M321.127,158.1c-.194,0-.388,0-.388-.194a.372.372,0,0,1,.194-.582l8.931-5.242a.434.434,0,1,1,.388.777l-8.931,5.242Zm18.056-10.484c-.194,0-.388,0-.388-.194a.372.372,0,0,1,.194-.582l8.931-5.242a.434.434,0,0,1,.388.777l-8.931,5.242Zm18.056-10.29c-.194,0-.388,0-.388-.194a.372.372,0,0,1,.194-.582l8.931-5.242a.434.434,0,0,1,.388.777l-8.931,5.242C357.239,137.131,357.239,137.325,357.239,137.325ZM375.1,126.841c-.194,0-.388,0-.388-.194a.372.372,0,0,1,.194-.582l8.931-5.242a.434.434,0,0,1,.388.777l-8.931,5.242Zm18.056-10.484c-.194,0-.388,0-.388-.194a.372.372,0,0,1,.194-.582l8.931-5.242a.434.434,0,0,1,.388.777l-8.931,5.242Z" transform="translate(-199.397 -40.446)" fill="#fff"/><path d="M345.068,143.582,281,106.5v3.3l64.069,37.082L409.331,109.8v-3.3Z" transform="translate(-236.734 -43.985)" fill="#fff"/></g><path d="M444.622,175.9,418.8,190.848v-29.9L444.622,146Z" transform="translate(19.652 1367.86)" fill="#251c72"/><path d="M440.739,148.33v25.433L418.8,186.577v4.271L444.622,175.9V146Z" transform="translate(19.652 1367.86)" opacity="0.8" fill="url(#o)"/><g transform="translate(440.976 1528.615)"><path d="M422.43,159.218l-2.33,1.359v-2.718l2.33-1.359Z" transform="translate(-420.1 -150.87)" fill="#42e8e0"/><path d="M425.03,157.624l-2.33,1.359v-2.524l2.33-1.359Z" transform="translate(-417.652 -152.188)" fill="#42e8e0"/><path d="M427.53,156.318l-2.33,1.359v-2.718l2.33-1.359Z" transform="translate(-415.298 -153.6)" fill="#42e8e0"/><path d="M427.53,159.918l-2.33,1.359v-2.718l2.33-1.359Z" transform="translate(-415.298 -150.211)" fill="#42e8e0"/><path d="M426.03,162.718l-2.33,1.359v-2.718L426.03,160Z" transform="translate(-416.711 -147.575)" fill="#42e8e0"/><path d="M430.13,158.418l-2.33,1.359v-2.718l2.33-1.359Z" transform="translate(-412.851 -151.623)" fill="#42e8e0"/></g><path d="M524.237,238.069h-.194l-2.136-1.359a.434.434,0,1,1,.388-.777l1.941,1.359,6.407-3.495a.434.434,0,0,1,.388.777l-6.6,3.689A.19.19,0,0,0,524.237,238.069Zm-10.678-6.989h-.194l-8.542-5.63a.434.434,0,0,1,.388-.777l8.542,5.63a.713.713,0,0,1,.194.582C513.947,231.079,513.753,231.079,513.559,231.079Zm26.21-1.553c-.194,0-.388,0-.388-.194a.372.372,0,0,1,.194-.582l8.931-4.854a.434.434,0,1,1,.388.777l-8.931,4.854Zm17.861-9.707c-.194,0-.388,0-.388-.194a.372.372,0,0,1,.194-.582l8.931-4.854a.434.434,0,1,1,.388.777l-8.931,4.854Zm17.667-9.9c-.194,0-.388,0-.388-.194a.372.372,0,0,1,.194-.582l8.931-4.854a.434.434,0,0,1,.388.777l-8.931,4.854Zm17.861-9.707c-.194,0-.388,0-.388-.194a.372.372,0,0,1,.194-.582l3.495-1.941-3.883-2.136c-.194-.194-.388-.388-.194-.582s.388-.388.582-.194l4.659,2.524c.194,0,.194.194.194.388s0,.388-.194.388l-4.271,2.33Zm-9.513-9.707h-.194l-8.931-4.854c-.194-.194-.388-.388-.194-.582s.388-.388.582-.194l8.931,4.854c.194.194.388.388.194.582C584.034,190.5,583.84,190.5,583.646,190.5Zm-17.861-9.513h-.194l-8.931-4.854c-.194-.194-.388-.388-.194-.582s.388-.388.582-.194l8.931,4.854c.194.194.388.388.194.582A.678.678,0,0,0,565.785,180.99Zm-18.056-9.513h-.194l-8.931-4.854c-.194-.194-.388-.388-.194-.582s.388-.388.582-.194l8.931,4.854c.194.194.388.388.194.582A.677.677,0,0,1,547.729,171.476Zm-17.862-9.513h-.194l-8.931-4.854c-.194-.194-.388-.388-.194-.582s.388-.388.583-.194l8.931,4.854c.194.194.388.388.194.582A.678.678,0,0,1,529.867,161.963Zm-18.056-9.707h-.194l-8.931-4.854c-.194-.194-.388-.388-.194-.582s.388-.388.582-.194l8.931,4.854c.194.194.388.388.194.582C512.2,152.256,512.006,152.256,511.812,152.256Zm-17.862-9.513h-.194l-8.931-4.854c-.194-.194-.388-.388-.194-.582s.388-.388.582-.194l8.931,4.854c.194.194.388.388.194.582C494.339,142.743,494.144,142.743,493.95,142.743Zm-17.862-9.513h-.194l-8.931-4.854c-.194-.194-.388-.388-.194-.582s.388-.388.582-.194l8.931,4.854c.194.194.388.388.194.582C476.283,133.035,476.283,133.229,476.089,133.229Zm-18.056-9.513h-.194l-8.931-4.854c-.194-.194-.388-.388-.194-.582s.388-.388.582-.194l8.931,4.854c.194.194.388.388.194.582A.678.678,0,0,1,458.033,123.716Zm-17.862-9.707h-.194l-8.931-4.854c-.194-.194-.388-.388-.194-.582s.388-.388.582-.194l8.931,4.854c.194.194.388.388.194.582C440.56,114.009,440.366,114.009,440.172,114.009ZM422.116,104.5h-.194l-8.931-4.854c-.194-.194-.388-.388-.194-.582s.388-.388.582-.194l8.931,4.854c.194.194.388.388.194.582C422.5,104.5,422.31,104.5,422.116,104.5Zm-79.989-4.271c-.194,0-.388,0-.388-.194a.372.372,0,0,1,.194-.582L350.67,94.4a.434.434,0,0,1,.388.777l-8.737,5.048Zm62.127-5.242h-.194l-8.931-4.854c-.194-.194-.388-.388-.194-.582s.388-.388.582-.194l8.931,4.854c.194.194.388.388.194.582C404.643,94.982,404.448,94.982,404.254,94.982Zm-44.46-5.048c-.194,0-.388,0-.388-.194a.372.372,0,0,1,.194-.582l8.737-5.048a.434.434,0,1,1,.388.777l-8.737,5.048Zm26.6-4.465H386.2l-8.931-4.854c-.194-.194-.388-.388-.194-.582s.388-.388.582-.194l8.931,4.854c.194.194.388.388.194.582C386.587,85.275,386.587,85.469,386.393,85.469Z" transform="translate(-52.974 1305.495)" fill="#fff"/><g transform="translate(459.226 1529.391)"><path d="M455.516,160.407l2.718-4.854L455.516,154,429.5,168.949v29.7l2.912,1.747,2.718-4.854L455.516,183.9Z" transform="translate(-429.5 -154)" fill="url(#p)"/><path d="M456.822,184.7,431,199.648v-29.9L456.822,154.8Z" transform="translate(-428.088 -153.247)" fill="url(#q)"/><path d="M456.822,184.7,431,199.648v-29.9L456.822,154.8Z" transform="translate(-428.088 -153.247)" fill="url(#r)"/></g><g transform="translate(107.762 1634.134)"><g transform="translate(0.058 80.571)" opacity="0.3"><path d="M386.344,283.443V271.6l-3.3-1.941c-.971,5.63-7.572,9.319-13.2,10.1l-38.053,22.133-16.5,6.019-53-27.375,1.165-.777c-4.465-2.136-6.989-6.989-9.319-11.455l-3.495,2.136-2.136.582v12.231h0c0,2.33,1.553,4.659,4.66,6.407l53,30.675c6.213,3.495,16.308,3.495,22.521,0l53-30.675c3.106-1.747,4.66-4.077,4.66-6.407,0,.582,0,.388,0,.194Z" transform="translate(-248.5 -231.703)" fill="url(#s)"/><path d="M336.42,279l-38.053,22.133L284,306.376v16.308a23.554,23.554,0,0,0,11.261-2.718l53-30.675c3.106-1.747,4.659-4.077,4.659-6.407V282.5h0V270.847l-3.106-1.747h-.388C348.457,274.73,341.856,278.419,336.42,279Z" transform="translate(-215.078 -230.95)" fill="#0f054c" opacity="0.3"/><g transform="translate(0)"><path d="M306.162,326.429l-53-30.675c-6.213-3.495-6.213-9.513,0-13.008l53-30.675c6.213-3.495,16.308-3.495,22.521,0l53,30.675c6.213,3.495,6.213,9.513,0,13.008l-53,30.675C322.47,329.924,312.374,329.924,306.162,326.429Z" transform="translate(-248.5 -249.45)" fill="url(#t)"/></g><g transform="translate(0)" opacity="0.3"><path d="M306.162,326.429l-53-30.675c-6.213-3.495-6.213-9.513,0-13.008l53-30.675c6.213-3.495,16.308-3.495,22.521,0l53,30.675c6.213,3.495,6.213,9.513,0,13.008l-53,30.675C322.47,329.924,312.374,329.924,306.162,326.429Z" transform="translate(-248.5 -249.45)" fill="#0f054c"/></g></g><path d="M316.669,307.047a21.5,21.5,0,0,1-10.1-2.33l-53-30.675c-2.718-1.553-4.271-3.689-4.271-6.019s1.553-4.465,4.271-6.019l53-30.675c5.436-3.106,14.561-3.106,20,0l53,30.675c2.718,1.553,4.271,3.689,4.271,6.019s-1.553,4.465-4.271,6.019l-53,30.675A20.711,20.711,0,0,1,316.669,307.047Zm-9.707-3.3c5.242,3.106,13.784,3.106,19.026,0l53-30.675c2.524-1.359,3.883-3.3,3.883-5.242s-1.359-3.883-3.883-5.242l-53-30.675c-5.242-3.106-13.784-3.106-19.026,0l-53,30.675c-2.524,1.359-3.883,3.3-3.883,5.242s1.359,3.883,3.883,5.242Z" transform="translate(-247.689 -188.132)" fill="#42e8e0"/><path d="M386.344,253.45V235.2l-3.3-1.941c-.971,5.63-7.572,9.319-13.2,10.1l-38.053,22.133-16.5,6.019-53-27.375,1.165-.777c-4.465-2.136-6.989-6.989-9.319-11.455l-3.495,2.136-2.136.582v18.444h0c0,2.33,1.553,4.66,4.66,6.407l53,30.675c6.213,3.495,16.308,3.495,22.521,0l53-30.675c3.106-1.747,4.66-4.077,4.66-6.407,0,.582,0,.582,0,.388Z" transform="translate(-248.442 -185.402)" fill="#42e8e0" opacity="0.4"/><path d="M386.344,242.138V230.1l-3.3-1.941c-.971,5.63-7.572,9.319-13.2,10.1l-38.053,22.133-16.5,6.019-53-27.375,1.165-.777c-4.465-2.136-6.989-6.989-9.319-11.455l-3.495,2.136-2.136.582v12.231h0c0,2.33,1.553,4.66,4.66,6.407l53,30.675c6.213,3.495,16.308,3.495,22.521,0l53-30.675c3.106-1.747,4.66-4.077,4.66-6.407,0,.582,0,.582,0,.388Z" transform="translate(-248.442 -190.203)" fill="url(#u)"/><path d="M336.42,237.79l-38.053,22.133L284,265.165v16.308a23.555,23.555,0,0,0,11.261-2.718l53-30.675c3.106-1.747,4.659-4.077,4.659-6.407v-.388h0V229.247l-3.106-1.747h-.388C348.457,233.324,341.856,237.013,336.42,237.79Z" transform="translate(-215.02 -189.544)" fill="#0f054c" opacity="0.3"/><path d="M336.42,237.79l-38.053,22.133L284,265.165v16.308a23.555,23.555,0,0,0,11.261-2.718l53-30.675c3.106-1.747,4.659-4.077,4.659-6.407v-.388h0V229.247l-3.106-1.747h-.388C348.457,233.324,341.856,237.013,336.42,237.79Z" transform="translate(-215.02 -189.544)" fill="url(#v)"/><g transform="translate(0.058)"><path d="M306.162,284.929l-53-30.675c-6.213-3.495-6.213-9.513,0-13.008l53-30.675c6.213-3.495,16.308-3.495,22.521,0l53,30.675c6.213,3.495,6.213,9.513,0,13.008l-53,30.675C322.47,288.618,312.374,288.618,306.162,284.929Z" transform="translate(-248.5 -207.95)" fill="url(#w)"/></g><g transform="translate(14.619 8.397)"><path d="M310.361,275.421a19.77,19.77,0,0,1-9.125-2.136l-41.353-24.074c-2.524-1.359-3.883-3.3-3.883-5.436s1.359-4.077,3.883-5.436l41.353-23.88c5.048-2.912,13.008-2.912,18.056,0l41.353,23.88c2.524,1.359,3.883,3.3,3.883,5.436s-1.359,4.077-3.883,5.436l-41.353,23.88A17.516,17.516,0,0,1,310.361,275.421Zm0-62.321a17.413,17.413,0,0,0-8.542,2.136l-41.353,23.88c-2.136,1.359-3.495,2.912-3.495,4.66s1.165,3.495,3.495,4.66l41.353,23.88c4.66,2.718,12.425,2.718,17.085,0l41.353-23.88c2.136-1.359,3.495-2.912,3.495-4.66s-1.165-3.495-3.495-4.66L318.9,215.236A17.972,17.972,0,0,0,310.361,213.1Z" transform="translate(-256 -212.275)" fill="#5351af"/></g><g transform="translate(0 40.674)"><path d="M381.713,234.724l-53,30.675c-6.213,3.495-16.308,3.495-22.521,0l-53-30.675a8.826,8.826,0,0,1-4.66-5.824c-.388,2.524,1.165,5.242,4.66,7.183l53,30.675c6.213,3.495,16.308,3.495,22.521,0l53-30.675c3.495-1.941,5.048-4.66,4.659-7.183Q385.79,232.1,381.713,234.724Z" transform="translate(-248.47 -228.9)" fill="#fff"/></g></g><g transform="translate(547.505 1534.148)"><g transform="translate(0.058 80.377)" opacity="0.3"><path d="M612.844,232.038V220l-3.3-1.941c-.971,5.63-7.572,9.319-13.2,10.1l-38.053,22.133-16.5,6.019-53-27.375,1.165-.777c-4.465-2.136-6.989-6.989-9.319-11.455l-3.495,2.136-2.136.582v12.231h0c0,2.33,1.553,4.66,4.66,6.407l53,30.675c6.213,3.495,16.308,3.495,22.521,0l53-30.675c3.106-1.747,4.66-4.077,4.66-6.407,0,.582,0,.582,0,.388Z" transform="translate(-475 -180.103)" fill="url(#x)"/><path d="M562.92,227.69l-38.053,22.133L510.5,255.064v16.308a23.554,23.554,0,0,0,11.261-2.718l53-30.675c3.106-1.747,4.66-4.077,4.66-6.407v-.388h0V219.147l-3.106-1.747h-.388C574.957,223.224,568.356,226.913,562.92,227.69Z" transform="translate(-441.578 -179.444)" fill="#0f054c" opacity="0.3"/><path d="M532.662,274.829l-53-30.675c-6.213-3.495-6.213-9.513,0-13.008l53-30.675c6.213-3.495,16.308-3.495,22.521,0l53,30.675c6.213,3.495,6.213,9.513,0,13.008l-53,30.675C548.97,278.518,538.874,278.518,532.662,274.829Z" transform="translate(-475 -197.85)" fill="url(#y)"/><g opacity="0.3"><path d="M532.662,274.829l-53-30.675c-6.213-3.495-6.213-9.513,0-13.008l53-30.675c6.213-3.495,16.308-3.495,22.521,0l53,30.675c6.213,3.495,6.213,9.513,0,13.008l-53,30.675C548.97,278.518,538.874,278.518,532.662,274.829Z" transform="translate(-475 -197.85)" fill="#0f054c"/></g></g><path d="M543.169,255.547a21.5,21.5,0,0,1-10.1-2.33l-53-30.675c-2.718-1.553-4.271-3.689-4.271-6.019s1.553-4.465,4.271-6.019l53-30.675c5.436-3.106,14.561-3.106,20,0l53,30.675c2.718,1.553,4.271,3.689,4.271,6.019s-1.553,4.465-4.271,6.019l-53,30.675A23.238,23.238,0,0,1,543.169,255.547Zm0-77.27a18.674,18.674,0,0,0-9.513,2.33l-53,30.675c-2.524,1.359-3.883,3.3-3.883,5.242s1.359,3.883,3.883,5.242l53,30.675c5.242,3.106,13.784,3.106,19.026,0l53-30.675c2.524-1.359,3.883-3.3,3.883-5.242s-1.359-3.883-3.883-5.242l-53-30.675A19.718,19.718,0,0,0,543.169,178.277Z" transform="translate(-474.189 -136.632)" fill="#42e8e0"/><path d="M612.844,201.95V183.7l-3.3-1.941c-.971,5.63-7.572,9.319-13.2,10.1l-38.053,22.133-16.5,6.019-53-27.375,1.165-.777c-4.465-2.136-6.989-6.989-9.319-11.455l-3.495,2.136-2.136.582v18.444h0c0,2.33,1.553,4.66,4.66,6.407l53,30.675c6.213,3.495,16.308,3.495,22.521,0l53-30.675c3.106-1.747,4.66-4.077,4.66-6.407,0,.582,0,.388,0,.388Z" transform="translate(-474.942 -133.902)" fill="#42e8e0" opacity="0.4"/><path d="M612.844,190.638V178.6l-3.3-1.941c-.971,5.63-7.572,9.319-13.2,10.1l-38.053,22.133-16.5,6.019-53-27.375,1.165-.777c-4.465-2.136-6.989-6.989-9.319-11.455l-3.495,2.136-2.136.582v12.231h0c0,2.33,1.553,4.66,4.66,6.407l53,30.675c6.213,3.495,16.308,3.495,22.521,0l53-30.675c3.106-1.747,4.66-4.077,4.66-6.407,0,.582,0,.388,0,.388Z" transform="translate(-474.942 -138.703)" fill="url(#z)"/><path d="M612.844,190.638V178.6l-3.3-1.941c-.971,5.63-7.572,9.319-13.2,10.1l-38.053,22.133-16.5,6.019-53-27.375,1.165-.777c-4.465-2.136-6.989-6.989-9.319-11.455l-3.495,2.136-2.136.582v12.231h0c0,2.33,1.553,4.66,4.66,6.407l53,30.675c6.213,3.495,16.308,3.495,22.521,0l53-30.675c3.106-1.747,4.66-4.077,4.66-6.407,0,.582,0,.388,0,.388Z" transform="translate(-474.942 -138.703)" fill="url(#aa)"/><path d="M562.92,186.2l-38.053,22.133L510.5,213.57v16.308a23.555,23.555,0,0,0,11.261-2.718l53-30.675c3.106-1.747,4.66-4.077,4.66-6.407v-.388h0V177.847l-3.106-1.747h-.388C574.957,181.73,568.356,185.419,562.92,186.2Z" transform="translate(-441.52 -137.95)" fill="#0f054c" opacity="0.3"/><g transform="translate(0.058)"><path d="M532.662,233.429l-53-30.675c-6.213-3.495-6.213-9.513,0-13.008l53-30.675c6.213-3.495,16.308-3.495,22.521,0l53,30.675c6.213,3.495,6.213,9.513,0,13.008l-53,30.675C548.97,237.118,538.874,237.118,532.662,233.429Z" transform="translate(-475 -156.45)" fill="url(#ab)"/></g><g transform="translate(14.619 8.397)"><path d="M536.861,223.727a19.771,19.771,0,0,1-9.125-2.136l-41.353-23.88c-2.524-1.359-3.883-3.3-3.883-5.436s1.359-4.077,3.883-5.436l41.353-23.88c5.048-2.912,13.008-2.912,18.056,0l41.353,23.88c2.524,1.359,3.883,3.3,3.883,5.436s-1.359,4.077-3.883,5.436l-41.353,23.88A16.919,16.919,0,0,1,536.861,223.727Zm-8.542-2.912c4.659,2.718,12.425,2.718,17.085,0l41.353-23.88c2.136-1.359,3.495-2.912,3.495-4.66s-1.165-3.495-3.495-4.66L545.4,163.736c-4.66-2.718-12.425-2.718-17.085,0l-41.353,23.88c-2.136,1.359-3.495,2.912-3.495,4.66s1.165,3.495,3.495,4.66Z" transform="translate(-482.5 -160.775)" fill="#5351af"/></g><g transform="translate(0 40.48)"><path d="M608.213,183.124l-53,30.675c-6.213,3.495-16.308,3.495-22.521,0l-53-30.675a8.826,8.826,0,0,1-4.66-5.824c-.388,2.524,1.165,5.242,4.66,7.183l53,30.675c6.213,3.495,16.308,3.495,22.521,0l53-30.675c3.495-1.941,5.048-4.66,4.66-7.183A8.826,8.826,0,0,1,608.213,183.124Z" transform="translate(-474.97 -177.3)" fill="#fff"/></g></g></g></g></svg>