<svg xmlns="http://www.w3.org/2000/svg" xmlns:xlink="http://www.w3.org/1999/xlink" width="1079.15" height="788.95" viewBox="0 0 1079.15 788.95">
  <defs>
    <style>
      .cls-1, .cls-9 {
        opacity: 0.5;
      }

      .cls-2, .cls-5, .cls-6 {
        fill: none;
      }

      .cls-2, .cls-5 {
        stroke: #fff;
        stroke-miterlimit: 10;
      }

      .cls-2 {
        stroke-width: 2.122px;
      }

      .cls-3 {
        fill: #fff;
      }

      .cls-4 {
        opacity: 0.49;
      }

      .cls-5 {
        stroke-linecap: round;
        stroke-linejoin: round;
        stroke-width: 2px;
      }

      .cls-7 {
        fill: url(#radial-gradient);
      }

      .cls-36, .cls-8 {
        fill: #42e8e0;
      }

      .cls-9 {
        fill: url(#radial-gradient-2);
      }

      .cls-10 {
        fill: url(#radial-gradient-3);
      }

      .cls-11 {
        fill: url(#linear-gradient);
      }

      .cls-12 {
        fill: #2fd3c7;
      }

      .cls-13 {
        fill: url(#radial-gradient-4);
      }

      .cls-14 {
        fill: url(#linear-gradient-2);
      }

      .cls-15 {
        fill: url(#radial-gradient-5);
      }

      .cls-16 {
        fill: url(#linear-gradient-3);
      }

      .cls-17 {
        fill: #393091;
      }

      .cls-18 {
        fill: #bcbeff;
      }

      .cls-19 {
        fill: url(#radial-gradient-6);
      }

      .cls-20 {
        fill: url(#linear-gradient-4);
      }

      .cls-21 {
        fill: #453c9e;
      }

      .cls-22 {
        fill: url(#radial-gradient-7);
      }

      .cls-23 {
        fill: url(#linear-gradient-5);
      }

      .cls-24 {
        fill: url(#radial-gradient-8);
      }

      .cls-25 {
        fill: url(#linear-gradient-6);
      }

      .cls-26 {
        fill: #251c72;
      }

      .cls-27 {
        opacity: 0.8;
        fill: url(#radial-gradient-9);
      }

      .cls-28 {
        fill: url(#linear-gradient-7);
      }

      .cls-29 {
        fill: url(#linear-gradient-8);
      }

      .cls-30 {
        fill: url(#linear-gradient-9);
      }

      .cls-31, .cls-33 {
        opacity: 0.3;
      }

      .cls-32 {
        fill: url(#linear-gradient-10);
      }

      .cls-33, .cls-35 {
        fill: #0f054c;
      }

      .cls-34 {
        fill: url(#linear-gradient-11);
      }

      .cls-36 {
        opacity: 0.4;
      }

      .cls-37 {
        fill: url(#linear-gradient-12);
      }

      .cls-38 {
        fill: url(#linear-gradient-13);
      }

      .cls-39 {
        fill: url(#linear-gradient-14);
      }

      .cls-40 {
        fill: #5351af;
      }

      .cls-41 {
        fill: url(#linear-gradient-15);
      }

      .cls-42 {
        fill: url(#linear-gradient-16);
      }

      .cls-43 {
        fill: url(#linear-gradient-17);
      }

      .cls-44 {
        fill: url(#linear-gradient-18);
      }

      .cls-45 {
        fill: url(#linear-gradient-19);
      }
    </style>
    <radialGradient id="radial-gradient" cx="0.502" cy="0.949" r="1.085" gradientTransform="translate(0.212) scale(0.577 1)" gradientUnits="objectBoundingBox">
      <stop offset="0" stop-color="#42e8e0"/>
      <stop offset="0.105" stop-color="#37b6bf"/>
      <stop offset="0.22" stop-color="#2c87a1"/>
      <stop offset="0.338" stop-color="#235f87"/>
      <stop offset="0.459" stop-color="#1c3f72"/>
      <stop offset="0.582" stop-color="#162561"/>
      <stop offset="0.711" stop-color="#121355"/>
      <stop offset="0.846" stop-color="#10084e"/>
      <stop offset="1" stop-color="#0f054c"/>
    </radialGradient>
    <radialGradient id="radial-gradient-2" cx="0.5" cy="0.497" r="0.974" gradientTransform="translate(0.211 42.2) scale(0.577 0.509)" xlink:href="#radial-gradient"/>
    <radialGradient id="radial-gradient-3" cx="1.212" cy="1.217" fx="1.2133270502090454" fy="1.29218590259552" r="1.057" gradientTransform="matrix(-0.45, 0.836, -1.129, -0.904, -273.275, -76.98)" gradientUnits="objectBoundingBox">
      <stop offset="0" stop-color="#c0bff6"/>
      <stop offset="1" stop-color="#393091"/>
    </radialGradient>
    <linearGradient id="linear-gradient" x1="-105.567" y1="58.263" x2="-106.009" y2="58.983" gradientUnits="objectBoundingBox">
      <stop offset="0" stop-color="#42e8e0"/>
      <stop offset="0.005" stop-color="#42e6df"/>
      <stop offset="0.136" stop-color="#40b6cb"/>
      <stop offset="0.271" stop-color="#3e8db9"/>
      <stop offset="0.407" stop-color="#3c6baa"/>
      <stop offset="0.547" stop-color="#3b519f"/>
      <stop offset="0.689" stop-color="#3a3f97"/>
      <stop offset="0.837" stop-color="#393493"/>
      <stop offset="1" stop-color="#393091"/>
    </linearGradient>
    <radialGradient id="radial-gradient-4" cx="2.884" cy="-1.095" fx="2.884216547012329" fy="-1.0951473712921143" r="2.879" gradientTransform="translate(-2.889 2.122) rotate(11.198)" xlink:href="#radial-gradient-3"/>
    <linearGradient id="linear-gradient-2" x1="-25.625" y1="11.832" x2="-24.628" y2="11.832" xlink:href="#linear-gradient"/>
    <radialGradient id="radial-gradient-5" cx="0.795" cy="0.33" fx="0.7953673601150513" fy="0.330422043800354" r="0.735" gradientTransform="translate(-1.552 -0.559) scale(1.168 1.361)" xlink:href="#radial-gradient-3"/>
    <linearGradient id="linear-gradient-3" x1="8.884" y1="2.179" x2="8.884" y2="1.235" xlink:href="#linear-gradient"/>
    <radialGradient id="radial-gradient-6" cx="0.812" cy="0.427" fx="0.8115490078926086" fy="0.42656251788139343" r="0.844" gradientTransform="translate(0)" xlink:href="#radial-gradient-3"/>
    <linearGradient id="linear-gradient-4" x1="0.43" y1="0.995" x2="0.569" y2="0.006" xlink:href="#linear-gradient"/>
    <radialGradient id="radial-gradient-7" cx="0.795" cy="0.173" fx="0.7946266531944275" fy="0.17315921187400818" r="1.041" gradientTransform="translate(-2.704 2.474) rotate(11.198)" xlink:href="#radial-gradient-3"/>
    <linearGradient id="linear-gradient-5" x1="-14.534" y1="-11.812" x2="-13.856" y2="-12.544" xlink:href="#linear-gradient"/>
    <radialGradient id="radial-gradient-8" cx="1.183" cy="0.069" fx="1.1846907138824463" fy="0.12374002486467361" r="0.777" gradientTransform="matrix(1.621, 0.118, -0.319, 1.636, -22.148, 40.933)" xlink:href="#radial-gradient-3"/>
    <linearGradient id="linear-gradient-6" x1="-6.586" y1="2.349" x2="-5.506" y2="2.349" xlink:href="#linear-gradient"/>
    <radialGradient id="radial-gradient-9" cx="0.314" cy="-0.636" r="1.062" gradientTransform="translate(-0.231 22.433) scale(1.737 1.285)" gradientUnits="objectBoundingBox">
      <stop offset="0" stop-color="#2b237c"/>
      <stop offset="0.31" stop-color="#251c72"/>
      <stop offset="1" stop-color="#0f054c"/>
    </radialGradient>
    <linearGradient id="linear-gradient-7" x1="0.862" y1="0.431" x2="-1.494" y2="0.875" gradientUnits="objectBoundingBox">
      <stop offset="0" stop-color="#bcbeff"/>
      <stop offset="0.151" stop-color="#a3a7f5"/>
      <stop offset="0.387" stop-color="#8289e8"/>
      <stop offset="0.612" stop-color="#6a73df"/>
      <stop offset="0.822" stop-color="#5c66d9"/>
      <stop offset="1" stop-color="#5761d7"/>
    </linearGradient>
    <linearGradient id="linear-gradient-8" x1="0.393" y1="0.507" x2="-3.2" y2="0.754" xlink:href="#linear-gradient-7"/>
    <linearGradient id="linear-gradient-9" x1="-0.146" y1="1.115" x2="1.726" y2="-0.667" gradientUnits="objectBoundingBox">
      <stop offset="0" stop-color="#42e8e0"/>
      <stop offset="0.119" stop-color="#42e2de"/>
      <stop offset="0.27" stop-color="#41d3d7"/>
      <stop offset="0.439" stop-color="#40b9cc"/>
      <stop offset="0.62" stop-color="#3e94bc"/>
      <stop offset="0.81" stop-color="#3c66a8"/>
      <stop offset="1" stop-color="#393091"/>
    </linearGradient>
    <linearGradient id="linear-gradient-10" x1="0.099" y1="-0.378" x2="0.893" y2="0.778" gradientUnits="objectBoundingBox">
      <stop offset="0" stop-color="#bcbeff"/>
      <stop offset="0.227" stop-color="#aaadf8"/>
      <stop offset="0.68" stop-color="#7c83e5"/>
      <stop offset="1" stop-color="#5761d7"/>
    </linearGradient>
    <linearGradient id="linear-gradient-11" x1="-0.001" y1="0.5" x2="1" y2="0.5" gradientUnits="objectBoundingBox">
      <stop offset="0" stop-color="#e9e9fd"/>
      <stop offset="0.36" stop-color="#d3d2f9"/>
      <stop offset="0.706" stop-color="#c5c4f7"/>
      <stop offset="1" stop-color="#c0bff6"/>
    </linearGradient>
    <linearGradient id="linear-gradient-12" x1="0.099" y1="-0.376" x2="0.893" y2="0.78" xlink:href="#linear-gradient-10"/>
    <linearGradient id="linear-gradient-13" x1="1.318" y1="0.589" x2="-0.495" y2="0.403" xlink:href="#linear-gradient"/>
    <linearGradient id="linear-gradient-14" x1="-0.001" y1="0.501" x2="1" y2="0.501" xlink:href="#linear-gradient-11"/>
    <linearGradient id="linear-gradient-15" x1="0.099" y1="-0.376" x2="0.893" y2="0.78" xlink:href="#linear-gradient-10"/>
    <linearGradient id="linear-gradient-16" x1="-0.001" y1="0.501" x2="1" y2="0.501" xlink:href="#linear-gradient-11"/>
    <linearGradient id="linear-gradient-17" x1="0.099" y1="-0.377" x2="0.893" y2="0.779" xlink:href="#linear-gradient-10"/>
    <linearGradient id="linear-gradient-18" x1="0.099" y1="-0.377" x2="0.893" y2="0.779" xlink:href="#linear-gradient"/>
    <linearGradient id="linear-gradient-19" x1="-0.001" y1="0.5" x2="1" y2="0.5" xlink:href="#linear-gradient-11"/>
  </defs>
  <g id="Group_1904" data-name="Group 1904" transform="translate(-3210.3 939.1)">
    <g id="Group_125" data-name="Group 125" transform="translate(2574 -819.9)">
      <g id="Group_123" data-name="Group 123" class="cls-1">
        <line id="Line_211" data-name="Line 211" class="cls-2" x1="64.5" y2="64.4" transform="translate(1650.2 82.6)"/>
        <line id="Line_212" data-name="Line 212" class="cls-2" x1="64.5" y2="64.5" transform="translate(1646 78.4)"/>
        <line id="Line_213" data-name="Line 213" class="cls-2" x1="64.5" y2="64.5" transform="translate(1641.8 74.2)"/>
        <line id="Line_214" data-name="Line 214" class="cls-2" x1="64.4" y2="64.5" transform="translate(1637.7 70)"/>
        <line id="Line_215" data-name="Line 215" class="cls-2" x1="64.4" y2="64.5" transform="translate(1633.5 65.8)"/>
        <line id="Line_216" data-name="Line 216" class="cls-2" x1="64.5" y2="64.5" transform="translate(1629.3 61.6)"/>
        <line id="Line_217" data-name="Line 217" class="cls-2" x1="64.5" y2="64.5" transform="translate(1625.1 57.4)"/>
        <line id="Line_218" data-name="Line 218" class="cls-2" x1="64.5" y2="64.5" transform="translate(1620.9 53.2)"/>
        <line id="Line_219" data-name="Line 219" class="cls-2" x1="64.5" y2="64.4" transform="translate(1616.7 49.1)"/>
        <line id="Line_220" data-name="Line 220" class="cls-2" x1="64.5" y2="64.4" transform="translate(1612.5 44.9)"/>
        <line id="Line_221" data-name="Line 221" class="cls-2" x1="64.5" y2="64.5" transform="translate(1608.3 40.7)"/>
        <line id="Line_222" data-name="Line 222" class="cls-2" x1="64.5" y2="64.5" transform="translate(1604.1 36.5)"/>
        <line id="Line_223" data-name="Line 223" class="cls-2" x1="64.4" y2="64.5" transform="translate(1600 32.3)"/>
        <line id="Line_224" data-name="Line 224" class="cls-2" x1="64.4" y2="64.5" transform="translate(1595.8 28.1)"/>
        <line id="Line_225" data-name="Line 225" class="cls-2" x1="64.5" y2="64.5" transform="translate(1591.6 23.9)"/>
        <line id="Line_226" data-name="Line 226" class="cls-2" x1="64.5" y2="64.5" transform="translate(1587.4 19.7)"/>
        <line id="Line_227" data-name="Line 227" class="cls-2" x1="64.5" y2="64.5" transform="translate(1583.2 15.5)"/>
        <line id="Line_228" data-name="Line 228" class="cls-2" x1="64.5" y2="64.5" transform="translate(1579 11.3)"/>
        <line id="Line_229" data-name="Line 229" class="cls-2" x1="64.5" y2="64.4" transform="translate(1574.8 7.2)"/>
        <line id="Line_230" data-name="Line 230" class="cls-2" x1="64.5" y2="64.4" transform="translate(1570.6 3)"/>
        <line id="Line_231" data-name="Line 231" class="cls-2" x1="64.5" y2="64.5" transform="translate(1566.4 -1.2)"/>
      </g>
      <g id="Group_124" data-name="Group 124" class="cls-1">
        <line id="Line_232" data-name="Line 232" class="cls-2" x1="64.5" y2="64.5" transform="translate(1523.7 604.5)"/>
        <line id="Line_233" data-name="Line 233" class="cls-2" x1="64.4" y2="64.5" transform="translate(1519.6 600.3)"/>
        <line id="Line_234" data-name="Line 234" class="cls-2" x1="64.4" y2="64.4" transform="translate(1515.4 596.2)"/>
        <line id="Line_235" data-name="Line 235" class="cls-2" x1="64.5" y2="64.4" transform="translate(1511.2 592)"/>
        <line id="Line_236" data-name="Line 236" class="cls-2" x1="64.5" y2="64.5" transform="translate(1507 587.8)"/>
        <line id="Line_237" data-name="Line 237" class="cls-2" x1="64.5" y2="64.5" transform="translate(1502.8 583.6)"/>
        <line id="Line_238" data-name="Line 238" class="cls-2" x1="64.5" y2="64.5" transform="translate(1498.6 579.4)"/>
        <line id="Line_239" data-name="Line 239" class="cls-2" x1="64.5" y2="64.5" transform="translate(1494.4 575.2)"/>
        <line id="Line_240" data-name="Line 240" class="cls-2" x1="64.5" y2="64.5" transform="translate(1490.2 571)"/>
        <line id="Line_241" data-name="Line 241" class="cls-2" x1="64.5" y2="64.5" transform="translate(1486 566.8)"/>
        <line id="Line_242" data-name="Line 242" class="cls-2" x1="64.4" y2="64.5" transform="translate(1481.9 562.6)"/>
        <line id="Line_243" data-name="Line 243" class="cls-2" x1="64.4" y2="64.5" transform="translate(1477.7 558.4)"/>
        <line id="Line_244" data-name="Line 244" class="cls-2" x1="64.5" y2="64.4" transform="translate(1473.5 554.3)"/>
        <line id="Line_245" data-name="Line 245" class="cls-2" x1="64.5" y2="64.5" transform="translate(1469.3 550.1)"/>
        <line id="Line_246" data-name="Line 246" class="cls-2" x1="64.5" y2="64.5" transform="translate(1465.1 545.9)"/>
        <line id="Line_247" data-name="Line 247" class="cls-2" x1="64.5" y2="64.5" transform="translate(1460.9 541.7)"/>
        <line id="Line_248" data-name="Line 248" class="cls-2" x1="64.5" y2="64.5" transform="translate(1456.7 537.5)"/>
        <line id="Line_249" data-name="Line 249" class="cls-2" x1="64.5" y2="64.5" transform="translate(1452.5 533.3)"/>
        <line id="Line_250" data-name="Line 250" class="cls-2" x1="64.5" y2="64.5" transform="translate(1448.3 529.1)"/>
        <line id="Line_251" data-name="Line 251" class="cls-2" x1="64.4" y2="64.5" transform="translate(1444.2 524.9)"/>
        <line id="Line_252" data-name="Line 252" class="cls-2" x1="64.4" y2="64.5" transform="translate(1440 520.7)"/>
      </g>
    </g>
    <g id="Group_1902" data-name="Group 1902">
      <g id="Group_122" data-name="Group 122" transform="translate(2155 -1041.9)">
        <g id="Group_118" data-name="Group 118" class="cls-1">
          <circle id="Ellipse_252" data-name="Ellipse 252" class="cls-3" cx="1.8" cy="1.8" r="1.8" transform="translate(1155 102.8)"/>
          <circle id="Ellipse_253" data-name="Ellipse 253" class="cls-3" cx="1.8" cy="1.8" r="1.8" transform="translate(1170.3 102.8)"/>
          <circle id="Ellipse_254" data-name="Ellipse 254" class="cls-3" cx="1.8" cy="1.8" r="1.8" transform="translate(1185.6 102.8)"/>
          <circle id="Ellipse_255" data-name="Ellipse 255" class="cls-3" cx="1.8" cy="1.8" r="1.8" transform="translate(1200.9 102.8)"/>
          <circle id="Ellipse_256" data-name="Ellipse 256" class="cls-3" cx="1.8" cy="1.8" r="1.8" transform="translate(1216.2 102.8)"/>
          <circle id="Ellipse_257" data-name="Ellipse 257" class="cls-3" cx="1.8" cy="1.8" r="1.8" transform="translate(1231.6 102.8)"/>
          <circle id="Ellipse_258" data-name="Ellipse 258" class="cls-3" cx="1.8" cy="1.8" r="1.8" transform="translate(1246.9 102.8)"/>
          <circle id="Ellipse_259" data-name="Ellipse 259" class="cls-3" cx="1.8" cy="1.8" r="1.8" transform="translate(1262.2 102.8)"/>
          <circle id="Ellipse_260" data-name="Ellipse 260" class="cls-3" cx="1.8" cy="1.8" r="1.8" transform="translate(1155 118.1)"/>
          <circle id="Ellipse_261" data-name="Ellipse 261" class="cls-3" cx="1.8" cy="1.8" r="1.8" transform="translate(1170.3 118.1)"/>
          <circle id="Ellipse_262" data-name="Ellipse 262" class="cls-3" cx="1.8" cy="1.8" r="1.8" transform="translate(1185.6 118.1)"/>
          <circle id="Ellipse_263" data-name="Ellipse 263" class="cls-3" cx="1.8" cy="1.8" r="1.8" transform="translate(1200.9 118.1)"/>
          <circle id="Ellipse_264" data-name="Ellipse 264" class="cls-3" cx="1.8" cy="1.8" r="1.8" transform="translate(1216.2 118.1)"/>
          <circle id="Ellipse_265" data-name="Ellipse 265" class="cls-3" cx="1.8" cy="1.8" r="1.8" transform="translate(1231.6 118.1)"/>
          <circle id="Ellipse_266" data-name="Ellipse 266" class="cls-3" cx="1.8" cy="1.8" r="1.8" transform="translate(1246.9 118.1)"/>
          <circle id="Ellipse_267" data-name="Ellipse 267" class="cls-3" cx="1.8" cy="1.8" r="1.8" transform="translate(1262.2 118.1)"/>
          <circle id="Ellipse_268" data-name="Ellipse 268" class="cls-3" cx="1.8" cy="1.8" r="1.8" transform="translate(1155 133.4)"/>
          <circle id="Ellipse_269" data-name="Ellipse 269" class="cls-3" cx="1.8" cy="1.8" r="1.8" transform="translate(1170.3 133.4)"/>
          <circle id="Ellipse_270" data-name="Ellipse 270" class="cls-3" cx="1.8" cy="1.8" r="1.8" transform="translate(1185.6 133.4)"/>
          <circle id="Ellipse_271" data-name="Ellipse 271" class="cls-3" cx="1.8" cy="1.8" r="1.8" transform="translate(1200.9 133.4)"/>
          <circle id="Ellipse_272" data-name="Ellipse 272" class="cls-3" cx="1.8" cy="1.8" r="1.8" transform="translate(1216.2 133.4)"/>
          <circle id="Ellipse_273" data-name="Ellipse 273" class="cls-3" cx="1.8" cy="1.8" r="1.8" transform="translate(1231.6 133.4)"/>
          <circle id="Ellipse_274" data-name="Ellipse 274" class="cls-3" cx="1.8" cy="1.8" r="1.8" transform="translate(1246.9 133.4)"/>
          <circle id="Ellipse_275" data-name="Ellipse 275" class="cls-3" cx="1.8" cy="1.8" r="1.8" transform="translate(1262.2 133.4)"/>
          <circle id="Ellipse_276" data-name="Ellipse 276" class="cls-3" cx="1.8" cy="1.8" r="1.8" transform="translate(1155 148.7)"/>
          <circle id="Ellipse_277" data-name="Ellipse 277" class="cls-3" cx="1.8" cy="1.8" r="1.8" transform="translate(1170.3 148.7)"/>
          <circle id="Ellipse_278" data-name="Ellipse 278" class="cls-3" cx="1.8" cy="1.8" r="1.8" transform="translate(1185.6 148.7)"/>
          <circle id="Ellipse_279" data-name="Ellipse 279" class="cls-3" cx="1.8" cy="1.8" r="1.8" transform="translate(1200.9 148.7)"/>
          <circle id="Ellipse_280" data-name="Ellipse 280" class="cls-3" cx="1.8" cy="1.8" r="1.8" transform="translate(1216.2 148.7)"/>
          <circle id="Ellipse_281" data-name="Ellipse 281" class="cls-3" cx="1.8" cy="1.8" r="1.8" transform="translate(1231.6 148.7)"/>
          <circle id="Ellipse_282" data-name="Ellipse 282" class="cls-3" cx="1.8" cy="1.8" r="1.8" transform="translate(1246.9 148.7)"/>
          <circle id="Ellipse_283" data-name="Ellipse 283" class="cls-3" cx="1.8" cy="1.8" r="1.8" transform="translate(1262.2 148.7)"/>
          <circle id="Ellipse_284" data-name="Ellipse 284" class="cls-3" cx="1.8" cy="1.8" r="1.8" transform="translate(1155 164)"/>
          <circle id="Ellipse_285" data-name="Ellipse 285" class="cls-3" cx="1.8" cy="1.8" r="1.8" transform="translate(1170.3 164)"/>
          <circle id="Ellipse_286" data-name="Ellipse 286" class="cls-3" cx="1.8" cy="1.8" r="1.8" transform="translate(1185.6 164)"/>
          <circle id="Ellipse_287" data-name="Ellipse 287" class="cls-3" cx="1.8" cy="1.8" r="1.8" transform="translate(1200.9 164)"/>
          <circle id="Ellipse_288" data-name="Ellipse 288" class="cls-3" cx="1.8" cy="1.8" r="1.8" transform="translate(1216.2 164)"/>
          <circle id="Ellipse_289" data-name="Ellipse 289" class="cls-3" cx="1.8" cy="1.8" r="1.8" transform="translate(1231.6 164)"/>
          <circle id="Ellipse_290" data-name="Ellipse 290" class="cls-3" cx="1.8" cy="1.8" r="1.8" transform="translate(1246.9 164)"/>
          <circle id="Ellipse_291" data-name="Ellipse 291" class="cls-3" cx="1.8" cy="1.8" r="1.8" transform="translate(1262.2 164)"/>
          <circle id="Ellipse_292" data-name="Ellipse 292" class="cls-3" cx="1.8" cy="1.8" r="1.8" transform="translate(1155 179.4)"/>
          <circle id="Ellipse_293" data-name="Ellipse 293" class="cls-3" cx="1.8" cy="1.8" r="1.8" transform="translate(1170.3 179.4)"/>
          <circle id="Ellipse_294" data-name="Ellipse 294" class="cls-3" cx="1.8" cy="1.8" r="1.8" transform="translate(1185.6 179.4)"/>
          <circle id="Ellipse_295" data-name="Ellipse 295" class="cls-3" cx="1.8" cy="1.8" r="1.8" transform="translate(1200.9 179.4)"/>
          <circle id="Ellipse_296" data-name="Ellipse 296" class="cls-3" cx="1.8" cy="1.8" r="1.8" transform="translate(1216.2 179.4)"/>
          <circle id="Ellipse_297" data-name="Ellipse 297" class="cls-3" cx="1.8" cy="1.8" r="1.8" transform="translate(1231.6 179.4)"/>
          <circle id="Ellipse_298" data-name="Ellipse 298" class="cls-3" cx="1.8" cy="1.8" r="1.8" transform="translate(1246.9 179.4)"/>
          <circle id="Ellipse_299" data-name="Ellipse 299" class="cls-3" cx="1.8" cy="1.8" r="1.8" transform="translate(1262.2 179.4)"/>
        </g>
        <g id="Group_119" data-name="Group 119" class="cls-1">
          <circle id="Ellipse_300" data-name="Ellipse 300" class="cls-3" cx="1.8" cy="1.8" r="1.8" transform="translate(1764.7 368.9)"/>
          <circle id="Ellipse_301" data-name="Ellipse 301" class="cls-3" cx="1.8" cy="1.8" r="1.8" transform="translate(1764.7 384.2)"/>
          <circle id="Ellipse_302" data-name="Ellipse 302" class="cls-3" cx="1.8" cy="1.8" r="1.8" transform="translate(1764.7 399.5)"/>
          <circle id="Ellipse_303" data-name="Ellipse 303" class="cls-3" cx="1.8" cy="1.8" r="1.8" transform="translate(1764.7 414.8)"/>
          <circle id="Ellipse_304" data-name="Ellipse 304" class="cls-3" cx="1.8" cy="1.8" r="1.8" transform="translate(1764.7 430.1)"/>
          <circle id="Ellipse_305" data-name="Ellipse 305" class="cls-3" cx="1.8" cy="1.8" r="1.8" transform="translate(1764.7 445.4)"/>
          <circle id="Ellipse_306" data-name="Ellipse 306" class="cls-3" cx="1.8" cy="1.8" r="1.8" transform="translate(1764.7 460.7)"/>
          <circle id="Ellipse_307" data-name="Ellipse 307" class="cls-3" cx="1.8" cy="1.8" r="1.8" transform="translate(1764.7 476)"/>
          <circle id="Ellipse_308" data-name="Ellipse 308" class="cls-3" cx="1.8" cy="1.8" r="1.8" transform="translate(1749.4 368.9)"/>
          <circle id="Ellipse_309" data-name="Ellipse 309" class="cls-3" cx="1.8" cy="1.8" r="1.8" transform="translate(1749.4 384.2)"/>
          <circle id="Ellipse_310" data-name="Ellipse 310" class="cls-3" cx="1.8" cy="1.8" r="1.8" transform="translate(1749.4 399.5)"/>
          <circle id="Ellipse_311" data-name="Ellipse 311" class="cls-3" cx="1.8" cy="1.8" r="1.8" transform="translate(1749.4 414.8)"/>
          <circle id="Ellipse_312" data-name="Ellipse 312" class="cls-3" cx="1.8" cy="1.8" r="1.8" transform="translate(1749.4 430.1)"/>
          <circle id="Ellipse_313" data-name="Ellipse 313" class="cls-3" cx="1.8" cy="1.8" r="1.8" transform="translate(1749.4 445.4)"/>
          <circle id="Ellipse_314" data-name="Ellipse 314" class="cls-3" cx="1.8" cy="1.8" r="1.8" transform="translate(1749.4 460.7)"/>
          <circle id="Ellipse_315" data-name="Ellipse 315" class="cls-3" cx="1.8" cy="1.8" r="1.8" transform="translate(1749.4 476)"/>
          <circle id="Ellipse_316" data-name="Ellipse 316" class="cls-3" cx="1.8" cy="1.8" r="1.8" transform="translate(1734.1 368.9)"/>
          <circle id="Ellipse_317" data-name="Ellipse 317" class="cls-3" cx="1.8" cy="1.8" r="1.8" transform="translate(1734.1 384.2)"/>
          <circle id="Ellipse_318" data-name="Ellipse 318" class="cls-3" cx="1.8" cy="1.8" r="1.8" transform="translate(1734.1 399.5)"/>
          <circle id="Ellipse_319" data-name="Ellipse 319" class="cls-3" cx="1.8" cy="1.8" r="1.8" transform="translate(1734.1 414.8)"/>
          <circle id="Ellipse_320" data-name="Ellipse 320" class="cls-3" cx="1.8" cy="1.8" r="1.8" transform="translate(1734.1 430.1)"/>
          <circle id="Ellipse_321" data-name="Ellipse 321" class="cls-3" cx="1.8" cy="1.8" r="1.8" transform="translate(1734.1 445.4)"/>
          <circle id="Ellipse_322" data-name="Ellipse 322" class="cls-3" cx="1.8" cy="1.8" r="1.8" transform="translate(1734.1 460.7)"/>
          <circle id="Ellipse_323" data-name="Ellipse 323" class="cls-3" cx="1.8" cy="1.8" r="1.8" transform="translate(1734.1 476)"/>
          <circle id="Ellipse_324" data-name="Ellipse 324" class="cls-3" cx="1.8" cy="1.8" r="1.8" transform="translate(1718.8 368.9)"/>
          <circle id="Ellipse_325" data-name="Ellipse 325" class="cls-3" cx="1.8" cy="1.8" r="1.8" transform="translate(1718.8 384.2)"/>
          <circle id="Ellipse_326" data-name="Ellipse 326" class="cls-3" cx="1.8" cy="1.8" r="1.8" transform="translate(1718.8 399.5)"/>
          <circle id="Ellipse_327" data-name="Ellipse 327" class="cls-3" cx="1.8" cy="1.8" r="1.8" transform="translate(1718.8 414.8)"/>
          <circle id="Ellipse_328" data-name="Ellipse 328" class="cls-3" cx="1.8" cy="1.8" r="1.8" transform="translate(1718.8 430.1)"/>
          <circle id="Ellipse_329" data-name="Ellipse 329" class="cls-3" cx="1.8" cy="1.8" r="1.8" transform="translate(1718.8 445.4)"/>
          <circle id="Ellipse_330" data-name="Ellipse 330" class="cls-3" cx="1.8" cy="1.8" r="1.8" transform="translate(1718.8 460.7)"/>
          <circle id="Ellipse_331" data-name="Ellipse 331" class="cls-3" cx="1.8" cy="1.8" r="1.8" transform="translate(1718.8 476)"/>
          <circle id="Ellipse_332" data-name="Ellipse 332" class="cls-3" cx="1.8" cy="1.8" r="1.8" transform="translate(1703.5 368.9)"/>
          <circle id="Ellipse_333" data-name="Ellipse 333" class="cls-3" cx="1.8" cy="1.8" r="1.8" transform="translate(1703.5 384.2)"/>
          <circle id="Ellipse_334" data-name="Ellipse 334" class="cls-3" cx="1.8" cy="1.8" r="1.8" transform="translate(1703.5 399.5)"/>
          <circle id="Ellipse_335" data-name="Ellipse 335" class="cls-3" cx="1.8" cy="1.8" r="1.8" transform="translate(1703.5 414.8)"/>
          <circle id="Ellipse_336" data-name="Ellipse 336" class="cls-3" cx="1.8" cy="1.8" r="1.8" transform="translate(1703.5 430.1)"/>
          <circle id="Ellipse_337" data-name="Ellipse 337" class="cls-3" cx="1.8" cy="1.8" r="1.8" transform="translate(1703.5 445.4)"/>
          <circle id="Ellipse_338" data-name="Ellipse 338" class="cls-3" cx="1.8" cy="1.8" r="1.8" transform="translate(1703.5 460.7)"/>
          <circle id="Ellipse_339" data-name="Ellipse 339" class="cls-3" cx="1.8" cy="1.8" r="1.8" transform="translate(1703.5 476)"/>
          <circle id="Ellipse_340" data-name="Ellipse 340" class="cls-3" cx="1.8" cy="1.8" r="1.8" transform="translate(1688.2 368.9)"/>
          <circle id="Ellipse_341" data-name="Ellipse 341" class="cls-3" cx="1.8" cy="1.8" r="1.8" transform="translate(1688.2 384.2)"/>
          <circle id="Ellipse_342" data-name="Ellipse 342" class="cls-3" cx="1.8" cy="1.8" r="1.8" transform="translate(1688.2 399.5)"/>
          <circle id="Ellipse_343" data-name="Ellipse 343" class="cls-3" cx="1.8" cy="1.8" r="1.8" transform="translate(1688.2 414.8)"/>
          <circle id="Ellipse_344" data-name="Ellipse 344" class="cls-3" cx="1.8" cy="1.8" r="1.8" transform="translate(1688.2 430.1)"/>
          <circle id="Ellipse_345" data-name="Ellipse 345" class="cls-3" cx="1.8" cy="1.8" r="1.8" transform="translate(1688.2 445.4)"/>
          <circle id="Ellipse_346" data-name="Ellipse 346" class="cls-3" cx="1.8" cy="1.8" r="1.8" transform="translate(1688.2 460.7)"/>
          <circle id="Ellipse_347" data-name="Ellipse 347" class="cls-3" cx="1.8" cy="1.8" r="1.8" transform="translate(1688.2 476)"/>
        </g>
        <g id="Group_120" data-name="Group 120" class="cls-1">
          <circle id="Ellipse_348" data-name="Ellipse 348" class="cls-3" cx="1.8" cy="1.8" r="1.8" transform="translate(1567.5 139.8)"/>
          <circle id="Ellipse_349" data-name="Ellipse 349" class="cls-3" cx="1.8" cy="1.8" r="1.8" transform="translate(1582.8 139.8)"/>
          <circle id="Ellipse_350" data-name="Ellipse 350" class="cls-3" cx="1.8" cy="1.8" r="1.8" transform="translate(1598.1 139.8)"/>
          <circle id="Ellipse_351" data-name="Ellipse 351" class="cls-3" cx="1.8" cy="1.8" r="1.8" transform="translate(1567.5 155.1)"/>
          <circle id="Ellipse_352" data-name="Ellipse 352" class="cls-3" cx="1.8" cy="1.8" r="1.8" transform="translate(1582.8 155.1)"/>
          <circle id="Ellipse_353" data-name="Ellipse 353" class="cls-3" cx="1.8" cy="1.8" r="1.8" transform="translate(1598.1 155.1)"/>
          <circle id="Ellipse_354" data-name="Ellipse 354" class="cls-3" cx="1.8" cy="1.8" r="1.8" transform="translate(1567.5 170.4)"/>
          <circle id="Ellipse_355" data-name="Ellipse 355" class="cls-3" cx="1.8" cy="1.8" r="1.8" transform="translate(1582.8 170.4)"/>
          <circle id="Ellipse_356" data-name="Ellipse 356" class="cls-3" cx="1.8" cy="1.8" r="1.8" transform="translate(1598.1 170.4)"/>
        </g>
        <g id="Group_121" data-name="Group 121" class="cls-1">
          <circle id="Ellipse_357" data-name="Ellipse 357" class="cls-3" cx="1.8" cy="1.8" r="1.8" transform="translate(1424.6 275.7)"/>
          <circle id="Ellipse_358" data-name="Ellipse 358" class="cls-3" cx="1.8" cy="1.8" r="1.8" transform="translate(1439.9 275.7)"/>
          <circle id="Ellipse_359" data-name="Ellipse 359" class="cls-3" cx="1.8" cy="1.8" r="1.8" transform="translate(1455.2 275.7)"/>
          <circle id="Ellipse_360" data-name="Ellipse 360" class="cls-3" cx="1.8" cy="1.8" r="1.8" transform="translate(1424.6 291)"/>
          <circle id="Ellipse_361" data-name="Ellipse 361" class="cls-3" cx="1.8" cy="1.8" r="1.8" transform="translate(1439.9 291)"/>
          <circle id="Ellipse_362" data-name="Ellipse 362" class="cls-3" cx="1.8" cy="1.8" r="1.8" transform="translate(1455.2 291)"/>
          <circle id="Ellipse_363" data-name="Ellipse 363" class="cls-3" cx="1.8" cy="1.8" r="1.8" transform="translate(1424.6 306.3)"/>
          <circle id="Ellipse_364" data-name="Ellipse 364" class="cls-3" cx="1.8" cy="1.8" r="1.8" transform="translate(1439.9 306.3)"/>
          <circle id="Ellipse_365" data-name="Ellipse 365" class="cls-3" cx="1.8" cy="1.8" r="1.8" transform="translate(1455.2 306.3)"/>
        </g>
      </g>
      <g id="Group_137" data-name="Group 137" class="cls-4" transform="translate(2060 -697.9)">
        <circle id="Ellipse_366" data-name="Ellipse 366" class="cls-5" cx="4.1" cy="4.1" r="4.1" transform="translate(1290.6 163.8)"/>
        <circle id="Ellipse_367" data-name="Ellipse 367" class="cls-5" cx="4.1" cy="4.1" r="4.1" transform="translate(1565.7 440.8)"/>
        <circle id="Ellipse_368" data-name="Ellipse 368" class="cls-5" cx="4.1" cy="4.1" r="4.1" transform="translate(1438.1 239.3)"/>
        <circle id="Ellipse_369" data-name="Ellipse 369" class="cls-5" cx="4.1" cy="4.1" r="4.1" transform="translate(1151.3 372.2)"/>
        <circle id="Ellipse_370" data-name="Ellipse 370" class="cls-5" cx="4.1" cy="4.1" r="4.1" transform="translate(1192.6 252.6)"/>
        <g id="Group_126" data-name="Group 126">
          <line id="Line_253" data-name="Line 253" class="cls-5" y2="7.2" transform="translate(1522.4 202.8)"/>
          <line id="Line_254" data-name="Line 254" class="cls-5" x1="7.1" transform="translate(1518.9 206.4)"/>
        </g>
        <g id="Group_127" data-name="Group 127">
          <line id="Line_255" data-name="Line 255" class="cls-5" y2="7.1" transform="translate(1822.5 441.4)"/>
          <line id="Line_256" data-name="Line 256" class="cls-5" x1="7.2" transform="translate(1818.9 444.9)"/>
        </g>
        <g id="Group_128" data-name="Group 128">
          <line id="Line_257" data-name="Line 257" class="cls-5" y2="7.1" transform="translate(1319.2 376.8)"/>
          <line id="Line_258" data-name="Line 258" class="cls-5" x1="7.2" transform="translate(1315.6 380.3)"/>
        </g>
        <g id="Group_132" data-name="Group 132">
          <g id="Group_129" data-name="Group 129">
            <line id="Line_259" data-name="Line 259" class="cls-5" y2="7.2" transform="translate(1683.8 526.6)"/>
            <line id="Line_260" data-name="Line 260" class="cls-5" x1="7.1" transform="translate(1680.3 530.2)"/>
          </g>
          <g id="Group_130" data-name="Group 130">
            <line id="Line_261" data-name="Line 261" class="cls-5" y2="7.2" transform="translate(1662.3 526.6)"/>
            <line id="Line_262" data-name="Line 262" class="cls-5" x1="7.1" transform="translate(1658.7 530.2)"/>
          </g>
          <g id="Group_131" data-name="Group 131">
            <line id="Line_263" data-name="Line 263" class="cls-5" y2="7.2" transform="translate(1640.7 526.6)"/>
            <line id="Line_264" data-name="Line 264" class="cls-5" x1="7.2" transform="translate(1637.1 530.2)"/>
          </g>
        </g>
        <g id="Group_136" data-name="Group 136">
          <g id="Group_133" data-name="Group 133">
            <line id="Line_265" data-name="Line 265" class="cls-5" y2="7.2" transform="translate(1200.8 207.6)"/>
            <line id="Line_266" data-name="Line 266" class="cls-5" x1="7.1" transform="translate(1197.3 211.2)"/>
          </g>
          <g id="Group_134" data-name="Group 134">
            <line id="Line_267" data-name="Line 267" class="cls-5" y2="7.2" transform="translate(1179.3 207.6)"/>
            <line id="Line_268" data-name="Line 268" class="cls-5" x1="7.1" transform="translate(1175.7 211.2)"/>
          </g>
          <g id="Group_135" data-name="Group 135">
            <line id="Line_269" data-name="Line 269" class="cls-5" y2="7.2" transform="translate(1157.7 207.6)"/>
            <line id="Line_270" data-name="Line 270" class="cls-5" x1="7.2" transform="translate(1154.1 211.2)"/>
          </g>
        </g>
        <path id="Path_26" data-name="Path 26" class="cls-5" d="M1404,356.1l5.5-9.6h-11.1Z"/>
        <path id="Path_27" data-name="Path 27" class="cls-5" d="M1669.4,210l-5.5,9.6H1675Z"/>
        <path id="Path_28" data-name="Path 28" class="cls-5" d="M1395.4,501.7c2.4-2.4,6.7,1.8,9.1-.6s-1.8-6.7.6-9.1,6.7,1.8,9.1-.6-1.8-6.7.6-9.1,6.7,1.8,9.1-.6-1.8-6.7.6-9.1,6.7,1.8,9.1-.6"/>
        <path id="Path_29" data-name="Path 29" class="cls-5" d="M1606.2,482c2.4-2.4,6.7,1.8,9.1-.6s-1.8-6.7.6-9.1,6.7,1.8,9.1-.6-1.8-6.7.6-9.1,6.7,1.8,9.1-.6-1.8-6.7.6-9.1,6.7,1.8,9.1-.6"/>
        <path id="Path_30" data-name="Path 30" class="cls-5" d="M1618.1,207.5c2.4-2.4,6.7,1.8,9.1-.6s-1.8-6.7.6-9.1,6.7,1.8,9.1-.6-1.8-6.7.6-9.1,6.7,1.8,9.1-.6-1.8-6.7.6-9.1,6.7,1.8,9.1-.6"/>
      </g>
      <rect id="Rectangle_13" data-name="Rectangle 13" class="cls-6" width="750" height="500" transform="translate(3226.9 -735.6)"/>
      <path id="Path_1941" data-name="Path 1941" class="cls-7" d="M487.219,300.593c-28.734,16.5-75.329,16.5-103.869,0-28.734-16.5-28.734-43.489,0-59.991s75.329-16.5,103.869,0C515.953,257.1,515.953,284.091,487.219,300.593Z" transform="translate(3250.988 -644.347)"/>
      <path id="Path_1942" data-name="Path 1942" class="cls-8" d="M383.344,249.627c28.734-16.5,75.329-16.5,103.869,0,12.425,7.183,19.415,16.114,21.162,25.433,2.33-12.231-4.854-25.045-21.162-34.558-28.734-16.5-75.329-16.5-103.869,0-16.308,9.513-23.3,22.133-21.162,34.558C363.929,265.935,370.918,256.81,383.344,249.627Z" transform="translate(3250.995 -644.441)"/>
      <path id="Path_1880" data-name="Path 1880" class="cls-9" d="M588.187,362.588c-61.35,35.335-160.754,35.335-221.91,0s-61.35-92.8,0-128.137,160.754-35.335,221.91,0S649.344,327.253,588.187,362.588Z" transform="translate(3211.953 -663.436)"/>
      <g id="Group_446" data-name="Group 446" transform="translate(3522.934 -643.517)">
        <g id="Group_445" data-name="Group 445">
          <g id="Group_426" data-name="Group 426" transform="translate(0 61.94)">
            <path id="Path_1943" data-name="Path 1943" class="cls-10" d="M338.586,183.962c-10.872-7.183-27.569-28.151-21.939-36.888s31.646-1.747,42.518,5.436,14.949,20,9.319,28.54C362.855,189.786,349.458,190.951,338.586,183.962Z" transform="translate(-315.518 -143.004)"/>
            <path id="Path_1944" data-name="Path 1944" class="cls-11" d="M338.586,183.962c-10.872-7.183-27.569-28.151-21.939-36.888s31.646-1.747,42.518,5.436,14.949,20,9.319,28.54C362.855,189.786,349.458,190.951,338.586,183.962Z" transform="translate(-315.518 -143.004)"/>
          </g>
          <path id="Path_1945" data-name="Path 1945" class="cls-12" d="M381.127,194.849a4.387,4.387,0,0,1-2.912-.971l-38.635-26.21a5.035,5.035,0,1,1,5.63-8.348l38.635,26.21a5.01,5.01,0,0,1,1.359,6.989A4.563,4.563,0,0,1,381.127,194.849Z" transform="translate(-294.961 -66.518)"/>
          <path id="Path_1946" data-name="Path 1946" class="cls-12" d="M471.082,275.789a5.045,5.045,0,0,1-4.66-3.106l-27.957-69.116a5.048,5.048,0,1,1,9.319-3.883L475.741,268.8a5.16,5.16,0,0,1-2.718,6.6A3.84,3.84,0,0,1,471.082,275.789Z" transform="translate(-200.088 -30.581)"/>
          <g id="Group_444" data-name="Group 444" transform="translate(71.022)">
            <g id="Group_428" data-name="Group 428" transform="translate(0 101.151)">
              <g id="Group_427" data-name="Group 427">
                <circle id="Ellipse_398" data-name="Ellipse 398" class="cls-13" cx="27.181" cy="27.181" r="27.181"/>
              </g>
            </g>
            <g id="Group_430" data-name="Group 430" transform="translate(0 101.151)">
              <g id="Group_429" data-name="Group 429">
                <circle id="Ellipse_399" data-name="Ellipse 399" class="cls-14" cx="27.181" cy="27.181" r="27.181"/>
              </g>
            </g>
            <g id="Group_432" data-name="Group 432" transform="translate(22.133 109.111)">
              <g id="Group_431" data-name="Group 431">
                <path id="Path_1947" data-name="Path 1947" class="cls-15" d="M503.674,235.64c0,52.614-31.258,95.326-70.087,95.326S363.5,288.254,363.5,235.64s31.258-68.34,70.087-68.34S503.674,183.026,503.674,235.64Z" transform="translate(-363.5 -167.3)"/>
              </g>
            </g>
            <g id="Group_434" data-name="Group 434" transform="translate(22.133 109.111)">
              <g id="Group_433" data-name="Group 433">
                <path id="Path_1948" data-name="Path 1948" class="cls-16" d="M503.674,235.64c0,52.614-31.258,95.326-70.087,95.326S363.5,288.254,363.5,235.64s31.258-68.34,70.087-68.34S503.674,183.026,503.674,235.64Z" transform="translate(-363.5 -167.3)"/>
              </g>
            </g>
            <path id="Path_1949" data-name="Path 1949" class="cls-17" d="M456.642,214.707c-18.638,10.678-48.925,10.678-67.563,0s-18.638-28.151,0-39.024c18.638-10.678,48.925-10.678,67.563,0C475.28,186.556,475.28,204.029,456.642,214.707Z" transform="translate(-330.446 -57.836)"/>
            <path id="Path_1950" data-name="Path 1950" class="cls-8" d="M389.1,182.967c18.638-10.678,48.925-10.678,67.563,0,7.766,4.465,12.231,10.1,13.59,15.92,1.941-8.154-2.524-16.891-13.59-23.1-18.638-10.678-48.925-10.678-67.563,0-10.872,6.407-15.532,14.949-13.59,23.1C376.867,193.063,381.333,187.432,389.1,182.967Z" transform="translate(-330.466 -57.742)"/>
            <path id="Path_1951" data-name="Path 1951" class="cls-18" d="M408.483,136.392c0,12.814-8.931,28.54-20.191,34.946-11.066,6.407-20.191,1.165-20.191-11.649s8.931-28.54,20.191-34.946S408.483,123.384,408.483,136.392Z" transform="translate(-337.037 -100.863)"/>
            <g id="Group_436" data-name="Group 436" transform="translate(23.686)">
              <g id="Group_435" data-name="Group 435">
                <circle id="Ellipse_400" data-name="Ellipse 400" class="cls-19" cx="71.446" cy="71.446" r="71.446"/>
              </g>
            </g>
            <g id="Group_438" data-name="Group 438" transform="translate(23.686)">
              <g id="Group_437" data-name="Group 437">
                <circle id="Ellipse_401" data-name="Ellipse 401" class="cls-20" cx="71.446" cy="71.446" r="71.446"/>
              </g>
            </g>
            <g id="Group_439" data-name="Group 439" transform="translate(31.784 59.991)">
              <path id="Path_1952" data-name="Path 1952" class="cls-17" d="M409.492,187.37c-1.747,13.979-12.425,18.444-23.686,9.9s-18.832-26.986-17.085-40.965,12.425-18.444,23.686-9.9S411.24,173.2,409.492,187.37Z" transform="translate(-368.471 -141.939)"/>
              <path id="Path_1953" data-name="Path 1953" class="cls-8" d="M391.993,167.167c-.582,5.048-4.465,6.8-8.542,3.495-4.077-3.106-6.8-9.707-6.213-14.949.582-5.048,4.465-6.8,8.542-3.495C389.858,155.324,392.77,162.119,391.993,167.167Z" transform="translate(-360.291 -133.967)"/>
              <path id="Path_1954" data-name="Path 1954" class="cls-21" d="M391.243,195.2c-11.26-8.542-18.832-26.986-17.085-40.965.777-5.63,2.912-9.9,6.019-12.231-5.824.582-10.29,5.63-11.455,14.173-1.747,13.979,5.824,32.423,17.085,40.965,6.6,5.048,13.008,5.63,17.667,2.33C399.785,199.856,395.514,198.5,391.243,195.2Z" transform="translate(-368.471 -142)"/>
              <path id="Path_1955" data-name="Path 1955" class="cls-8" d="M386.777,196.373c-11.26-8.542-18.832-26.986-17.085-40.965.777-6.407,3.495-10.872,7.378-13.008-4.271,1.747-7.378,6.407-8.348,13.4-1.747,13.979,5.824,32.423,17.085,40.965,6.019,4.66,11.843,5.436,16.308,3.106C397.844,201.615,392.407,200.644,386.777,196.373Z" transform="translate(-368.471 -141.623)"/>
            </g>
            <g id="Group_441" data-name="Group 441" transform="translate(144.834 144.057)">
              <g id="Group_440" data-name="Group 440">
                <circle id="Ellipse_402" data-name="Ellipse 402" class="cls-22" cx="27.181" cy="27.181" r="27.181"/>
              </g>
            </g>
            <g id="Group_443" data-name="Group 443" transform="translate(144.834 144.057)">
              <g id="Group_442" data-name="Group 442">
                <circle id="Ellipse_403" data-name="Ellipse 403" class="cls-23" cx="27.181" cy="27.181" r="27.181"/>
              </g>
            </g>
          </g>
          <path id="Path_1956" data-name="Path 1956" class="cls-24" d="M481.173,257.974c-1.553,12.814-13.008,37.276-23.3,36.111s-15.532-27.569-14.173-40.577c1.553-12.814,11.066-22.327,21.356-21.162C475.737,233.706,482.726,245.16,481.173,257.974Z" transform="translate(-195.036 2.959)"/>
          <path id="Path_1957" data-name="Path 1957" class="cls-25" d="M481.173,257.974c-1.553,12.814-13.008,37.276-23.3,36.111s-15.532-27.569-14.173-40.577c1.553-12.814,11.066-22.327,21.356-21.162C475.737,233.706,482.726,245.16,481.173,257.974Z" transform="translate(-195.036 2.959)"/>
        </g>
      </g>
      <g id="Group_448" data-name="Group 448" transform="translate(3411.652 -714.963)">
        <path id="Path_1958" data-name="Path 1958" class="cls-8" d="M345.068,143.582,281,106.5v74.164l64.069,37.082,64.263-37.082V106.5Z" transform="translate(-236.734 -43.985)"/>
        <path id="Path_1959" data-name="Path 1959" class="cls-8" d="M345.068,217.746,281,180.664V106.5l64.069,37.082Z" transform="translate(-236.734 -43.985)"/>
        <path id="Path_1960" data-name="Path 1960" class="cls-12" d="M378.263,180.664,314,217.746V143.582L378.263,106.5Z" transform="translate(-205.666 -43.985)"/>
        <path id="Path_1961" data-name="Path 1961" class="cls-8" d="M345.068,161.47,281,124.388,345.068,87.5l64.263,36.888Z" transform="translate(-236.734 -61.873)"/>
        <g id="Group_447" data-name="Group 447">
          <path id="Path_1962" data-name="Path 1962" class="cls-3" d="M316.393,140.44H316.2l-4.465-2.524c-.194-.194-.388-.388-.194-.582s.388-.388.582-.194l4.077,2.33,4.077-2.33a.434.434,0,0,1,.388.777L316.2,140.44Z" transform="translate(-208.059 -15.215)"/>
          <path id="Path_1963" data-name="Path 1963" class="cls-3" d="M346.587,158.1h-.194l-8.931-5.242c-.194-.194-.388-.388-.194-.582s.388-.388.582-.194l8.931,5.242c.194.194.388.388.194.582A.677.677,0,0,1,346.587,158.1Zm-18.056-10.484h-.194l-8.931-5.242c-.194-.194-.388-.388-.194-.582s.388-.388.582-.194l8.931,5.242c.194.194.388.388.194.582C328.919,147.615,328.725,147.615,328.531,147.615Zm-17.861-10.29h-.194l-8.931-5.242c-.194-.194-.388-.388-.194-.582s.388-.388.582-.194l8.931,5.242c.194.194.388.388.194.582C310.864,137.131,310.864,137.325,310.669,137.325Zm-18.056-10.484h-.194l-8.931-5.242c-.194-.194-.388-.388-.194-.582s.388-.388.582-.194l8.931,5.242c.194.194.388.388.194.582C293,126.841,292.808,126.841,292.614,126.841Zm-18.056-10.484h-.194l-8.931-5.242c-.194-.194-.388-.388-.194-.582s.388-.388.582-.194l8.931,5.242c.194.194.388.388.194.582C274.946,116.358,274.752,116.358,274.558,116.358Z" transform="translate(-251.649 -40.446)"/>
          <path id="Path_1964" data-name="Path 1964" class="cls-3" d="M263.054,110.963h-.194l-4.465-2.524c-.194,0-.194-.194-.194-.388s0-.388.194-.388l4.465-2.524a.434.434,0,0,1,.388.777l-3.689,2.136,3.689,2.136c.194.194.388.388.194.582A.678.678,0,0,1,263.054,110.963Z" transform="translate(-258.2 -45.342)"/>
          <path id="Path_1965" data-name="Path 1965" class="cls-3" d="M265.627,125.9c-.194,0-.388,0-.388-.194a.372.372,0,0,1,.194-.582l8.931-5.242a.434.434,0,1,1,.388.777l-8.931,5.242Zm18.056-10.484c-.194,0-.388,0-.388-.194a.372.372,0,0,1,.194-.582l8.931-5.242a.434.434,0,0,1,.388.777l-8.931,5.242Zm17.861-10.29c-.194,0-.388,0-.388-.194a.372.372,0,0,1,.194-.582l8.931-5.242a.434.434,0,1,1,.388.777l-8.931,5.242ZM319.6,94.647c-.194,0-.388,0-.388-.194a.372.372,0,0,1,.194-.582l8.931-5.242a.434.434,0,1,1,.388.777l-8.931,5.242Zm18.056-10.29c-.194,0-.388,0-.388-.194a.372.372,0,0,1,.194-.582l8.931-5.242a.434.434,0,1,1,.388.777l-8.931,5.242Z" transform="translate(-251.649 -70.573)"/>
          <path id="Path_1966" data-name="Path 1966" class="cls-3" d="M320.67,77.6h-.194l-4.077-2.33-4.077,2.33a.434.434,0,0,1-.388-.777L316.4,74.3h.582l4.465,2.524c.194.194.388.388.194.582A3.4,3.4,0,0,1,320.67,77.6Z" transform="translate(-207.87 -74.3)"/>
          <path id="Path_1967" data-name="Path 1967" class="cls-3" d="M401.992,125.9H401.8l-8.931-5.242c-.194-.194-.388-.388-.194-.582s.388-.388.582-.194l8.931,5.242c.194.194.388.388.194.582C402.381,125.9,402.187,125.9,401.992,125.9Zm-17.862-10.484h-.194l-8.931-5.242c-.194-.194-.388-.388-.194-.582s.388-.388.582-.194l8.931,5.242c.194.194.388.388.194.582S384.325,115.421,384.131,115.421Zm-18.056-10.29h-.194l-8.931-5.242c-.194-.194-.388-.388-.194-.582s.388-.388.582-.194l8.931,5.242c.194.194.388.388.194.582A.678.678,0,0,1,366.075,105.131ZM348.02,94.647h-.194l-8.931-5.242c-.194-.194-.388-.388-.194-.582s.388-.388.582-.194l8.931,5.242c.194.194.388.388.194.582C348.408,94.647,348.214,94.647,348.02,94.647Zm-17.862-10.29h-.194l-8.931-5.242c-.194-.194-.388-.388-.194-.582s.388-.388.582-.194l8.931,5.242c.194.194.388.388.194.582A.678.678,0,0,0,330.158,84.358Z" transform="translate(-199.303 -70.573)"/>
          <path id="Path_1968" data-name="Path 1968" class="cls-3" d="M367.527,110.963c-.194,0-.388,0-.388-.194a.372.372,0,0,1,.194-.582l3.689-2.136-3.689-2.136c-.194-.194-.388-.388-.194-.582s.388-.388.582-.194l4.465,2.524c.194,0,.194.194.194.388s0,.388-.194.388l-4.465,2.524Z" transform="translate(-155.713 -45.342)"/>
          <path id="Path_1969" data-name="Path 1969" class="cls-3" d="M321.127,158.1c-.194,0-.388,0-.388-.194a.372.372,0,0,1,.194-.582l8.931-5.242a.434.434,0,1,1,.388.777l-8.931,5.242Zm18.056-10.484c-.194,0-.388,0-.388-.194a.372.372,0,0,1,.194-.582l8.931-5.242a.434.434,0,0,1,.388.777l-8.931,5.242Zm18.056-10.29c-.194,0-.388,0-.388-.194a.372.372,0,0,1,.194-.582l8.931-5.242a.434.434,0,0,1,.388.777l-8.931,5.242C357.239,137.131,357.239,137.325,357.239,137.325ZM375.1,126.841c-.194,0-.388,0-.388-.194a.372.372,0,0,1,.194-.582l8.931-5.242a.434.434,0,0,1,.388.777l-8.931,5.242Zm18.056-10.484c-.194,0-.388,0-.388-.194a.372.372,0,0,1,.194-.582l8.931-5.242a.434.434,0,0,1,.388.777l-8.931,5.242Z" transform="translate(-199.397 -40.446)"/>
        </g>
        <path id="Path_1970" data-name="Path 1970" class="cls-3" d="M345.068,143.582,281,106.5v3.3l64.069,37.082L409.331,109.8v-3.3Z" transform="translate(-236.734 -43.985)"/>
      </g>
      <path id="Path_1972" data-name="Path 1972" class="cls-26" d="M444.622,175.9,418.8,190.848v-29.9L444.622,146Z" transform="translate(3304.652 -721.759)"/>
      <path id="Path_1973" data-name="Path 1973" class="cls-27" d="M440.739,148.33v25.433L418.8,186.577v4.271L444.622,175.9V146Z" transform="translate(3304.652 -721.759)"/>
      <g id="Group_449" data-name="Group 449" transform="translate(3725.976 -561.004)">
        <path id="Path_1974" data-name="Path 1974" class="cls-8" d="M422.43,159.218l-2.33,1.359v-2.718l2.33-1.359Z" transform="translate(-420.1 -150.87)"/>
        <path id="Path_1975" data-name="Path 1975" class="cls-8" d="M425.03,157.624l-2.33,1.359v-2.524l2.33-1.359Z" transform="translate(-417.652 -152.188)"/>
        <path id="Path_1976" data-name="Path 1976" class="cls-8" d="M427.53,156.318l-2.33,1.359v-2.718l2.33-1.359Z" transform="translate(-415.298 -153.6)"/>
        <path id="Path_1977" data-name="Path 1977" class="cls-8" d="M427.53,159.918l-2.33,1.359v-2.718l2.33-1.359Z" transform="translate(-415.298 -150.211)"/>
        <path id="Path_1978" data-name="Path 1978" class="cls-8" d="M426.03,162.718l-2.33,1.359v-2.718L426.03,160Z" transform="translate(-416.711 -147.575)"/>
        <path id="Path_1979" data-name="Path 1979" class="cls-8" d="M430.13,158.418l-2.33,1.359v-2.718l2.33-1.359Z" transform="translate(-412.851 -151.623)"/>
      </g>
      <path id="Path_1980" data-name="Path 1980" class="cls-3" d="M524.237,238.069h-.194l-2.136-1.359a.434.434,0,1,1,.388-.777l1.941,1.359,6.407-3.495a.434.434,0,0,1,.388.777l-6.6,3.689A.19.19,0,0,0,524.237,238.069Zm-10.678-6.989h-.194l-8.542-5.63a.434.434,0,0,1,.388-.777l8.542,5.63a.713.713,0,0,1,.194.582C513.947,231.079,513.753,231.079,513.559,231.079Zm26.21-1.553c-.194,0-.388,0-.388-.194a.372.372,0,0,1,.194-.582l8.931-4.854a.434.434,0,1,1,.388.777l-8.931,4.854Zm17.861-9.707c-.194,0-.388,0-.388-.194a.372.372,0,0,1,.194-.582l8.931-4.854a.434.434,0,1,1,.388.777l-8.931,4.854Zm17.667-9.9c-.194,0-.388,0-.388-.194a.372.372,0,0,1,.194-.582l8.931-4.854a.434.434,0,0,1,.388.777l-8.931,4.854Zm17.861-9.707c-.194,0-.388,0-.388-.194a.372.372,0,0,1,.194-.582l3.495-1.941-3.883-2.136c-.194-.194-.388-.388-.194-.582s.388-.388.582-.194l4.659,2.524c.194,0,.194.194.194.388s0,.388-.194.388l-4.271,2.33Zm-9.513-9.707h-.194l-8.931-4.854c-.194-.194-.388-.388-.194-.582s.388-.388.582-.194l8.931,4.854c.194.194.388.388.194.582C584.034,190.5,583.84,190.5,583.646,190.5Zm-17.861-9.513h-.194l-8.931-4.854c-.194-.194-.388-.388-.194-.582s.388-.388.582-.194l8.931,4.854c.194.194.388.388.194.582A.678.678,0,0,0,565.785,180.99Zm-18.056-9.513h-.194l-8.931-4.854c-.194-.194-.388-.388-.194-.582s.388-.388.582-.194l8.931,4.854c.194.194.388.388.194.582A.677.677,0,0,1,547.729,171.476Zm-17.862-9.513h-.194l-8.931-4.854c-.194-.194-.388-.388-.194-.582s.388-.388.583-.194l8.931,4.854c.194.194.388.388.194.582A.678.678,0,0,1,529.867,161.963Zm-18.056-9.707h-.194l-8.931-4.854c-.194-.194-.388-.388-.194-.582s.388-.388.582-.194l8.931,4.854c.194.194.388.388.194.582C512.2,152.256,512.006,152.256,511.812,152.256Zm-17.862-9.513h-.194l-8.931-4.854c-.194-.194-.388-.388-.194-.582s.388-.388.582-.194l8.931,4.854c.194.194.388.388.194.582C494.339,142.743,494.144,142.743,493.95,142.743Zm-17.862-9.513h-.194l-8.931-4.854c-.194-.194-.388-.388-.194-.582s.388-.388.582-.194l8.931,4.854c.194.194.388.388.194.582C476.283,133.035,476.283,133.229,476.089,133.229Zm-18.056-9.513h-.194l-8.931-4.854c-.194-.194-.388-.388-.194-.582s.388-.388.582-.194l8.931,4.854c.194.194.388.388.194.582A.678.678,0,0,1,458.033,123.716Zm-17.862-9.707h-.194l-8.931-4.854c-.194-.194-.388-.388-.194-.582s.388-.388.582-.194l8.931,4.854c.194.194.388.388.194.582C440.56,114.009,440.366,114.009,440.172,114.009ZM422.116,104.5h-.194l-8.931-4.854c-.194-.194-.388-.388-.194-.582s.388-.388.582-.194l8.931,4.854c.194.194.388.388.194.582C422.5,104.5,422.31,104.5,422.116,104.5Zm-79.989-4.271c-.194,0-.388,0-.388-.194a.372.372,0,0,1,.194-.582L350.67,94.4a.434.434,0,0,1,.388.777l-8.737,5.048Zm62.127-5.242h-.194l-8.931-4.854c-.194-.194-.388-.388-.194-.582s.388-.388.582-.194l8.931,4.854c.194.194.388.388.194.582C404.643,94.982,404.448,94.982,404.254,94.982Zm-44.46-5.048c-.194,0-.388,0-.388-.194a.372.372,0,0,1,.194-.582l8.737-5.048a.434.434,0,1,1,.388.777l-8.737,5.048Zm26.6-4.465H386.2l-8.931-4.854c-.194-.194-.388-.388-.194-.582s.388-.388.582-.194l8.931,4.854c.194.194.388.388.194.582C386.587,85.275,386.587,85.469,386.393,85.469Z" transform="translate(3232.026 -784.124)"/>
      <g id="Group_451" data-name="Group 451" transform="translate(3744.226 -560.228)">
        <g id="Group_450" data-name="Group 450">
          <path id="Path_1981" data-name="Path 1981" class="cls-28" d="M455.516,160.407l2.718-4.854L455.516,154,429.5,168.949v29.7l2.912,1.747,2.718-4.854L455.516,183.9Z" transform="translate(-429.5 -154)"/>
          <path id="Path_1982" data-name="Path 1982" class="cls-29" d="M456.822,184.7,431,199.648v-29.9L456.822,154.8Z" transform="translate(-428.088 -153.247)"/>
        </g>
        <path id="Path_1983" data-name="Path 1983" class="cls-30" d="M456.822,184.7,431,199.648v-29.9L456.822,154.8Z" transform="translate(-428.088 -153.247)"/>
      </g>
      <g id="Group_463" data-name="Group 463" transform="translate(3392.762 -455.485)">
        <g id="Group_454" data-name="Group 454" class="cls-31" transform="translate(0.058 80.571)">
          <path id="Path_1984" data-name="Path 1984" class="cls-32" d="M386.344,283.443V271.6l-3.3-1.941c-.971,5.63-7.572,9.319-13.2,10.1l-38.053,22.133-16.5,6.019-53-27.375,1.165-.777c-4.465-2.136-6.989-6.989-9.319-11.455l-3.495,2.136-2.136.582v12.231h0c0,2.33,1.553,4.659,4.66,6.407l53,30.675c6.213,3.495,16.308,3.495,22.521,0l53-30.675c3.106-1.747,4.66-4.077,4.66-6.407,0,.582,0,.388,0,.194Z" transform="translate(-248.5 -231.703)"/>
          <path id="Path_1985" data-name="Path 1985" class="cls-33" d="M336.42,279l-38.053,22.133L284,306.376v16.308a23.554,23.554,0,0,0,11.261-2.718l53-30.675c3.106-1.747,4.659-4.077,4.659-6.407V282.5h0V270.847l-3.106-1.747h-.388C348.457,274.73,341.856,278.419,336.42,279Z" transform="translate(-215.078 -230.95)"/>
          <g id="Group_452" data-name="Group 452" transform="translate(0)">
            <path id="Path_1986" data-name="Path 1986" class="cls-34" d="M306.162,326.429l-53-30.675c-6.213-3.495-6.213-9.513,0-13.008l53-30.675c6.213-3.495,16.308-3.495,22.521,0l53,30.675c6.213,3.495,6.213,9.513,0,13.008l-53,30.675C322.47,329.924,312.374,329.924,306.162,326.429Z" transform="translate(-248.5 -249.45)"/>
          </g>
          <g id="Group_453" data-name="Group 453" class="cls-31" transform="translate(0)">
            <path id="Path_1987" data-name="Path 1987" class="cls-35" d="M306.162,326.429l-53-30.675c-6.213-3.495-6.213-9.513,0-13.008l53-30.675c6.213-3.495,16.308-3.495,22.521,0l53,30.675c6.213,3.495,6.213,9.513,0,13.008l-53,30.675C322.47,329.924,312.374,329.924,306.162,326.429Z" transform="translate(-248.5 -249.45)"/>
          </g>
        </g>
        <g id="Group_462" data-name="Group 462">
          <g id="Group_461" data-name="Group 461">
            <path id="Path_1988" data-name="Path 1988" class="cls-8" d="M316.669,307.047a21.5,21.5,0,0,1-10.1-2.33l-53-30.675c-2.718-1.553-4.271-3.689-4.271-6.019s1.553-4.465,4.271-6.019l53-30.675c5.436-3.106,14.561-3.106,20,0l53,30.675c2.718,1.553,4.271,3.689,4.271,6.019s-1.553,4.465-4.271,6.019l-53,30.675A20.711,20.711,0,0,1,316.669,307.047Zm-9.707-3.3c5.242,3.106,13.784,3.106,19.026,0l53-30.675c2.524-1.359,3.883-3.3,3.883-5.242s-1.359-3.883-3.883-5.242l-53-30.675c-5.242-3.106-13.784-3.106-19.026,0l-53,30.675c-2.524,1.359-3.883,3.3-3.883,5.242s1.359,3.883,3.883,5.242Z" transform="translate(-247.689 -188.132)"/>
            <g id="Group_460" data-name="Group 460">
              <path id="Path_1989" data-name="Path 1989" class="cls-36" d="M386.344,253.45V235.2l-3.3-1.941c-.971,5.63-7.572,9.319-13.2,10.1l-38.053,22.133-16.5,6.019-53-27.375,1.165-.777c-4.465-2.136-6.989-6.989-9.319-11.455l-3.495,2.136-2.136.582v18.444h0c0,2.33,1.553,4.66,4.66,6.407l53,30.675c6.213,3.495,16.308,3.495,22.521,0l53-30.675c3.106-1.747,4.66-4.077,4.66-6.407,0,.582,0,.582,0,.388Z" transform="translate(-248.442 -185.402)"/>
              <g id="Group_459" data-name="Group 459">
                <g id="Group_458" data-name="Group 458">
                  <path id="Path_1990" data-name="Path 1990" class="cls-37" d="M386.344,242.138V230.1l-3.3-1.941c-.971,5.63-7.572,9.319-13.2,10.1l-38.053,22.133-16.5,6.019-53-27.375,1.165-.777c-4.465-2.136-6.989-6.989-9.319-11.455l-3.495,2.136-2.136.582v12.231h0c0,2.33,1.553,4.66,4.66,6.407l53,30.675c6.213,3.495,16.308,3.495,22.521,0l53-30.675c3.106-1.747,4.66-4.077,4.66-6.407,0,.582,0,.582,0,.388Z" transform="translate(-248.442 -190.203)"/>
                  <path id="Path_1991" data-name="Path 1991" class="cls-33" d="M336.42,237.79l-38.053,22.133L284,265.165v16.308a23.555,23.555,0,0,0,11.261-2.718l53-30.675c3.106-1.747,4.659-4.077,4.659-6.407v-.388h0V229.247l-3.106-1.747h-.388C348.457,233.324,341.856,237.013,336.42,237.79Z" transform="translate(-215.02 -189.544)"/>
                  <path id="Path_1992" data-name="Path 1992" class="cls-38" d="M336.42,237.79l-38.053,22.133L284,265.165v16.308a23.555,23.555,0,0,0,11.261-2.718l53-30.675c3.106-1.747,4.659-4.077,4.659-6.407v-.388h0V229.247l-3.106-1.747h-.388C348.457,233.324,341.856,237.013,336.42,237.79Z" transform="translate(-215.02 -189.544)"/>
                  <g id="Group_455" data-name="Group 455" transform="translate(0.058)">
                    <path id="Path_1993" data-name="Path 1993" class="cls-39" d="M306.162,284.929l-53-30.675c-6.213-3.495-6.213-9.513,0-13.008l53-30.675c6.213-3.495,16.308-3.495,22.521,0l53,30.675c6.213,3.495,6.213,9.513,0,13.008l-53,30.675C322.47,288.618,312.374,288.618,306.162,284.929Z" transform="translate(-248.5 -207.95)"/>
                  </g>
                  <g id="Group_456" data-name="Group 456" transform="translate(14.619 8.397)">
                    <path id="Path_1994" data-name="Path 1994" class="cls-40" d="M310.361,275.421a19.77,19.77,0,0,1-9.125-2.136l-41.353-24.074c-2.524-1.359-3.883-3.3-3.883-5.436s1.359-4.077,3.883-5.436l41.353-23.88c5.048-2.912,13.008-2.912,18.056,0l41.353,23.88c2.524,1.359,3.883,3.3,3.883,5.436s-1.359,4.077-3.883,5.436l-41.353,23.88A17.516,17.516,0,0,1,310.361,275.421Zm0-62.321a17.413,17.413,0,0,0-8.542,2.136l-41.353,23.88c-2.136,1.359-3.495,2.912-3.495,4.66s1.165,3.495,3.495,4.66l41.353,23.88c4.66,2.718,12.425,2.718,17.085,0l41.353-23.88c2.136-1.359,3.495-2.912,3.495-4.66s-1.165-3.495-3.495-4.66L318.9,215.236A17.972,17.972,0,0,0,310.361,213.1Z" transform="translate(-256 -212.275)"/>
                  </g>
                  <g id="Group_457" data-name="Group 457" transform="translate(0 40.674)">
                    <path id="Path_1995" data-name="Path 1995" class="cls-3" d="M381.713,234.724l-53,30.675c-6.213,3.495-16.308,3.495-22.521,0l-53-30.675a8.826,8.826,0,0,1-4.66-5.824c-.388,2.524,1.165,5.242,4.66,7.183l53,30.675c6.213,3.495,16.308,3.495,22.521,0l53-30.675c3.495-1.941,5.048-4.66,4.659-7.183Q385.79,232.1,381.713,234.724Z" transform="translate(-248.47 -228.9)"/>
                  </g>
                </g>
              </g>
            </g>
          </g>
        </g>
      </g>
      <g id="Group_475" data-name="Group 475" transform="translate(3832.505 -555.471)">
        <g id="Group_466" data-name="Group 466" class="cls-31" transform="translate(0.058 80.377)">
          <path id="Path_1996" data-name="Path 1996" class="cls-41" d="M612.844,232.038V220l-3.3-1.941c-.971,5.63-7.572,9.319-13.2,10.1l-38.053,22.133-16.5,6.019-53-27.375,1.165-.777c-4.465-2.136-6.989-6.989-9.319-11.455l-3.495,2.136-2.136.582v12.231h0c0,2.33,1.553,4.66,4.66,6.407l53,30.675c6.213,3.495,16.308,3.495,22.521,0l53-30.675c3.106-1.747,4.66-4.077,4.66-6.407,0,.582,0,.582,0,.388Z" transform="translate(-475 -180.103)"/>
          <path id="Path_1997" data-name="Path 1997" class="cls-33" d="M562.92,227.69l-38.053,22.133L510.5,255.064v16.308a23.554,23.554,0,0,0,11.261-2.718l53-30.675c3.106-1.747,4.66-4.077,4.66-6.407v-.388h0V219.147l-3.106-1.747h-.388C574.957,223.224,568.356,226.913,562.92,227.69Z" transform="translate(-441.578 -179.444)"/>
          <g id="Group_464" data-name="Group 464">
            <path id="Path_1998" data-name="Path 1998" class="cls-42" d="M532.662,274.829l-53-30.675c-6.213-3.495-6.213-9.513,0-13.008l53-30.675c6.213-3.495,16.308-3.495,22.521,0l53,30.675c6.213,3.495,6.213,9.513,0,13.008l-53,30.675C548.97,278.518,538.874,278.518,532.662,274.829Z" transform="translate(-475 -197.85)"/>
          </g>
          <g id="Group_465" data-name="Group 465" class="cls-31">
            <path id="Path_1999" data-name="Path 1999" class="cls-35" d="M532.662,274.829l-53-30.675c-6.213-3.495-6.213-9.513,0-13.008l53-30.675c6.213-3.495,16.308-3.495,22.521,0l53,30.675c6.213,3.495,6.213,9.513,0,13.008l-53,30.675C548.97,278.518,538.874,278.518,532.662,274.829Z" transform="translate(-475 -197.85)"/>
          </g>
        </g>
        <g id="Group_474" data-name="Group 474">
          <g id="Group_473" data-name="Group 473">
            <path id="Path_2000" data-name="Path 2000" class="cls-8" d="M543.169,255.547a21.5,21.5,0,0,1-10.1-2.33l-53-30.675c-2.718-1.553-4.271-3.689-4.271-6.019s1.553-4.465,4.271-6.019l53-30.675c5.436-3.106,14.561-3.106,20,0l53,30.675c2.718,1.553,4.271,3.689,4.271,6.019s-1.553,4.465-4.271,6.019l-53,30.675A23.238,23.238,0,0,1,543.169,255.547Zm0-77.27a18.674,18.674,0,0,0-9.513,2.33l-53,30.675c-2.524,1.359-3.883,3.3-3.883,5.242s1.359,3.883,3.883,5.242l53,30.675c5.242,3.106,13.784,3.106,19.026,0l53-30.675c2.524-1.359,3.883-3.3,3.883-5.242s-1.359-3.883-3.883-5.242l-53-30.675A19.718,19.718,0,0,0,543.169,178.277Z" transform="translate(-474.189 -136.632)"/>
            <g id="Group_472" data-name="Group 472">
              <path id="Path_2001" data-name="Path 2001" class="cls-36" d="M612.844,201.95V183.7l-3.3-1.941c-.971,5.63-7.572,9.319-13.2,10.1l-38.053,22.133-16.5,6.019-53-27.375,1.165-.777c-4.465-2.136-6.989-6.989-9.319-11.455l-3.495,2.136-2.136.582v18.444h0c0,2.33,1.553,4.66,4.66,6.407l53,30.675c6.213,3.495,16.308,3.495,22.521,0l53-30.675c3.106-1.747,4.66-4.077,4.66-6.407,0,.582,0,.388,0,.388Z" transform="translate(-474.942 -133.902)"/>
              <g id="Group_471" data-name="Group 471">
                <g id="Group_470" data-name="Group 470">
                  <path id="Path_2002" data-name="Path 2002" class="cls-43" d="M612.844,190.638V178.6l-3.3-1.941c-.971,5.63-7.572,9.319-13.2,10.1l-38.053,22.133-16.5,6.019-53-27.375,1.165-.777c-4.465-2.136-6.989-6.989-9.319-11.455l-3.495,2.136-2.136.582v12.231h0c0,2.33,1.553,4.66,4.66,6.407l53,30.675c6.213,3.495,16.308,3.495,22.521,0l53-30.675c3.106-1.747,4.66-4.077,4.66-6.407,0,.582,0,.388,0,.388Z" transform="translate(-474.942 -138.703)"/>
                  <path id="Path_2003" data-name="Path 2003" class="cls-44" d="M612.844,190.638V178.6l-3.3-1.941c-.971,5.63-7.572,9.319-13.2,10.1l-38.053,22.133-16.5,6.019-53-27.375,1.165-.777c-4.465-2.136-6.989-6.989-9.319-11.455l-3.495,2.136-2.136.582v12.231h0c0,2.33,1.553,4.66,4.66,6.407l53,30.675c6.213,3.495,16.308,3.495,22.521,0l53-30.675c3.106-1.747,4.66-4.077,4.66-6.407,0,.582,0,.388,0,.388Z" transform="translate(-474.942 -138.703)"/>
                  <path id="Path_2004" data-name="Path 2004" class="cls-33" d="M562.92,186.2l-38.053,22.133L510.5,213.57v16.308a23.555,23.555,0,0,0,11.261-2.718l53-30.675c3.106-1.747,4.66-4.077,4.66-6.407v-.388h0V177.847l-3.106-1.747h-.388C574.957,181.73,568.356,185.419,562.92,186.2Z" transform="translate(-441.52 -137.95)"/>
                  <g id="Group_467" data-name="Group 467" transform="translate(0.058)">
                    <path id="Path_2005" data-name="Path 2005" class="cls-45" d="M532.662,233.429l-53-30.675c-6.213-3.495-6.213-9.513,0-13.008l53-30.675c6.213-3.495,16.308-3.495,22.521,0l53,30.675c6.213,3.495,6.213,9.513,0,13.008l-53,30.675C548.97,237.118,538.874,237.118,532.662,233.429Z" transform="translate(-475 -156.45)"/>
                  </g>
                  <g id="Group_468" data-name="Group 468" transform="translate(14.619 8.397)">
                    <path id="Path_2006" data-name="Path 2006" class="cls-40" d="M536.861,223.727a19.771,19.771,0,0,1-9.125-2.136l-41.353-23.88c-2.524-1.359-3.883-3.3-3.883-5.436s1.359-4.077,3.883-5.436l41.353-23.88c5.048-2.912,13.008-2.912,18.056,0l41.353,23.88c2.524,1.359,3.883,3.3,3.883,5.436s-1.359,4.077-3.883,5.436l-41.353,23.88A16.919,16.919,0,0,1,536.861,223.727Zm-8.542-2.912c4.659,2.718,12.425,2.718,17.085,0l41.353-23.88c2.136-1.359,3.495-2.912,3.495-4.66s-1.165-3.495-3.495-4.66L545.4,163.736c-4.66-2.718-12.425-2.718-17.085,0l-41.353,23.88c-2.136,1.359-3.495,2.912-3.495,4.66s1.165,3.495,3.495,4.66Z" transform="translate(-482.5 -160.775)"/>
                  </g>
                  <g id="Group_469" data-name="Group 469" transform="translate(0 40.48)">
                    <path id="Path_2007" data-name="Path 2007" class="cls-3" d="M608.213,183.124l-53,30.675c-6.213,3.495-16.308,3.495-22.521,0l-53-30.675a8.826,8.826,0,0,1-4.66-5.824c-.388,2.524,1.165,5.242,4.66,7.183l53,30.675c6.213,3.495,16.308,3.495,22.521,0l53-30.675c3.495-1.941,5.048-4.66,4.66-7.183A8.826,8.826,0,0,1,608.213,183.124Z" transform="translate(-474.97 -177.3)"/>
                  </g>
                </g>
              </g>
            </g>
          </g>
        </g>
      </g>
    </g>
  </g>
</svg>
