<svg xmlns="http://www.w3.org/2000/svg" xmlns:xlink="http://www.w3.org/1999/xlink" width="1920" height="1079" viewBox="0 0 1920 1079"><defs><radialGradient id="a" cx="0.502" cy="0.949" r="1.085" gradientTransform="translate(0.212) scale(0.577 1)" gradientUnits="objectBoundingBox"><stop offset="0" stop-color="#42e8e0"/><stop offset="0.105" stop-color="#37b6bf"/><stop offset="0.22" stop-color="#2c87a1"/><stop offset="0.338" stop-color="#235f87"/><stop offset="0.459" stop-color="#1c3f72"/><stop offset="0.582" stop-color="#162561"/><stop offset="0.711" stop-color="#121355"/><stop offset="0.846" stop-color="#10084e"/><stop offset="1" stop-color="#0f054c"/></radialGradient><radialGradient id="b" cx="0.5" cy="0.497" r="0.974" gradientTransform="translate(0.211 42.2) scale(0.577 0.509)" xlink:href="#a"/><radialGradient id="c" cx="1.212" cy="1.217" fx="1.2133270502090454" fy="1.29218590259552" r="1.057" gradientTransform="matrix(-0.45, 0.836, -1.129, -0.904, -273.275, -76.98)" gradientUnits="objectBoundingBox"><stop offset="0" stop-color="#c0bff6"/><stop offset="1" stop-color="#393091"/></radialGradient><linearGradient id="d" x1="-105.567" y1="58.263" x2="-106.009" y2="58.983" gradientUnits="objectBoundingBox"><stop offset="0" stop-color="#42e8e0"/><stop offset="0.005" stop-color="#42e6df"/><stop offset="0.136" stop-color="#40b6cb"/><stop offset="0.271" stop-color="#3e8db9"/><stop offset="0.407" stop-color="#3c6baa"/><stop offset="0.547" stop-color="#3b519f"/><stop offset="0.689" stop-color="#3a3f97"/><stop offset="0.837" stop-color="#393493"/><stop offset="1" stop-color="#393091"/></linearGradient><radialGradient id="e" cx="2.884" cy="-1.095" fx="2.884216547012329" fy="-1.0951473712921143" r="2.879" gradientTransform="translate(-2.889 2.122) rotate(11.198)" xlink:href="#c"/><linearGradient id="f" x1="-25.625" y1="11.832" x2="-24.628" y2="11.832" xlink:href="#d"/><radialGradient id="g" cx="0.795" cy="0.33" fx="0.7953673601150513" fy="0.330422043800354" r="0.735" gradientTransform="translate(-1.552 -0.559) scale(1.168 1.361)" xlink:href="#c"/><linearGradient id="h" x1="8.884" y1="2.179" x2="8.884" y2="1.235" xlink:href="#d"/><radialGradient id="i" cx="0.812" cy="0.427" fx="0.8115490078926086" fy="0.42656251788139343" r="0.844" gradientTransform="translate(0)" xlink:href="#c"/><linearGradient id="j" x1="0.43" y1="0.995" x2="0.569" y2="0.006" xlink:href="#d"/><radialGradient id="k" cx="0.795" cy="0.173" fx="0.7946266531944275" fy="0.17315921187400818" r="1.041" gradientTransform="translate(-2.704 2.474) rotate(11.198)" xlink:href="#c"/><linearGradient id="l" x1="-14.534" y1="-11.812" x2="-13.856" y2="-12.544" xlink:href="#d"/><radialGradient id="m" cx="1.183" cy="0.069" fx="1.1846907138824463" fy="0.12374002486467361" r="0.777" gradientTransform="matrix(1.621, 0.118, -0.319, 1.636, -22.148, 40.933)" xlink:href="#c"/><linearGradient id="n" x1="-6.586" y1="2.349" x2="-5.506" y2="2.349" xlink:href="#d"/><radialGradient id="o" cx="0.314" cy="-0.636" r="1.062" gradientTransform="translate(-0.231 22.433) scale(1.737 1.285)" gradientUnits="objectBoundingBox"><stop offset="0" stop-color="#2b237c"/><stop offset="0.31" stop-color="#251c72"/><stop offset="1" stop-color="#0f054c"/></radialGradient><linearGradient id="p" x1="0.862" y1="0.431" x2="-1.494" y2="0.875" gradientUnits="objectBoundingBox"><stop offset="0" stop-color="#bcbeff"/><stop offset="0.151" stop-color="#a3a7f5"/><stop offset="0.387" stop-color="#8289e8"/><stop offset="0.612" stop-color="#6a73df"/><stop offset="0.822" stop-color="#5c66d9"/><stop offset="1" stop-color="#5761d7"/></linearGradient><linearGradient id="q" x1="0.393" y1="0.507" x2="-3.2" y2="0.754" xlink:href="#p"/><linearGradient id="r" x1="-0.146" y1="1.115" x2="1.726" y2="-0.667" gradientUnits="objectBoundingBox"><stop offset="0" stop-color="#42e8e0"/><stop offset="0.119" stop-color="#42e2de"/><stop offset="0.27" stop-color="#41d3d7"/><stop offset="0.439" stop-color="#40b9cc"/><stop offset="0.62" stop-color="#3e94bc"/><stop offset="0.81" stop-color="#3c66a8"/><stop offset="1" stop-color="#393091"/></linearGradient><linearGradient id="s" x1="0.099" y1="-0.378" x2="0.893" y2="0.778" gradientUnits="objectBoundingBox"><stop offset="0" stop-color="#bcbeff"/><stop offset="0.227" stop-color="#aaadf8"/><stop offset="0.68" stop-color="#7c83e5"/><stop offset="1" stop-color="#5761d7"/></linearGradient><linearGradient id="t" x1="-0.001" y1="0.5" x2="1" y2="0.5" gradientUnits="objectBoundingBox"><stop offset="0" stop-color="#e9e9fd"/><stop offset="0.36" stop-color="#d3d2f9"/><stop offset="0.706" stop-color="#c5c4f7"/><stop offset="1" stop-color="#c0bff6"/></linearGradient><linearGradient id="u" x1="0.099" y1="-0.376" x2="0.893" y2="0.78" xlink:href="#s"/><linearGradient id="v" x1="1.318" y1="0.589" x2="-0.495" y2="0.403" xlink:href="#d"/><linearGradient id="w" x1="-0.001" y1="0.501" x2="1" y2="0.501" xlink:href="#t"/><linearGradient id="x" x1="0.099" y1="-0.376" x2="0.893" y2="0.78" xlink:href="#s"/><linearGradient id="y" x1="-0.001" y1="0.501" x2="1" y2="0.501" xlink:href="#t"/><linearGradient id="z" x1="0.099" y1="-0.377" x2="0.893" y2="0.779" xlink:href="#s"/><linearGradient id="aa" x1="0.099" y1="-0.377" x2="0.893" y2="0.779" xlink:href="#d"/><linearGradient id="ab" x1="-0.001" y1="0.5" x2="1" y2="0.5" xlink:href="#t"/><clipPath id="ad"><rect width="1920" height="1079"/></clipPath></defs><g id="ac" clip-path="url(#ad)"><rect width="1920" height="1079" fill="#031d48"/><g transform="translate(-405.781 -301.542)" opacity="0.3"><g transform="translate(773.369 134.9)"><g transform="translate(141.211)"><g opacity="0.5"><circle cx="2.575" cy="2.575" r="2.575" fill="#fff"/><circle cx="2.575" cy="2.575" r="2.575" transform="translate(21.89)" fill="#fff"/><circle cx="2.575" cy="2.575" r="2.575" transform="translate(43.78)" fill="#fff"/><circle cx="2.575" cy="2.575" r="2.575" transform="translate(65.67)" fill="#fff"/><circle cx="2.575" cy="2.575" r="2.575" transform="translate(87.56)" fill="#fff"/><circle cx="2.575" cy="2.575" r="2.575" transform="translate(109.593)" fill="#fff"/><circle cx="2.575" cy="2.575" r="2.575" transform="translate(131.483)" fill="#fff"/><circle cx="2.575" cy="2.575" r="2.575" transform="translate(153.372)" fill="#fff"/><circle cx="2.575" cy="2.575" r="2.575" transform="translate(0 21.89)" fill="#fff"/><circle cx="2.575" cy="2.575" r="2.575" transform="translate(21.89 21.89)" fill="#fff"/><circle cx="2.575" cy="2.575" r="2.575" transform="translate(43.78 21.89)" fill="#fff"/><circle cx="2.575" cy="2.575" r="2.575" transform="translate(65.67 21.89)" fill="#fff"/><circle cx="2.575" cy="2.575" r="2.575" transform="translate(87.56 21.89)" fill="#fff"/><circle cx="2.575" cy="2.575" r="2.575" transform="translate(109.593 21.89)" fill="#fff"/><circle cx="2.575" cy="2.575" r="2.575" transform="translate(131.483 21.89)" fill="#fff"/><circle cx="2.575" cy="2.575" r="2.575" transform="translate(153.372 21.89)" fill="#fff"/><circle cx="2.575" cy="2.575" r="2.575" transform="translate(0 43.78)" fill="#fff"/><circle cx="2.575" cy="2.575" r="2.575" transform="translate(21.89 43.78)" fill="#fff"/><circle cx="2.575" cy="2.575" r="2.575" transform="translate(43.78 43.78)" fill="#fff"/><circle cx="2.575" cy="2.575" r="2.575" transform="translate(65.67 43.78)" fill="#fff"/><circle cx="2.575" cy="2.575" r="2.575" transform="translate(87.56 43.78)" fill="#fff"/><circle cx="2.575" cy="2.575" r="2.575" transform="translate(109.593 43.78)" fill="#fff"/><circle cx="2.575" cy="2.575" r="2.575" transform="translate(131.483 43.78)" fill="#fff"/><circle cx="2.575" cy="2.575" r="2.575" transform="translate(153.372 43.78)" fill="#fff"/><circle cx="2.575" cy="2.575" r="2.575" transform="translate(0 65.67)" fill="#fff"/><circle cx="2.575" cy="2.575" r="2.575" transform="translate(21.89 65.67)" fill="#fff"/><circle cx="2.575" cy="2.575" r="2.575" transform="translate(43.78 65.67)" fill="#fff"/><circle cx="2.575" cy="2.575" r="2.575" transform="translate(65.67 65.67)" fill="#fff"/><circle cx="2.575" cy="2.575" r="2.575" transform="translate(87.56 65.67)" fill="#fff"/><circle cx="2.575" cy="2.575" r="2.575" transform="translate(109.593 65.67)" fill="#fff"/><circle cx="2.575" cy="2.575" r="2.575" transform="translate(131.483 65.67)" fill="#fff"/><circle cx="2.575" cy="2.575" r="2.575" transform="translate(153.372 65.67)" fill="#fff"/><circle cx="2.575" cy="2.575" r="2.575" transform="translate(0 87.56)" fill="#fff"/><circle cx="2.575" cy="2.575" r="2.575" transform="translate(21.89 87.56)" fill="#fff"/><circle cx="2.575" cy="2.575" r="2.575" transform="translate(43.78 87.56)" fill="#fff"/><circle cx="2.575" cy="2.575" r="2.575" transform="translate(65.67 87.56)" fill="#fff"/><circle cx="2.575" cy="2.575" r="2.575" transform="translate(87.56 87.56)" fill="#fff"/><circle cx="2.575" cy="2.575" r="2.575" transform="translate(109.593 87.56)" fill="#fff"/><circle cx="2.575" cy="2.575" r="2.575" transform="translate(131.483 87.56)" fill="#fff"/><circle cx="2.575" cy="2.575" r="2.575" transform="translate(153.372 87.56)" fill="#fff"/><circle cx="2.575" cy="2.575" r="2.575" transform="translate(0 109.593)" fill="#fff"/><circle cx="2.575" cy="2.575" r="2.575" transform="translate(21.89 109.593)" fill="#fff"/><circle cx="2.575" cy="2.575" r="2.575" transform="translate(43.78 109.593)" fill="#fff"/><circle cx="2.575" cy="2.575" r="2.575" transform="translate(65.67 109.593)" fill="#fff"/><circle cx="2.575" cy="2.575" r="2.575" transform="translate(87.56 109.593)" fill="#fff"/><circle cx="2.575" cy="2.575" r="2.575" transform="translate(109.593 109.593)" fill="#fff"/><circle cx="2.575" cy="2.575" r="2.575" transform="translate(131.483 109.593)" fill="#fff"/><circle cx="2.575" cy="2.575" r="2.575" transform="translate(153.372 109.593)" fill="#fff"/></g><g transform="translate(762.856 380.713)" opacity="0.5"><circle cx="2.575" cy="2.575" r="2.575" transform="translate(109.45)" fill="#fff"/><circle cx="2.575" cy="2.575" r="2.575" transform="translate(109.45 21.89)" fill="#fff"/><circle cx="2.575" cy="2.575" r="2.575" transform="translate(109.45 43.78)" fill="#fff"/><circle cx="2.575" cy="2.575" r="2.575" transform="translate(109.45 65.67)" fill="#fff"/><circle cx="2.575" cy="2.575" r="2.575" transform="translate(109.45 87.56)" fill="#fff"/><circle cx="2.575" cy="2.575" r="2.575" transform="translate(109.45 109.45)" fill="#fff"/><circle cx="2.575" cy="2.575" r="2.575" transform="translate(109.45 131.339)" fill="#fff"/><circle cx="2.575" cy="2.575" r="2.575" transform="translate(109.45 153.229)" fill="#fff"/><circle cx="2.575" cy="2.575" r="2.575" transform="translate(87.56)" fill="#fff"/><circle cx="2.575" cy="2.575" r="2.575" transform="translate(87.56 21.89)" fill="#fff"/><circle cx="2.575" cy="2.575" r="2.575" transform="translate(87.56 43.78)" fill="#fff"/><circle cx="2.575" cy="2.575" r="2.575" transform="translate(87.56 65.67)" fill="#fff"/><circle cx="2.575" cy="2.575" r="2.575" transform="translate(87.56 87.56)" fill="#fff"/><circle cx="2.575" cy="2.575" r="2.575" transform="translate(87.56 109.45)" fill="#fff"/><circle cx="2.575" cy="2.575" r="2.575" transform="translate(87.56 131.339)" fill="#fff"/><circle cx="2.575" cy="2.575" r="2.575" transform="translate(87.56 153.229)" fill="#fff"/><circle cx="2.575" cy="2.575" r="2.575" transform="translate(65.67)" fill="#fff"/><circle cx="2.575" cy="2.575" r="2.575" transform="translate(65.67 21.89)" fill="#fff"/><circle cx="2.575" cy="2.575" r="2.575" transform="translate(65.67 43.78)" fill="#fff"/><circle cx="2.575" cy="2.575" r="2.575" transform="translate(65.67 65.67)" fill="#fff"/><circle cx="2.575" cy="2.575" r="2.575" transform="translate(65.67 87.56)" fill="#fff"/><circle cx="2.575" cy="2.575" r="2.575" transform="translate(65.67 109.45)" fill="#fff"/><circle cx="2.575" cy="2.575" r="2.575" transform="translate(65.67 131.339)" fill="#fff"/><circle cx="2.575" cy="2.575" r="2.575" transform="translate(65.67 153.229)" fill="#fff"/><circle cx="2.575" cy="2.575" r="2.575" transform="translate(43.78)" fill="#fff"/><circle cx="2.575" cy="2.575" r="2.575" transform="translate(43.78 21.89)" fill="#fff"/><circle cx="2.575" cy="2.575" r="2.575" transform="translate(43.78 43.78)" fill="#fff"/><circle cx="2.575" cy="2.575" r="2.575" transform="translate(43.78 65.67)" fill="#fff"/><circle cx="2.575" cy="2.575" r="2.575" transform="translate(43.78 87.56)" fill="#fff"/><circle cx="2.575" cy="2.575" r="2.575" transform="translate(43.78 109.45)" fill="#fff"/><circle cx="2.575" cy="2.575" r="2.575" transform="translate(43.78 131.339)" fill="#fff"/><circle cx="2.575" cy="2.575" r="2.575" transform="translate(43.78 153.229)" fill="#fff"/><circle cx="2.575" cy="2.575" r="2.575" transform="translate(21.89)" fill="#fff"/><circle cx="2.575" cy="2.575" r="2.575" transform="translate(21.89 21.89)" fill="#fff"/><circle cx="2.575" cy="2.575" r="2.575" transform="translate(21.89 43.78)" fill="#fff"/><circle cx="2.575" cy="2.575" r="2.575" transform="translate(21.89 65.67)" fill="#fff"/><circle cx="2.575" cy="2.575" r="2.575" transform="translate(21.89 87.56)" fill="#fff"/><circle cx="2.575" cy="2.575" r="2.575" transform="translate(21.89 109.45)" fill="#fff"/><circle cx="2.575" cy="2.575" r="2.575" transform="translate(21.89 131.339)" fill="#fff"/><circle cx="2.575" cy="2.575" r="2.575" transform="translate(21.89 153.229)" fill="#fff"/><circle cx="2.575" cy="2.575" r="2.575" fill="#fff"/><circle cx="2.575" cy="2.575" r="2.575" transform="translate(0 21.89)" fill="#fff"/><circle cx="2.575" cy="2.575" r="2.575" transform="translate(0 43.78)" fill="#fff"/><circle cx="2.575" cy="2.575" r="2.575" transform="translate(0 65.67)" fill="#fff"/><circle cx="2.575" cy="2.575" r="2.575" transform="translate(0 87.56)" fill="#fff"/><circle cx="2.575" cy="2.575" r="2.575" transform="translate(0 109.45)" fill="#fff"/><circle cx="2.575" cy="2.575" r="2.575" transform="translate(0 131.339)" fill="#fff"/><circle cx="2.575" cy="2.575" r="2.575" transform="translate(0 153.229)" fill="#fff"/></g><g transform="translate(590.169 52.936)" opacity="0.5"><circle cx="2.575" cy="2.575" r="2.575" fill="#fff"/><circle cx="2.575" cy="2.575" r="2.575" transform="translate(21.89)" fill="#fff"/><circle cx="2.575" cy="2.575" r="2.575" transform="translate(43.78)" fill="#fff"/><circle cx="2.575" cy="2.575" r="2.575" transform="translate(0 21.89)" fill="#fff"/><circle cx="2.575" cy="2.575" r="2.575" transform="translate(21.89 21.89)" fill="#fff"/><circle cx="2.575" cy="2.575" r="2.575" transform="translate(43.78 21.89)" fill="#fff"/><circle cx="2.575" cy="2.575" r="2.575" transform="translate(0 43.78)" fill="#fff"/><circle cx="2.575" cy="2.575" r="2.575" transform="translate(21.89 43.78)" fill="#fff"/><circle cx="2.575" cy="2.575" r="2.575" transform="translate(43.78 43.78)" fill="#fff"/></g><g transform="translate(385.72 247.37)" opacity="0.5"><circle cx="2.575" cy="2.575" r="2.575" fill="#fff"/><circle cx="2.575" cy="2.575" r="2.575" transform="translate(21.89)" fill="#fff"/><circle cx="2.575" cy="2.575" r="2.575" transform="translate(43.78)" fill="#fff"/><circle cx="2.575" cy="2.575" r="2.575" transform="translate(0 21.89)" fill="#fff"/><circle cx="2.575" cy="2.575" r="2.575" transform="translate(21.89 21.89)" fill="#fff"/><circle cx="2.575" cy="2.575" r="2.575" transform="translate(43.78 21.89)" fill="#fff"/><circle cx="2.575" cy="2.575" r="2.575" transform="translate(0 43.78)" fill="#fff"/><circle cx="2.575" cy="2.575" r="2.575" transform="translate(21.89 43.78)" fill="#fff"/><circle cx="2.575" cy="2.575" r="2.575" transform="translate(43.78 43.78)" fill="#fff"/></g></g><g transform="translate(1319.662 168.824)"><g transform="translate(180.842)" opacity="0.5"><line x1="92.281" y2="92.138" transform="translate(119.894 119.894)" fill="none" stroke="#fff" stroke-miterlimit="10" stroke-width="2.122"/><line x1="92.281" y2="92.281" transform="translate(113.885 113.885)" fill="none" stroke="#fff" stroke-miterlimit="10" stroke-width="2.122"/><line x1="92.281" y2="92.281" transform="translate(107.876 107.876)" fill="none" stroke="#fff" stroke-miterlimit="10" stroke-width="2.122"/><line x1="92.138" y2="92.281" transform="translate(102.01 101.867)" fill="none" stroke="#fff" stroke-miterlimit="10" stroke-width="2.122"/><line x1="92.138" y2="92.281" transform="translate(96.001 95.858)" fill="none" stroke="#fff" stroke-miterlimit="10" stroke-width="2.122"/><line x1="92.281" y2="92.281" transform="translate(89.992 89.849)" fill="none" stroke="#fff" stroke-miterlimit="10" stroke-width="2.122"/><line x1="92.281" y2="92.281" transform="translate(83.983 83.84)" fill="none" stroke="#fff" stroke-miterlimit="10" stroke-width="2.122"/><line x1="92.281" y2="92.281" transform="translate(77.974 77.831)" fill="none" stroke="#fff" stroke-miterlimit="10" stroke-width="2.122"/><line x1="92.281" y2="92.138" transform="translate(71.965 71.965)" fill="none" stroke="#fff" stroke-miterlimit="10" stroke-width="2.122"/><line x1="92.281" y2="92.138" transform="translate(65.956 65.956)" fill="none" stroke="#fff" stroke-miterlimit="10" stroke-width="2.122"/><line x1="92.281" y2="92.281" transform="translate(59.947 59.947)" fill="none" stroke="#fff" stroke-miterlimit="10" stroke-width="2.122"/><line x1="92.281" y2="92.281" transform="translate(53.938 53.938)" fill="none" stroke="#fff" stroke-miterlimit="10" stroke-width="2.122"/><line x1="92.138" y2="92.281" transform="translate(48.072 47.929)" fill="none" stroke="#fff" stroke-miterlimit="10" stroke-width="2.122"/><line x1="92.138" y2="92.281" transform="translate(42.063 41.92)" fill="none" stroke="#fff" stroke-miterlimit="10" stroke-width="2.122"/><line x1="92.281" y2="92.281" transform="translate(36.054 35.911)" fill="none" stroke="#fff" stroke-miterlimit="10" stroke-width="2.122"/><line x1="92.281" y2="92.281" transform="translate(30.045 29.902)" fill="none" stroke="#fff" stroke-miterlimit="10" stroke-width="2.122"/><line x1="92.281" y2="92.281" transform="translate(24.036 23.893)" fill="none" stroke="#fff" stroke-miterlimit="10" stroke-width="2.122"/><line x1="92.281" y2="92.281" transform="translate(18.027 17.884)" fill="none" stroke="#fff" stroke-miterlimit="10" stroke-width="2.122"/><line x1="92.281" y2="92.138" transform="translate(12.018 12.018)" fill="none" stroke="#fff" stroke-miterlimit="10" stroke-width="2.122"/><line x1="92.281" y2="92.138" transform="translate(6.009 6.009)" fill="none" stroke="#fff" stroke-miterlimit="10" stroke-width="2.122"/><line x1="92.281" y2="92.281" fill="none" stroke="#fff" stroke-miterlimit="10" stroke-width="2.122"/></g><g transform="translate(0 888.643)" opacity="0.5"><line x1="92.281" y2="92.281" transform="translate(119.751 119.894)" fill="none" stroke="#fff" stroke-miterlimit="10" stroke-width="2.122"/><line x1="92.138" y2="92.281" transform="translate(113.885 113.885)" fill="none" stroke="#fff" stroke-miterlimit="10" stroke-width="2.122"/><line x1="92.138" y2="92.138" transform="translate(107.876 108.019)" fill="none" stroke="#fff" stroke-miterlimit="10" stroke-width="2.122"/><line x1="92.281" y2="92.138" transform="translate(101.867 102.01)" fill="none" stroke="#fff" stroke-miterlimit="10" stroke-width="2.122"/><line x1="92.281" y2="92.281" transform="translate(95.858 96.001)" fill="none" stroke="#fff" stroke-miterlimit="10" stroke-width="2.122"/><line x1="92.281" y2="92.281" transform="translate(89.849 89.992)" fill="none" stroke="#fff" stroke-miterlimit="10" stroke-width="2.122"/><line x1="92.281" y2="92.281" transform="translate(83.84 83.983)" fill="none" stroke="#fff" stroke-miterlimit="10" stroke-width="2.122"/><line x1="92.281" y2="92.281" transform="translate(77.831 77.974)" fill="none" stroke="#fff" stroke-miterlimit="10" stroke-width="2.122"/><line x1="92.281" y2="92.281" transform="translate(71.822 71.965)" fill="none" stroke="#fff" stroke-miterlimit="10" stroke-width="2.122"/><line x1="92.281" y2="92.281" transform="translate(65.813 65.956)" fill="none" stroke="#fff" stroke-miterlimit="10" stroke-width="2.122"/><line x1="92.138" y2="92.281" transform="translate(59.947 59.947)" fill="none" stroke="#fff" stroke-miterlimit="10" stroke-width="2.122"/><line x1="92.138" y2="92.281" transform="translate(53.938 53.938)" fill="none" stroke="#fff" stroke-miterlimit="10" stroke-width="2.122"/><line x1="92.281" y2="92.138" transform="translate(47.929 48.072)" fill="none" stroke="#fff" stroke-miterlimit="10" stroke-width="2.122"/><line x1="92.281" y2="92.281" transform="translate(41.92 42.063)" fill="none" stroke="#fff" stroke-miterlimit="10" stroke-width="2.122"/><line x1="92.281" y2="92.281" transform="translate(35.911 36.054)" fill="none" stroke="#fff" stroke-miterlimit="10" stroke-width="2.122"/><line x1="92.281" y2="92.281" transform="translate(29.902 30.045)" fill="none" stroke="#fff" stroke-miterlimit="10" stroke-width="2.122"/><line x1="92.281" y2="92.281" transform="translate(23.893 24.036)" fill="none" stroke="#fff" stroke-miterlimit="10" stroke-width="2.122"/><line x1="92.281" y2="92.281" transform="translate(17.884 18.027)" fill="none" stroke="#fff" stroke-miterlimit="10" stroke-width="2.122"/><line x1="92.281" y2="92.281" transform="translate(11.875 12.018)" fill="none" stroke="#fff" stroke-miterlimit="10" stroke-width="2.122"/><line x1="92.138" y2="92.281" transform="translate(6.009 6.009)" fill="none" stroke="#fff" stroke-miterlimit="10" stroke-width="2.122"/><line x1="92.138" y2="92.281" fill="none" stroke="#fff" stroke-miterlimit="10" stroke-width="2.122"/></g></g><g transform="translate(0 721.393)" opacity="0.49"><circle cx="5.866" cy="5.866" r="5.866" transform="translate(199.298)" fill="none" stroke="#fff" stroke-linecap="round" stroke-linejoin="round" stroke-miterlimit="10" stroke-width="2"/><circle cx="5.866" cy="5.866" r="5.866" transform="translate(592.887 396.307)" fill="none" stroke="#fff" stroke-linecap="round" stroke-linejoin="round" stroke-miterlimit="10" stroke-width="2"/><circle cx="5.866" cy="5.866" r="5.866" transform="translate(410.328 108.019)" fill="none" stroke="#fff" stroke-linecap="round" stroke-linejoin="round" stroke-miterlimit="10" stroke-width="2"/><circle cx="5.866" cy="5.866" r="5.866" transform="translate(0 298.16)" fill="none" stroke="#fff" stroke-linecap="round" stroke-linejoin="round" stroke-miterlimit="10" stroke-width="2"/><circle cx="5.866" cy="5.866" r="5.866" transform="translate(59.088 127.047)" fill="none" stroke="#fff" stroke-linecap="round" stroke-linejoin="round" stroke-miterlimit="10" stroke-width="2"/><g transform="translate(525.93 55.798)"><line y2="10.301" transform="translate(5.007)" fill="none" stroke="#fff" stroke-linecap="round" stroke-linejoin="round" stroke-miterlimit="10" stroke-width="2"/><line x1="10.158" transform="translate(0 5.151)" fill="none" stroke="#fff" stroke-linecap="round" stroke-linejoin="round" stroke-miterlimit="10" stroke-width="2"/></g><g transform="translate(955.144 397.166)"><line y2="10.158" transform="translate(5.151)" fill="none" stroke="#fff" stroke-linecap="round" stroke-linejoin="round" stroke-miterlimit="10" stroke-width="2"/><line x1="10.301" transform="translate(0 5.007)" fill="none" stroke="#fff" stroke-linecap="round" stroke-linejoin="round" stroke-miterlimit="10" stroke-width="2"/></g><g transform="translate(235.066 304.742)"><line y2="10.158" transform="translate(5.151)" fill="none" stroke="#fff" stroke-linecap="round" stroke-linejoin="round" stroke-miterlimit="10" stroke-width="2"/><line x1="10.301" transform="translate(0 5.007)" fill="none" stroke="#fff" stroke-linecap="round" stroke-linejoin="round" stroke-miterlimit="10" stroke-width="2"/></g><g transform="translate(695.04 519.063)"><g transform="translate(61.807)"><line y2="10.301" transform="translate(5.007)" fill="none" stroke="#fff" stroke-linecap="round" stroke-linejoin="round" stroke-miterlimit="10" stroke-width="2"/><line x1="10.158" transform="translate(0 5.151)" fill="none" stroke="#fff" stroke-linecap="round" stroke-linejoin="round" stroke-miterlimit="10" stroke-width="2"/></g><g transform="translate(30.903)"><line y2="10.301" transform="translate(5.151)" fill="none" stroke="#fff" stroke-linecap="round" stroke-linejoin="round" stroke-miterlimit="10" stroke-width="2"/><line x1="10.158" transform="translate(0 5.151)" fill="none" stroke="#fff" stroke-linecap="round" stroke-linejoin="round" stroke-miterlimit="10" stroke-width="2"/></g><line y2="10.301" transform="translate(5.151)" fill="none" stroke="#fff" stroke-linecap="round" stroke-linejoin="round" stroke-miterlimit="10" stroke-width="2"/><line x1="10.301" transform="translate(0 5.151)" fill="none" stroke="#fff" stroke-linecap="round" stroke-linejoin="round" stroke-miterlimit="10" stroke-width="2"/></g><g transform="translate(4.006 62.665)"><g transform="translate(61.807)"><line y2="10.301" transform="translate(5.007)" fill="none" stroke="#fff" stroke-linecap="round" stroke-linejoin="round" stroke-miterlimit="10" stroke-width="2"/><line x1="10.158" transform="translate(0 5.151)" fill="none" stroke="#fff" stroke-linecap="round" stroke-linejoin="round" stroke-miterlimit="10" stroke-width="2"/></g><g transform="translate(30.903)"><line y2="10.301" transform="translate(5.151)" fill="none" stroke="#fff" stroke-linecap="round" stroke-linejoin="round" stroke-miterlimit="10" stroke-width="2"/><line x1="10.158" transform="translate(0 5.151)" fill="none" stroke="#fff" stroke-linecap="round" stroke-linejoin="round" stroke-miterlimit="10" stroke-width="2"/></g><line y2="10.301" transform="translate(5.151)" fill="none" stroke="#fff" stroke-linecap="round" stroke-linejoin="round" stroke-miterlimit="10" stroke-width="2"/><line x1="10.301" transform="translate(0 5.151)" fill="none" stroke="#fff" stroke-linecap="round" stroke-linejoin="round" stroke-miterlimit="10" stroke-width="2"/></g><path d="M1406.412,360.235l7.869-13.735H1398.4Z" transform="translate(-1044.871 -85.109)" fill="none" stroke="#fff" stroke-linecap="round" stroke-linejoin="round" stroke-miterlimit="10" stroke-width="2"/><path d="M1671.769,210l-7.869,13.735h15.881Z" transform="translate(-930.517 -143.901)" fill="none" stroke="#fff" stroke-linecap="round" stroke-linejoin="round" stroke-miterlimit="10" stroke-width="2"/><path d="M1395.4,514.565c3.434-3.434,9.586,2.575,13.019-.858s-2.575-9.586.859-13.02,9.586,2.575,13.019-.858-2.575-9.586.858-13.02,9.586,2.575,13.02-.858-2.575-9.586.858-13.02,9.586,2.575,13.019-.858" transform="translate(-1046.163 -31.128)" fill="none" stroke="#fff" stroke-linecap="round" stroke-linejoin="round" stroke-miterlimit="10" stroke-width="2"/><path d="M1606.2,494.865c3.434-3.434,9.586,2.575,13.019-.858s-2.575-9.586.858-13.02,9.586,2.575,13.019-.858-2.575-9.586.859-13.02,9.586,2.575,13.02-.858-2.575-9.586.859-13.019,9.586,2.575,13.019-.858" transform="translate(-955.369 -39.613)" fill="none" stroke="#fff" stroke-linecap="round" stroke-linejoin="round" stroke-miterlimit="10" stroke-width="2"/><path d="M1618.1,220.365c3.434-3.434,9.586,2.575,13.019-.858s-2.575-9.586.858-13.02,9.586,2.575,13.019-.858-2.575-9.586.859-13.019,9.586,2.575,13.019-.858-2.575-9.586.858-13.019,9.586,2.575,13.019-.858" transform="translate(-950.243 -157.843)" fill="none" stroke="#fff" stroke-linecap="round" stroke-linejoin="round" stroke-miterlimit="10" stroke-width="2"/></g><rect width="1073.034" height="715.356" transform="translate(22.319 433.105)" fill="none"/></g><g transform="translate(1166.556 547.114)"><path d="M541.238,331.763c-41.11,23.61-107.774,23.61-148.606,0-41.11-23.61-41.11-62.22,0-85.83s107.774-23.61,148.606,0C582.348,269.543,582.348,308.153,541.238,331.763Z" transform="translate(-47.005 199.33)" fill="url(#a)"/><path d="M392.62,258.888c41.11-23.61,107.774-23.61,148.606,0C559,269.165,569,281.943,571.5,295.275c3.333-17.5-6.944-35.832-30.277-49.443-41.11-23.61-107.774-23.61-148.606,0-23.333,13.611-33.332,31.666-30.277,49.443C364.843,282.22,374.843,269.165,392.62,258.888Z" transform="translate(-46.992 199.152)" fill="#42e8e0"/><path d="M703.554,429.193c-87.775,50.554-229.992,50.554-317.489,0s-87.775-132.773,0-183.327,229.992-50.554,317.489,0S791.051,378.639,703.554,429.193Z" transform="translate(-120.712 163.288)" opacity="0.5" fill="url(#b)"/><g transform="translate(186.239 102.219)"><g transform="translate(0 88.618)"><path d="M348.522,201.6c-15.555-10.277-39.443-40.276-31.388-52.776s45.276-2.5,60.831,7.777,21.388,28.61,13.333,40.832C383.243,209.936,364.077,211.6,348.522,201.6Z" transform="translate(-315.518 -143.004)" fill="url(#c)"/><path d="M348.522,201.6c-15.555-10.277-39.443-40.276-31.388-52.776s45.276-2.5,60.831,7.777,21.388,28.61,13.333,40.832C383.243,209.936,364.077,211.6,348.522,201.6Z" transform="translate(-315.518 -143.004)" fill="url(#d)"/></g><path d="M399.981,210.525a6.277,6.277,0,0,1-4.167-1.389l-55.276-37.5a7.2,7.2,0,1,1,8.055-11.944l55.276,37.5a7.168,7.168,0,0,1,1.944,10A6.529,6.529,0,0,1,399.981,210.525Z" transform="translate(-276.702 -26.92)" fill="#2fd3c7"/><path d="M485.277,309.886a7.219,7.219,0,0,1-6.666-4.444l-40-98.886c-1.389-3.611.278-8.055,3.889-9.444s8.055.278,9.444,3.889l40,98.886c1.389,3.611-.278,8.055-3.889,9.444A5.494,5.494,0,0,1,485.277,309.886Z" transform="translate(-97.563 40.936)" fill="#2fd3c7"/><g transform="translate(101.612)"><g transform="translate(0 144.717)"><circle cx="38.888" cy="38.888" r="38.888" fill="url(#e)"/></g><g transform="translate(0 144.717)"><circle cx="38.888" cy="38.888" r="38.888" fill="url(#f)"/></g><g transform="translate(31.666 156.106)"><path d="M564.049,265.074c0,75.275-44.721,136.384-100.274,136.384S363.5,340.35,363.5,265.074,408.221,167.3,463.774,167.3,564.049,189.8,564.049,265.074Z" transform="translate(-363.5 -167.3)" fill="url(#g)"/></g><g transform="translate(31.666 156.106)"><path d="M564.049,265.074c0,75.275-44.721,136.384-100.274,136.384S363.5,340.35,363.5,265.074,408.221,167.3,463.774,167.3,564.049,189.8,564.049,265.074Z" transform="translate(-363.5 -167.3)" fill="url(#h)"/></g><path d="M491.763,234.964c-26.666,15.277-70,15.277-96.663,0s-26.666-40.276,0-55.831c26.666-15.277,70-15.277,96.663,0C518.428,194.688,518.428,219.687,491.763,234.964Z" transform="translate(-311.213 -10.527)" fill="#393091"/><path d="M395.137,189.51c26.666-15.277,70-15.277,96.663,0,11.111,6.389,17.5,14.444,19.444,22.777,2.778-11.666-3.611-24.166-19.444-33.054-26.666-15.277-70-15.277-96.663,0-15.555,9.166-22.221,21.388-19.444,33.054C377.638,203.954,384.026,195.9,395.137,189.51Z" transform="translate(-311.251 -10.35)" fill="#42e8e0"/><path d="M425.876,142.6c0,18.333-12.777,40.832-28.888,50-15.833,9.166-28.888,1.667-28.888-16.666s12.777-40.832,28.888-50S425.876,123.991,425.876,142.6Z" transform="translate(-323.657 -91.77)" fill="#bcbeff"/><g transform="translate(33.888)"><circle cx="102.219" cy="102.219" r="102.219" fill="url(#i)"/></g><g transform="translate(33.888)"><circle cx="102.219" cy="102.219" r="102.219" fill="url(#j)"/></g><g transform="translate(45.473 85.83)"><path d="M427.161,206.883c-2.5,20-17.777,26.388-33.888,14.166s-26.944-38.61-24.444-58.609,17.777-26.388,33.888-14.166S429.661,186.606,427.161,206.883Z" transform="translate(-368.471 -141.885)" fill="#393091"/><path d="M398.382,174.331c-.833,7.222-6.389,9.722-12.222,5-5.833-4.444-9.722-13.888-8.889-21.388.833-7.222,6.389-9.722,12.222-5C395.327,157.388,399.493,167.109,398.382,174.331Z" transform="translate(-353.025 -126.833)" fill="#42e8e0"/><path d="M401.051,218.109c-16.111-12.222-26.943-38.61-24.444-58.609,1.111-8.055,4.167-14.166,8.611-17.5-8.333.833-14.722,8.055-16.388,20.277-2.5,20,8.333,46.387,24.444,58.609,9.444,7.222,18.611,8.055,25.277,3.333C413.272,224.775,407.161,222.831,401.051,218.109Z" transform="translate(-368.471 -142)" fill="#453c9e"/><path d="M394.662,219.62c-16.111-12.222-26.944-38.61-24.444-58.609,1.111-9.166,5-15.555,10.555-18.61-6.111,2.5-10.555,9.166-11.944,19.166-2.5,20,8.333,46.387,24.444,58.609,8.611,6.666,16.944,7.777,23.333,4.444C410.495,227.119,402.717,225.731,394.662,219.62Z" transform="translate(-368.471 -141.289)" fill="#42e8e0"/></g><g transform="translate(207.215 206.104)"><circle cx="38.888" cy="38.888" r="38.888" fill="url(#k)"/></g><g transform="translate(207.215 206.104)"><circle cx="38.888" cy="38.888" r="38.888" fill="url(#l)"/></g></g><path d="M497.4,269.054c-2.222,18.333-18.61,53.332-33.332,51.665s-22.221-39.443-20.277-58.054c2.222-18.333,15.833-31.943,30.555-30.277C489.626,234.333,499.625,250.721,497.4,269.054Z" transform="translate(-88.023 104.267)" fill="url(#m)"/><path d="M497.4,269.054c-2.222,18.333-18.61,53.332-33.332,51.665s-22.221-39.443-20.277-58.054c2.222-18.333,15.833-31.943,30.555-30.277C489.626,234.333,499.625,250.721,497.4,269.054Z" transform="translate(-88.023 104.267)" fill="url(#n)"/></g><g transform="translate(27.027)"><path d="M372.664,159.554,281,106.5V212.608l91.664,53.054L464.6,212.608V106.5Z" transform="translate(-217.669 -17.059)" fill="#42e8e0"/><path d="M372.664,265.661,281,212.608V106.5l91.664,53.054Z" transform="translate(-217.669 -17.059)" fill="#42e8e0"/><path d="M405.941,212.608,314,265.661V159.554L405.941,106.5Z" transform="translate(-159.005 -17.059)" fill="#2fd3c7"/><path d="M372.664,193.33,281,140.276,372.664,87.5,464.6,140.276Z" transform="translate(-217.669 -50.835)" fill="#42e8e0"/><path d="M318.518,141.9h-.278l-6.389-3.611c-.278-.278-.556-.556-.278-.833s.555-.556.833-.278l5.833,3.333,5.833-3.333a.621.621,0,0,1,.555,1.111L318.24,141.9Z" transform="translate(-163.523 37.265)" fill="#fff"/><path d="M381.659,178.7h-.278L368.6,171.2c-.278-.278-.556-.556-.278-.833s.556-.556.833-.278l12.777,7.5c.278.278.555.556.278.833A.969.969,0,0,1,381.659,178.7Zm-25.833-15h-.278l-12.777-7.5c-.278-.278-.556-.556-.278-.833s.555-.556.833-.278l12.777,7.5c.278.278.555.556.278.833C356.382,163.705,356.1,163.705,355.826,163.705Zm-25.555-14.722h-.278l-12.777-7.5c-.278-.278-.556-.556-.278-.833s.556-.556.833-.278l12.777,7.5c.278.278.555.556.278.833C330.549,148.706,330.549,148.983,330.271,148.983Zm-25.832-15h-.278l-12.777-7.5c-.278-.278-.556-.556-.278-.833s.555-.556.833-.278l12.777,7.5c.278.278.556.556.278.833C304.994,133.984,304.717,133.984,304.439,133.984Zm-25.833-15h-.278l-12.777-7.5c-.278-.278-.556-.556-.278-.833s.556-.555.833-.278l12.777,7.5c.278.278.556.556.278.833C279.162,118.984,278.884,118.984,278.607,118.984Z" transform="translate(-245.83 -10.377)" fill="#fff"/><path d="M265.144,113.507h-.278l-6.389-3.611c-.278,0-.278-.278-.278-.555s0-.556.278-.556l6.389-3.611a.621.621,0,1,1,.555,1.111l-5.278,3.055,5.278,3.055c.278.278.556.556.278.833A.97.97,0,0,1,265.144,113.507Z" transform="translate(-258.2 -19.621)" fill="#fff"/><path d="M265.829,146.427c-.278,0-.556,0-.556-.278a.532.532,0,0,1,.278-.833l12.777-7.5a.621.621,0,1,1,.556,1.111l-12.777,7.5Zm25.833-15c-.278,0-.556,0-.556-.278a.532.532,0,0,1,.278-.833l12.777-7.5a.621.621,0,0,1,.555,1.111l-12.777,7.5Zm25.555-14.722c-.278,0-.556,0-.556-.278a.532.532,0,0,1,.278-.833l12.777-7.5a.621.621,0,1,1,.556,1.111l-12.777,7.5Zm25.832-15c-.278,0-.555,0-.555-.278a.532.532,0,0,1,.278-.833l12.777-7.5a.621.621,0,1,1,.555,1.111l-12.777,7.5Zm25.832-14.722c-.278,0-.556,0-.556-.278a.532.532,0,0,1,.278-.833l12.777-7.5a.621.621,0,1,1,.556,1.111l-12.777,7.5Z" transform="translate(-245.83 -67.263)" fill="#fff"/><path d="M324.551,79.022h-.278l-5.833-3.333-5.833,3.333a.621.621,0,0,1-.556-1.111L318.44,74.3h.833l6.389,3.611c.278.278.555.556.278.833A4.86,4.86,0,0,1,324.551,79.022Z" transform="translate(-163.168 -74.3)" fill="#fff"/><path d="M436.981,146.427H436.7l-12.777-7.5c-.278-.278-.556-.555-.278-.833s.556-.555.833-.278l12.777,7.5c.278.278.556.556.278.833C437.536,146.427,437.259,146.427,436.981,146.427Zm-25.555-15h-.278l-12.777-7.5c-.278-.278-.555-.556-.278-.833s.556-.556.833-.278l12.777,7.5c.278.278.556.556.278.833S411.7,131.427,411.426,131.427Zm-25.832-14.722h-.278l-12.777-7.5c-.278-.278-.556-.556-.278-.833s.556-.556.833-.278l12.777,7.5c.278.278.556.556.278.833A.97.97,0,0,1,385.594,116.706Zm-25.832-15h-.278l-12.777-7.5c-.278-.278-.555-.556-.278-.833s.556-.556.833-.278l12.777,7.5c.278.278.556.556.278.833C360.317,101.706,360.039,101.706,359.761,101.706ZM334.206,86.984h-.278l-12.777-7.5c-.278-.278-.556-.556-.278-.833s.556-.556.833-.278l12.777,7.5c.278.278.556.556.278.833A.97.97,0,0,0,334.206,86.984Z" transform="translate(-146.991 -67.263)" fill="#fff"/><path d="M367.729,113.507c-.278,0-.555,0-.555-.278a.532.532,0,0,1,.278-.833l5.278-3.055-5.278-3.055c-.278-.278-.556-.556-.278-.833s.555-.556.833-.278l6.389,3.611c.278,0,.278.278.278.556s0,.555-.278.555l-6.389,3.611Z" transform="translate(-64.684 -19.621)" fill="#fff"/><path d="M321.329,178.7c-.278,0-.556,0-.556-.278a.532.532,0,0,1,.278-.833l12.777-7.5a.621.621,0,0,1,.555,1.111l-12.777,7.5Zm25.833-15c-.278,0-.556,0-.556-.278a.532.532,0,0,1,.278-.833l12.777-7.5a.621.621,0,0,1,.555,1.111l-12.777,7.5Zm25.832-14.722c-.278,0-.556,0-.556-.278a.532.532,0,0,1,.278-.833l12.777-7.5a.621.621,0,0,1,.555,1.111l-12.777,7.5C372.994,148.706,372.994,148.983,372.994,148.983Zm25.555-15c-.278,0-.556,0-.556-.278a.532.532,0,0,1,.278-.833l12.777-7.5a.621.621,0,0,1,.556,1.111l-12.777,7.5Zm25.832-15c-.278,0-.556,0-.556-.278a.532.532,0,0,1,.278-.833l12.777-7.5a.621.621,0,1,1,.556,1.111l-12.777,7.5Z" transform="translate(-147.168 -10.377)" fill="#fff"/><path d="M372.664,159.554,281,106.5v4.722l91.664,53.054L464.6,111.222V106.5Z" transform="translate(-217.669 -17.059)" fill="#fff"/></g><path d="M455.743,188.776,418.8,210.165V167.388L455.743,146Z" transform="translate(54.323 53.16)" fill="#251c72"/><path d="M450.188,149.333v36.388L418.8,204.054v6.111l36.943-21.388V146Z" transform="translate(54.323 53.16)" opacity="0.8" fill="url(#o)"/><g transform="translate(476.734 220.271)"><path d="M423.433,160.389l-3.333,1.944v-3.889l3.333-1.944Z" transform="translate(-420.1 -148.445)" fill="#42e8e0"/><path d="M426.033,158.711l-3.333,1.944v-3.611l3.333-1.944Z" transform="translate(-415.478 -150.933)" fill="#42e8e0"/><path d="M428.533,157.489l-3.333,1.944v-3.889l3.333-1.944Z" transform="translate(-411.034 -153.6)" fill="#42e8e0"/><path d="M428.533,161.089l-3.333,1.944v-3.889l3.333-1.944Z" transform="translate(-411.034 -147.2)" fill="#42e8e0"/><path d="M427.033,163.889l-3.333,1.944v-3.889L427.033,160Z" transform="translate(-413.7 -142.223)" fill="#42e8e0"/><path d="M431.133,159.589l-3.333,1.944v-3.889l3.333-1.944Z" transform="translate(-406.412 -149.867)" fill="#42e8e0"/></g><path d="M602.876,306.255H602.6l-3.055-1.944a.621.621,0,1,1,.556-1.111l2.778,1.944,9.166-5a.621.621,0,0,1,.556,1.111l-9.444,5.278A.272.272,0,0,0,602.876,306.255Zm-15.277-10h-.278L575.1,288.2a.621.621,0,1,1,.555-1.111l12.222,8.055a1.02,1.02,0,0,1,.278.833C588.154,296.255,587.877,296.255,587.6,296.255Zm37.5-2.222c-.278,0-.556,0-.556-.278a.532.532,0,0,1,.278-.833l12.777-6.944a.621.621,0,1,1,.556,1.111l-12.778,6.944Zm25.555-13.888c-.278,0-.556,0-.556-.278a.532.532,0,0,1,.278-.833l12.777-6.944a.621.621,0,1,1,.556,1.111l-12.777,6.944Zm25.277-14.166c-.278,0-.556,0-.556-.278a.532.532,0,0,1,.278-.833l12.777-6.944a.621.621,0,0,1,.556,1.111l-12.777,6.944Zm25.555-13.888c-.278,0-.556,0-.556-.278a.532.532,0,0,1,.278-.833l5-2.778-5.555-3.055c-.278-.278-.556-.556-.278-.833s.556-.555.833-.278l6.666,3.611c.278,0,.278.278.278.556s0,.556-.278.556l-6.111,3.333ZM687.873,238.2H687.6l-12.777-6.944c-.278-.278-.556-.556-.278-.833s.556-.556.833-.278l12.778,6.944c.278.278.556.556.278.833C688.429,238.2,688.151,238.2,687.873,238.2Zm-25.555-13.611h-.278l-12.777-6.944c-.278-.278-.556-.556-.278-.833s.556-.556.833-.278L662.6,223.48c.278.278.555.556.278.833A.97.97,0,0,0,662.318,224.591ZM636.486,210.98h-.278l-12.778-6.944c-.278-.278-.555-.555-.278-.833s.556-.556.833-.278l12.777,6.944c.278.278.556.556.278.833A.969.969,0,0,1,636.486,210.98ZM610.931,197.37h-.278l-12.778-6.944c-.278-.278-.555-.556-.278-.833s.556-.555.833-.278l12.777,6.944c.278.278.556.556.278.833A.97.97,0,0,1,610.931,197.37ZM585.1,183.481h-.278l-12.777-6.944c-.278-.278-.555-.556-.278-.833s.556-.556.833-.278l12.777,6.944c.278.278.556.556.278.833C585.654,183.481,585.377,183.481,585.1,183.481Zm-25.555-13.611h-.278l-12.777-6.944c-.278-.278-.556-.556-.278-.833s.556-.556.833-.278l12.777,6.944c.278.278.556.556.278.833C560.1,169.871,559.822,169.871,559.544,169.871ZM533.989,156.26h-.278l-12.777-6.944c-.278-.278-.556-.556-.278-.833s.556-.555.833-.278l12.777,6.944c.278.278.556.556.278.833C534.267,155.982,534.267,156.26,533.989,156.26Zm-25.832-13.611h-.278L495.1,135.705c-.278-.278-.556-.556-.278-.833s.555-.556.833-.278l12.777,6.944c.278.278.555.556.278.833A.97.97,0,0,1,508.157,142.649ZM482.6,128.761h-.278l-12.777-6.944c-.278-.278-.556-.556-.278-.833s.556-.556.833-.278l12.777,6.944c.278.278.556.556.278.833C483.158,128.761,482.88,128.761,482.6,128.761ZM456.77,115.15h-.278l-12.777-6.944c-.278-.278-.556-.556-.278-.833s.556-.556.833-.278l12.777,6.944c.278.278.556.556.278.833C457.325,115.15,457.048,115.15,456.77,115.15Zm-114.441-6.111c-.278,0-.556,0-.556-.278a.532.532,0,0,1,.278-.833l12.5-7.222a.621.621,0,1,1,.555,1.111l-12.5,7.222Zm88.886-7.5h-.278L418.16,94.6c-.278-.278-.556-.556-.278-.833s.556-.556.833-.278l12.777,6.944c.278.278.556.556.278.833C431.771,101.54,431.493,101.54,431.215,101.54Zm-63.609-7.222c-.278,0-.556,0-.556-.278a.532.532,0,0,1,.278-.833l12.5-7.222a.621.621,0,1,1,.556,1.111l-12.5,7.222Zm38.054-6.389h-.278l-12.777-6.944c-.278-.278-.556-.556-.278-.833s.556-.556.833-.278l12.777,6.944c.278.278.556.556.278.833C405.938,87.651,405.938,87.929,405.66,87.929Z" transform="translate(-82.81 -64.597)" fill="#fff"/><g transform="translate(502.844 221.381)"><path d="M466.721,163.166l3.889-6.944L466.721,154,429.5,175.388v42.5l4.167,2.5,3.889-6.944,29.166-16.666Z" transform="translate(-429.5 -154)" fill="url(#p)"/><path d="M467.943,197.576,431,218.964V176.188L467.943,154.8Z" transform="translate(-426.833 -152.578)" fill="url(#q)"/><path d="M467.943,197.576,431,218.964V176.188L467.943,154.8Z" transform="translate(-426.833 -152.578)" fill="url(#r)"/></g><g transform="translate(0 371.238)"><g transform="translate(0.083 115.274)" opacity="0.3"><path d="M445.716,289.966V273.022l-4.722-2.778c-1.389,8.055-10.833,13.333-18.888,14.444l-54.443,31.666-23.61,8.611L268.222,285.8l1.667-1.111c-6.389-3.055-10-10-13.333-16.388l-5,3.055-3.055.833v17.5h0c0,3.333,2.222,6.666,6.666,9.166L331,342.742c8.889,5,23.332,5,32.221,0l75.831-43.887c4.444-2.5,6.667-5.833,6.667-9.166,0,.833,0,.556,0,.278Z" transform="translate(-248.5 -215.941)" fill="url(#s)"/><path d="M359,283.266l-54.443,31.666L284,322.432v23.333a33.7,33.7,0,0,0,16.111-3.889l75.831-43.887c4.444-2.5,6.666-5.833,6.666-9.166v-.555h0V271.6l-4.444-2.5h-.556C376.219,277.155,366.775,282.433,359,283.266Z" transform="translate(-185.392 -214.518)" fill="#0f054c" opacity="0.3"/><g transform="translate(0)"><path d="M331,359.585,255.166,315.7c-8.889-5-8.889-13.611,0-18.611L331,253.2c8.889-5,23.332-5,32.221,0l75.831,43.887c8.889,5,8.889,13.611,0,18.611l-75.831,43.887C354.33,364.585,339.886,364.585,331,359.585Z" transform="translate(-248.5 -249.45)" fill="url(#t)"/></g><g transform="translate(0)" opacity="0.3"><path d="M331,359.585,255.166,315.7c-8.889-5-8.889-13.611,0-18.611L331,253.2c8.889-5,23.332-5,32.221,0l75.831,43.887c8.889,5,8.889,13.611,0,18.611l-75.831,43.887C354.33,364.585,339.886,364.585,331,359.585Z" transform="translate(-248.5 -249.45)" fill="#0f054c"/></g></g><path d="M345.686,340.663a30.755,30.755,0,0,1-14.444-3.333l-75.831-43.887c-3.889-2.222-6.111-5.278-6.111-8.611s2.222-6.389,6.111-8.611l75.831-43.887c7.777-4.444,20.833-4.444,28.61,0l75.831,43.887c3.889,2.222,6.111,5.278,6.111,8.611s-2.222,6.389-6.111,8.611L359.852,337.33A29.631,29.631,0,0,1,345.686,340.663ZM331.8,335.941c7.5,4.444,19.722,4.444,27.221,0l75.831-43.887c3.611-1.944,5.555-4.722,5.555-7.5s-1.944-5.555-5.555-7.5l-75.831-43.887c-7.5-4.444-19.722-4.444-27.221,0l-75.831,43.887c-3.611,1.944-5.555,4.722-5.555,7.5s1.944,5.555,5.555,7.5Z" transform="translate(-246.995 -170.53)" fill="#42e8e0"/><path d="M445.716,262.732v-26.11l-4.722-2.778c-1.389,8.055-10.833,13.333-18.888,14.444l-54.443,31.666-23.61,8.611L268.222,249.4l1.667-1.111c-6.389-3.055-10-10-13.333-16.388l-5,3.055-3.055.833v26.388h0c0,3.333,2.222,6.666,6.666,9.166L331,315.231c8.889,5,23.332,5,32.221,0l75.831-43.887c4.444-2.5,6.667-5.833,6.667-9.166,0,.833,0,.833,0,.555Z" transform="translate(-248.417 -165.374)" fill="#42e8e0" opacity="0.4"/><path d="M445.716,248.744V231.522l-4.722-2.778c-1.389,8.055-10.833,13.333-18.888,14.444l-54.443,31.666-23.61,8.611L268.222,244.3l1.667-1.111c-6.389-3.055-10-10-13.333-16.388l-5,3.056-3.055.833v17.5h0c0,3.333,2.222,6.666,6.666,9.166L331,301.242c8.889,5,23.332,5,32.221,0l75.831-43.887c4.444-2.5,6.667-5.833,6.667-9.166,0,.833,0,.833,0,.555Z" transform="translate(-248.417 -174.441)" fill="url(#u)"/><path d="M359,242.222l-54.443,31.666L284,281.387V304.72a33.7,33.7,0,0,0,16.111-3.889l75.831-43.887c4.444-2.5,6.666-5.833,6.666-9.166v-.555h0V230l-4.444-2.5h-.556C376.219,235.833,366.775,241.111,359,242.222Z" transform="translate(-185.309 -173.196)" fill="#0f054c" opacity="0.3"/><path d="M359,242.222l-54.443,31.666L284,281.387V304.72a33.7,33.7,0,0,0,16.111-3.889l75.831-43.887c4.444-2.5,6.666-5.833,6.666-9.166v-.555h0V230l-4.444-2.5h-.556C376.219,235.833,366.775,241.111,359,242.222Z" transform="translate(-185.309 -173.196)" fill="url(#v)"/><g transform="translate(0.083)"><path d="M331,318.085,255.166,274.2c-8.889-5-8.889-13.611,0-18.61L331,211.7c8.889-5,23.332-5,32.221,0l75.831,43.887c8.889,5,8.889,13.611,0,18.61l-75.831,43.888C354.33,323.363,339.886,323.363,331,318.085Z" transform="translate(-248.5 -207.95)" fill="url(#w)"/></g><g transform="translate(20.916 12.013)"><path d="M333.775,302.619a28.286,28.286,0,0,1-13.055-3.055l-59.165-34.443c-3.611-1.944-5.555-4.722-5.555-7.778s1.944-5.833,5.555-7.778L320.72,215.4c7.222-4.167,18.61-4.167,25.832,0l59.165,34.166c3.611,1.944,5.555,4.722,5.555,7.778s-1.944,5.833-5.555,7.778l-59.165,34.165A25.061,25.061,0,0,1,333.775,302.619Zm0-89.164a24.913,24.913,0,0,0-12.222,3.055l-59.165,34.166c-3.055,1.944-5,4.167-5,6.666s1.667,5,5,6.666l59.165,34.166c6.667,3.889,17.777,3.889,24.444,0l59.165-34.166c3.055-1.944,5-4.167,5-6.666s-1.667-5-5-6.666L346,216.511A25.713,25.713,0,0,0,333.775,213.456Z" transform="translate(-256 -212.275)" fill="#5351af"/></g><g transform="translate(0 58.192)"><path d="M439.1,237.233,363.272,281.12c-8.889,5-23.332,5-32.221,0L255.22,237.233c-3.889-2.222-6.111-5.278-6.666-8.333-.556,3.611,1.667,7.5,6.666,10.277l75.831,43.887c8.889,5,23.333,5,32.221,0L439.1,239.177c5-2.778,7.222-6.666,6.666-10.277Q444.936,233.483,439.1,237.233Z" transform="translate(-248.47 -228.9)" fill="#fff"/></g></g><g transform="translate(629.146 228.187)"><g transform="translate(0.083 114.996)" opacity="0.3"><path d="M672.216,238.644V221.422l-4.722-2.778c-1.389,8.055-10.833,13.333-18.888,14.444l-54.443,31.666-23.61,8.611L494.721,234.2l1.667-1.111c-6.389-3.055-10-10-13.333-16.388l-5,3.055-3.055.833v17.5h0c0,3.333,2.222,6.666,6.667,9.166L557.5,291.142c8.889,5,23.333,5,32.221,0l75.831-43.887c4.444-2.5,6.667-5.833,6.667-9.166,0,.833,0,.833,0,.556Z" transform="translate(-475 -164.341)" fill="url(#x)"/><path d="M585.5,232.122l-54.442,31.666-20.555,7.5V294.62a33.7,33.7,0,0,0,16.111-3.889l75.831-43.887c4.444-2.5,6.667-5.833,6.667-9.166v-.556h0V219.9l-4.444-2.5h-.556C602.719,225.733,593.275,231.011,585.5,232.122Z" transform="translate(-411.892 -163.096)" fill="#0f054c" opacity="0.3"/><path d="M557.5,307.985,481.666,264.1c-8.889-5-8.889-13.611,0-18.611L557.5,201.6c8.889-5,23.333-5,32.221,0l75.831,43.887c8.889,5,8.889,13.611,0,18.611l-75.831,43.887C580.83,313.263,566.386,313.263,557.5,307.985Z" transform="translate(-475 -197.85)" fill="url(#y)"/><g opacity="0.3"><path d="M557.5,307.985,481.666,264.1c-8.889-5-8.889-13.611,0-18.611L557.5,201.6c8.889-5,23.333-5,32.221,0l75.831,43.887c8.889,5,8.889,13.611,0,18.611l-75.831,43.887C580.83,313.263,566.386,313.263,557.5,307.985Z" transform="translate(-475 -197.85)" fill="#0f054c"/></g></g><path d="M572.186,289.163a30.757,30.757,0,0,1-14.444-3.333l-75.831-43.887c-3.889-2.222-6.111-5.278-6.111-8.611s2.222-6.389,6.111-8.611l75.831-43.887c7.777-4.444,20.833-4.444,28.61,0l75.831,43.887c3.889,2.222,6.111,5.278,6.111,8.611s-2.222,6.389-6.111,8.611L586.352,285.83A33.247,33.247,0,0,1,572.186,289.163Zm0-110.552c-5,0-10,1.111-13.611,3.333l-75.831,43.887c-3.611,1.944-5.555,4.722-5.555,7.5s1.944,5.555,5.555,7.5l75.831,43.887c7.5,4.444,19.722,4.444,27.221,0l75.831-43.887c3.611-1.944,5.555-4.722,5.555-7.5s-1.944-5.555-5.555-7.5L585.8,181.944A28.211,28.211,0,0,0,572.186,178.611Z" transform="translate(-473.495 -119.03)" fill="#42e8e0"/><path d="M672.216,211.232v-26.11l-4.722-2.778c-1.389,8.055-10.833,13.333-18.888,14.444l-54.443,31.666-23.61,8.611L494.721,197.9l1.667-1.111c-6.389-3.056-10-10-13.333-16.388l-5,3.055-3.055.833v26.388h0c0,3.333,2.222,6.666,6.667,9.166L557.5,263.731c8.889,5,23.333,5,32.221,0l75.831-43.887c4.444-2.5,6.667-5.833,6.667-9.166,0,.833,0,.556,0,.556Z" transform="translate(-474.917 -113.874)" fill="#42e8e0" opacity="0.4"/><path d="M672.216,197.244V180.022l-4.722-2.778c-1.389,8.055-10.833,13.333-18.888,14.444l-54.443,31.666-23.61,8.611L494.721,192.8l1.667-1.111c-6.389-3.055-10-10-13.333-16.388l-5,3.055-3.055.833v17.5h0c0,3.333,2.222,6.666,6.667,9.166L557.5,249.742c8.889,5,23.333,5,32.221,0l75.831-43.887c4.444-2.5,6.667-5.833,6.667-9.166,0,.833,0,.555,0,.555Z" transform="translate(-474.917 -122.941)" fill="url(#z)"/><path d="M672.216,197.244V180.022l-4.722-2.778c-1.389,8.055-10.833,13.333-18.888,14.444l-54.443,31.666-23.61,8.611L494.721,192.8l1.667-1.111c-6.389-3.055-10-10-13.333-16.388l-5,3.055-3.055.833v17.5h0c0,3.333,2.222,6.666,6.667,9.166L557.5,249.742c8.889,5,23.333,5,32.221,0l75.831-43.887c4.444-2.5,6.667-5.833,6.667-9.166,0,.833,0,.555,0,.555Z" transform="translate(-474.917 -122.941)" fill="url(#aa)"/><path d="M585.5,190.544,531.055,222.21l-20.555,7.5v23.333a33.7,33.7,0,0,0,16.111-3.889l75.831-43.887c4.444-2.5,6.667-5.833,6.667-9.166v-.556h0V178.6l-4.444-2.5h-.556C602.719,184.155,593.275,189.433,585.5,190.544Z" transform="translate(-411.809 -121.518)" fill="#0f054c" opacity="0.3"/><g transform="translate(0.083)"><path d="M557.5,266.585,481.666,222.7c-8.889-5-8.889-13.611,0-18.611L557.5,160.2c8.889-5,23.333-5,32.221,0l75.831,43.887c8.889,5,8.889,13.611,0,18.611l-75.831,43.887C580.83,271.863,566.386,271.863,557.5,266.585Z" transform="translate(-475 -156.45)" fill="url(#ab)"/></g><g transform="translate(20.916 12.013)"><path d="M560.275,250.841a28.286,28.286,0,0,1-13.055-3.055L488.055,213.62c-3.611-1.944-5.555-4.722-5.555-7.778s1.944-5.833,5.555-7.778L547.22,163.9c7.222-4.167,18.611-4.167,25.832,0l59.165,34.165c3.611,1.944,5.555,4.722,5.555,7.778s-1.944,5.833-5.555,7.778l-59.165,34.166C569.442,250.008,565,250.841,560.275,250.841Zm-12.222-4.167c6.666,3.889,17.777,3.889,24.444,0l59.165-34.166c3.055-1.944,5-4.167,5-6.666s-1.667-5-5-6.666L572.5,165.011c-6.667-3.889-17.777-3.889-24.444,0l-59.165,34.166c-3.055,1.944-5,4.167-5,6.666s1.667,5,5,6.666Z" transform="translate(-482.5 -160.775)" fill="#5351af"/></g><g transform="translate(0 57.915)"><path d="M665.6,185.633,589.772,229.52c-8.889,5-23.333,5-32.221,0L481.72,185.633c-3.889-2.222-6.111-5.278-6.667-8.333-.555,3.611,1.667,7.5,6.667,10.277l75.831,43.887c8.889,5,23.333,5,32.221,0L665.6,187.577c5-2.778,7.222-6.666,6.666-10.277C671.713,180.355,669.491,183.411,665.6,185.633Z" transform="translate(-474.97 -177.3)" fill="#fff"/></g></g></g></g></g></svg>