<svg xmlns="http://www.w3.org/2000/svg" width="51.486" height="51.486" viewBox="0 0 51.486 51.486">
  <defs>
    <style>
      .cls-1 {
        fill: #fff;
      }
    </style>
  </defs>
  <g id="Group_1906" data-name="Group 1906" transform="translate(-1645.299 -8007.007)">
    <path id="Subtraction_1" data-name="Subtraction 1" class="cls-1" d="M25.743,51.486A25.743,25.743,0,1,1,51.486,25.743,25.772,25.772,0,0,1,25.743,51.486ZM10.655,35.456c-.021,0-.034,0-.038.014-.012.03.058.1.132.174a3.887,3.887,0,0,1,.519.33,3.906,3.906,0,0,0,.518.33,16.774,16.774,0,0,0,3.395,1.32,19.992,19.992,0,0,0,5.332.728,17.2,17.2,0,0,0,12.3-4.877c4.052-4.053,4.9-9.57,4.9-13.485,0-.189.192-.285.378-.377a9.722,9.722,0,0,0,2.357-2.452.613.613,0,0,0,.189-.472c0-.251,0-.335-.028-.335s-.035.021-.066.052a11.089,11.089,0,0,1-3.012.848H37.53c.5-.1,1.275-1.009,1.509-1.32a4.9,4.9,0,0,0,1.037-1.792v-.188h-.188A16.764,16.764,0,0,1,36.3,15.371h0a.345.345,0,0,1-.279-.094l-.283-.283a5.435,5.435,0,0,0-1.7-1.037,6.44,6.44,0,0,0-2.64-.472,6.748,6.748,0,0,0-4.621,2.452,6.06,6.06,0,0,0-1.226,2.452,7.688,7.688,0,0,0-.094,2.546c0,.188,0,.188-.095.188-5.38-.827-9.3-2.835-12.353-6.318-.094-.094-.142-.141-.189-.141s-.094.047-.188.141c-1.349,2.067-.864,5.549,1.037,7.45a2.552,2.552,0,0,1,.378.331,2.556,2.556,0,0,0,.376.329h-.005a6.227,6.227,0,0,1-2.352-.661.3.3,0,0,0-.122-.039.056.056,0,0,0-.058.042.313.313,0,0,0-.008.091V23.1A6.55,6.55,0,0,0,15.748,28.2l.006,0a6.417,6.417,0,0,1,.749.281l-.01,0a5.95,5.95,0,0,1-1.324.13c-.295,0-.63-.013-1.024-.039-.111,0-.2.034-.22.087a.092.092,0,0,0,.031.1,6.635,6.635,0,0,0,4.9,4.149,1.611,1.611,0,0,1,.66.094c-.582.872-2.568,1.544-3.395,1.792a12.244,12.244,0,0,1-4.019.718,9.743,9.743,0,0,1-1.073-.058Z" transform="translate(1645.299 8007.007)"/>
  </g>
</svg>
