<svg xmlns="http://www.w3.org/2000/svg" width="51.486" height="51.486" viewBox="0 0 51.486 51.486">
  <defs>
    <style>
      .cls-1 {
        fill: #fff;
      }
    </style>
  </defs>
  <g id="Group_1904" data-name="Group 1904" transform="translate(-1497.723 -8006.536)">
    <path id="Subtraction_4" data-name="Subtraction 4" class="cls-1" d="M25.743,51.486a25.662,25.662,0,1,1,10.029-2.02A25.772,25.772,0,0,1,25.743,51.486ZM26.969,9.053A15.577,15.577,0,0,0,11.41,24.612,15.274,15.274,0,0,0,13.862,33L11.5,38.191a1.327,1.327,0,0,0,1.226,1.886.571.571,0,0,0,.377-.094l6.507-1.792A15.51,15.51,0,1,0,26.969,9.053Zm0,28.289a11.711,11.711,0,0,1-6.413-1.792,1.745,1.745,0,0,0-.66-.188.571.571,0,0,0-.377.094l-4.244,1.132,1.509-3.3a1.3,1.3,0,0,0-.094-1.32,12.618,12.618,0,0,1-2.452-7.45,12.761,12.761,0,1,1,12.73,12.825ZM22.11,17.527a2.06,2.06,0,0,0-1.271.484,4.039,4.039,0,0,0-1.415,3.111,3.83,3.83,0,0,0,.095,1.038,8.651,8.651,0,0,0,.943,2.169,8.586,8.586,0,0,0,1.034,1.5l0,0a16,16,0,0,0,4.338,4.054,14.691,14.691,0,0,0,2.727,1.317l.008,0,.14.051a6.346,6.346,0,0,0,2.172.519,3.239,3.239,0,0,0,.8-.1,3.518,3.518,0,0,0,2.829-2.169,2.327,2.327,0,0,0,.095-1.131c0-.575-.79-1.009-1.426-1.358-.1-.053-.187-.1-.272-.151a3.65,3.65,0,0,0-1.662-.61,1.333,1.333,0,0,0-.6.139,3,3,0,0,0-.969,1.093c-.121.188-.236.366-.351.51a.508.508,0,0,1-.448.245.97.97,0,0,1-.306-.056,10.367,10.367,0,0,1-5.093-4.338.605.605,0,0,1,.095-.849c.064-.08.133-.162.2-.242a2.886,2.886,0,0,0,.744-1.267,3.332,3.332,0,0,0-.287-1.53c-.031-.089-.062-.177-.09-.262l-.039-.093a3.906,3.906,0,0,0-1.281-1.888A1.27,1.27,0,0,0,22.11,17.527Z" transform="translate(1497.723 8006.536)"/>
  </g>
</svg>
