<svg xmlns="http://www.w3.org/2000/svg" xmlns:xlink="http://www.w3.org/1999/xlink" width="302.501" height="133.567" viewBox="0 0 302.501 133.567"><defs><linearGradient id="a" x1="73.946" y1="0.5" x2="72.946" y2="0.5" gradientUnits="objectBoundingBox"><stop offset="0" stop-color="#3076a1"/><stop offset="1" stop-color="#639c38"/></linearGradient><linearGradient id="b" x1="39.827" y1="0.5" x2="38.827" y2="0.5" xlink:href="#a"/><linearGradient id="c" x1="52.895" y1="0.5" x2="51.893" y2="0.5" xlink:href="#a"/><linearGradient id="d" x1="36.78" y1="0.5" x2="35.78" y2="0.5" xlink:href="#a"/><linearGradient id="e" x1="45.935" y1="0.5" x2="44.934" y2="0.5" xlink:href="#a"/><linearGradient id="f" x1="1.144" y1="0.5" x2="0.145" y2="0.5" gradientUnits="objectBoundingBox"><stop offset="0" stop-color="#ff9340"/><stop offset="1" stop-color="#45b5ff"/></linearGradient><linearGradient id="g" x1="1.144" y1="0.5" x2="0.329" y2="0.5" gradientUnits="objectBoundingBox"><stop offset="0" stop-color="#4032c9"/><stop offset="1" stop-color="#45fff9"/></linearGradient></defs><g transform="translate(-0.49 -205.159)"><g transform="translate(0.49 205.159)"><path d="M0,305.072a48.4,48.4,0,0,0,30.2,9.754c35.994,0,59.947-39.767,111.022-39.767,44.738,0,56.525,26.46,59.757,30.862s15.779,32.218,24.334,38.269,38.883,22.211,52.279,44c3.435,5.586,6.464,15.684,6.464,20.44H0Z" transform="translate(0 -275.06)" fill="#9deeff"/><g transform="translate(111.76 3.324)"><ellipse cx="48.125" cy="3.94" rx="48.125" ry="3.94" transform="translate(39.942 113.196)" fill="#9392c9"/><g transform="translate(0 0)"><path d="M864.2,358.9l11.233,47.5h2.4L865.352,353Z" transform="translate(-856.261 -293.264)" fill="#695c54"/><path d="M910.524,127.349l-11.8,98.312H896.2l12.1-99.16Z" transform="translate(-895.413 -112.525)" fill="#807066"/><rect width="3.839" height="1.818" transform="translate(0.161 112.509)" fill="#695c54"/><rect width="3.839" height="1.818" transform="translate(18.364 112.509)" fill="#695c54"/><rect width="27.618" height="15.779" transform="translate(27.417 20.477) rotate(-173.079)" fill="#c6d7d9"/><rect width="27.618" height="1.515" transform="translate(29.325 4.832) rotate(-173.079)" fill="#cfc6be"/></g><g transform="translate(146.623 35.901)"><g transform="translate(9.551 14.623)"><path d="M145.132,357.546c-3.091-2.182-6.708-17.335-6.93-26.386a12.7,12.7,0,0,0-2.687-8.263,7.029,7.029,0,0,1-1.576-6.263c1.111-6.162-1.8-8.829-1.839-8.849l.343-.384c.121.121,3.172,2.849,2,9.314a6.464,6.464,0,0,0,1.475,5.859,13.34,13.34,0,0,1,2.788,8.546c.222,9.7,3.94,24.022,6.708,25.962Z" transform="translate(-132.1 -307.4)" fill="url(#a)"/></g><g transform="translate(19.918 35.507)"><path d="M36.058,435.606c.283-.667.586-1.354.929-2.061,1.778-3.738,3.354-4.344,5.94-5.374.626-.242,1.354-.525,2.142-.889,3.718-1.677,2.99-4.142,2.364-6.3-.081-.3-.182-.606-.263-.909-.323-1.273.3-1.919,1.253-2.889a11.118,11.118,0,0,0,2.263-3.031c.748-1.556.364-2.384-.081-2.808-.95-.889-3.111-.727-5.172.384a6.882,6.882,0,0,0-1.717,1.475,8.5,8.5,0,0,1-7.051,3.091c-2.344.02-3.637.343-4.3,1.091-.748.849-.606,2.121-.424,3.879.061.606.141,1.293.2,2.041a12.041,12.041,0,0,1-2.364,7.7c-1.576,1.859-3.5,5.738-2.667,8.122A2.873,2.873,0,0,0,29.431,441a6.335,6.335,0,0,0,1.313.141C33.613,441.162,34.664,438.758,36.058,435.606Zm9.637-23.416c1.839-1.01,3.8-1.212,4.566-.465.586.566.3,1.515-.02,2.222a10.53,10.53,0,0,1-2.162,2.889c-.99,1.01-1.778,1.818-1.374,3.374.081.3.162.606.263.929.626,2.162,1.232,4.2-2.081,5.7-.768.343-1.5.626-2.121.869-2.626,1.03-4.344,1.7-6.2,5.617-.343.727-.647,1.414-.95,2.081-1.6,3.637-2.566,5.819-6.061,5.112a2.368,2.368,0,0,1-1.94-1.535c-.727-2.1,1.03-5.778,2.586-7.637a12.144,12.144,0,0,0,2.485-8.041c-.04-.768-.121-1.455-.2-2.061-.182-1.637-.323-2.808.283-3.475.546-.626,1.758-.909,3.92-.909A8.937,8.937,0,0,0,44.1,413.6a6,6,0,0,1,1.6-1.414Z" transform="translate(-26.908 -410.769)" fill="url(#b)"/></g><g transform="translate(21.997 39.594)"><path d="M47.105,460.255l-.505-.02c.02-.485.667-11.8,5.213-15.112a18.175,18.175,0,0,0,7.314-10.163c.869-3.091,5.354-3.92,5.536-3.96l.081.505c-.04,0-4.364.808-5.152,3.576a18.649,18.649,0,0,1-7.5,10.425C47.752,448.7,47.105,460.134,47.105,460.255Z" transform="translate(-46.6 -431)" fill="url(#c)"/></g><path d="M133.561,306.42c1.071-.525,1.03-2.667.97-5.92-.081-4.1-.182-9.7,1.96-14.87,2.283-5.475.242-7.092-1.717-8.627-2.2-1.738-4.283-3.374-.283-10.769,1.839-3.394,2.4-5.7,1.839-7.233-.586-1.515-2.2-2.1-3.9-2.728-2.95-1.091-6.3-2.3-5.879-8.566.141-1.919-.1-3.091-.707-3.717-.667-.667-1.657-.586-2.808-.505-1.717.121-3.677.263-5.394-1.96-.182-.546-1.8-5.516-3.758-6.364a1.37,1.37,0,0,0-1.192,0h0a4,4,0,0,0-2.384,2.323c-.444,1.616.727,3.435,2.1,5.536,2.142,3.313,4.586,7.051,2.061,11.516-3.334,5.9-1.576,7.96.869,10.829a19.155,19.155,0,0,1,4.041,6.526c.849,2.424-.606,4.748-2,6.99-1.758,2.808-3.6,5.718.242,8.243,6.344,4.182,12.607,17.8,12.668,17.941l.02.061.04.04a5.068,5.068,0,0,0,2.667,1.354A.915.915,0,0,0,133.561,306.42Zm-15.658-19.7c-3.414-2.243-1.879-4.707-.1-7.556,1.394-2.243,2.99-4.768,2.061-7.435a19.7,19.7,0,0,0-4.142-6.687c-2.384-2.808-3.98-4.647-.808-10.243,2.687-4.728.04-8.789-2.081-12.041-1.293-2-2.424-3.738-2.02-5.112a3.515,3.515,0,0,1,2.121-2h0a.855.855,0,0,1,.768,0c1.8.788,3.475,6.041,3.475,6.081l.02.04.02.04c1.879,2.485,4.081,2.323,5.859,2.182,1.051-.081,1.9-.141,2.4.364.505.485.687,1.576.566,3.313-.465,6.647,3.233,7.981,6.2,9.072,1.677.606,3.111,1.131,3.6,2.445.525,1.394-.04,3.556-1.8,6.809-4.2,7.778-1.839,9.617.424,11.415,1.9,1.5,3.7,2.909,1.556,8.041-2.182,5.253-2.081,10.93-2,15.072.061,2.829.1,5.051-.687,5.455-.465.222-1.333-.162-2.586-1.131C130.227,303.713,124.227,290.884,117.9,286.722Z" transform="translate(-110.21 -235.025)" fill="url(#d)"/><path d="M79.217,293.785c-3.233-1.111-2.566,5.112-3.92,9.718-1.374,4.606-15.193,2-9.375,13.537,5.8,11.536-7.334,3.859-3.414,13.92s.343,20.85,4.606,18.123c4.263-2.748,2.4-15.416,6.829-16.911,4.445-1.515,5.152-3.253.768-7.354s11.516-8.162,7.576-16.426C78.368,300.108,82.954,295.078,79.217,293.785Z" transform="translate(-45.845 -281.809)" fill="url(#e)"/><g transform="translate(20.734 26.22)"><path d="M92.61,405.188c-.4-1.717-3.879-16.89-.647-18.729,2.849-1.616,2.788-7.9,2.344-13.84-.4-5.253,6.344-7.718,6.647-7.819l.162.485c-.061.02-6.667,2.424-6.3,7.294.465,6.1.505,12.567-2.586,14.324-2.465,1.394-.2,13.577.889,18.163Z" transform="translate(-90.6 -364.8)" fill="#fff"/></g><path d="M96.3,538l4.606,17.5h10.3l4.627-17.5Z" transform="translate(-85.739 -476.788)" fill="url(#f)"/><path d="M96.3,538s10.163,1.9,10.163,17.5h4.768l4.606-17.5Z" transform="translate(-85.739 -476.788)" fill="url(#g)"/></g><rect width="112.798" height="2.768" transform="translate(30.87 97.8)" fill="#66658c"/><path d="M263.364,251.2c79.239,0,69.4,22.931,69.4,22.931l-13.031,28.912H207l-13.031-28.912S184.1,251.2,263.364,251.2Z" transform="translate(-176.085 -212.031)" fill="#4038b3"/><path d="M245.311,555.1l3.576,14.042h-1.535L242.2,555.1Z" transform="translate(-101.643 -454.532)" fill="#66658c"/><path d="M806.276,555.1,802.7,569.142h1.556l5.152-14.042Z" transform="translate(-775.406 -454.532)" fill="#66658c"/><rect width="116.778" height="6.647" transform="translate(28.89 81.96)" fill="#180887"/><path d="M162.158,381.03,141.55,348.2a6.219,6.219,0,0,1,1.96-8.566h0a6.088,6.088,0,0,1,8.385,1.919l17.072,27.194H273.339l17.072-27.194a6.083,6.083,0,0,1,8.385-1.919h0a6.215,6.215,0,0,1,1.96,8.566L280.148,381.03H162.158Z" transform="translate(-133.934 -281.856)" fill="#56c1f0"/><g transform="translate(34.97 20.944)"><path d="M457.64,428.548a8.4,8.4,0,0,0,1.051-2.162,2.413,2.413,0,0,1,.606-1.253s3.414-.505,4.728-1.717,4.081-4.526,5.394-3.536-.95,5.172-2.283,6.445-3.152,3.475-4.788,3.313C460.671,429.458,458.428,428.67,457.64,428.548Z" transform="translate(-401.068 -367.431)" fill="#decdc5"/><path d="M554.693,403.867l1.636-3.212s-7.88-1.434-10.183-2.829c-.586-.343-1.152-.707-1.677-1.03-1.212-.748-2.222-1.394-2.586-1.7-1.131-.97-5.7-4.2-6.93-5.394s-2.687-.465-4.606-.445-8.869,1.94-10.95,2.222-9.6,1.677-9.6,1.677C511.113,396.775,554.693,403.867,554.693,403.867Z" transform="translate(-498.121 -342.952)" fill="#25354d"/><path d="M486.436,408.9s4.243.606,5.334.687c1.111.081,7.435.586,10.466.889,3.051.283,9.031.121,10.2.647,1.192.525,8.041,2.849,10.284,3.576s16.83,3.394,16.83,3.394a4.956,4.956,0,0,1-1.051,3.5,58.581,58.581,0,0,0-9.819-.081,27.534,27.534,0,0,1-12.91-1.9c-3.6-1.636-9.294-.141-12.486.97s-15.375,2.02-16.89,1.677a15.092,15.092,0,0,1-6.748-4.2C477.486,415.668,486.436,408.9,486.436,408.9Z" transform="translate(-475.201 -358.814)" fill="#2f4563"/><path d="M434.831,426.79a8.112,8.112,0,0,0,.485-2.364,1.964,1.964,0,0,1,.2-1.192s3.273-1.475,4.243-2.97,2.869-5.394,4.384-4.748.323,5.253-.667,6.809-1.616,5.677-3.253,5.92C438.609,428.488,435.639,426.73,434.831,426.79Z" transform="translate(-371.511 -364.037)" fill="#f5e1da"/><path d="M683.2,395.5s-5.354,12.163,2.95,15.113c6.627,2.344,18.87.182,18.87.182l-7.516-11.86Z" transform="translate(-681.5 -348.121)" fill="#2f4563"/><path d="M727.66,162.472c-2.041.444-.828,5.576-2.182,12.728-1.374,7.152-5.677,8.284-5.677,8.284a12.872,12.872,0,0,0,1.717-6.506c-.162-2.586-3.313-9.678-.2-14.3,2.4-3.576,6.627-.323,6.627-.323Z" transform="translate(-712.162 -160.996)" fill="#323657"/><path d="M710.7,227.817l3.96,4.081a9.017,9.017,0,0,1,.586-2.424c.141-.364.283-.707.384-.97.142-.343.263-.566.263-.566l-3.536-3.738Z" transform="translate(-698.274 -211.43)" fill="#eea886"/><path d="M710.453,242.925a10.135,10.135,0,0,0,1.212,3.778c1.071,1.818,2.829,4.809,2.586,6.768a4.793,4.793,0,0,1-1.839,3.374c-.748.707-2.808,5.778-3.071,7.738a38.5,38.5,0,0,0,.061,9.011s-13.92,1.616-15.314-.808c0,0,1.717-7.819,2.546-9.779.808-1.96,2.525-13.678,3.253-15.678s2.465-3.92,3.515-5.293c.95-1.232,2.667-3.536,2.667-3.536Z" transform="translate(-693.298 -222.841)" fill="#55e6c8"/><path d="M682.247,170.288a6.224,6.224,0,0,1,5.839,6.425,16.389,16.389,0,0,1-.727,2.283c-.445.99.141,4.122-.121,4.243a6.881,6.881,0,0,1-1.273.2s-1.455,3.172-2.606,3.01a9.687,9.687,0,0,1-7.031-5.92C674.732,176.168,674.833,169.783,682.247,170.288Z" transform="translate(-663.356 -168.389)" fill="#eea886"/><path d="M687.907,173.412a16.4,16.4,0,0,1-6.182,1.738c-2.99.061-5.435,4.869-5.435,4.869s-3.616-8.122.525-12.244C680.937,163.674,689.2,167.836,687.907,173.412Z" transform="translate(-663.177 -165.088)" fill="#323657"/><path d="M711.556,206.514a.917.917,0,0,0-1.515-.828c-1.03.667-.081,3.515.707,3.354C711.556,208.858,711.516,207.1,711.556,206.514Z" transform="translate(-693.715 -196.472)" fill="#eea886"/><path d="M711.9,234.3a17.462,17.462,0,0,0,2.445,3.233c.141-.364.283-.707.384-.97A11.635,11.635,0,0,1,711.9,234.3Z" transform="translate(-697.352 -219.49)" fill="#a77860"/><rect width="19.779" height="1.717" transform="matrix(0.983, 0.186, -0.186, 0.983, 25.042, 49.35)" fill="#fff"/><rect width="19.779" height="1.717" transform="translate(42.759 53.742) rotate(-55.561)" fill="#fff"/><path d="M607.839,402.678c.1-.424,0-1.152-1.354-1.879s-4.3-2.384-5.334-2.424-3.071.121-3.5.121.646,2.465.646,2.465Z" transform="translate(-567.39 -350.41)" fill="#eea886"/><path d="M655.1,295.013s-5.677-2.222-6.586-2.687c-.929-.444-5.213-1.879-5.6-2.081-.384-.182-2.182-10.91-2.344-13.617s-.323-8.425-3.374-8.162-3.778,2.263-3.394,6.2,2.626,18.042,3.6,18.507c.95.485,11.88,2.93,17.658,4.081C660.578,298.347,655.1,295.013,655.1,295.013Z" transform="translate(-624.352 -246.746)" fill="#eea886"/><path d="M723.644,275.2s-4.384.828-6.93,1.071c0,0-3.152-8.97,1.131-10.4C722.937,264.168,724.068,271.119,723.644,275.2Z" transform="translate(-707.096 -244.469)" fill="#e65555"/></g><path d="M282.4,361.9a6.961,6.961,0,0,0,.929.242l13.5,2.162a5.219,5.219,0,0,0,5.96-4.3l2.647-16.446a5.2,5.2,0,0,0-4.3-5.96l-1.919-.3-11.577-1.859a5.2,5.2,0,0,0-5.96,4.3l-2.647,16.446A5.211,5.211,0,0,0,282.4,361.9Z" transform="translate(-165.684 -279.187)" fill="#f4eae1"/><path d="M278.96,369.508a6.97,6.97,0,0,0,.929.242l13.5,2.162a5.219,5.219,0,0,0,5.96-4.3l2.647-16.446a5.2,5.2,0,0,0-4.3-5.96l-1.919-.3h0S295.1,367.225,278.96,369.508Z" transform="translate(-162.243 -286.8)" fill="#e6dcd4"/></g></g></g></svg>