<svg xmlns="http://www.w3.org/2000/svg" width="844.9" height="765.022" viewBox="0 0 844.9 765.022"><g transform="translate(-838.1 -2102.242)"><g transform="translate(838.1 2102.242)"><path d="M720.076,1196.333a19.431,19.431,0,0,0-18.729-15.545,18.79,18.79,0,0,0-4.869.656,28.241,28.241,0,0,0-25.612-17,27.844,27.844,0,0,0-8.428,1.311,34.514,34.514,0,0,0-29.826-17.558c-15.077,0-27.906,9.973-32.775,23.926a22.943,22.943,0,0,0-11.612-3.137c-13.2,0-23.926,11.144-23.926,24.909,0,.8.047,1.639.094,2.435Z" transform="translate(-435.54 -949.16)" fill="#fff" opacity="0.5"/><path d="M1473.118,593.466a9.7,9.7,0,0,0-9.364-7.772,8.486,8.486,0,0,0-2.435.328,13.876,13.876,0,0,0-17-7.819,17.29,17.29,0,0,0-14.889-8.8,17.474,17.474,0,0,0-16.388,11.94,11.73,11.73,0,0,0-5.806-1.592A12.2,12.2,0,0,0,1395.3,592.2a10.626,10.626,0,0,0,.047,1.217h77.771Z" transform="translate(-801.599 -462.974)" fill="#fff" opacity="0.5"/><path d="M1143.4,425.015c2.388-10.863,11.705-18.963,22.849-18.963a22.155,22.155,0,0,1,5.9.8c5.478-12.267,17.418-20.742,31.23-20.742a32.437,32.437,0,0,1,10.254,1.639c7.445-12.829,20.976-21.444,36.427-21.444,18.4,0,34.039,12.174,39.986,29.17a28.231,28.231,0,0,1,14.187-3.839c16.107,0,29.17,13.625,29.17,30.434q0,1.475-.141,2.95Z" transform="translate(-667.643 -354.969)" fill="#fff" opacity="0.5"/><path d="M1345.966,791c-2.388,4.167-3.652,8.943-6.227,12.97-2.95,4.635-7.445,7.96-11.8,11.144-19.525,14.281-39.705,28.889-63.022,34.274-5.853,1.358-12.033,2.2-16.949,5.759-10.16,7.4-9.177,26.127,1.686,32.354,12.408,7.117,31.136-1.217,40.267,10.067,3.7,4.589,4.448,11.19,8.053,15.826,4.87,6.227,13.438,7.3,21.117,7.819,5.244.375,10.535.656,15.779.936-23.458-54.828,31.745-69.156,70.42-111.53-1.124-.14-2.2-.328-3.324-.515-2.06-.375-4.261-.843-5.853-2.294s-2.248-4.214-.89-5.853c7.679-3.418,15.451-6.836,23.551-8.615,1.92-2.9,3.7-5.946,5.431-9.083A166.976,166.976,0,0,0,1436.94,767.5c-17.137.843-34.227,2.247-51.27,4.4C1370.594,773.727,1353.691,777.473,1345.966,791Z" transform="translate(-719.489 -568.32)" fill="#fff" opacity="0.4"/><g transform="translate(0 417.582)"><g transform="translate(60.601 7.185)"><path d="M339.121,1576.068s118.225-48.461,94.3-82.968c0,0-.375-12.361-44.855,6.227,0,0-17.933-3.7-8.475-20.6,9.458-16.856,49.725-28.093,42.936-51.083s-30.949-1.92-45.043-3.231c-14.14-1.311,32.167-63.771,21.257-79.363-10.956-15.592-31.324,7.866-41.812,6.087s11.986-92.145-37.973-100.9-20.976,45.932-12.361,74.587-25.846-3.886-44.293,16.294,65.551,42.514,45.23,60.822c-20.368,18.261-33.29-5.853-47.477,8.381-22.9,22.99,64.989,37.692,51.925,55.016-10.441,13.813-30.481-10.3-40.314-.609C262.334,1474.465,282.139,1540.015,339.121,1576.068Z" transform="translate(-256.728 -1249.297)" fill="#07085b"/><path d="M436.606,1495.63c-.187-.375-.375-.7-.562-1.077-3.418,2.809-7.351,5.759-11.706,8.662-15.966,10.722-41.391,23.036-71.684,21.3a382.99,382.99,0,0,0,1.873-50.287c26.969-29.685,50.9-41.3,66.253-45.839,1.311-.375,2.622-.749,3.839-1.03-.14-.375-.234-.749-.375-1.124-1.217.281-2.482.656-3.746,1.03-15.358,4.495-39.19,16.013-66.019,45.23v-.234a597.046,597.046,0,0,0-4.823-59.51,272.088,272.088,0,0,1,18.073-33.337c7.632-11.986,18.495-26.595,31.09-36.755-.328-.281-.609-.562-.936-.8-12.689,10.207-23.6,24.909-31.23,36.9a283.654,283.654,0,0,0-17.324,31.652q-3.16-24.09-8.147-50.053a1091.709,1091.709,0,0,0-27.719-111.015c-.421,0-.89-.047-1.311-.047a1095.041,1095.041,0,0,1,27.812,111.3c1.545,8.147,3.09,16.715,4.542,25.565a296.7,296.7,0,0,0-29.545-20.7,267.282,267.282,0,0,0-50.333-24.488l-.14.141c-.234.281-.468.562-.7.8,19.852,6.93,37.738,16.622,50.474,24.488a293.619,293.619,0,0,1,30.528,21.491c3.137,19.665,5.759,40.735,7.257,62.039-23.411-17.09-68.781-31.324-91.443-37.738-.234.328-.468.7-.7,1.03,22.755,6.415,69.2,20.976,92.239,38.3,2.013,30.341,1.639,61.1-3,89.008-23.177-8.568-42.7-31.417-55.063-49.163a279.058,279.058,0,0,1-17.23-28.468,6,6,0,0,0-1.124.515,282.163,282.163,0,0,0,17.324,28.608c12.5,17.98,32.307,41.156,55.905,49.725a203.985,203.985,0,0,1-8.709,33.993,4.956,4.956,0,0,1,.515.328,6.388,6.388,0,0,0,.749-.328q7.8-21.842,10.956-50.053c1.966.094,3.933.187,5.946.187a108.339,108.339,0,0,0,34.6-5.759,135.2,135.2,0,0,0,31.979-15.966C429.348,1501.3,433.188,1498.392,436.606,1495.63Z" transform="translate(-258.415 -1249.298)" fill="#fff" opacity="0.1"/></g><path d="M1508.26,1636.952s-3.839-73.557,68.173-135.081l4.308,26.782,4.4-32.26s43.451-34.086,80.44-50.193c0,0-28.374,83.718-40.548,100.011l-25.611,12.829,25.284,4.027s-14.655,46.962-51.551,74.306S1508.26,1636.952,1508.26,1636.952Z" transform="translate(-861.65 -1346.822)" fill="#feb546"/><path d="M1599.724,1234.209c-27.625-3.886-19.525,37.5-16.856,48.554a176.025,176.025,0,0,0-22.662,16.294c2.294-13.625,12.782-22.006,11.565-31-1.358-10.067-9.5-19.665-20.368-4.589-8.615,11.939,1.686,30.528,6.321,37.738a148.672,148.672,0,0,0-23.832,26.735c.328-16.06,11.331-27.157,8.8-37.223-2.763-11-12.829-20.6-22.8-2.294-8.287,15.123,6.836,35.444,12.314,42.046a79.4,79.4,0,0,0-6.789,12.033,281.334,281.334,0,0,0-10.675,27.531c-.047-14.187,7.351-25.518,3.886-34.367-4.167-10.582-15.311-18.729-22.662,1.077-5.806,15.639,9.973,32.916,16.809,39.424a270.38,270.38,0,0,0-10.441,53.892c-4.542-12.6-2.482-33.337-10.394-43.544-5.244-6.7-10.91-6.508-14.8-5.15a10.807,10.807,0,0,0-6.789,7.351c-5.853,19.806,22.849,39.1,31.7,44.528a270.785,270.785,0,0,0,1.217,54.688c-2.388-6.461-5.993-16.294-7.679-21.444-2.622-8.147-10.114-17.98-17.652-20.18a6.839,6.839,0,0,0-.937-.234c-5.759-1.264-11.1,2.341-12.782,8.053-6.649,22.334,31.511,36.755,39.8,39.611,0,.094.047.234.047.328,5.759,38.815,17.746,62.975,18.26,63.959l3.418-1.686c-.141-.234-11.518-23.224-17.371-59.464,31.324-17.324,31.652-41.625,23.879-47.431-8.006-6.04-22.1-3.7-21.585,13.532.281,9.973-1.639,20.367-3.278,27.344a268.3,268.3,0,0,1-1.592-55.812c47.805-6.6,38.862-37.738,27.11-41.063-11.893-3.371-17.23,3.793-19.431,17.886a57.477,57.477,0,0,1-7.445,20.414,269.318,269.318,0,0,1,10.067-52.956c8.006,4.308,29.076,13.813,40.22,1.826,13.953-15.03,2.763-23.036-7.819-23.13-9.739-.094-17,14.328-31.558,18.635a275.027,275.027,0,0,1,11.94-31.6c.094-.187,4.167-9.458,14.234-21.866,7.585,5.338,27.391,17.324,39.986,7.07,15.779-12.876,5.572-22.287-5.057-23.786-9.458-1.358-18.214,11.05-32.541,13.859a162.153,162.153,0,0,1,38.956-33.056c7.866,5.478,27.2,16.809,39.518,6.742,15.779-12.876,5.572-22.287-5.057-23.786-9.6-1.358-18.448,11.378-33.15,13.953l-.234-.375c3.746-4.073,11.705-12.689,15.732-16.622,5.385-5.2,9.552-15.4,7.257-22.99A14.04,14.04,0,0,0,1599.724,1234.209Z" transform="translate(-837.839 -1233.952)" fill="#07085b"/><path d="M296.48,1698.282s9.411-75.1-59.792-142.853l-6.368,27.11-2.107-33.337s-41.952-37.785-78.614-56.7c0,0,22.8,87.6,34.039,105.115l25.284,14.8-26.22,2.435s11.518,49.069,47.29,79.5C265.765,1724.877,296.48,1698.282,296.48,1698.282Z" transform="translate(-139.159 -1371.443)" fill="#ff5b7e"/><g transform="translate(657.004 180.875)"><path d="M1715.031,1628.05c-4.027,25.1-13.485,45-26.08,60.728-11.05-2.809-24.254-5.853-24.254-5.853l14.983,16.2c-54.5,54.313-149.081,49.444-149.081,49.444,7.913-55.3,29.357-87.651,54.969-106,6.836,4.261,16.9,10.722,16.9,10.722l-8.381-16.247a121.566,121.566,0,0,1,41.11-14.608c4.308,8.475,9.411,17.98,9.411,17.98l3.886-19.618A184.752,184.752,0,0,1,1715.031,1628.05Z" transform="translate(-1530.553 -1620.257)" fill="#07085b"/><path d="M1585.469,1642.582c6.836,4.261,16.9,10.722,16.9,10.722l-8.381-16.247a121.565,121.565,0,0,1,41.11-14.608c4.307,8.475,9.411,17.98,9.411,17.98l3.886-19.618a185.51,185.51,0,0,1,66.581,7.3c-57.778,69.015-184.478,120.52-184.478,120.52C1538.413,1693.29,1559.857,1660.936,1585.469,1642.582Z" transform="translate(-1530.5 -1620.275)" fill="#55769f"/></g><g transform="translate(692.917 273.054)"><path d="M1759.137,1841.416a112.044,112.044,0,0,0-40.22-20.134c-4.823,4.214-10.675,9.13-10.675,9.13l1.217-11.237c-52.909-9.645-102.259,17.933-102.259,17.933,28,22.568,53.517,31.277,75.336,32.588,1.873-3.746,4.589-9.318,4.589-9.318l2.435,9.5a99.039,99.039,0,0,0,28.608-4.495c-1.311-4.916-2.575-10.535-2.575-10.535l10.535,7.726C1747.057,1854.1,1759.137,1841.416,1759.137,1841.416Z" transform="translate(-1607.2 -1817.129)" fill="#ff5b7e"/><path d="M1682.59,1888.1c1.873-3.746,4.589-9.318,4.589-9.318l2.435,9.5a99.043,99.043,0,0,0,28.608-4.495c-1.311-4.916-2.575-10.535-2.575-10.535l10.535,7.726c20.976-8.428,33.056-21.117,33.056-21.117-61.009-15.311-151.937-4.308-151.937-4.308C1635.253,1878.075,1660.771,1886.784,1682.59,1888.1Z" transform="translate(-1607.253 -1835.528)" fill="#e03268"/></g><path d="M145.9,1866.669s4.4-38.909,47.337-42.655,47.337,23.317,111.2,11.846,96.078-57.029,196.652-50.24,85.4,43.029,186.07,46.588,116.025-26.408,169.448-16.06c53.424,10.3,75.43,48.507,75.43,48.507l-17.605,4.167Z" transform="translate(-137.191 -1526.954)" fill="#02ccc0"/><rect width="794.848" height="8.334" transform="translate(0 339.106)" fill="#07085b"/></g><g transform="translate(330.094)"><path d="M886.075,1912.4c-.749,8.943,2.528,22.9-3.933,21.351-46.447-.89-64.614,5.806-20.227-21.351C861.868,1912.4,872.028,1919.376,886.075,1912.4Z" transform="translate(-834.524 -1177.156)" fill="#07085b"/><path d="M955.483,1162c-9.037,1.171-1.92,3.933-11.1,5.1-.656,6.976-1.686,39.471-1.358,53.143.047.983.094,1.218.187,1.358.7,1.639,2.9-5.712,6.087-11.705.515-.421.562.281.89,1.686.8,4.4,1.451,14.983,2.388,16.013,1.4,1.451,3-20.04,4.073-17.23,1.311,9.786,4.12,30.341,5.431,5.759,1.686-24.769,5.057,25.284,6.883,9.692,1.732-6.415-1.4-29.685,2.247-27.484C1008.064,1223.1,956.841,1172.16,955.483,1162Z" transform="translate(-891.15 -778.108)" fill="#ffc0bb"/><path d="M1519.665,1870.1c3.371,8.334,12.5,19.338,6.04,20.882-41.906,19.946-55.156,34.086-27.672-10.067C1498.033,1880.916,1510.254,1882.6,1519.665,1870.1Z" transform="translate(-1178.661 -1154.662)" fill="#07085b"/><path d="M924.028,1186.737c-59.464,190.518-47.2,163.362-41.484,339.505,0,0,16.762,8.709,26.08,0,29.076-203.956,18.495-170.9,91.3-312.63l-9.318-30.013Z" transform="translate(-856.323 -789.594)" fill="#e03268"/><path d="M1028.7,1151.3c112.372,258.691,69.718,174.692,226.9,348.261,0,0,15.966,1.92,22.147-11.705,0,0-98.326-154.559-107.035-169.448s-22.381-158.773-22.381-158.773Z" transform="translate(-936.742 -772.418)" fill="#ff5b7e"/><path d="M1045.656,628.352S995.51,623.9,982.68,648.907c-12.782,25,6.227,242.4,6.227,242.4l33.946-2.482C1049.87,638.747,1050.9,655.977,1045.656,628.352Z" transform="translate(-909.919 -494.161)" fill="#07085b"/><path d="M1285.309,758.666,1200,654.3l23.177,46.026,56.748,66.628Z" transform="translate(-1027.836 -508.122)" fill="#4f2305"/><path d="M942.246,690.9s-18.214,10.254-13.672,116.633L931.9,927.959a156.5,156.5,0,0,0,23.692,1.077C952.219,879.264,944.962,742.4,942.246,690.9Z" transform="translate(-883.11 -527.585)" fill="#f4a640"/><path d="M976.527,654.3s-12.314.8-19.9,15.077S957,856.43,961.4,907.747c0,0,11.05,6.93,21.4,5.525C982.8,913.272,961.544,693.583,976.527,654.3Z" transform="translate(-896.742 -508.122)" fill="#feb546"/><path d="M1000.458,560.5,977,578.433l15.826,34.133s26.642,5.01,32.682-17.886Z" transform="translate(-909.249 -458.241)" fill="#ffc0bb"/><path d="M984.438,594.58,976.9,578.333l23.458-17.933,8.662,11.846C1007.1,580.3,1001.294,590.928,984.438,594.58Z" transform="translate(-909.195 -458.188)" fill="#f99893"/><path d="M1093.643,622.021c-68.781-18.729-61.992,40.922-59.6,100.527,3.418,65.316,10.956,167.763,10.956,167.856,0,0,75.336,2.482,110.125-12.829C1153.856,866.29,1166.5,643.465,1093.643,622.021Z" transform="translate(-938.85 -489.093)" fill="#feb546"/><path d="M954.838,671.9s-29.123,61.2,65.457,197.963l-8.943,9.364s-76.413-109.235-69.811-184.572C941.962,689.458,943.648,675.131,954.838,671.9Z" transform="translate(-890.177 -517.482)" fill="#4f2305"/><path d="M881.412,521.705c4.963,11.752-8.007,16.9-13.391,6.461C863.011,516.461,876.028,511.264,881.412,521.705Z" transform="translate(-850.697 -434.617)" fill="#f99893"/><path d="M892.971,499.974c-42.748-82.079,61.711-103.383,69.109-39.752,20.742-8.849,14.328,29.17-2.341,19.806C957.538,518,912.261,529,892.971,499.974Z" transform="translate(-859.118 -385.166)" fill="#ffc0bb"/><path d="M945.481,508.1c1.5,10.863-9.5,22.1,5.572,21.117C937.381,525.845,951.662,522.755,945.481,508.1Z" transform="translate(-891.168 -430.376)" fill="#f99893"/><path d="M967.2,496.725c6.555-2.2,12.455-2.013,19.244,2.247C983.447,492.37,972.491,489.983,967.2,496.725Z" transform="translate(-904.037 -422.185)" fill="#07085b"/><path d="M913.548,502.173A11.7,11.7,0,0,0,895.1,508.12,21.307,21.307,0,0,1,913.548,502.173Z" transform="translate(-865.696 -425.901)" fill="#07085b"/><g transform="translate(35.491 86.527)"><path d="M913.812,531.769a13.025,13.025,0,0,1-5.712-1.4l.328-.609c.328.187,8.241,4.308,12.361-2.856l.609.328A8.3,8.3,0,0,1,913.812,531.769Z" transform="translate(-908.1 -526.9)" fill="#333"/></g><g transform="translate(63.21 81.938)"><path d="M976.1,521.361a13.882,13.882,0,0,0,4.448-3.886l-.562-.375c-.234.328-5.338,7.632-12.314,3.184l-.375.609A8.371,8.371,0,0,0,976.1,521.361Z" transform="translate(-967.3 -517.1)" fill="#333"/></g><path d="M953.554,581.716c-5.712-19.2,34.133-8.662,7.819-3.7C957.581,579.422,956.176,583.355,953.554,581.716Z" transform="translate(-896.478 -463.631)" fill="#f99893"/><g transform="translate(115.886 245.353)"><path d="M1302.669,1002.928c-151.328,115.463-103.57,117.663-189.769,15.545L1254.021,906.1C1303.793,970.714,1324.394,981.811,1302.669,1002.928Z" transform="translate(-1097.404 -887.377)" fill="#4f2305"/><path d="M1249.2,905.344c-.047,0-117.008,93.175-134.613,107.175-10.114,7.538-10.348,4.167-27.25-16.95-18.448-21.21-11.659-9.692,120.894-118.881,13.953-10.535,16.013-17.792,29.31,1.264C1247.425,891.344,1257.21,897.478,1249.2,905.344Z" transform="translate(-1079.804 -866.113)" fill="#632d07"/><rect width="65.785" height="12.361" transform="matrix(0.782, -0.623, 0.623, 0.782, 73.812, 107.411)" fill="#feb546"/></g><path d="M1130.938,1205.763c9.271-1.92,11.565,4.073,20.929,2.107l-2.2,14.421c6.976,19.1,16.107,41.156,12.548,37.738-5.338-4.167-12.033-16.949-8.522-3.418,6.415,25.752-3,2.2-7.351-3.418,2.06,14.889,6.461,31.932-5.993,2.341-4.963-7.491,4.12,23.692.328,19.478-14.281-27.344-6.7-36.334-19.01-21.023C1106.123,1272.063,1132.2,1216.392,1130.938,1205.763Z" transform="translate(-983.543 -801.176)" fill="#ffc0bb"/><path d="M1124.136,625.12s-31.7-13.3-33.01,59.557c-1.264,72.855,16.481,225.4,16.481,225.4s20.789,4.729,33.2,0C1140.852,910.125,1180.276,634.11,1124.136,625.12Z" transform="translate(-969.905 -492.099)" fill="#feb546"/><path d="M953.522,377.5a12.539,12.539,0,0,0,4.073-3.09c-4.448,2.154-9.6,3.558-15.358,1.92-.89-4.869-5.759-25.892-21.632-23.177,0,0-28.983-24.3-50.755,3.278a16.852,16.852,0,0,1-8.194-14.327c-1.545,5.665.843,12.221,6.274,16.107-3.558-.843-25.752-5.1-25.471,19.712-2.9,1.311-20.18,14.14,9.458,31.09-5.993.8-13.3-.8-19.618-4.027a21.091,21.091,0,0,0,21.585,6.18c-4.308,2.622-9.786,4.027-15.592,4.589a21.07,21.07,0,0,0,20.648-4.963c5.15.562,11.846-.328,18.776-5.572,0,0,8.615,7.632,25.19-2.763,0,0,4.87,6.415,22.053-2.154l4.308,23.177s6.18-9.6,13.906-7.491c0,0,6.789-24.722,1.592-35.444a13.2,13.2,0,0,0,9.037.562,23.208,23.208,0,0,1-9.692-2.856A14.267,14.267,0,0,0,953.522,377.5Z" transform="translate(-832.3 -342.1)" fill="#07085b"/><path d="M1123.25,625.314c-47.524-11.144-28.8,117.9-28.936,141.074,3.137,45.277,8.007,97.155,12.829,143.837l-.328-.375c10.348,2.06,22.053,3.839,33.1.421-10.348,3.605-22.24,2.435-33.571.328C1082.561,704.771,1080.08,615.107,1123.25,625.314Z" transform="translate(-969.018 -492.293)" fill="#daeef7"/></g></g></g></svg>